<?xml version="1.0" standalone="no"?> <!DOCTYPE svg PUBLIC "-//W3C//DTD SVG 1.0//EN" "http://www.w3.org/TR/2001/REC-SVG-20010904/DTD/svg10.dtd" > <svg xmlns="http://www.w3.org/2000/svg" width="100%" height="100%">
<defs >
<font id="Sprint" horiz-adv-x="492" ><font-face
    font-family="Sprint Sans"
    units-per-em="1000"
    panose-1="2 11 5 3 3 2 2 6 2 3"
    ascent="823"
    descent="-177"
    alphabetic="0" />
<missing-glyph horiz-adv-x="485" />
<glyph unicode=" " glyph-name="space" horiz-adv-x="241" />
<glyph unicode="!" glyph-name="exclam" horiz-adv-x="250" d="M103 715H149L143 171H109L103 715ZM125 -5Q111 -5 101 5T91 29Q91 43 101 53T125 63Q139 63 149 53T159 29Q159 15 149 5T125 -5Z" />
<glyph unicode="&quot;" glyph-name="quotedbl" horiz-adv-x="263" d="M168 715H214L207 519H175L168 715ZM49 715H95L88 519H56L49 715Z" />
<glyph unicode="#" glyph-name="numbersign" horiz-adv-x="472" d="M158 335H287L311 502H182L158 335ZM282 300H152L123 99H88L117 300H24V335H122L146 502H52V537H151L178 715H213L187 537H316L343 715H378L352 537H448V502H347L323 335H420V300H317L288 99H253L282
300Z" />
<glyph unicode="$" glyph-name="dollar" horiz-adv-x="583" d="M102 541Q102 512 110 489T138 447T191 417T274 395V686Q194 682 148 645T102 541ZM492 190Q492 229 482 255T450 301T393 331T307 352V29Q394 32 443 77T492 190ZM274 -7Q215 -4 172 13T101 58T56
122T35 200H77Q82 167 94 138T130 85T188 47T274 29V357Q164 375 113 417T61 538Q61 578 76 611T120 669T187 706T274 722V813H307V721Q396 716 448 672T513 550H472Q460 611 420 646T307 686V390Q365 381 408 368T479 332T520 275T534 192Q534 151 519 116T474
53T402 10T307 -7V-135H274V-7Z" />
<glyph unicode="%" glyph-name="percent" horiz-adv-x="744" d="M188 403Q158 403 131 414T82 445T48 495T35 560Q35 596 47 625T81 676T130 708T188 720Q219 720 247 709T296 676T329 626T342 562Q342 526 330 497T296 446T246 414T188 403ZM582 715H623L160
0H119L582 715ZM188 437Q236 437 269 469T303 562Q303 620 270 653T188 686Q140 686 108 653T75 560Q75 501 108 469T188 437ZM554 -6Q524 -6 496 5T447 36T413 85T400 150Q400 186 412 215T446 266T495 298T554 310Q585 310 613 299T662 266T695 216T708 152Q708
116 695 87T661 37T612 5T554 -6ZM554 27Q578 27 598 35T634 60T659 99T668 152Q668 210 635 243T554 277Q530 277 510 269T473 244T448 204T439 150Q439 121 448 98T473 59T510 35T554 27Z" />
<glyph unicode="&amp;" glyph-name="ampersand" horiz-adv-x="639" d="M182 566Q182 528 202 494T257 418Q322 447 361 484T401 576Q401 624 373 654T296 685Q247 685 215 653T182 566ZM250 29Q315 29 361 62T440 142L238 378Q208 363 181 345T131 304T96 253T83
188Q83 118 126 74T250 29ZM488 147L614 0H562L463 114Q446 91 425 69T378 30T320 3T249 -7Q201 -7 162 7T96 46T55 107T40 185Q40 227 55 260T94 319T151 365T217 403Q180 448 160 485T140 567Q140 601 152 629T186 677T236 708T297 719Q330 719 357 708T402 678T431
632T442 576Q442 544 430 518T395 469T343 428T277 393L463 177L563 359H604L488 147Z" />
<glyph unicode="&apos;" glyph-name="quotesingle" horiz-adv-x="144" d="M49 715H95L88 519H56L49 715Z" />
<glyph unicode="(" glyph-name="parenleft" horiz-adv-x="275" d="M213 -148Q179 -108 149 -59T97 47T61 171T48 312Q48 387 61 453T96 576T149 683T213 773H256Q222 731 193 683T141 577T105 454T92 312Q92 235 105 170T140 48T192 -57T256 -148H213Z" />
<glyph unicode=")" glyph-name="parenright" horiz-adv-x="275" d="M20 -148Q54 -106 83 -58T135 47T171 170T184 313Q184 389 171 454T136 577T84 682T20 773H62Q96 732 126 684T179 578T214 454T227 313Q227 238 214 172T179 49T127 -58T62 -148H20Z" />
<glyph unicode="*" glyph-name="asterisk" horiz-adv-x="400" d="M82 451L176 570L40 614L52 649L184 597L181 743H220L217 597L348 649L360 614L225 570L317 451L287 428L199 552L112 428L82 451Z" />
<glyph unicode="+" glyph-name="plus" d="M227 324H29V360H227V573H265V360H462V324H265V111H227V324Z" />
<glyph unicode="," glyph-name="comma" horiz-adv-x="182" d="M51 -49Q91 -40 91 0Q57 0 57 32Q57 45 66 54T90 63Q105 63 115 53T125 22V11Q125 -32 104 -52T51 -75V-49Z" />
<glyph unicode="-" glyph-name="hyphen" horiz-adv-x="317" d="M55 297H262V259H55V297Z" />
<glyph unicode="." glyph-name="period" horiz-adv-x="193" d="M96 -5Q82 -5 72 5T62 29Q62 43 72 53T96 63Q111 63 120 53T130 29Q130 15 121 5T96 -5Z" />
<glyph unicode="/" glyph-name="slash" horiz-adv-x="371" d="M299 776H339L48 -148H8L299 776Z" />
<glyph unicode="0" glyph-name="zero" horiz-adv-x="636" d="M319 -7Q256 -7 206 15T120 80T67 183T48 323V391Q48 469 66 530T118 634T203 699T317 722Q380 722 430 700T515 635T569 531T588 394V326Q588 169 519 81T319 -7ZM319 30Q430 30 487 105T544 326V394Q544
461 529 515T484 607T412 665T317 686Q210 686 151 610T92 391V323Q92 177 152 104T319 30Z" />
<glyph unicode="1" glyph-name="one" horiz-adv-x="340" d="M182 667L17 554V595L190 715H225V0H182V667Z" />
<glyph unicode="2" glyph-name="two" horiz-adv-x="516" d="M12 10L301 306Q361 367 388 420T416 531Q416 608 372 647T255 686Q183 686 136 644T77 512H36Q40 562 58 601T104 667T171 708T255 722Q300 722 337 710T402 673T445 612T460 530Q460 464 427 405T327
280L83 37H473V0H12V10Z" />
<glyph unicode="3" glyph-name="three" horiz-adv-x="537" d="M263 -7Q208 -7 166 9T93 54T47 119T28 198H68Q71 164 84 134T122 80T181 44T264 30Q352 30 400 73T449 197Q449 266 408 311T281 356H229V393H277Q317 393 345 404T391 435T417 481T425 535Q425 567
415 594T386 642T338 673T272 685Q195 685 149 641T95 531H56Q59 571 75 606T120 666T187 707T272 722Q318 722 355 708T417 668T455 609T469 536Q469 477 437 435T350 377Q414 363 454 318T494 197Q494 149 477 111T430 47T357 7T263 -7Z" />
<glyph unicode="4" glyph-name="four" horiz-adv-x="571" d="M396 165H23V178L376 715H440V201H539V165H440V0H396V165ZM396 201V684L83 201H396Z" />
<glyph unicode="5" glyph-name="five" horiz-adv-x="536" d="M256 -7Q203 -7 162 8T93 49T48 109T29 180H71Q75 150 87 123T122 75T178 42T255 30Q346 30 396 83T447 231Q447 275 433 311T395 372T338 412T267 426Q201 426 158 403T86 345H69V715H455V677H107V399Q130
422 172 442T274 462Q320 462 359 446T428 400T475 327T492 231Q492 175 475 131T426 57T351 10T256 -7Z" />
<glyph unicode="6" glyph-name="six" horiz-adv-x="579" d="M299 -7Q233 -7 186 15T109 77T66 170T52 287V348Q52 447 72 518T127 634T211 700T318 722Q396 722 450 684T517 563H472Q461 625 422 654T316 683Q268 683 229 666T160 610T115 510T98 361V323Q110
355 132 379T181 419T240 444T303 452Q359 452 402 435T476 387T521 315T537 225Q537 174 520 131T472 58T397 10T299 -7ZM299 30Q342 30 377 44T438 83T476 144T490 223Q490 266 478 301T441 361T381 401T297 415Q259 415 224 403T163 367T120 309T104 232Q104
192 116 156T152 91T212 47T299 30Z" />
<glyph unicode="7" glyph-name="seven" horiz-adv-x="481" d="M415 678H19V715H471V708L188 0H143L415 678Z" />
<glyph unicode="8" glyph-name="eight" horiz-adv-x="558" d="M280 -7Q233 -7 190 6T114 44T62 108T42 198Q42 236 54 267T89 322T142 362T208 386Q180 393 156 407T113 441T84 487T73 545Q73 586 90 619T136 675T202 710T280 722Q320 722 357 710T423 674T468
619T485 547Q485 482 448 442T354 387Q426 370 471 323T516 200Q516 149 497 110T446 45T371 6T280 -7ZM283 402Q316 402 345 411T395 438T428 484T441 547Q441 577 429 603T396 647T345 676T280 687Q245 687 215 677T164 649T130 604T117 545Q117 510 131 483T169
438T222 411T283 402ZM280 30Q322 30 357 40T417 72T457 126T472 201Q472 241 457 272T416 324T356 356T282 367Q243 367 208 356T146 324T103 271T87 199Q87 157 102 125T143 72T205 41T280 30Z" />
<glyph unicode="9" glyph-name="nine" horiz-adv-x="577" d="M279 300Q318 300 353 312T416 347T459 403T475 477Q475 518 463 556T427 622T366 668T280 685Q236 685 201 671T141 632T103 571T89 492Q89 450 101 415T137 354T196 314T279 300ZM271 -7Q186 -7 128
35T54 160H100Q114 98 157 65T271 32Q320 32 358 47T424 97T466 191T481 337V386Q469 355 447 332T397 294T337 271T273 263Q218 263 175 280T102 327T57 399T41 491Q41 543 58 586T106 659T182 706T280 723Q343 723 389 702T466 642T511 550T526 434V341Q526 245
509 179T458 72T378 12T271 -7Z" />
<glyph unicode=":" glyph-name="colon" horiz-adv-x="200" d="M100 -5Q86 -5 76 5T66 29Q66 43 76 53T100 63Q115 63 124 53T134 29Q134 15 125 5T100 -5ZM100 330Q86 330 76 340T66 364Q66 378 76 388T100 398Q115 398 124 388T134 364Q134 350 125 340T100 330Z" />
<glyph unicode=";" glyph-name="semicolon" horiz-adv-x="190" d="M54 -49Q94 -40 94 0Q60 0 60 32Q60 45 69 54T93 63Q108 63 118 53T128 22V11Q128 -32 107 -52T54 -75V-49ZM94 330Q80 330 70 340T60 364Q60 378 70 388T94 398Q109 398 118 388T128 364Q128
350 119 340T94 330Z" />
<glyph unicode="&lt;" glyph-name="less" horiz-adv-x="478" d="M42 317V327L426 536V495L104 322L426 149V108L42 317Z" />
<glyph unicode="=" glyph-name="equal" horiz-adv-x="469" d="M32 418H436V382H32V418ZM32 256H436V220H32V256Z" />
<glyph unicode="&gt;" glyph-name="greater" horiz-adv-x="478" d="M51 149L374 322L51 495V536L435 327V317L51 108V149Z" />
<glyph unicode="?" glyph-name="question" horiz-adv-x="457" d="M183 230Q183 260 190 283T211 327T243 367T283 408Q301 427 317 444T346 479T366 517T373 563Q373 617 339 651T233 686Q164 686 120 645T70 530H30Q33 574 48 609T91 670T154 708T234 722Q280
722 314 710T370 676T404 626T416 564Q416 533 408 509T385 465T352 426T312 386Q292 366 276 348T247 312T229 274T222 227V171H183V230ZM202 -5Q188 -5 178 5T168 29Q168 43 178 53T202 63Q216 63 226 53T236 29Q236 15 226 5T202 -5Z" />
<glyph unicode="@" glyph-name="at" horiz-adv-x="891" d="M453 -147Q352 -147 275 -113T145 -23T65 108T38 262Q38 353 73 431T166 566T302 655T463 688Q553 688 625 660T749 583T827 466T855 322Q855 254 840 207T800 129T745 86T684 72Q630 72 602 99T571 178Q563
159 548 139T513 102T468 75T414 64Q379 64 350 76T300 110T268 165T256 238Q256 288 272 330T314 404T376 452T449 470Q504 470 539 440T583 367L593 461H635L608 226Q600 170 618 137T684 103Q711 103 735 116T778 155T807 223T818 321Q818 393 794 454T725 559T613
629T463 654Q384 654 314 625T192 543T109 420T78 263Q78 189 102 122T173 2T290 -82T453 -113Q559 -113 628 -80T739 0H778Q760 -30 730 -56T658 -103T565 -135T453 -147ZM420 97Q451 97 479 112T528 154T561 216T574 291Q574 360 541 397T451 435Q421 435 394
421T345 381T312 319T299 238Q299 172 332 135T420 97Z" />
<glyph unicode="A" glyph-name="A" horiz-adv-x="631" d="M160 260H467L313 679L160 260ZM286 715H344L606 0H563L480 225H148L66 0H24L286 715Z" />
<glyph unicode="B" glyph-name="B" horiz-adv-x="583" d="M85 715H283Q330 715 369 705T436 672T479 616T495 535V531Q495 468 462 429T368 375Q531 348 531 199V195Q531 98 472 49T313 0H85V715ZM285 390Q368 390 410 426T452 532V536Q452 609 408 644T282 679H129V390H285ZM312
36Q400 36 444 77T488 196V200Q488 277 438 315T291 354H129V36H312Z" />
<glyph unicode="C" glyph-name="C" horiz-adv-x="712" d="M377 -7Q301 -7 240 19T136 92T70 206T46 353V361Q46 440 72 506T142 621T247 696T377 723Q432 723 481 709T568 667T631 598T666 504H622Q604 592 542 639T378 687Q316 687 264 663T173 597T113 494T91
362V354Q91 280 111 220T168 118T259 53T378 30Q479 30 547 81T633 227H674Q664 171 638 128T573 54T484 9T377 -7Z" />
<glyph unicode="D" glyph-name="D" horiz-adv-x="669" d="M85 715H269Q356 715 422 688T533 614T600 503T623 364V356Q623 282 602 217T536 104T425 28T267 0H85V715ZM265 37Q344 37 403 61T501 127T559 228T578 356V364Q578 431 560 488T502 588T404 654T264
678H129V37H265Z" />
<glyph unicode="E" glyph-name="E" horiz-adv-x="551" d="M85 715H493V678H129V386H425V350H129V37H511V0H85V715Z" />
<glyph unicode="F" glyph-name="F" horiz-adv-x="523" d="M85 715H487V678H129V383H412V346H129V0H85V715Z" />
<glyph unicode="G" glyph-name="G" horiz-adv-x="742" d="M388 -7Q308 -7 245 19T137 94T70 208T46 353V361Q46 440 72 506T143 621T251 696T386 723Q437 723 484 711T569 673T634 608T672 515H625Q615 560 593 592T540 644T470 675T387 685Q322 685 268 661T176
595T116 493T94 362V354Q94 281 113 222T170 120T263 55T388 32Q518 32 583 104T649 306H426V345H695V313Q695 234 673 175T611 75T514 14T388 -7Z" />
<glyph unicode="H" glyph-name="H" horiz-adv-x="697" d="M85 715H129V378H568V715H612V0H568V341H129V0H85V715Z" />
<glyph unicode="I" glyph-name="I" horiz-adv-x="225" d="M90 715H134V0H90V715Z" />
<glyph unicode="J" glyph-name="J" horiz-adv-x="378" d="M129 -6Q92 -6 67 0T28 15V52Q47 44 71 38T127 31Q189 31 225 64T261 177V715H305V175Q305 127 292 93T256 37T200 5T129 -6Z" />
<glyph unicode="K" glyph-name="K" horiz-adv-x="579" d="M132 0H85V715H132V0ZM490 715H543L189 367L561 0H503L134 363L490 715Z" />
<glyph unicode="L" glyph-name="L" horiz-adv-x="513" d="M85 715H129V37H484V0H85V715Z" />
<glyph unicode="M" glyph-name="M" horiz-adv-x="834" d="M85 715H149L413 80L681 715H743V0H700V661L419 0H404L127 661V0H85V715Z" />
<glyph unicode="N" glyph-name="N" horiz-adv-x="694" d="M85 715H146L566 59V715H609V0H556L128 668V0H85V715Z" />
<glyph unicode="O" glyph-name="O" horiz-adv-x="787" d="M395 -7Q320 -7 256 21T146 98T73 212T46 353V361Q46 437 72 503T145 617T255 694T393 722Q468 722 531 695T641 619T714 505T741 364V356Q741 280 715 214T642 99T532 22T395 -7ZM395 30Q461 30 516 55T611
123T673 226T695 356V364Q695 431 673 490T611 592T516 661T393 686Q326 686 271 661T175 593T113 490T91 361V353Q91 284 114 225T178 123T274 55T395 30Z" />
<glyph unicode="P" glyph-name="P" horiz-adv-x="547" d="M85 715H269Q321 715 365 705T442 671T492 610T510 518V514Q510 460 492 422T443 359T367 323T270 311H129V0H85V715ZM273 347Q363 347 414 386T466 514V518Q466 563 452 593T412 643T350 670T271 678H129V347H273Z"
/>
<glyph unicode="Q" glyph-name="Q" horiz-adv-x="787" d="M581 48Q541 22 494 8T395 -7Q320 -7 256 21T146 98T73 212T46 353V361Q46 437 72 503T145 617T255 694T393 722Q468 722 531 695T641 619T714 505T741 364V356Q741 268 706 194T611 70L698 -23L672 -49L581
48ZM395 30Q486 30 555 76L446 191L473 217L585 98Q637 142 666 208T695 356V364Q695 431 673 490T611 592T516 661T393 686Q326 686 271 661T175 593T113 490T91 361V353Q91 284 114 225T178 123T274 55T395 30Z" />
<glyph unicode="R" glyph-name="R" horiz-adv-x="583" d="M276 367Q366 367 418 403T470 522V526Q470 569 456 598T417 645T355 670T276 678H129V367H276ZM85 715H273Q326 715 370 705T446 672T496 613T514 526V522Q514 477 500 444T462 389T403 353T326 335L556
0H507L279 331H129V0H85V715Z" />
<glyph unicode="S" glyph-name="S" horiz-adv-x="577" d="M295 -7Q230 -7 183 9T105 53T56 119T32 200H75Q80 165 94 134T134 80T199 44T295 30Q340 30 376 42T436 75T474 126T488 190Q488 230 478 257T444 303T382 333T289 353Q170 370 116 413T61 538Q61 580
77 614T122 672T193 709T284 722Q382 722 439 677T508 550H467Q454 616 410 651T284 686Q198 686 151 649T103 541Q103 510 112 486T143 444T203 414T297 393Q357 384 401 370T474 333T517 276T531 192Q531 150 515 114T468 51T393 9T295 -7Z" />
<glyph unicode="T" glyph-name="T" horiz-adv-x="543" d="M250 678H22V715H520V678H294V0H250V678Z" />
<glyph unicode="U" glyph-name="U" horiz-adv-x="661" d="M329 -6Q209 -6 141 60T73 254V715H117V258Q117 142 171 87T329 32Q439 32 492 88T545 271V715H589V265Q589 138 525 66T329 -6Z" />
<glyph unicode="V" glyph-name="V" horiz-adv-x="615" d="M21 715H64L313 44L552 715H594L338 0H286L21 715Z" />
<glyph unicode="W" glyph-name="W" horiz-adv-x="901" d="M24 715H69L240 65L437 715H468L654 63L836 715H877L677 0H632L451 635L258 0H215L24 715Z" />
<glyph unicode="X" glyph-name="X" horiz-adv-x="626" d="M289 372L61 715H109L317 403L524 715H570L340 370L587 0H538L311 338L84 0H38L289 372Z" />
<glyph unicode="Y" glyph-name="Y" horiz-adv-x="555" d="M263 320L14 715H64L285 357L496 715H540L307 320V0H263V320Z" />
<glyph unicode="Z" glyph-name="Z" horiz-adv-x="568" d="M19 9L476 678H55V715H538V706L85 38H532V0H19V9Z" />
<glyph unicode="[" glyph-name="bracketleft" horiz-adv-x="319" d="M87 776H286V742H129V-114H286V-148H87V776Z" />
<glyph unicode="\" glyph-name="backslash" horiz-adv-x="371" d="M32 776H72L363 -148H323L32 776Z" />
<glyph unicode="]" glyph-name="bracketright" horiz-adv-x="319" d="M33 -114H190V742H33V776H232V-148H33V-114Z" />
<glyph unicode="^" glyph-name="asciicircum" horiz-adv-x="452" d="M206 715H246L413 427H370L226 676L81 427H39L206 715Z" />
<glyph unicode="_" glyph-name="underscore" horiz-adv-x="372" d="M-9 -113H381V-148H-9V-113Z" />
<glyph unicode="`" glyph-name="grave" horiz-adv-x="402" d="M100 749H151L221 602H188L100 749Z" />
<glyph unicode="a" glyph-name="a" horiz-adv-x="525" d="M225 27Q263 27 297 38T356 68T397 113T412 169V274H289Q246 274 208 269T142 248T98 208T82 143Q82 87 118 57T225 27ZM224 -8Q143 -8 92 30T40 144Q40 191 60 222T115 272T194 299T287 307H412V357Q412
438 377 474T267 511Q203 511 160 482T105 389H65Q70 430 88 460T134 509T196 537T268 546Q354 546 403 502T453 357V0H412V87Q386 46 341 19T224 -8Z" />
<glyph unicode="b" glyph-name="b" horiz-adv-x="611" d="M330 -8Q288 -8 254 4T193 36T148 81T118 134V0H78V746H118V401Q130 429 150 455T198 502T259 534T330 546Q381 546 425 527T501 473T553 388T572 275V267Q572 203 554 152T503 66T426 11T330 -8ZM330
27Q374 27 411 43T474 89T515 164T530 265V273Q530 331 514 375T471 450T407 495T330 511Q289 511 251 496T183 450T135 376T117 273V265Q117 208 134 164T180 89T247 43T330 27Z" />
<glyph unicode="c" glyph-name="c" horiz-adv-x="555" d="M293 -8Q239 -8 193 11T112 67T58 153T38 265V273Q38 334 58 384T113 471T194 526T293 546Q333 546 370 535T438 502T488 447T515 371H473Q468 406 452 432T412 476T357 502T293 511Q249 511 211 495T143
447T98 372T81 273V265Q81 209 97 165T142 90T209 43T293 27Q329 27 360 37T417 67T459 116T482 184H520Q514 141 495 106T445 45T377 6T293 -8Z" />
<glyph unicode="d" glyph-name="d" horiz-adv-x="611" d="M283 27Q326 27 364 42T431 88T477 163T494 265V273Q494 331 479 375T436 450T372 495T290 511Q246 511 208 495T141 449T97 374T81 272V264Q81 207 96 163T139 88T203 43T283 27ZM281 -8Q230 -8 186 10T108
63T57 148T38 262V270Q38 332 57 383T111 470T191 526T290 546Q331 546 364 535T421 504T464 461T493 409V746H533V0H493V135Q482 109 463 84T417 38T356 5T281 -8Z" />
<glyph unicode="e" glyph-name="e" horiz-adv-x="552" d="M290 -8Q232 -8 186 12T106 68T56 154T38 265V273Q38 333 56 383T106 470T184 526T283 546Q332 546 374 530T447 482T497 400T515 286V269H81Q83 154 136 91T290 28Q359 28 406 58T469 148H511Q492 72
434 32T290 -8ZM472 305Q470 357 456 395T417 459T358 497T283 510Q199 510 145 455T82 305H472Z" />
<glyph unicode="f" glyph-name="f" horiz-adv-x="322" d="M102 502H19V539H102V590Q102 632 113 662T144 711T191 740T250 750Q269 750 281 749T307 743V707Q283 715 250 715Q204 715 174 687T143 594V539H300V502H143V0H102V502Z" />
<glyph unicode="g" glyph-name="g" horiz-adv-x="611" d="M283 52Q326 52 364 67T431 112T477 182T494 277V285Q494 339 479 381T436 452T372 496T290 511Q246 511 208 496T141 451T97 379T81 284V276Q81 223 96 182T139 111T204 67T283 52ZM289 -183Q231 -183
189 -170T117 -135T72 -83T51 -22H92Q103 -77 150 -112T288 -147Q333 -147 370 -137T435 -103T477 -43T493 47V156Q482 130 463 106T417 62T356 30T282 18Q231 18 187 36T109 87T57 167T38 275V282Q38 340 57 388T111 472T191 526T290 546Q332 546 364 535T422
506T464 464T493 413V539H533V45Q533 -15 515 -58T464 -128T386 -169T289 -183Z" />
<glyph unicode="h" glyph-name="h" horiz-adv-x="579" d="M78 746H118V427Q127 451 145 472T188 510T244 536T313 546Q356 546 392 534T453 496T493 429T507 331V0H465V336Q465 428 424 469T307 510Q272 510 238 498T178 463T135 406T118 328V0H78V746Z" />
<glyph unicode="i" glyph-name="i" horiz-adv-x="200" d="M100 641Q86 641 77 650T68 673Q68 685 77 694T100 704Q113 704 121 695T130 673Q130 660 122 651T100 641ZM80 539H120V0H80V539Z" />
<glyph unicode="j" glyph-name="j" horiz-adv-x="200" d="M100 641Q86 641 77 650T68 673Q68 685 77 694T100 704Q113 704 121 695T130 673Q130 660 122 651T100 641ZM-1 -147Q46 -143 63 -120T80 -50V539H120V-46Q120 -113 93 -146T-1 -183V-147Z" />
<glyph unicode="k" glyph-name="k" horiz-adv-x="474" d="M118 0H78V746H118V0ZM396 539H446L171 286L463 0H411L120 285L396 539Z" />
<glyph unicode="l" glyph-name="l" horiz-adv-x="201" d="M80 746H121V0H80V746Z" />
<glyph unicode="m" glyph-name="m" horiz-adv-x="913" d="M78 539H118V430Q127 453 144 474T184 511T236 536T299 546Q362 546 406 518T467 420Q479 449 498 472T543 511T598 537T660 546Q700 546 733 535T790 499T827 434T840 337V0H799V341Q799 433 762 471T655
510Q623 510 592 499T535 464T495 408T479 329V0H438V341Q438 433 401 471T295 510Q262 510 231 499T174 464T134 408T118 329V0H78V539Z" />
<glyph unicode="n" glyph-name="n" horiz-adv-x="579" d="M78 539H118V427Q127 451 145 472T188 510T244 536T313 546Q356 546 392 534T453 496T493 429T507 331V0H465V336Q465 428 424 469T307 510Q272 510 238 498T178 463T135 406T118 328V0H78V539Z" />
<glyph unicode="o" glyph-name="o" horiz-adv-x="592" d="M295 -8Q241 -8 195 12T113 69T58 156T38 265V273Q38 334 58 384T114 470T196 526T297 546Q350 546 397 527T478 472T533 386T553 274V266Q553 205 533 155T478 68T396 12T295 -8ZM296 27Q341 27 380 43T448
91T494 166T511 266V273Q511 329 494 373T448 447T380 494T297 510Q252 510 213 494T144 447T98 372T81 273V265Q81 211 97 167T143 92T211 44T296 27Z" />
<glyph unicode="p" glyph-name="p" horiz-adv-x="611" d="M330 27Q374 27 411 43T474 89T515 164T530 265V273Q530 331 514 375T471 450T407 495T330 511Q289 511 251 496T183 450T135 376T117 273V265Q117 208 134 164T180 89T247 43T330 27ZM78 539H118V401Q130
429 150 455T198 502T259 534T330 546Q381 546 425 527T501 473T553 388T572 275V267Q572 203 554 152T503 66T426 11T330 -8Q288 -8 254 4T193 36T148 81T118 134V-177H78V539Z" />
<glyph unicode="q" glyph-name="q" horiz-adv-x="611" d="M493 135Q482 109 463 84T417 38T356 5T281 -8Q230 -8 186 10T108 63T57 148T38 262V270Q38 332 57 383T111 470T191 526T290 546Q331 546 364 535T421 504T464 461T493 409V539H533V-177H493V135ZM283
27Q326 27 364 42T431 88T477 163T494 265V273Q494 331 479 375T436 450T372 495T290 511Q246 511 208 495T141 449T97 374T81 272V264Q81 207 96 163T139 88T203 43T283 27Z" />
<glyph unicode="r" glyph-name="r" horiz-adv-x="335" d="M78 539H118V421Q128 446 144 468T182 506T234 533T302 545V507Q264 505 231 494T172 458T133 396T118 302V0H78V539Z" />
<glyph unicode="s" glyph-name="s" horiz-adv-x="460" d="M237 -9Q143 -9 91 37T33 160H73Q81 101 119 64T237 27Q309 27 346 58T383 141Q383 169 375 188T350 220T304 241T236 258Q188 267 153 278T96 306T63 347T52 406Q52 439 66 465T104 509T159 536T226 546Q262
546 292 538T347 513T387 469T409 404H369Q358 459 323 484T225 510Q164 510 127 482T89 407Q89 381 97 364T123 334T172 312T245 295Q288 287 321 277T376 251T410 209T422 144Q422 112 410 84T375 36T317 3T237 -9Z" />
<glyph unicode="t" glyph-name="t" horiz-adv-x="328" d="M225 -7Q165 -7 133 27T100 127V502H20V539H100V677H141V539H287V502H141V129Q141 76 164 52T226 28Q248 28 264 31T294 40V4Q282 -1 266 -4T225 -7Z" />
<glyph unicode="u" glyph-name="u" horiz-adv-x="575" d="M264 -8Q221 -8 186 3T126 39T86 103T72 199V539H113V199Q113 108 154 69T270 29Q304 29 337 40T397 74T440 130T456 209V539H496V0H456V109Q447 86 429 65T387 27T331 2T264 -8Z" />
<glyph unicode="v" glyph-name="v" horiz-adv-x="510" d="M19 539H63L257 40L448 539H490L284 0H228L19 539Z" />
<glyph unicode="w" glyph-name="w" horiz-adv-x="776" d="M23 539H67L218 50L373 539H408L557 50L710 539H753L582 0H533L390 470L241 0H192L23 539Z" />
<glyph unicode="x" glyph-name="x" horiz-adv-x="503" d="M225 279L36 539H84L250 311L413 539H458L272 281L478 0H429L248 250L69 0H24L225 279Z" />
<glyph unicode="y" glyph-name="y" horiz-adv-x="498" d="M233 44L19 539H62L254 91L436 539H479L182 -177H140L233 44Z" />
<glyph unicode="z" glyph-name="z" horiz-adv-x="468" d="M18 7L381 503H49V539H447V530L87 37H440V0H18V7Z" />
<glyph unicode="{" glyph-name="braceleft" horiz-adv-x="340" d="M307 -148Q257 -148 220 -138T159 -106T129 -46T132 46L156 165Q162 193 159 217T141 259T100 287T35 298V330Q74 330 100 340T140 368T158 410T156 463L132 582Q121 636 128 673T159 733T219
766T307 776V743Q267 743 238 736T191 710T168 662T172 583L196 460Q208 395 181 361T104 314Q154 302 181 268T196 168L172 45Q163 -3 168 -33T190 -82T237 -107T307 -115V-148V-148Z" />
<glyph unicode="|" glyph-name="bar" horiz-adv-x="221" d="M92 776H128V-148H92V776Z" />
<glyph unicode="}" glyph-name="braceright" horiz-adv-x="340" d="M33 -115Q73 -115 102 -108T149 -82T172 -34T168 45L145 168Q132 233 159 267T237 314Q187 326 160 360T145 460L168 583Q177 631 172 661T150 710T103 735T33 743V776Q83 776 120 766T181 734T211
674T208 582L184 463Q179 434 182 410T200 369T240 341T306 330V298Q266 298 240 288T200 260T183 218T184 165L208 46Q218 -8 211 -45T181 -105T121 -138T33 -148V-115Z" />
<glyph unicode="~" glyph-name="asciitilde" horiz-adv-x="420" d="M39 235Q44 283 69 310T132 338Q156 338 176 328T215 306T251 284T286 274Q310 274 325 293T344 340H380Q375 292 350 265T288 237Q264 237 243 247T204 269T168 291T133 301Q110 301 95 282T75
235H39V235Z" />
<glyph unicode="&#xa0;" glyph-name="uni00A0" horiz-adv-x="241" />
<glyph unicode="&#xa1;" glyph-name="exclamdown" horiz-adv-x="251" d="M125 535Q111 535 101 545T91 569Q91 583 101 593T125 603Q140 603 150 593T160 569Q160 555 150 545T125 535ZM108 428H141L148 -117H101L108 428Z" />
<glyph unicode="&#xa2;" glyph-name="cent" horiz-adv-x="533" d="M78 257Q78 204 92 163T132 93T191 48T264 29V494Q225 491 191 475T132 429T93 358T78 265V257ZM264 -7Q215 -4 173 15T101 69T53 150T35 257V265Q35 324 53 371T101 453T174 507T264 530V629H297V530Q334
528 368 516T430 483T475 431T498 360H457Q452 391 438 415T403 457T354 483T297 494V29Q328 31 356 41T407 71T444 116T465 178H504Q498 138 481 105T436 48T374 10T297 -7V-135H264V-7Z" />
<glyph unicode="&#xa3;" glyph-name="sterling" horiz-adv-x="572" d="M42 366H115Q105 401 97 438T89 520Q89 566 105 603T149 666T217 707T303 722Q400 722 452 673T513 541H468Q457 610 419 646T303 683Q266 683 236 671T183 638T149 586T136 519Q136 474 144
438T162 366H395V331H171Q179 299 185 266T191 193Q191 167 185 145T170 104Q200 102 228 91T285 67T342 44T397 33Q445 33 472 60T504 142H545Q540 73 502 33T401 -7Q366 -7 334 4T271 30T213 56T158 68Q122 68 102 49T77 0H35Q40 33 61 64T126 104Q136 122 142
144T149 193Q149 231 142 264T124 331H42V366Z" />
<glyph unicode="&#xa5;" glyph-name="yen" horiz-adv-x="522" d="M61 345H238L20 715H68L270 369L459 715H502L298 345H474V314H290V209H474V178H290V0H247V178H61V209H247V314H61V345Z" />
<glyph unicode="&#xa6;" glyph-name="brokenbar" horiz-adv-x="223" d="M92 776H128V367H92V776ZM92 297H128V-148H92V297Z" />
<glyph unicode="&#xa7;" glyph-name="section" horiz-adv-x="518" d="M317 163Q374 175 405 202T436 278Q436 305 426 324T397 357T349 382T284 405L207 429Q153 419 118 391T82 312Q82 285 92 266T123 232T172 207T237 186L317 163ZM258 -137Q181 -137 131 -99T75
12H118Q123 -41 158 -70T257 -100Q322 -100 353 -69T385 13Q385 42 377 62T350 98T301 124T226 148Q184 159 150 172T92 203T54 248T40 310Q40 337 50 359T79 399T121 429T174 447Q139 468 119 497T99 576Q99 609 112 636T149 682T202 713T266 724Q340 724 382
688T430 582H388Q383 633 355 660T267 687Q212 687 177 658T141 576Q141 550 148 531T173 496T220 469T292 444Q334 432 368 419T426 386T463 342T477 281Q477 227 443 193T352 144Q426 106 426 14Q426 -19 414 -47T380 -95T327 -126T258 -137Z" />
<glyph unicode="&#xa8;" glyph-name="dieresis" horiz-adv-x="402" d="M280 637Q268 637 259 646T250 667Q250 680 259 689T280 698Q293 698 302 689T311 667Q311 655 302 646T280 637ZM122 637Q109 637 100 646T91 667Q91 680 100 689T122 698Q134 698 143 689T152
667Q152 655 143 646T122 637Z" />
<glyph unicode="&#xa9;" glyph-name="copyright" horiz-adv-x="829" d="M413 -9Q337 -9 270 19T154 96T76 212T47 357Q47 433 75 500T153 617T270 695T415 724Q493 724 560 696T676 618T753 502T781 359Q781 281 753 214T675 97T558 19T413 -9ZM413 16Q483 16
545 41T653 113T726 222T753 359Q753 431 727 493T656 601T548 673T415 699Q344 699 282 673T175 601T103 493T76 357Q76 283 103 221T175 113T282 42T413 16ZM416 149Q371 149 335 164T274 206T235 272T221 358V364Q221 410 236 448T277 514T339 557T416 573Q482
573 529 540T587 441H548Q538 489 505 515T416 541Q383 541 355 528T305 492T273 437T261 364V358Q261 277 302 230T416 182Q471 182 508 209T554 289H591Q580 222 533 186T416 149Z" />
<glyph unicode="&#xaa;" glyph-name="ordfeminine" horiz-adv-x="402" d="M175 339Q202 339 226 346T269 367T298 399T309 440V514H221Q189 514 162 510T116 496T85 468T73 422Q73 339 175 339ZM170 307Q110 307 71 335T32 421Q32 456 47 479T87 517T147 537T219
543H309V579Q309 636 284 662T205 689Q158 689 128 669T90 604H50Q58 665 103 693T207 722Q273 722 311 688T349 579V313H309V377Q291 348 257 328T170 307Z" />
<glyph unicode="&#xab;" glyph-name="guillemotleft" horiz-adv-x="413" d="M195 261L332 439H374L240 261L374 83H332L195 261ZM45 261L181 439H225L90 261L225 83H181L45 261Z" />
<glyph unicode="&#xae;" glyph-name="registered" horiz-adv-x="499" d="M249 282Q203 282 163 299T92 345T45 415T27 502Q27 548 44 588T91 659T161 706T249 724Q296 724 336 707T407 660T454 590T471 503Q471 456 454 416T406 346T336 299T249 282ZM249 305Q291
305 327 320T389 361T431 424T446 503Q446 545 431 581T390 644T328 686T249 701Q207 701 171 686T109 644T67 581T52 502Q52 459 67 423T109 361T172 320T249 305ZM250 514Q303 514 303 556V557Q303 580 290 590T250 600H206V514H250ZM176 625H249Q287 625 310
608T333 558V557Q333 529 317 515T275 495L346 390H314L245 492H206V390H176V625Z" />
<glyph unicode="&#xaf;" glyph-name="macron" horiz-adv-x="402" d="M83 681H318V647H83V681Z" />
<glyph unicode="&#xb0;" glyph-name="degree" horiz-adv-x="384" d="M192 436Q161 436 134 447T87 478T55 524T43 579Q43 609 54 635T86 681T134 712T192 724Q223 724 250 713T297 681T329 635T341 579Q341 550 329 524T297 479T250 448T192 436ZM192 466Q216
466 236 475T270 499T293 535T302 579Q302 603 294 623T271 659T236 684T192 693Q168 693 148 684T113 660T90 624T81 579Q81 556 89 536T113 500T148 475T192 466Z" />
<glyph unicode="&#xb1;" glyph-name="plusminus" d="M227 332H29V367H227V573H265V367H462V332H265V126H227V332ZM29 36H462V0H29V36Z" />
<glyph unicode="&#xb2;" glyph-name="two.sup" horiz-adv-x="270" d="M10 437L140 567Q174 600 190 625T206 680Q206 712 186 730T134 748Q98 748 78 727T53 665H20Q23 718 53 747T135 776Q184 776 213 750T242 680Q242 645 224 617T167 552L71 458H245V429H10V437Z" />
<glyph unicode="&#xb3;" glyph-name="three.sup" horiz-adv-x="292" d="M145 425Q86 425 53 455T18 528H52Q55 498 77 476T145 453Q185 453 206 472T228 525Q228 557 208 576T150 595H124V622H149Q184 622 201 640T219 685Q219 714 199 731T146 749Q108 749 88
729T64 678H30Q33 720 63 748T146 776Q195 776 224 751T253 687Q253 657 237 638T194 610Q224 604 244 582T265 525Q265 478 232 452T145 425Z" />
<glyph unicode="&#xb4;" glyph-name="acute" horiz-adv-x="402" d="M251 749H302L214 602H181L251 749Z" />
<glyph unicode="&#xb6;" glyph-name="paragraph" horiz-adv-x="533" d="M262 356H248Q201 356 163 367T96 400T52 455T36 532Q36 578 52 612T96 669T164 703T248 715H446V-100H409V684H298V-100H262V356Z" />
<glyph unicode="&#xb7;" glyph-name="periodcentered" horiz-adv-x="193" d="M96 289Q82 289 72 298T62 322Q62 336 72 346T96 357Q111 357 120 347T130 322Q130 308 121 299T96 289Z" />
<glyph unicode="&#xb8;" glyph-name="cedilla" horiz-adv-x="402" d="M211 -212Q171 -212 146 -191T116 -134H152Q155 -154 169 -167T210 -181Q235 -181 249 -168T264 -133Q264 -108 249 -98T213 -88Q199 -88 190 -91T175 -97L156 -80L201 0H235L200 -63Q219 -58
237 -60T270 -71T294 -96T303 -135Q303 -173 276 -192T211 -212Z" />
<glyph unicode="&#xb9;" glyph-name="one.sup" horiz-adv-x="200" d="M102 733L12 670V704L110 773H139V429H102V733Z" />
<glyph unicode="&#xba;" glyph-name="ordmasculine" horiz-adv-x="453" d="M225 307Q184 307 149 322T88 364T47 428T32 511V517Q32 564 47 602T89 666T150 707T227 722Q267 722 302 708T364 668T406 603T421 518V512Q421 465 406 427T365 363T302 322T225 307ZM226
340Q259 340 287 352T335 386T367 440T379 512V518Q379 558 368 589T336 643T287 676T227 688Q195 688 167 676T118 642T85 588T73 517V511Q73 472 85 441T117 387T166 352T226 340Z" />
<glyph unicode="&#xbb;" glyph-name="guillemotright" horiz-adv-x="413" d="M323 261L188 439H231L368 261L231 83H188L323 261ZM173 261L38 439H81L218 261L81 83H38L173 261Z" />
<glyph unicode="&#xbc;" glyph-name="onequarter" horiz-adv-x="630" d="M105 675L15 612V646L113 715H142V371H105V675ZM556 715H593L74 0H37L556 715ZM535 76H354V88L523 344H570V104H617V76H570V0H535V76ZM536 104V317L398 104H536Z" />
<glyph unicode="&#xbd;" glyph-name="onehalf" horiz-adv-x="636" d="M539 715H576L57 0H20L539 715ZM107 675L17 612V646L115 715H144V371H107V675ZM380 9L510 138Q544 171 560 196T576 250Q576 283 556 301T504 319Q468 319 448 297T423 236H390Q393 289 423
318T505 347Q554 347 583 321T612 251Q612 216 594 188T537 122L441 28H615V0H380V9Z" />
<glyph unicode="&#xbe;" glyph-name="threequarters" horiz-adv-x="648" d="M148 367Q89 367 56 397T21 470H55Q58 440 80 418T148 395Q188 395 209 414T231 467Q231 499 211 518T153 537H127V564H152Q187 564 204 582T222 627Q222 656 202 673T149 691Q111 691
91 671T67 620H33Q36 662 66 690T149 718Q198 718 227 693T256 629Q256 599 240 580T197 552Q227 546 247 524T268 467Q268 420 235 394T148 367ZM599 715H636L117 0H80L599 715ZM548 76H367V88L536 344H583V104H630V76H583V0H548V76ZM549 104V317L411 104H549Z"
/>
<glyph unicode="&#xbf;" glyph-name="questiondown" horiz-adv-x="457" d="M254 603Q269 603 279 593T289 569Q289 555 279 545T254 535Q240 535 230 545T220 569Q220 583 230 593T254 603ZM273 368Q273 338 266 315T245 271T214 231T174 190Q156 171 140 154T111
119T91 81T84 35Q84 -19 118 -53T223 -88Q292 -88 336 -47T386 68H427Q424 24 408 -11T365 -72T302 -110T222 -124Q177 -124 143 -112T87 -78T53 -28T41 34Q41 65 49 89T72 133T105 172T145 212Q165 232 181 250T209 286T227 324T234 371V428H273V368Z" />
<glyph unicode="&#xc0;" glyph-name="Agrave" horiz-adv-x="631" d="M160 260H467L313 679L160 260ZM286 715H344L606 0H563L480 225H148L66 0H24L286 715ZM215 892H265L332 771H299L215 892Z" />
<glyph unicode="&#xc1;" glyph-name="Aacute" horiz-adv-x="631" d="M160 260H467L313 679L160 260ZM286 715H344L606 0H563L480 225H148L66 0H24L286 715ZM354 892H404L320 771H287L354 892Z" />
<glyph unicode="&#xc2;" glyph-name="Acircumflex" horiz-adv-x="631" d="M160 260H467L313 679L160 260ZM286 715H344L606 0H563L480 225H148L66 0H24L286 715ZM291 892H331L440 771H406L310 856L214 771H180L291 892Z" />
<glyph unicode="&#xc3;" glyph-name="Atilde" horiz-adv-x="631" d="M160 260H467L313 679L160 260ZM286 715H344L606 0H563L480 225H148L66 0H24L286 715ZM375 773Q357 773 340 782T307 801T276 821T247 830Q228 830 215 816T198 774H166Q171 820 193 843T247
866Q265 866 282 857T315 838T346 819T375 810Q394 810 407 824T424 866H456Q451 820 429 797T375 773Z" />
<glyph unicode="&#xc4;" glyph-name="Adieresis" horiz-adv-x="631" d="M160 260H467L313 679L160 260ZM286 715H344L606 0H563L480 225H148L66 0H24L286 715ZM396 788Q383 788 375 796T366 818Q366 830 374 839T396 848Q409 848 417 839T426 818Q426 805 418
797T396 788ZM224 788Q211 788 202 796T193 818Q193 830 202 839T224 848Q237 848 245 839T254 818Q254 805 246 797T224 788Z" />
<glyph unicode="&#xc5;" glyph-name="Aring" horiz-adv-x="631" d="M160 260H467L313 679L160 260ZM286 715H344L606 0H563L480 225H148L66 0H24L286 715ZM310 753Q291 753 274 760T244 779T224 808T216 844Q216 863 223 880T244 909T274 929T310 937Q330 937
347 930T377 910T397 880T405 844Q405 806 378 780T310 753ZM310 779Q338 779 356 797T375 844Q375 873 357 892T310 911Q283 911 265 892T246 844Q246 816 264 798T310 779Z" />
<glyph unicode="&#xc6;" glyph-name="AE" horiz-adv-x="929" d="M196 260H464V678H405L196 260ZM381 715H871V678H508V386H804V350H508V37H889V0H464V225H179L66 0H20L381 715Z" />
<glyph unicode="&#xc7;" glyph-name="Ccedilla" horiz-adv-x="712" d="M377 -7Q301 -7 240 19T136 92T70 206T46 353V361Q46 440 72 506T142 621T247 696T377 723Q432 723 481 709T568 667T631 598T666 504H622Q604 592 542 639T378 687Q316 687 264 663T173 597T113
494T91 362V354Q91 280 111 220T168 118T259 53T378 30Q479 30 547 81T633 227H674Q664 171 638 128T573 54T484 9T377 -7ZM367 -212Q327 -212 302 -191T272 -134H308Q311 -154 325 -167T366 -181Q391 -181 405 -168T420 -133Q420 -108 405 -98T369 -88Q355 -88
346 -91T331 -97L312 -80L357 0H391L356 -63Q375 -58 393 -60T426 -71T450 -96T459 -135Q459 -173 432 -192T367 -212Z" />
<glyph unicode="&#xc8;" glyph-name="Egrave" horiz-adv-x="551" d="M195 892H245L312 771H279L195 892ZM85 715H493V678H129V386H425V350H129V37H511V0H85V715Z" />
<glyph unicode="&#xc9;" glyph-name="Eacute" horiz-adv-x="551" d="M333 892H383L299 771H266L333 892ZM85 715H493V678H129V386H425V350H129V37H511V0H85V715Z" />
<glyph unicode="&#xca;" glyph-name="Ecircumflex" horiz-adv-x="551" d="M270 892H310L419 771H385L289 856L193 771H159L270 892ZM85 715H493V678H129V386H425V350H129V37H511V0H85V715Z" />
<glyph unicode="&#xcb;" glyph-name="Edieresis" horiz-adv-x="551" d="M85 715H493V678H129V386H425V350H129V37H511V0H85V715ZM375 788Q362 788 354 796T345 818Q345 830 353 839T375 848Q388 848 396 839T405 818Q405 805 397 797T375 788ZM203 788Q190 788
181 796T172 818Q172 830 181 839T203 848Q216 848 224 839T233 818Q233 805 225 797T203 788Z" />
<glyph unicode="&#xcc;" glyph-name="Igrave" horiz-adv-x="225" d="M90 715H134V0H90V715ZM273 892H323L390 771H357L273 892Z" />
<glyph unicode="&#xcd;" glyph-name="Iacute" horiz-adv-x="225" d="M90 715H134V0H90V715ZM412 892H462L378 771H345L412 892Z" />
<glyph unicode="&#xce;" glyph-name="Icircumflex" horiz-adv-x="225" d="M90 715H134V0H90V715ZM349 892H389L498 771H464L368 856L272 771H238L349 892Z" />
<glyph unicode="&#xcf;" glyph-name="Idieresis" horiz-adv-x="225" d="M90 715H134V0H90V715ZM454 788Q441 788 433 796T424 818Q424 830 432 839T454 848Q467 848 475 839T484 818Q484 805 476 797T454 788ZM282 788Q269 788 260 796T251 818Q251 830 260 839T282
848Q295 848 303 839T312 818Q312 805 304 797T282 788Z" />
<glyph unicode="&#xd0;" glyph-name="Eth" horiz-adv-x="679" d="M20 377H95V715H279Q366 715 432 688T543 614T610 503T633 364V356Q633 282 612 217T546 104T435 28T277 0H95V342H20V377ZM275 37Q354 37 413 61T511 127T569 228T588 356V364Q588 431 570 488T512
588T414 654T274 678H139V377H348V342H139V37H275Z" />
<glyph unicode="&#xd1;" glyph-name="Ntilde" horiz-adv-x="694" d="M422 773Q404 773 387 782T354 801T323 821T294 830Q275 830 262 816T245 774H213Q218 820 240 843T294 866Q312 866 329 857T362 838T393 819T422 810Q441 810 454 824T471 866H503Q498 820
476 797T422 773ZM85 715H146L566 59V715H609V0H556L128 668V0H85V715Z" />
<glyph unicode="&#xd2;" glyph-name="Ograve" horiz-adv-x="787" d="M296 892H346L413 771H380L296 892ZM395 -7Q320 -7 256 21T146 98T73 212T46 353V361Q46 437 72 503T145 617T255 694T393 722Q468 722 531 695T641 619T714 505T741 364V356Q741 280 715 214T642
99T532 22T395 -7ZM395 30Q461 30 516 55T611 123T673 226T695 356V364Q695 431 673 490T611 592T516 661T393 686Q326 686 271 661T175 593T113 490T91 361V353Q91 284 114 225T178 123T274 55T395 30Z" />
<glyph unicode="&#xd3;" glyph-name="Oacute" horiz-adv-x="787" d="M434 892H484L400 771H367L434 892ZM395 -7Q320 -7 256 21T146 98T73 212T46 353V361Q46 437 72 503T145 617T255 694T393 722Q468 722 531 695T641 619T714 505T741 364V356Q741 280 715 214T642
99T532 22T395 -7ZM395 30Q461 30 516 55T611 123T673 226T695 356V364Q695 431 673 490T611 592T516 661T393 686Q326 686 271 661T175 593T113 490T91 361V353Q91 284 114 225T178 123T274 55T395 30Z" />
<glyph unicode="&#xd4;" glyph-name="Ocircumflex" horiz-adv-x="787" d="M372 892H412L521 771H487L391 856L295 771H261L372 892ZM395 -7Q320 -7 256 21T146 98T73 212T46 353V361Q46 437 72 503T145 617T255 694T393 722Q468 722 531 695T641 619T714 505T741
364V356Q741 280 715 214T642 99T532 22T395 -7ZM395 30Q461 30 516 55T611 123T673 226T695 356V364Q695 431 673 490T611 592T516 661T393 686Q326 686 271 661T175 593T113 490T91 361V353Q91 284 114 225T178 123T274 55T395 30Z" />
<glyph unicode="&#xd5;" glyph-name="Otilde" horiz-adv-x="787" d="M455 773Q437 773 420 782T387 801T356 821T327 830Q308 830 295 816T278 774H246Q251 820 273 843T327 866Q345 866 362 857T395 838T426 819T455 810Q474 810 487 824T504 866H536Q531 820
509 797T455 773ZM395 -7Q320 -7 256 21T146 98T73 212T46 353V361Q46 437 72 503T145 617T255 694T393 722Q468 722 531 695T641 619T714 505T741 364V356Q741 280 715 214T642 99T532 22T395 -7ZM395 30Q461 30 516 55T611 123T673 226T695 356V364Q695 431 673
490T611 592T516 661T393 686Q326 686 271 661T175 593T113 490T91 361V353Q91 284 114 225T178 123T274 55T395 30Z" />
<glyph unicode="&#xd6;" glyph-name="Odieresis" horiz-adv-x="787" d="M477 788Q464 788 456 796T447 818Q447 830 455 839T477 848Q490 848 498 839T507 818Q507 805 499 797T477 788ZM305 788Q292 788 283 796T274 818Q274 830 283 839T305 848Q318 848 326
839T335 818Q335 805 327 797T305 788ZM395 -7Q320 -7 256 21T146 98T73 212T46 353V361Q46 437 72 503T145 617T255 694T393 722Q468 722 531 695T641 619T714 505T741 364V356Q741 280 715 214T642 99T532 22T395 -7ZM395 30Q461 30 516 55T611 123T673 226T695
356V364Q695 431 673 490T611 592T516 661T393 686Q326 686 271 661T175 593T113 490T91 361V353Q91 284 114 225T178 123T274 55T395 30Z" />
<glyph unicode="&#xd7;" glyph-name="multiply" horiz-adv-x="473" d="M42 172L206 335L42 499L67 523L230 360L393 523L419 499L255 335L419 172L393 147L230 310L67 147L42 172Z" />
<glyph unicode="&#xd8;" glyph-name="Oslash" horiz-adv-x="787" d="M91 353Q91 290 109 236T163 140L590 614Q552 648 502 667T393 686Q326 686 271 661T175 593T113 490T91 361V353ZM395 30Q461 30 516 55T611 123T673 226T695 356V364Q695 431 674 488T613
589L185 114Q226 73 279 52T395 30ZM38 2L135 109Q93 157 70 219T46 353V361Q46 437 72 503T145 617T255 694T393 722Q458 722 514 701T616 641L702 737L727 714L641 618Q688 570 714 505T741 364V356Q741 280 715 214T642 99T532 22T395 -7Q325 -7 265 17T158
85L62 -21L38 2Z" />
<glyph unicode="&#xd9;" glyph-name="Ugrave" horiz-adv-x="661" d="M236 892H286L353 771H320L236 892ZM329 -6Q209 -6 141 60T73 254V715H117V258Q117 142 171 87T329 32Q439 32 492 88T545 271V715H589V265Q589 138 525 66T329 -6Z" />
<glyph unicode="&#xda;" glyph-name="Uacute" horiz-adv-x="661" d="M374 892H424L340 771H307L374 892ZM329 -6Q209 -6 141 60T73 254V715H117V258Q117 142 171 87T329 32Q439 32 492 88T545 271V715H589V265Q589 138 525 66T329 -6Z" />
<glyph unicode="&#xdb;" glyph-name="Ucircumflex" horiz-adv-x="661" d="M312 892H352L461 771H427L331 856L235 771H201L312 892ZM329 -6Q209 -6 141 60T73 254V715H117V258Q117 142 171 87T329 32Q439 32 492 88T545 271V715H589V265Q589 138 525 66T329 -6Z" />
<glyph unicode="&#xdc;" glyph-name="Udieresis" horiz-adv-x="661" d="M329 -6Q209 -6 141 60T73 254V715H117V258Q117 142 171 87T329 32Q439 32 492 88T545 271V715H589V265Q589 138 525 66T329 -6ZM417 788Q404 788 396 796T387 818Q387 830 395 839T417 848Q430
848 438 839T447 818Q447 805 439 797T417 788ZM245 788Q232 788 223 796T214 818Q214 830 223 839T245 848Q258 848 266 839T275 818Q275 805 267 797T245 788Z" />
<glyph unicode="&#xdd;" glyph-name="Yacute" horiz-adv-x="555" d="M263 320L14 715H64L285 357L496 715H540L307 320V0H263V320ZM325 892H375L291 771H258L325 892Z" />
<glyph unicode="&#xde;" glyph-name="Thorn" horiz-adv-x="547" d="M85 715H129V567H269Q321 567 365 557T442 524T492 464T510 374V370Q510 316 492 279T442 219T365 185T269 175H129V0H85V715ZM271 211Q361 211 413 247T466 370V374Q466 419 452 449T412 497T350
523T271 531H129V211H271Z" />
<glyph unicode="&#xdf;" glyph-name="germandbls" horiz-adv-x="564" d="M315 -6Q283 -6 259 -2T217 10V47Q237 39 261 34T316 29Q347 29 377 37T432 67T471 122T486 207V216Q486 264 469 302T420 366T346 406T254 420V456Q342 455 383 492T424 588V596Q424 650
387 683T279 717Q203 717 161 672T118 545V0H78V544Q78 593 93 631T135 697T198 738T279 752Q322 752 356 740T414 707T451 657T464 595V591Q464 531 430 493T333 441Q372 433 407 415T468 369T511 303T527 217V209Q527 148 509 107T460 40T392 5T315 -6Z" />
<glyph unicode="&#xe0;" glyph-name="agrave" horiz-adv-x="525" d="M225 27Q263 27 297 38T356 68T397 113T412 169V274H289Q246 274 208 269T142 248T98 208T82 143Q82 87 118 57T225 27ZM224 -8Q143 -8 92 30T40 144Q40 191 60 222T115 272T194 299T287 307H412V357Q412
438 377 474T267 511Q203 511 160 482T105 389H65Q70 430 88 460T134 509T196 537T268 546Q354 546 403 502T453 357V0H412V87Q386 46 341 19T224 -8ZM160 749H211L281 602H248L160 749Z" />
<glyph unicode="&#xe1;" glyph-name="aacute" horiz-adv-x="525" d="M225 27Q263 27 297 38T356 68T397 113T412 169V274H289Q246 274 208 269T142 248T98 208T82 143Q82 87 118 57T225 27ZM224 -8Q143 -8 92 30T40 144Q40 191 60 222T115 272T194 299T287 307H412V357Q412
438 377 474T267 511Q203 511 160 482T105 389H65Q70 430 88 460T134 509T196 537T268 546Q354 546 403 502T453 357V0H412V87Q386 46 341 19T224 -8ZM304 749H355L267 602H234L304 749Z" />
<glyph unicode="&#xe2;" glyph-name="acircumflex" horiz-adv-x="525" d="M225 27Q263 27 297 38T356 68T397 113T412 169V274H289Q246 274 208 269T142 248T98 208T82 143Q82 87 118 57T225 27ZM224 -8Q143 -8 92 30T40 144Q40 191 60 222T115 272T194 299T287
307H412V357Q412 438 377 474T267 511Q203 511 160 482T105 389H65Q70 430 88 460T134 509T196 537T268 546Q354 546 403 502T453 357V0H412V87Q386 46 341 19T224 -8ZM236 733H276L385 602H350L255 698L159 602H125L236 733Z" />
<glyph unicode="&#xe3;" glyph-name="atilde" horiz-adv-x="525" d="M225 27Q263 27 297 38T356 68T397 113T412 169V274H289Q246 274 208 269T142 248T98 208T82 143Q82 87 118 57T225 27ZM224 -8Q143 -8 92 30T40 144Q40 191 60 222T115 272T194 299T287 307H412V357Q412
438 377 474T267 511Q203 511 160 482T105 389H65Q70 430 88 460T134 509T196 537T268 546Q354 546 403 502T453 357V0H412V87Q386 46 341 19T224 -8ZM324 615Q306 615 289 624T255 643T224 663T195 672Q178 672 165 658T147 615H115Q120 661 142 684T196 707Q214
707 231 699T264 680T295 661T325 652Q342 652 355 666T373 708H405Q400 662 378 639T324 615Z" />
<glyph unicode="&#xe4;" glyph-name="adieresis" horiz-adv-x="525" d="M225 27Q263 27 297 38T356 68T397 113T412 169V274H289Q246 274 208 269T142 248T98 208T82 143Q82 87 118 57T225 27ZM224 -8Q143 -8 92 30T40 144Q40 191 60 222T115 272T194 299T287
307H412V357Q412 438 377 474T267 511Q203 511 160 482T105 389H65Q70 430 88 460T134 509T196 537T268 546Q354 546 403 502T453 357V0H412V87Q386 46 341 19T224 -8ZM338 637Q326 637 317 646T308 667Q308 680 317 689T338 698Q351 698 360 689T369 667Q369 655
360 646T338 637ZM180 637Q167 637 158 646T149 667Q149 680 158 689T180 698Q192 698 201 689T210 667Q210 655 201 646T180 637Z" />
<glyph unicode="&#xe5;" glyph-name="aring" horiz-adv-x="525" d="M225 27Q263 27 297 38T356 68T397 113T412 169V274H289Q246 274 208 269T142 248T98 208T82 143Q82 87 118 57T225 27ZM224 -8Q143 -8 92 30T40 144Q40 191 60 222T115 272T194 299T287 307H412V357Q412
438 377 474T267 511Q203 511 160 482T105 389H65Q70 430 88 460T134 509T196 537T268 546Q354 546 403 502T453 357V0H412V87Q386 46 341 19T224 -8ZM259 602Q240 602 223 609T193 629T173 658T165 694Q165 713 172 729T193 758T223 778T259 786Q279 786 296 779T326
759T346 730T354 694Q354 675 347 659T327 630T297 610T259 602ZM259 628Q287 628 305 647T324 694Q324 723 306 741T259 760Q232 760 214 742T195 694Q195 666 213 647T259 628Z" />
<glyph unicode="&#xe6;" glyph-name="ae" horiz-adv-x="918" d="M658 -8Q575 -8 520 32T439 141Q429 105 409 77T360 30T297 2T224 -8Q143 -8 92 30T40 143Q40 190 60 221T113 271T191 297T285 305H413V356Q413 436 378 472T268 508Q205 508 162 480T109 388H64Q69
429 87 459T134 508T197 537T270 547Q345 547 389 512T445 407Q472 472 525 509T651 547Q700 547 742 531T815 482T863 400T881 285V268H457Q459 156 509 93T659 30Q726 30 771 59T832 149H877Q859 73 801 33T658 -8ZM835 305Q831 408 782 458T651 508Q611 508
577 494T518 453T478 389T458 305H835ZM228 29Q265 29 299 40T358 71T398 120T413 186V268H286Q244 268 207 263T143 244T101 206T85 143Q85 87 121 58T228 29Z" />
<glyph unicode="&#xe7;" glyph-name="ccedilla" horiz-adv-x="555" d="M293 -8Q239 -8 193 11T112 67T58 153T38 265V273Q38 334 58 384T113 471T194 526T293 546Q333 546 370 535T438 502T488 447T515 371H473Q468 406 452 432T412 476T357 502T293 511Q249 511
211 495T143 447T98 372T81 273V265Q81 209 97 165T142 90T209 43T293 27Q329 27 360 37T417 67T459 116T482 184H520Q514 141 495 106T445 45T377 6T293 -8ZM279 -212Q239 -212 214 -191T184 -134H220Q223 -154 237 -167T278 -181Q303 -181 317 -168T332 -133Q332
-108 317 -98T281 -88Q267 -88 258 -91T243 -97L224 -80L269 0H303L268 -63Q287 -58 305 -60T338 -71T362 -96T371 -135Q371 -173 344 -192T279 -212Z" />
<glyph unicode="&#xe8;" glyph-name="egrave" horiz-adv-x="552" d="M290 -8Q232 -8 186 12T106 68T56 154T38 265V273Q38 333 56 383T106 470T184 526T283 546Q332 546 374 530T447 482T497 400T515 286V269H81Q83 154 136 91T290 28Q359 28 406 58T469 148H511Q492
72 434 32T290 -8ZM472 305Q470 357 456 395T417 459T358 497T283 510Q199 510 145 455T82 305H472ZM173 749H224L294 602H261L173 749Z" />
<glyph unicode="&#xe9;" glyph-name="eacute" horiz-adv-x="552" d="M317 749H368L280 602H247L317 749ZM290 -8Q232 -8 186 12T106 68T56 154T38 265V273Q38 333 56 383T106 470T184 526T283 546Q332 546 374 530T447 482T497 400T515 286V269H81Q83 154 136
91T290 28Q359 28 406 58T469 148H511Q492 72 434 32T290 -8ZM472 305Q470 357 456 395T417 459T358 497T283 510Q199 510 145 455T82 305H472Z" />
<glyph unicode="&#xea;" glyph-name="ecircumflex" horiz-adv-x="552" d="M253 733H293L402 602H367L272 698L176 602H142L253 733ZM290 -8Q232 -8 186 12T106 68T56 154T38 265V273Q38 333 56 383T106 470T184 526T283 546Q332 546 374 530T447 482T497 400T515
286V269H81Q83 154 136 91T290 28Q359 28 406 58T469 148H511Q492 72 434 32T290 -8ZM472 305Q470 357 456 395T417 459T358 497T283 510Q199 510 145 455T82 305H472Z" />
<glyph unicode="&#xeb;" glyph-name="edieresis" horiz-adv-x="552" d="M351 637Q339 637 330 646T321 667Q321 680 330 689T351 698Q364 698 373 689T382 667Q382 655 373 646T351 637ZM193 637Q180 637 171 646T162 667Q162 680 171 689T193 698Q205 698 214
689T223 667Q223 655 214 646T193 637ZM290 -8Q232 -8 186 12T106 68T56 154T38 265V273Q38 333 56 383T106 470T184 526T283 546Q332 546 374 530T447 482T497 400T515 286V269H81Q83 154 136 91T290 28Q359 28 406 58T469 148H511Q492 72 434 32T290 -8ZM472
305Q470 357 456 395T417 459T358 497T283 510Q199 510 145 455T82 305H472Z" />
<glyph unicode="&#xec;" glyph-name="igrave" horiz-adv-x="200" d="M80 539H120V0H80V539ZM250 749H301L371 602H338L250 749Z" />
<glyph unicode="&#xed;" glyph-name="iacute" horiz-adv-x="200" d="M401 749H452L364 602H331L401 749ZM80 539H120V0H80V539Z" />
<glyph unicode="&#xee;" glyph-name="icircumflex" horiz-adv-x="200" d="M334 733H374L483 602H448L353 698L257 602H223L334 733ZM80 539H120V0H80V539Z" />
<glyph unicode="&#xef;" glyph-name="idieresis" horiz-adv-x="200" d="M171 637Q157 637 149 646T140 668Q140 680 148 689T171 698Q184 698 192 689T201 668Q201 655 193 646T171 637ZM29 637Q16 637 8 646T-1 668Q-1 680 7 689T29 698Q42 698 51 689T60 668Q60
655 51 646T29 637ZM80 539H120V0H80V539Z" />
<glyph unicode="&#xf0;" glyph-name="eth" horiz-adv-x="596" d="M135 632L266 709Q236 733 204 755T139 797H196Q219 784 245 768T299 731L404 792L421 765L325 709Q367 673 408 628T481 530T533 415T553 284V266Q553 206 533 156T478 69T396 12T295 -8Q242 -8
195 12T113 69T58 156T38 265V273Q38 334 58 384T113 471T192 527T284 547Q321 547 350 539T404 518T447 486T481 445Q452 514 404 574T291 688L152 606L135 632ZM296 27Q341 27 380 43T448 91T494 167T511 267V282Q511 334 495 376T449 449T379 495T292 511Q249
511 211 495T144 447T98 372T81 273V265Q81 211 97 167T143 92T211 44T296 27Z" />
<glyph unicode="&#xf1;" glyph-name="ntilde" horiz-adv-x="579" d="M78 539H118V427Q127 451 145 472T188 510T244 536T313 546Q356 546 392 534T453 496T493 429T507 331V0H465V336Q465 428 424 469T307 510Q272 510 238 498T178 463T135 406T118 328V0H78V539ZM344
615Q326 615 309 624T275 643T244 663T215 672Q198 672 185 658T167 615H135Q140 661 162 684T216 707Q234 707 251 699T284 680T315 661T345 652Q362 652 375 666T393 708H425Q420 662 398 639T344 615Z" />
<glyph unicode="&#xf2;" glyph-name="ograve" horiz-adv-x="592" d="M295 -8Q241 -8 195 12T113 69T58 156T38 265V273Q38 334 58 384T114 470T196 526T297 546Q350 546 397 527T478 472T533 386T553 274V266Q553 205 533 155T478 68T396 12T295 -8ZM296 27Q341
27 380 43T448 91T494 166T511 266V273Q511 329 494 373T448 447T380 494T297 510Q252 510 213 494T144 447T98 372T81 273V265Q81 211 97 167T143 92T211 44T296 27ZM186 749H237L307 602H274L186 749Z" />
<glyph unicode="&#xf3;" glyph-name="oacute" horiz-adv-x="592" d="M331 749H382L294 602H261L331 749ZM295 -8Q241 -8 195 12T113 69T58 156T38 265V273Q38 334 58 384T114 470T196 526T297 546Q350 546 397 527T478 472T533 386T553 274V266Q553 205 533 155T478
68T396 12T295 -8ZM296 27Q341 27 380 43T448 91T494 166T511 266V273Q511 329 494 373T448 447T380 494T297 510Q252 510 213 494T144 447T98 372T81 273V265Q81 211 97 167T143 92T211 44T296 27Z" />
<glyph unicode="&#xf4;" glyph-name="ocircumflex" horiz-adv-x="592" d="M266 733H306L415 602H380L285 698L189 602H155L266 733ZM295 -8Q241 -8 195 12T113 69T58 156T38 265V273Q38 334 58 384T114 470T196 526T297 546Q350 546 397 527T478 472T533 386T553
274V266Q553 205 533 155T478 68T396 12T295 -8ZM296 27Q341 27 380 43T448 91T494 166T511 266V273Q511 329 494 373T448 447T380 494T297 510Q252 510 213 494T144 447T98 372T81 273V265Q81 211 97 167T143 92T211 44T296 27Z" />
<glyph unicode="&#xf5;" glyph-name="otilde" horiz-adv-x="592" d="M295 -8Q241 -8 195 12T113 69T58 156T38 265V273Q38 334 58 384T114 470T196 526T297 546Q350 546 397 527T478 472T533 386T553 274V266Q553 205 533 155T478 68T396 12T295 -8ZM296 27Q341
27 380 43T448 91T494 166T511 266V273Q511 329 494 373T448 447T380 494T297 510Q252 510 213 494T144 447T98 372T81 273V265Q81 211 97 167T143 92T211 44T296 27ZM349 615Q331 615 314 624T280 643T249 663T220 672Q203 672 190 658T172 615H140Q145 661 167
684T221 707Q239 707 256 699T289 680T320 661T350 652Q367 652 380 666T398 708H430Q425 662 403 639T349 615Z" />
<glyph unicode="&#xf6;" glyph-name="odieresis" horiz-adv-x="592" d="M364 637Q352 637 343 646T334 667Q334 680 343 689T364 698Q377 698 386 689T395 667Q395 655 386 646T364 637ZM206 637Q193 637 184 646T175 667Q175 680 184 689T206 698Q218 698 227
689T236 667Q236 655 227 646T206 637ZM295 -8Q241 -8 195 12T113 69T58 156T38 265V273Q38 334 58 384T114 470T196 526T297 546Q350 546 397 527T478 472T533 386T553 274V266Q553 205 533 155T478 68T396 12T295 -8ZM296 27Q341 27 380 43T448 91T494 166T511
266V273Q511 329 494 373T448 447T380 494T297 510Q252 510 213 494T144 447T98 372T81 273V265Q81 211 97 167T143 92T211 44T296 27Z" />
<glyph unicode="&#xf7;" glyph-name="divide" d="M245 481Q231 481 221 491T211 515Q211 529 221 539T245 550Q260 550 270 540T280 515Q280 501 270 491T245 481ZM29 360H462V324H29V360ZM245 134Q231 134 221 144T211 169Q211 183 221 193T245 203Q260 203 270
193T280 169Q280 155 270 145T245 134Z" />
<glyph unicode="&#xf8;" glyph-name="oslash" horiz-adv-x="592" d="M81 265Q81 218 93 179T128 110L438 457Q410 483 374 496T297 510Q252 510 213 494T144 446T98 372T81 273V265ZM296 27Q341 27 380 43T448 91T494 166T511 266V273Q511 323 498 362T461 432L150
85Q179 57 216 42T296 27ZM29 -1L102 82Q72 117 55 163T38 265V273Q38 334 58 384T114 470T196 526T297 546Q345 546 387 530T463 484L530 558L555 537L486 461Q517 426 535 379T553 274V266Q553 205 533 155T478 68T396 12T295 -8Q245 -8 203 9T125 57L54 -22L29
-1Z" />
<glyph unicode="&#xf9;" glyph-name="ugrave" horiz-adv-x="575" d="M264 -8Q221 -8 186 3T126 39T86 103T72 199V539H113V199Q113 108 154 69T270 29Q304 29 337 40T397 74T440 130T456 209V539H496V0H456V109Q447 86 429 65T387 27T331 2T264 -8ZM180 749H231L301
602H268L180 749Z" />
<glyph unicode="&#xfa;" glyph-name="uacute" horiz-adv-x="575" d="M324 749H375L287 602H254L324 749ZM264 -8Q221 -8 186 3T126 39T86 103T72 199V539H113V199Q113 108 154 69T270 29Q304 29 337 40T397 74T440 130T456 209V539H496V0H456V109Q447 86 429 65T387
27T331 2T264 -8Z" />
<glyph unicode="&#xfb;" glyph-name="ucircumflex" horiz-adv-x="575" d="M260 733H300L409 602H374L279 698L183 602H149L260 733ZM264 -8Q221 -8 186 3T126 39T86 103T72 199V539H113V199Q113 108 154 69T270 29Q304 29 337 40T397 74T440 130T456 209V539H496V0H456V109Q447
86 429 65T387 27T331 2T264 -8Z" />
<glyph unicode="&#xfc;" glyph-name="udieresis" horiz-adv-x="575" d="M358 637Q346 637 337 646T328 667Q328 680 337 689T358 698Q371 698 380 689T389 667Q389 655 380 646T358 637ZM200 637Q187 637 178 646T169 667Q169 680 178 689T200 698Q212 698 221
689T230 667Q230 655 221 646T200 637ZM264 -8Q221 -8 186 3T126 39T86 103T72 199V539H113V199Q113 108 154 69T270 29Q304 29 337 40T397 74T440 130T456 209V539H496V0H456V109Q447 86 429 65T387 27T331 2T264 -8Z" />
<glyph unicode="&#xfd;" glyph-name="yacute" horiz-adv-x="498" d="M486 44L272 539H315L507 91L689 539H732L435 -177H393L486 44ZM289 749H340L252 602H219L289 749Z" />
<glyph unicode="&#xfe;" glyph-name="thorn" horiz-adv-x="611" d="M330 27Q374 27 411 43T474 89T515 164T530 265V273Q530 331 514 375T471 450T408 495T331 511Q289 511 251 496T183 450T135 376T117 273V265Q117 208 134 164T180 89T247 43T330 27ZM78 797H118V401Q130
430 151 456T199 503T260 534T332 546Q383 546 426 527T502 473T553 388T572 275V267Q572 203 554 152T503 66T426 11T330 -8Q288 -8 254 4T193 36T148 81T118 134V-187H78V797Z" />
<glyph unicode="&#xff;" glyph-name="ydieresis" horiz-adv-x="498" d="M233 44L19 539H62L254 91L436 539H479L182 -177H140L233 44ZM326 637Q314 637 305 646T296 667Q296 680 305 689T326 698Q339 698 348 689T357 667Q357 655 348 646T326 637ZM168 637Q155
637 146 646T137 667Q137 680 146 689T168 698Q180 698 189 689T198 667Q198 655 189 646T168 637Z" />
<glyph unicode="&#x100;" glyph-name="Amacron" horiz-adv-x="631" d="M160 260H467L313 679L160 260ZM286 715H344L606 0H563L480 225H148L66 0H24L286 715ZM190 827H430V793H190V827Z" />
<glyph unicode="&#x101;" glyph-name="amacron" horiz-adv-x="525" d="M225 27Q263 27 297 38T356 68T397 113T412 169V274H289Q246 274 208 269T142 248T98 208T82 143Q82 87 118 57T225 27ZM224 -8Q143 -8 92 30T40 144Q40 191 60 222T115 272T194 299T287 307H412V357Q412
438 377 474T267 511Q203 511 160 482T105 389H65Q70 430 88 460T134 509T196 537T268 546Q354 546 403 502T453 357V0H412V87Q386 46 341 19T224 -8ZM141 681H376V647H141V681Z" />
<glyph unicode="&#x102;" glyph-name="Abreve" horiz-adv-x="631" d="M160 260H467L313 679L160 260ZM286 715H344L606 0H563L480 225H148L66 0H24L286 715ZM309 773Q284 773 263 782T225 806T198 844T186 892H221Q225 855 249 832T309 808Q346 808 371 831T401
892H436Q434 866 424 844T396 807T356 782T309 773Z" />
<glyph unicode="&#x103;" glyph-name="abreve" horiz-adv-x="525" d="M225 27Q263 27 297 38T356 68T397 113T412 169V274H289Q246 274 208 269T142 248T98 208T82 143Q82 87 118 57T225 27ZM224 -8Q143 -8 92 30T40 144Q40 191 60 222T115 272T194 299T287 307H412V357Q412
438 377 474T267 511Q203 511 160 482T105 389H65Q70 430 88 460T134 509T196 537T268 546Q354 546 403 502T453 357V0H412V87Q386 46 341 19T224 -8ZM258 614Q208 614 176 646T140 731H175Q179 694 200 672T258 650Q295 650 317 671T345 731H380Q376 679 342 647T258
614Z" />
<glyph unicode="&#x104;" glyph-name="Aogonek" horiz-adv-x="631" d="M572 -182Q530 -182 507 -161T483 -108Q483 -74 506 -46T562 2L479 225H148L66 0H24L286 715H344L606 1Q565 -25 545 -49T524 -103Q524 -123 536 -136T577 -149Q603 -149 627 -140V-172Q602
-182 572 -182ZM160 260H467L313 679L160 260Z" />
<glyph unicode="&#x105;" glyph-name="aogonek" horiz-adv-x="525" d="M422 -182Q380 -182 356 -161T332 -108Q332 -73 356 -44T412 3V87Q386 46 341 19T224 -8Q143 -8 92 30T40 144Q40 191 60 222T115 272T194 299T287 307H412V357Q412 438 377 474T267 511Q203
511 160 482T105 389H65Q70 430 88 460T134 509T196 537T268 546Q354 546 403 502T453 357V1Q415 -24 394 -49T373 -103Q373 -123 385 -136T426 -150Q452 -150 476 -141V-172Q451 -182 422 -182ZM225 27Q263 27 297 38T356 68T397 113T412 169V274H289Q246 274
208 269T142 248T98 208T82 143Q82 87 118 57T225 27Z" />
<glyph unicode="&#x106;" glyph-name="Cacute" horiz-adv-x="712" d="M377 -7Q301 -7 240 19T136 92T70 206T46 353V361Q46 440 72 506T142 621T247 696T377 723Q432 723 481 709T568 667T631 598T666 504H622Q604 592 542 639T378 687Q316 687 264 663T173 597T113
494T91 362V354Q91 280 111 220T168 118T259 53T378 30Q479 30 547 81T633 227H674Q664 171 638 128T573 54T484 9T377 -7ZM421 892H471L387 771H354L421 892Z" />
<glyph unicode="&#x107;" glyph-name="cacute" horiz-adv-x="555" d="M324 749H375L287 602H254L324 749ZM293 -8Q239 -8 193 11T112 67T58 153T38 265V273Q38 334 58 384T113 471T194 526T293 546Q333 546 370 535T438 502T488 447T515 371H473Q468 406 452 432T412
476T357 502T293 511Q249 511 211 495T143 447T98 372T81 273V265Q81 209 97 165T142 90T209 43T293 27Q329 27 360 37T417 67T459 116T482 184H520Q514 141 495 106T445 45T377 6T293 -8Z" />
<glyph unicode="&#x108;" glyph-name="Ccircumflex" horiz-adv-x="712" d="M358 892H398L507 771H473L377 856L281 771H247L358 892ZM377 -7Q301 -7 240 19T136 92T70 206T46 353V361Q46 440 72 506T142 621T247 696T377 723Q432 723 481 709T568 667T631 598T666
504H622Q604 592 542 639T378 687Q316 687 264 663T173 597T113 494T91 362V354Q91 280 111 220T168 118T259 53T378 30Q479 30 547 81T633 227H674Q664 171 638 128T573 54T484 9T377 -7Z" />
<glyph unicode="&#x109;" glyph-name="ccircumflex" horiz-adv-x="555" d="M259 733H299L408 602H373L278 698L182 602H148L259 733ZM293 -8Q239 -8 193 11T112 67T58 153T38 265V273Q38 334 58 384T113 471T194 526T293 546Q333 546 370 535T438 502T488 447T515
371H473Q468 406 452 432T412 476T357 502T293 511Q249 511 211 495T143 447T98 372T81 273V265Q81 209 97 165T142 90T209 43T293 27Q329 27 360 37T417 67T459 116T482 184H520Q514 141 495 106T445 45T377 6T293 -8Z" />
<glyph unicode="&#x10a;" glyph-name="Cdotaccent" horiz-adv-x="712" d="M377 -7Q301 -7 240 19T136 92T70 206T46 353V361Q46 440 72 506T142 621T247 696T377 723Q432 723 481 709T568 667T631 598T666 504H622Q604 592 542 639T378 687Q316 687 264 663T173
597T113 494T91 362V354Q91 280 111 220T168 118T259 53T378 30Q479 30 547 81T633 227H674Q664 171 638 128T573 54T484 9T377 -7ZM375 788Q362 788 353 797T344 819Q344 832 353 841T375 850Q388 850 397 841T406 819Q406 806 397 797T375 788Z" />
<glyph unicode="&#x10b;" glyph-name="cdotaccent" horiz-adv-x="555" d="M293 -8Q239 -8 193 11T112 67T58 153T38 265V273Q38 334 58 384T113 471T194 526T293 546Q333 546 370 535T438 502T488 447T515 371H473Q468 406 452 432T412 476T357 502T293 511Q249
511 211 495T143 447T98 372T81 273V265Q81 209 97 165T142 90T209 43T293 27Q329 27 360 37T417 67T459 116T482 184H520Q514 141 495 106T445 45T377 6T293 -8ZM278 637Q265 637 256 646T247 667Q247 680 256 689T278 698Q291 698 300 689T309 667Q309 655 300
646T278 637Z" />
<glyph unicode="&#x10c;" glyph-name="Ccaron" horiz-adv-x="712" d="M245 892H280L377 807L475 892H509L396 771H356L245 892ZM377 -7Q301 -7 240 19T136 92T70 206T46 353V361Q46 440 72 506T142 621T247 696T377 723Q432 723 481 709T568 667T631 598T666 504H622Q604
592 542 639T378 687Q316 687 264 663T173 597T113 494T91 362V354Q91 280 111 220T168 118T259 53T378 30Q479 30 547 81T633 227H674Q664 171 638 128T573 54T484 9T377 -7Z" />
<glyph unicode="&#x10d;" glyph-name="ccaron" horiz-adv-x="555" d="M148 744H183L278 649L374 744H408L297 613H257L148 744ZM293 -8Q239 -8 193 11T112 67T58 153T38 265V273Q38 334 58 384T113 471T194 526T293 546Q333 546 370 535T438 502T488 447T515 371H473Q468
406 452 432T412 476T357 502T293 511Q249 511 211 495T143 447T98 372T81 273V265Q81 209 97 165T142 90T209 43T293 27Q329 27 360 37T417 67T459 116T482 184H520Q514 141 495 106T445 45T377 6T293 -8Z" />
<glyph unicode="&#x10e;" glyph-name="Dcaron" horiz-adv-x="669" d="M174 892H209L306 807L404 892H438L325 771H285L174 892ZM85 715H269Q356 715 422 688T533 614T600 503T623 364V356Q623 282 602 217T536 104T425 28T267 0H85V715ZM265 37Q344 37 403 61T501
127T559 228T578 356V364Q578 431 560 488T502 588T404 654T264 678H129V37H265Z" />
<glyph unicode="&#x10f;" glyph-name="dcaron" horiz-adv-x="611" d="M588 773H635L607 616H575L588 773ZM283 27Q326 27 364 42T431 88T477 163T494 265V273Q494 331 479 375T436 450T372 495T290 511Q246 511 208 495T141 449T97 374T81 272V264Q81 207 96 163T139
88T203 43T283 27ZM281 -8Q230 -8 186 10T108 63T57 148T38 262V270Q38 332 57 383T111 470T191 526T290 546Q331 546 364 535T421 504T464 461T493 409V746H533V0H493V135Q482 109 463 84T417 38T356 5T281 -8Z" />
<glyph unicode="&#x110;" glyph-name="Dcroat" horiz-adv-x="674" d="M18 377H93V715H276Q364 715 430 688T541 614T608 503T631 364V356Q631 282 610 217T544 104T432 28T274 0H93V342H18V377ZM272 37Q351 37 410 61T508 127T566 228T586 356V364Q586 431 568
488T510 588T412 654T271 678H137V377H345V342H137V37H272Z" />
<glyph unicode="&#x111;" glyph-name="dcroat" horiz-adv-x="611" d="M283 27Q326 27 364 42T431 88T477 163T494 265V273Q494 331 479 375T436 450T372 495T290 511Q246 511 208 495T141 449T97 374T81 272V264Q81 207 96 163T139 88T203 43T283 27ZM294 679H493V797H533V679H615V646H533V0H493V135Q482
109 463 84T417 38T356 5T281 -8Q230 -8 186 10T108 63T57 148T38 262V270Q38 332 57 383T111 470T191 526T290 546Q331 546 364 535T421 504T464 461T493 409V646H294V679Z" />
<glyph unicode="&#x112;" glyph-name="Emacron" horiz-adv-x="551" d="M85 715H493V678H129V386H425V350H129V37H511V0H85V715ZM169 827H409V793H169V827Z" />
<glyph unicode="&#x113;" glyph-name="emacron" horiz-adv-x="552" d="M290 -8Q232 -8 186 12T106 68T56 154T38 265V273Q38 333 56 383T106 470T184 526T283 546Q332 546 374 530T447 482T497 400T515 286V269H81Q83 154 136 91T290 28Q359 28 406 58T469 148H511Q492
72 434 32T290 -8ZM472 305Q470 357 456 395T417 459T358 497T283 510Q199 510 145 455T82 305H472ZM154 681H389V647H154V681Z" />
<glyph unicode="&#x114;" glyph-name="Ebreve" horiz-adv-x="551" d="M85 715H493V678H129V386H425V350H129V37H511V0H85V715ZM290 773Q265 773 244 782T206 806T179 844T167 892H202Q206 855 230 832T290 808Q327 808 352 831T382 892H417Q415 866 405 844T377
807T337 782T290 773Z" />
<glyph unicode="&#x115;" glyph-name="ebreve" horiz-adv-x="552" d="M290 -8Q232 -8 186 12T106 68T56 154T38 265V273Q38 333 56 383T106 470T184 526T283 546Q332 546 374 530T447 482T497 400T515 286V269H81Q83 154 136 91T290 28Q359 28 406 58T469 148H511Q492
72 434 32T290 -8ZM472 305Q470 357 456 395T417 459T358 497T283 510Q199 510 145 455T82 305H472ZM267 614Q217 614 185 646T149 731H184Q188 694 209 672T267 650Q304 650 326 671T354 731H389Q385 679 351 647T267 614Z" />
<glyph unicode="&#x116;" glyph-name="Edotaccent" horiz-adv-x="551" d="M289 788Q276 788 267 797T258 819Q258 832 267 841T289 850Q302 850 311 841T320 819Q320 806 311 797T289 788ZM85 715H493V678H129V386H425V350H129V37H511V0H85V715Z" />
<glyph unicode="&#x117;" glyph-name="edotaccent" horiz-adv-x="552" d="M290 -8Q232 -8 186 12T106 68T56 154T38 265V273Q38 333 56 383T106 470T184 526T283 546Q332 546 374 530T447 482T497 400T515 286V269H81Q83 154 136 91T290 28Q359 28 406 58T469
148H511Q492 72 434 32T290 -8ZM472 305Q470 357 456 395T417 459T358 497T283 510Q199 510 145 455T82 305H472ZM272 637Q259 637 250 646T241 667Q241 680 250 689T272 698Q285 698 294 689T303 667Q303 655 294 646T272 637Z" />
<glyph unicode="&#x118;" glyph-name="Eogonek" horiz-adv-x="551" d="M422 -182Q380 -182 357 -161T333 -108Q333 -75 355 -48T410 0H85V715H493V678H129V386H425V350H129V37H511V0H452Q414 -25 394 -49T374 -103Q374 -123 386 -136T427 -149Q453 -149 477 -140V-172Q466
-177 453 -179T422 -182Z" />
<glyph unicode="&#x119;" glyph-name="eogonek" horiz-adv-x="552" d="M375 -187Q330 -187 306 -166T282 -111Q282 -77 306 -48T364 2Q345 -3 328 -5T290 -8Q232 -8 186 12T106 68T56 154T38 265V273Q38 333 56 383T106 470T184 526T283 546Q332 546 374 530T447
482T497 400T515 286V269H81Q83 154 136 91T290 28Q359 28 406 58T469 148H511Q499 100 476 72T430 26Q413 11 394 -3T359 -34T333 -67T323 -106Q323 -127 336 -141T378 -155Q391 -155 404 -153T430 -144V-177Q405 -187 375 -187ZM472 305Q470 357 456 395T417
459T358 497T283 510Q199 510 145 455T82 305H472Z" />
<glyph unicode="&#x11a;" glyph-name="Ecaron" horiz-adv-x="551" d="M158 892H193L290 807L388 892H422L309 771H269L158 892ZM85 715H493V678H129V386H425V350H129V37H511V0H85V715Z" />
<glyph unicode="&#x11b;" glyph-name="ecaron" horiz-adv-x="552" d="M142 744H177L272 649L368 744H402L291 613H251L142 744ZM290 -8Q232 -8 186 12T106 68T56 154T38 265V273Q38 333 56 383T106 470T184 526T283 546Q332 546 374 530T447 482T497 400T515 286V269H81Q83
154 136 91T290 28Q359 28 406 58T469 148H511Q492 72 434 32T290 -8ZM472 305Q470 357 456 395T417 459T358 497T283 510Q199 510 145 455T82 305H472Z" />
<glyph unicode="&#x11c;" glyph-name="Gcircumflex" horiz-adv-x="742" d="M362 892H402L511 771H477L381 856L285 771H251L362 892ZM388 -7Q308 -7 245 19T137 94T70 208T46 353V361Q46 440 72 506T143 621T251 696T386 723Q437 723 484 711T569 673T634 608T672
515H625Q615 560 593 592T540 644T470 675T387 685Q322 685 268 661T176 595T116 493T94 362V354Q94 281 113 222T170 120T263 55T388 32Q518 32 583 104T649 306H426V345H695V313Q695 234 673 175T611 75T514 14T388 -7Z" />
<glyph unicode="&#x11d;" glyph-name="gcircumflex" horiz-adv-x="611" d="M261 733H301L410 602H375L280 698L184 602H150L261 733ZM283 52Q326 52 364 67T431 112T477 182T494 277V285Q494 339 479 381T436 452T372 496T290 511Q246 511 208 496T141 451T97
379T81 284V276Q81 223 96 182T139 111T204 67T283 52ZM289 -183Q231 -183 189 -170T117 -135T72 -83T51 -22H92Q103 -77 150 -112T288 -147Q333 -147 370 -137T435 -103T477 -43T493 47V156Q482 130 463 106T417 62T356 30T282 18Q231 18 187 36T109 87T57 167T38
275V282Q38 340 57 388T111 472T191 526T290 546Q332 546 364 535T422 506T464 464T493 413V539H533V45Q533 -15 515 -58T464 -128T386 -169T289 -183Z" />
<glyph unicode="&#x11e;" glyph-name="Gbreve" horiz-adv-x="742" d="M379 773Q354 773 333 782T295 806T268 844T256 892H291Q295 855 319 832T379 808Q416 808 441 831T471 892H506Q504 866 494 844T466 807T426 782T379 773ZM388 -7Q308 -7 245 19T137 94T70
208T46 353V361Q46 440 72 506T143 621T251 696T386 723Q437 723 484 711T569 673T634 608T672 515H625Q615 560 593 592T540 644T470 675T387 685Q322 685 268 661T176 595T116 493T94 362V354Q94 281 113 222T170 120T263 55T388 32Q518 32 583 104T649 306H426V345H695V313Q695
234 673 175T611 75T514 14T388 -7Z" />
<glyph unicode="&#x11f;" glyph-name="gbreve" horiz-adv-x="611" d="M283 52Q326 52 364 67T431 112T477 182T494 277V285Q494 339 479 381T436 452T372 496T290 511Q246 511 208 496T141 451T97 379T81 284V276Q81 223 96 182T139 111T204 67T283 52ZM289 -183Q231
-183 189 -170T117 -135T72 -83T51 -22H92Q103 -77 150 -112T288 -147Q333 -147 370 -137T435 -103T477 -43T493 47V156Q482 130 463 106T417 62T356 30T282 18Q231 18 187 36T109 87T57 167T38 275V282Q38 340 57 388T111 472T191 526T290 546Q332 546 364 535T422
506T464 464T493 413V539H533V45Q533 -15 515 -58T464 -128T386 -169T289 -183ZM279 614Q229 614 197 646T161 731H196Q200 694 221 672T279 650Q316 650 338 671T366 731H401Q397 679 363 647T279 614Z" />
<glyph unicode="&#x120;" glyph-name="Gdotaccent" horiz-adv-x="742" d="M381 788Q368 788 359 797T350 819Q350 832 359 841T381 850Q394 850 403 841T412 819Q412 806 403 797T381 788ZM388 -7Q308 -7 245 19T137 94T70 208T46 353V361Q46 440 72 506T143 621T251
696T386 723Q437 723 484 711T569 673T634 608T672 515H625Q615 560 593 592T540 644T470 675T387 685Q322 685 268 661T176 595T116 493T94 362V354Q94 281 113 222T170 120T263 55T388 32Q518 32 583 104T649 306H426V345H695V313Q695 234 673 175T611 75T514
14T388 -7Z" />
<glyph unicode="&#x121;" glyph-name="gdotaccent" horiz-adv-x="611" d="M283 52Q326 52 364 67T431 112T477 182T494 277V285Q494 339 479 381T436 452T372 496T290 511Q246 511 208 496T141 451T97 379T81 284V276Q81 223 96 182T139 111T204 67T283 52ZM289
-183Q231 -183 189 -170T117 -135T72 -83T51 -22H92Q103 -77 150 -112T288 -147Q333 -147 370 -137T435 -103T477 -43T493 47V156Q482 130 463 106T417 62T356 30T282 18Q231 18 187 36T109 87T57 167T38 275V282Q38 340 57 388T111 472T191 526T290 546Q332 546
364 535T422 506T464 464T493 413V539H533V45Q533 -15 515 -58T464 -128T386 -169T289 -183ZM280 637Q267 637 258 646T249 667Q249 680 258 689T280 698Q293 698 302 689T311 667Q311 655 302 646T280 637Z" />
<glyph unicode="&#x122;" glyph-name="uni0122" horiz-adv-x="742" d="M352 -132Q383 -126 383 -101Q352 -101 352 -72Q352 -61 360 -54T381 -46Q394 -46 403 -55T412 -83V-91Q412 -122 396 -137T352 -154V-132ZM388 -7Q308 -7 245 19T137 94T70 208T46 353V361Q46
440 72 506T143 621T251 696T386 723Q437 723 484 711T569 673T634 608T672 515H625Q615 560 593 592T540 644T470 675T387 685Q322 685 268 661T176 595T116 493T94 362V354Q94 281 113 222T170 120T263 55T388 32Q518 32 583 104T649 306H426V345H695V313Q695
234 673 175T611 75T514 14T388 -7Z" />
<glyph unicode="&#x123;" glyph-name="uni0123" horiz-adv-x="611" d="M283 52Q326 52 364 67T431 112T477 182T494 277V285Q494 339 479 381T436 452T372 496T290 511Q246 511 208 496T141 451T97 379T81 284V276Q81 223 96 182T139 111T204 67T283 52ZM289 -183Q231
-183 189 -170T117 -135T72 -83T51 -22H92Q103 -77 150 -112T288 -147Q333 -147 370 -137T435 -103T477 -43T493 47V156Q482 130 463 106T417 62T356 30T282 18Q231 18 187 36T109 87T57 167T38 275V282Q38 340 57 388T111 472T191 526T290 546Q332 546 364 535T422
506T464 464T493 413V539H533V45Q533 -15 515 -58T464 -128T386 -169T289 -183ZM291 631Q278 631 269 640T260 668V676Q260 707 276 722T320 740V717Q289 711 289 686Q303 686 311 678T320 658Q320 647 312 639T291 631Z" />
<glyph unicode="&#x124;" glyph-name="Hcircumflex" horiz-adv-x="697" d="M85 715H129V378H568V715H612V0H568V341H129V0H85V715ZM329 892H369L478 771H444L348 856L252 771H218L329 892Z" />
<glyph unicode="&#x125;" glyph-name="hcircumflex" horiz-adv-x="579" d="M78 746H118V427Q127 451 145 472T188 510T244 536T313 546Q356 546 392 534T453 496T493 429T507 331V0H465V336Q465 428 424 469T307 510Q272 510 238 498T178 463T135 406T118 328V0H78V746ZM272
936H312L421 815H387L291 900L195 815H161L272 936Z" />
<glyph unicode="&#x126;" glyph-name="Hbar" horiz-adv-x="697" d="M568 378V517H129V378H568ZM2 552H85V715H129V552H568V715H612V552H694V517H612V0H568V341H129V0H85V517H2V552Z" />
<glyph unicode="&#x127;" glyph-name="hbar" horiz-adv-x="579" d="M-4 679H78V797H118V679H317V646H118V427Q127 451 145 472T188 510T244 536T313 546Q356 546 392 534T453 496T493 429T507 331V0H465V336Q465 428 424 469T307 510Q272 510 238 498T178 463T135
406T118 328V0H78V646H-4V679Z" />
<glyph unicode="&#x128;" glyph-name="Itilde" horiz-adv-x="225" d="M90 715H134V0H90V715ZM433 773Q415 773 398 782T365 801T334 821T305 830Q286 830 273 816T256 774H224Q229 820 251 843T305 866Q323 866 340 857T373 838T404 819T433 810Q452 810 465 824T482
866H514Q509 820 487 797T433 773Z" />
<glyph unicode="&#x129;" glyph-name="itilde" horiz-adv-x="200" d="M80 539H120V0H80V539ZM417 615Q399 615 382 624T348 643T317 663T288 672Q271 672 258 658T240 615H208Q213 661 235 684T289 707Q307 707 324 699T357 680T388 661T418 652Q435 652 448 666T466
708H498Q493 662 471 639T417 615Z" />
<glyph unicode="&#x12a;" glyph-name="Imacron" horiz-adv-x="225" d="M90 715H134V0H90V715ZM248 827H488V793H248V827Z" />
<glyph unicode="&#x12b;" glyph-name="imacron" horiz-adv-x="200" d="M14 703H185V667H14V703ZM80 539H120V0H80V539Z" />
<glyph unicode="&#x12c;" glyph-name="Ibreve" horiz-adv-x="225" d="M90 715H134V0H90V715ZM367 773Q342 773 321 782T283 806T256 844T244 892H279Q283 855 307 832T367 808Q404 808 429 831T459 892H494Q492 866 482 844T454 807T414 782T367 773Z" />
<glyph unicode="&#x12d;" glyph-name="ibreve" horiz-adv-x="200" d="M80 539H120V0H80V539ZM351 614Q301 614 269 646T233 731H268Q272 694 293 672T351 650Q388 650 410 671T438 731H473Q469 679 435 647T351 614Z" />
<glyph unicode="&#x12e;" glyph-name="Iogonek" horiz-adv-x="225" d="M113 -182Q71 -182 48 -161T24 -108Q24 -74 44 -47T90 1V715H134V2Q105 -21 85 -46T65 -103Q65 -123 77 -136T118 -149Q144 -149 168 -140V-172Q157 -177 144 -179T113 -182Z" />
<glyph unicode="&#x12f;" glyph-name="iogonek" horiz-adv-x="200" d="M100 641Q86 641 77 650T68 673Q68 685 77 694T100 704Q113 704 121 695T130 673Q130 660 122 651T100 641ZM80 539H120V0Q93 -25 75 -49T56 -103Q56 -123 68 -136T109 -150Q135 -150 159
-141V-172Q134 -182 105 -182Q63 -182 39 -161T15 -108Q15 -91 21 -75T37 -46T58 -21T80 0V539Z" />
<glyph unicode="&#x130;" glyph-name="Idotaccent" horiz-adv-x="225" d="M90 715H134V0H90V715ZM368 788Q355 788 346 797T337 819Q337 832 346 841T368 850Q381 850 390 841T399 819Q399 806 390 797T368 788Z" />
<glyph unicode="&#x131;" glyph-name="dotlessi" horiz-adv-x="200" d="M80 539H120V0H80V539Z" />
<glyph unicode="&#x132;" glyph-name="IJ" horiz-adv-x="584" d="M90 715H134V0H90V715ZM335 -6Q298 -6 273 0T234 15V52Q253 44 277 38T333 31Q395 31 431 64T467 177V715H511V175Q511 127 498 93T462 37T406 5T335 -6Z" />
<glyph unicode="&#x133;" glyph-name="ij" horiz-adv-x="409" d="M100 641Q86 641 77 650T68 673Q68 685 77 694T100 704Q113 704 121 695T130 673Q130 660 122 651T100 641ZM80 539H120V0H80V539ZM309 641Q295 641 286 650T277 673Q277 685 286 694T309 704Q322
704 330 695T339 673Q339 660 331 651T309 641ZM208 -147Q255 -143 272 -120T289 -50V539H329V-46Q329 -113 302 -146T208 -183V-147Z" />
<glyph unicode="&#x134;" glyph-name="Jcircumflex" horiz-adv-x="378" d="M264 892H304L413 771H379L283 856L187 771H153L264 892ZM129 -6Q92 -6 67 0T28 15V52Q47 44 71 38T127 31Q189 31 225 64T261 177V715H305V175Q305 127 292 93T256 37T200 5T129 -6Z" />
<glyph unicode="&#x135;" glyph-name="jcircumflex" horiz-adv-x="200" d="M334 733H374L483 602H448L353 698L257 602H223L334 733ZM-1 -147Q46 -143 63 -120T80 -50V539H120V-46Q120 -113 93 -146T-1 -183V-147Z" />
<glyph unicode="&#x136;" glyph-name="uni0136" horiz-adv-x="579" d="M132 0H85V715H132V0ZM490 715H543L189 367L561 0H503L134 363L490 715ZM272 -132Q303 -126 303 -101Q272 -101 272 -72Q272 -61 280 -54T301 -46Q314 -46 323 -55T332 -83V-91Q332 -122 316
-137T272 -154V-132Z" />
<glyph unicode="&#x137;" glyph-name="uni0137" horiz-adv-x="474" d="M118 0H78V746H118V0ZM396 539H446L171 286L463 0H411L120 285L396 539ZM213 -132Q244 -126 244 -101Q213 -101 213 -72Q213 -61 221 -54T242 -46Q255 -46 264 -55T273 -83V-91Q273 -122 257
-137T213 -154V-132Z" />
<glyph unicode="&#x139;" glyph-name="Lacute" horiz-adv-x="513" d="M410 892H460L376 771H343L410 892ZM85 715H129V37H484V0H85V715Z" />
<glyph unicode="&#x13a;" glyph-name="lacute" horiz-adv-x="201" d="M412 936H462L378 815H345L412 936ZM80 746H121V0H80V746Z" />
<glyph unicode="&#x13b;" glyph-name="uni013B" horiz-adv-x="513" d="M249 -132Q280 -126 280 -101Q249 -101 249 -72Q249 -61 257 -54T278 -46Q291 -46 300 -55T309 -83V-91Q309 -122 293 -137T249 -154V-132ZM85 715H129V37H484V0H85V715Z" />
<glyph unicode="&#x13c;" glyph-name="uni013C" horiz-adv-x="201" d="M321 -132Q352 -126 352 -101Q321 -101 321 -72Q321 -61 329 -54T350 -46Q363 -46 372 -55T381 -83V-91Q381 -122 365 -137T321 -154V-132ZM80 746H121V0H80V746Z" />
<glyph unicode="&#x13d;" glyph-name="Lcaron" horiz-adv-x="513" d="M85 715H129V37H484V0H85V715ZM325 715H371L331 558H300L325 715Z" />
<glyph unicode="&#x13e;" glyph-name="lcaron" horiz-adv-x="201" d="M189 773H236L208 616H176L189 773ZM80 746H121V0H80V746Z" />
<glyph unicode="&#x13f;" glyph-name="Ldot" horiz-adv-x="505" d="M85 715H129V37H484V0H85V715ZM419 340Q405 340 395 349T385 373Q385 387 395 397T419 408Q434 408 443 398T453 373Q453 359 444 350T419 340Z" />
<glyph unicode="&#x140;" glyph-name="ldot" horiz-adv-x="253" d="M80 746H121V0H80V746ZM226 342Q212 342 202 351T192 375Q192 389 202 399T226 410Q241 410 250 400T260 375Q260 361 251 352T226 342Z" />
<glyph unicode="&#x141;" glyph-name="Lslash" horiz-adv-x="526" d="M23 298L98 325V715H142V342L373 428V393L142 306V37H497V0H98V290L23 263V298Z" />
<glyph unicode="&#x142;" glyph-name="lslash" horiz-adv-x="217" d="M7 389L88 442V797H128V468L213 524V486L128 430V0H88V404L7 351V389Z" />
<glyph unicode="&#x143;" glyph-name="Nacute" horiz-adv-x="694" d="M401 892H451L367 771H334L401 892ZM85 715H146L566 59V715H609V0H556L128 668V0H85V715Z" />
<glyph unicode="&#x144;" glyph-name="nacute" horiz-adv-x="579" d="M325 749H376L288 602H255L325 749ZM78 539H118V427Q127 451 145 472T188 510T244 536T313 546Q356 546 392 534T453 496T493 429T507 331V0H465V336Q465 428 424 469T307 510Q272 510 238
498T178 463T135 406T118 328V0H78V539Z" />
<glyph unicode="&#x145;" glyph-name="uni0145" horiz-adv-x="694" d="M308 -132Q339 -126 339 -101Q308 -101 308 -72Q308 -61 316 -54T337 -46Q350 -46 359 -55T368 -83V-91Q368 -122 352 -137T308 -154V-132ZM85 715H146L566 59V715H609V0H556L128 668V0H85V715Z" />
<glyph unicode="&#x146;" glyph-name="uni0146" horiz-adv-x="579" d="M251 -132Q282 -126 282 -101Q251 -101 251 -72Q251 -61 259 -54T280 -46Q293 -46 302 -55T311 -83V-91Q311 -122 295 -137T251 -154V-132ZM78 539H118V427Q127 451 145 472T188 510T244 536T313
546Q356 546 392 534T453 496T493 429T507 331V0H465V336Q465 428 424 469T307 510Q272 510 238 498T178 463T135 406T118 328V0H78V539Z" />
<glyph unicode="&#x147;" glyph-name="Ncaron" horiz-adv-x="694" d="M226 892H261L358 807L456 892H490L377 771H337L226 892ZM85 715H146L566 59V715H609V0H556L128 668V0H85V715Z" />
<glyph unicode="&#x148;" glyph-name="ncaron" horiz-adv-x="579" d="M149 744H184L279 649L375 744H409L298 613H258L149 744ZM78 539H118V427Q127 451 145 472T188 510T244 536T313 546Q356 546 392 534T453 496T493 429T507 331V0H465V336Q465 428 424 469T307
510Q272 510 238 498T178 463T135 406T118 328V0H78V539Z" />
<glyph unicode="&#x149;" glyph-name="napostrophe" horiz-adv-x="589" d="M88 539H128V427Q137 451 155 472T198 510T254 536T323 546Q366 546 402 534T463 496T503 429T517 331V0H475V336Q475 428 434 469T317 510Q282 510 248 498T188 463T145 406T128 328V0H88V539Z" />
<glyph unicode="&#x14a;" glyph-name="Eng" horiz-adv-x="694" d="M433 -189Q396 -189 371 -183T332 -169V-132Q351 -140 375 -146T431 -153Q492 -153 528 -120T565 -7L128 668V0H85V715H146L566 67V715H609V-1Q609 -51 596 -87T560 -145T504 -178T433 -189Z" />
<glyph unicode="&#x14b;" glyph-name="eng" horiz-adv-x="579" d="M373 -157Q424 -152 444 -127T465 -45V336Q465 428 424 469T307 510Q272 510 238 498T178 463T135 406T118 328V0H78V539H118V427Q127 451 145 472T188 510T244 536T313 546Q356 546 392 534T453
496T493 429T507 331V-41Q507 -119 476 -154T373 -193V-157Z" />
<glyph unicode="&#x14c;" glyph-name="Omacron" horiz-adv-x="787" d="M271 827H511V793H271V827ZM395 -7Q320 -7 256 21T146 98T73 212T46 353V361Q46 437 72 503T145 617T255 694T393 722Q468 722 531 695T641 619T714 505T741 364V356Q741 280 715 214T642
99T532 22T395 -7ZM395 30Q461 30 516 55T611 123T673 226T695 356V364Q695 431 673 490T611 592T516 661T393 686Q326 686 271 661T175 593T113 490T91 361V353Q91 284 114 225T178 123T274 55T395 30Z" />
<glyph unicode="&#x14d;" glyph-name="omacron" horiz-adv-x="592" d="M167 681H402V647H167V681ZM295 -8Q241 -8 195 12T113 69T58 156T38 265V273Q38 334 58 384T114 470T196 526T297 546Q350 546 397 527T478 472T533 386T553 274V266Q553 205 533 155T478
68T396 12T295 -8ZM296 27Q341 27 380 43T448 91T494 166T511 266V273Q511 329 494 373T448 447T380 494T297 510Q252 510 213 494T144 447T98 372T81 273V265Q81 211 97 167T143 92T211 44T296 27Z" />
<glyph unicode="&#x14e;" glyph-name="Obreve" horiz-adv-x="787" d="M389 773Q364 773 343 782T305 806T278 844T266 892H301Q305 855 329 832T389 808Q426 808 451 831T481 892H516Q514 866 504 844T476 807T436 782T389 773ZM395 -7Q320 -7 256 21T146 98T73
212T46 353V361Q46 437 72 503T145 617T255 694T393 722Q468 722 531 695T641 619T714 505T741 364V356Q741 280 715 214T642 99T532 22T395 -7ZM395 30Q461 30 516 55T611 123T673 226T695 356V364Q695 431 673 490T611 592T516 661T393 686Q326 686 271 661T175
593T113 490T91 361V353Q91 284 114 225T178 123T274 55T395 30Z" />
<glyph unicode="&#x14f;" glyph-name="obreve" horiz-adv-x="592" d="M295 -8Q241 -8 195 12T113 69T58 156T38 265V273Q38 334 58 384T114 470T196 526T297 546Q350 546 397 527T478 472T533 386T553 274V266Q553 205 533 155T478 68T396 12T295 -8ZM296 27Q341
27 380 43T448 91T494 166T511 266V273Q511 329 494 373T448 447T380 494T297 510Q252 510 213 494T144 447T98 372T81 273V265Q81 211 97 167T143 92T211 44T296 27ZM284 614Q234 614 202 646T166 731H201Q205 694 226 672T284 650Q321 650 343 671T371 731H406Q402
679 368 647T284 614Z" />
<glyph unicode="&#x150;" glyph-name="Ohungarumlaut" horiz-adv-x="787" d="M481 892H529L467 771H434L481 892ZM358 892H405L343 771H311L358 892ZM395 -7Q320 -7 256 21T146 98T73 212T46 353V361Q46 437 72 503T145 617T255 694T393 722Q468 722 531 695T641
619T714 505T741 364V356Q741 280 715 214T642 99T532 22T395 -7ZM395 30Q461 30 516 55T611 123T673 226T695 356V364Q695 431 673 490T611 592T516 661T393 686Q326 686 271 661T175 593T113 490T91 361V353Q91 284 114 225T178 123T274 55T395 30Z" />
<glyph unicode="&#x151;" glyph-name="ohungarumlaut" horiz-adv-x="592" d="M385 749H432L366 602H333L385 749ZM261 749H309L242 602H210L261 749ZM295 -8Q241 -8 195 12T113 69T58 156T38 265V273Q38 334 58 384T114 470T196 526T297 546Q350 546 397 527T478
472T533 386T553 274V266Q553 205 533 155T478 68T396 12T295 -8ZM296 27Q341 27 380 43T448 91T494 166T511 266V273Q511 329 494 373T448 447T380 494T297 510Q252 510 213 494T144 447T98 372T81 273V265Q81 211 97 167T143 92T211 44T296 27Z" />
<glyph unicode="&#x152;" glyph-name="OE" horiz-adv-x="941" d="M44 359Q44 433 65 498T131 611T241 687T399 715H884V678H535V386H816V350H535V37H902V0H397Q310 0 244 26T133 100T67 211T44 350V359ZM401 678Q322 678 264 654T166 588T108 487T89 359V351Q89
283 107 226T164 126T262 61T402 37H491V678H401Z" />
<glyph unicode="&#x153;" glyph-name="oe" horiz-adv-x="1024" d="M295 -8Q241 -8 195 12T113 69T58 156T38 265V273Q38 334 58 384T114 470T196 526T297 546Q338 546 375 534T443 500T496 445T531 372Q554 453 613 499T755 546Q804 546 846 530T919 482T969 400T987
286V269H553Q555 154 608 91T763 28Q832 28 879 58T941 148H982Q964 72 906 32T763 -8Q671 -8 612 39T531 166Q518 126 495 94T442 39T374 4T295 -8ZM945 305Q941 410 890 460T755 510Q713 510 678 496T617 455T574 390T554 305H945ZM296 27Q341 27 380 43T448
91T494 166T511 266V273Q511 329 494 373T448 447T380 494T297 510Q252 510 213 494T144 447T98 372T81 273V265Q81 211 97 167T143 92T211 44T296 27Z" />
<glyph unicode="&#x154;" glyph-name="Racute" horiz-adv-x="583" d="M325 892H375L291 771H258L325 892ZM276 367Q366 367 418 403T470 522V526Q470 569 456 598T417 645T355 670T276 678H129V367H276ZM85 715H273Q326 715 370 705T446 672T496 613T514 526V522Q514
477 500 444T462 389T403 353T326 335L556 0H507L279 331H129V0H85V715Z" />
<glyph unicode="&#x155;" glyph-name="racute" horiz-adv-x="335" d="M481 749H532L444 602H411L481 749ZM78 539H118V421Q128 446 144 468T182 506T234 533T302 545V507Q264 505 231 494T172 458T133 396T118 302V0H78V539Z" />
<glyph unicode="&#x156;" glyph-name="uni0156" horiz-adv-x="583" d="M276 367Q366 367 418 403T470 522V526Q470 569 456 598T417 645T355 670T276 678H129V367H276ZM85 715H273Q326 715 370 705T446 672T496 613T514 526V522Q514 477 500 444T462 389T403 353T326
335L556 0H507L279 331H129V0H85V715ZM265 -132Q296 -126 296 -101Q265 -101 265 -72Q265 -61 273 -54T294 -46Q307 -46 316 -55T325 -83V-91Q325 -122 309 -137T265 -154V-132Z" />
<glyph unicode="&#x157;" glyph-name="uni0157" horiz-adv-x="335" d="M78 539H118V421Q128 446 144 468T182 506T234 533T302 545V507Q264 505 231 494T172 458T133 396T118 302V0H78V539ZM319 -132Q350 -126 350 -101Q319 -101 319 -72Q319 -61 327 -54T348
-46Q361 -46 370 -55T379 -83V-91Q379 -122 363 -137T319 -154V-132Z" />
<glyph unicode="&#x158;" glyph-name="Rcaron" horiz-adv-x="583" d="M149 892H184L281 807L379 892H413L300 771H260L149 892ZM276 367Q366 367 418 403T470 522V526Q470 569 456 598T417 645T355 670T276 678H129V367H276ZM85 715H273Q326 715 370 705T446 672T496
613T514 526V522Q514 477 500 444T462 389T403 353T326 335L556 0H507L279 331H129V0H85V715Z" />
<glyph unicode="&#x159;" glyph-name="rcaron" horiz-adv-x="335" d="M306 744H341L436 649L532 744H566L455 613H415L306 744ZM78 539H118V421Q128 446 144 468T182 506T234 533T302 545V507Q264 505 231 494T172 458T133 396T118 302V0H78V539Z" />
<glyph unicode="&#x15a;" glyph-name="Sacute" horiz-adv-x="577" d="M295 -7Q230 -7 183 9T105 53T56 119T32 200H75Q80 165 94 134T134 80T199 44T295 30Q340 30 376 42T436 75T474 126T488 190Q488 230 478 257T444 303T382 333T289 353Q170 370 116 413T61
538Q61 580 77 614T122 672T193 709T284 722Q382 722 439 677T508 550H467Q454 616 410 651T284 686Q198 686 151 649T103 541Q103 510 112 486T143 444T203 414T297 393Q357 384 401 370T474 333T517 276T531 192Q531 150 515 114T468 51T393 9T295 -7ZM328 892H378L294
771H261L328 892Z" />
<glyph unicode="&#x15b;" glyph-name="sacute" horiz-adv-x="460" d="M268 749H319L231 602H198L268 749ZM237 -9Q143 -9 91 37T33 160H73Q81 101 119 64T237 27Q309 27 346 58T383 141Q383 169 375 188T350 220T304 241T236 258Q188 267 153 278T96 306T63 347T52
406Q52 439 66 465T104 509T159 536T226 546Q262 546 292 538T347 513T387 469T409 404H369Q358 459 323 484T225 510Q164 510 127 482T89 407Q89 381 97 364T123 334T172 312T245 295Q288 287 321 277T376 251T410 209T422 144Q422 112 410 84T375 36T317 3T237
-9Z" />
<glyph unicode="&#x15c;" glyph-name="Scircumflex" horiz-adv-x="577" d="M265 892H305L414 771H380L284 856L188 771H154L265 892ZM295 -7Q230 -7 183 9T105 53T56 119T32 200H75Q80 165 94 134T134 80T199 44T295 30Q340 30 376 42T436 75T474 126T488 190Q488
230 478 257T444 303T382 333T289 353Q170 370 116 413T61 538Q61 580 77 614T122 672T193 709T284 722Q382 722 439 677T508 550H467Q454 616 410 651T284 686Q198 686 151 649T103 541Q103 510 112 486T143 444T203 414T297 393Q357 384 401 370T474 333T517
276T531 192Q531 150 515 114T468 51T393 9T295 -7Z" />
<glyph unicode="&#x15d;" glyph-name="scircumflex" horiz-adv-x="460" d="M204 733H244L353 602H318L223 698L127 602H93L204 733ZM237 -9Q143 -9 91 37T33 160H73Q81 101 119 64T237 27Q309 27 346 58T383 141Q383 169 375 188T350 220T304 241T236 258Q188
267 153 278T96 306T63 347T52 406Q52 439 66 465T104 509T159 536T226 546Q262 546 292 538T347 513T387 469T409 404H369Q358 459 323 484T225 510Q164 510 127 482T89 407Q89 381 97 364T123 334T172 312T245 295Q288 287 321 277T376 251T410 209T422 144Q422
112 410 84T375 36T317 3T237 -9Z" />
<glyph unicode="&#x15e;" glyph-name="uni015E" horiz-adv-x="577" d="M295 -7Q230 -7 183 9T105 53T56 119T32 200H75Q80 165 94 134T134 80T199 44T295 30Q340 30 376 42T436 75T474 126T488 190Q488 230 478 257T444 303T382 333T289 353Q170 370 116 413T61
538Q61 580 77 614T122 672T193 709T284 722Q382 722 439 677T508 550H467Q454 616 410 651T284 686Q198 686 151 649T103 541Q103 510 112 486T143 444T203 414T297 393Q357 384 401 370T474 333T517 276T531 192Q531 150 515 114T468 51T393 9T295 -7ZM277 -212Q237
-212 212 -191T182 -134H218Q221 -154 235 -167T276 -181Q301 -181 315 -168T330 -133Q330 -108 315 -98T279 -88Q265 -88 256 -91T241 -97L222 -80L267 0H301L266 -63Q285 -58 303 -60T336 -71T360 -96T369 -135Q369 -173 342 -192T277 -212Z" />
<glyph unicode="&#x15f;" glyph-name="uni015F" horiz-adv-x="460" d="M237 -9Q143 -9 91 37T33 160H73Q81 101 119 64T237 27Q309 27 346 58T383 141Q383 169 375 188T350 220T304 241T236 258Q188 267 153 278T96 306T63 347T52 406Q52 439 66 465T104 509T159
536T226 546Q262 546 292 538T347 513T387 469T409 404H369Q358 459 323 484T225 510Q164 510 127 482T89 407Q89 381 97 364T123 334T172 312T245 295Q288 287 321 277T376 251T410 209T422 144Q422 112 410 84T375 36T317 3T237 -9ZM224 -212Q184 -212 159 -191T129
-134H165Q168 -154 182 -167T223 -181Q248 -181 262 -168T277 -133Q277 -108 262 -98T226 -88Q212 -88 203 -91T188 -97L169 -80L214 0H248L213 -63Q232 -58 250 -60T283 -71T307 -96T316 -135Q316 -173 289 -192T224 -212Z" />
<glyph unicode="&#x160;" glyph-name="Scaron" horiz-adv-x="577" d="M150 892H185L282 807L380 892H414L301 771H261L150 892ZM295 -7Q230 -7 183 9T105 53T56 119T32 200H75Q80 165 94 134T134 80T199 44T295 30Q340 30 376 42T436 75T474 126T488 190Q488 230
478 257T444 303T382 333T289 353Q170 370 116 413T61 538Q61 580 77 614T122 672T193 709T284 722Q382 722 439 677T508 550H467Q454 616 410 651T284 686Q198 686 151 649T103 541Q103 510 112 486T143 444T203 414T297 393Q357 384 401 370T474 333T517 276T531
192Q531 150 515 114T468 51T393 9T295 -7Z" />
<glyph unicode="&#x161;" glyph-name="scaron" horiz-adv-x="460" d="M93 744H128L223 649L319 744H353L242 613H202L93 744ZM237 -9Q143 -9 91 37T33 160H73Q81 101 119 64T237 27Q309 27 346 58T383 141Q383 169 375 188T350 220T304 241T236 258Q188 267 153
278T96 306T63 347T52 406Q52 439 66 465T104 509T159 536T226 546Q262 546 292 538T347 513T387 469T409 404H369Q358 459 323 484T225 510Q164 510 127 482T89 407Q89 381 97 364T123 334T172 312T245 295Q288 287 321 277T376 251T410 209T422 144Q422 112 410
84T375 36T317 3T237 -9Z" />
<glyph unicode="&#x162;" glyph-name="Tcommaaccent" horiz-adv-x="543" d="M242 -132Q273 -126 273 -101Q242 -101 242 -72Q242 -61 250 -54T271 -46Q284 -46 293 -55T302 -83V-91Q302 -122 286 -137T242 -154V-132ZM250 678H22V715H520V678H294V0H250V678Z" />
<glyph unicode="&#x163;" glyph-name="tcommaaccent" horiz-adv-x="328" d="M399 -132Q430 -126 430 -101Q399 -101 399 -72Q399 -61 407 -54T428 -46Q441 -46 450 -55T459 -83V-91Q459 -122 443 -137T399 -154V-132ZM225 -7Q165 -7 133 27T100 127V502H20V539H100V677H141V539H287V502H141V129Q141
76 164 52T226 28Q248 28 264 31T294 40V4Q282 -1 266 -4T225 -7Z" />
<glyph unicode="&#x164;" glyph-name="Tcaron" horiz-adv-x="543" d="M139 892H174L271 807L369 892H403L290 771H250L139 892ZM250 678H22V715H520V678H294V0H250V678Z" />
<glyph unicode="&#x165;" glyph-name="tcaron" horiz-adv-x="328" d="M244 773H291L263 616H231L244 773ZM225 -7Q165 -7 133 27T100 127V502H20V539H100V677H141V539H287V502H141V129Q141 76 164 52T226 28Q248 28 264 31T294 40V4Q282 -1 266 -4T225 -7Z" />
<glyph unicode="&#x166;" glyph-name="Tbar" horiz-adv-x="543" d="M95 409H250V678H22V715H520V678H294V409H448V375H294V0H250V375H95V409Z" />
<glyph unicode="&#x167;" glyph-name="tbar" horiz-adv-x="327" d="M18 352H98V502H18V539H98V677H140V539H285V502H140V352H285V320H140V129Q140 76 162 52T224 28Q246 28 262 31T293 40V4Q280 -1 264 -4T223 -7Q163 -7 131 27T98 127V320H18V352Z" />
<glyph unicode="&#x168;" glyph-name="Utilde" horiz-adv-x="661" d="M329 -6Q209 -6 141 60T73 254V715H117V258Q117 142 171 87T329 32Q439 32 492 88T545 271V715H589V265Q589 138 525 66T329 -6ZM395 773Q377 773 360 782T327 801T296 821T267 830Q248 830
235 816T218 774H186Q191 820 213 843T267 866Q285 866 302 857T335 838T366 819T395 810Q414 810 427 824T444 866H476Q471 820 449 797T395 773Z" />
<glyph unicode="&#x169;" glyph-name="utilde" horiz-adv-x="575" d="M264 -8Q221 -8 186 3T126 39T86 103T72 199V539H113V199Q113 108 154 69T270 29Q304 29 337 40T397 74T440 130T456 209V539H496V0H456V109Q447 86 429 65T387 27T331 2T264 -8ZM343 615Q325
615 308 624T274 643T243 663T214 672Q197 672 184 658T166 615H134Q139 661 161 684T215 707Q233 707 250 699T283 680T314 661T344 652Q361 652 374 666T392 708H424Q419 662 397 639T343 615Z" />
<glyph unicode="&#x16a;" glyph-name="Umacron" horiz-adv-x="661" d="M329 -6Q209 -6 141 60T73 254V715H117V258Q117 142 171 87T329 32Q439 32 492 88T545 271V715H589V265Q589 138 525 66T329 -6ZM211 827H451V793H211V827Z" />
<glyph unicode="&#x16b;" glyph-name="umacron" horiz-adv-x="575" d="M264 -8Q221 -8 186 3T126 39T86 103T72 199V539H113V199Q113 108 154 69T270 29Q304 29 337 40T397 74T440 130T456 209V539H496V0H456V109Q447 86 429 65T387 27T331 2T264 -8ZM161 681H396V647H161V681Z"
/>
<glyph unicode="&#x16c;" glyph-name="Ubreve" horiz-adv-x="661" d="M329 -6Q209 -6 141 60T73 254V715H117V258Q117 142 171 87T329 32Q439 32 492 88T545 271V715H589V265Q589 138 525 66T329 -6ZM329 773Q304 773 283 782T245 806T218 844T206 892H241Q245
855 269 832T329 808Q366 808 391 831T421 892H456Q454 866 444 844T416 807T376 782T329 773Z" />
<glyph unicode="&#x16d;" glyph-name="ubreve" horiz-adv-x="575" d="M264 -8Q221 -8 186 3T126 39T86 103T72 199V539H113V199Q113 108 154 69T270 29Q304 29 337 40T397 74T440 130T456 209V539H496V0H456V109Q447 86 429 65T387 27T331 2T264 -8ZM277 614Q227
614 195 646T159 731H194Q198 694 219 672T277 650Q314 650 336 671T364 731H399Q395 679 361 647T277 614Z" />
<glyph unicode="&#x16e;" glyph-name="Uring" horiz-adv-x="661" d="M329 -6Q209 -6 141 60T73 254V715H117V258Q117 142 171 87T329 32Q439 32 492 88T545 271V715H589V265Q589 138 525 66T329 -6ZM331 727Q312 727 295 734T265 753T245 782T237 818Q237 837
244 854T265 883T295 903T331 911Q351 911 368 904T398 884T418 854T426 818Q426 780 399 754T331 727ZM331 753Q359 753 377 771T396 818Q396 847 378 866T331 885Q304 885 286 866T267 818Q267 790 285 772T331 753Z" />
<glyph unicode="&#x16f;" glyph-name="uring" horiz-adv-x="575" d="M278 847Q259 847 242 854T212 874T192 903T184 939Q184 958 191 974T212 1003T242 1023T278 1031Q298 1031 315 1024T345 1004T365 975T373 939Q373 920 366 904T346 875T316 855T278 847ZM278
873Q306 873 324 892T343 939Q343 968 325 986T278 1005Q251 1005 233 987T214 939Q214 911 232 892T278 873ZM264 -8Q221 -8 186 3T126 39T86 103T72 199V539H113V199Q113 108 154 69T270 29Q304 29 337 40T397 74T440 130T456 209V539H496V0H456V109Q447 86 429
65T387 27T331 2T264 -8Z" />
<glyph unicode="&#x170;" glyph-name="Uhungarumlaut" horiz-adv-x="661" d="M420 892H468L406 771H373L420 892ZM297 892H344L282 771H250L297 892ZM329 -6Q209 -6 141 60T73 254V715H117V258Q117 142 171 87T329 32Q439 32 492 88T545 271V715H589V265Q589 138
525 66T329 -6Z" />
<glyph unicode="&#x171;" glyph-name="uhungarumlaut" horiz-adv-x="575" d="M264 -8Q221 -8 186 3T126 39T86 103T72 199V539H113V199Q113 108 154 69T270 29Q304 29 337 40T397 74T440 130T456 209V539H496V0H456V109Q447 86 429 65T387 27T331 2T264 -8ZM378
749H425L359 602H326L378 749ZM254 749H302L235 602H203L254 749Z" />
<glyph unicode="&#x172;" glyph-name="Uogonek" horiz-adv-x="661" d="M372 -182Q330 -182 307 -161T283 -108Q283 -76 304 -50T357 -4Q352 -5 344 -5T329 -6Q209 -6 141 60T73 254V715H117V258Q117 142 171 87T329 32Q439 32 492 88T545 271V715H589V265Q589
171 555 108T452 16Q426 5 403 -6T363 -32T335 -64T324 -103Q324 -123 337 -136T377 -149Q403 -149 426 -140V-172Q403 -182 372 -182Z" />
<glyph unicode="&#x173;" glyph-name="uogonek" horiz-adv-x="575" d="M520 -172Q495 -182 466 -182Q424 -182 400 -161T376 -108Q376 -73 400 -44T456 3V109Q447 86 429 65T387 27T331 2T264 -8Q221 -8 186 3T126 39T86 103T72 199V539H113V199Q113 108 154 69T270
29Q304 29 337 40T397 74T440 130T456 209V539H496V0Q458 -25 438 -49T417 -103Q417 -123 429 -136T470 -150Q496 -150 520 -141V-172V-172Z" />
<glyph unicode="&#x174;" glyph-name="Wcircumflex" horiz-adv-x="901" d="M431 892H471L580 771H546L450 856L354 771H320L431 892ZM24 715H69L240 65L437 715H468L654 63L836 715H877L677 0H632L451 635L258 0H215L24 715Z" />
<glyph unicode="&#x175;" glyph-name="wcircumflex" horiz-adv-x="776" d="M358 733H398L507 602H472L377 698L281 602H247L358 733ZM23 539H67L218 50L373 539H408L557 50L710 539H753L582 0H533L390 470L241 0H192L23 539Z" />
<glyph unicode="&#x176;" glyph-name="Ycircumflex" horiz-adv-x="555" d="M263 320L14 715H64L285 357L496 715H540L307 320V0H263V320ZM263 892H303L412 771H378L282 856L186 771H152L263 892Z" />
<glyph unicode="&#x177;" glyph-name="ycircumflex" horiz-adv-x="498" d="M233 44L19 539H62L254 91L436 539H479L182 -177H140L233 44ZM225 733H265L374 602H339L244 698L148 602H114L225 733Z" />
<glyph unicode="&#x178;" glyph-name="Ydieresis" horiz-adv-x="555" d="M263 320L14 715H64L285 357L496 715H540L307 320V0H263V320ZM368 788Q355 788 347 796T338 818Q338 830 346 839T368 848Q381 848 389 839T398 818Q398 805 390 797T368 788ZM196 788Q183
788 174 796T165 818Q165 830 174 839T196 848Q209 848 217 839T226 818Q226 805 218 797T196 788Z" />
<glyph unicode="&#x179;" glyph-name="Zacute" horiz-adv-x="568" d="M334 892H384L300 771H267L334 892ZM19 9L476 678H55V715H538V706L85 38H532V0H19V9Z" />
<glyph unicode="&#x17a;" glyph-name="zacute" horiz-adv-x="468" d="M282 749H333L245 602H212L282 749ZM18 7L381 503H49V539H447V530L87 37H440V0H18V7Z" />
<glyph unicode="&#x17b;" glyph-name="Zdotaccent" horiz-adv-x="568" d="M19 9L476 678H55V715H538V706L85 38H532V0H19V9ZM290 788Q277 788 268 797T259 819Q259 832 268 841T290 850Q303 850 312 841T321 819Q321 806 312 797T290 788Z" />
<glyph unicode="&#x17c;" glyph-name="zdotaccent" horiz-adv-x="468" d="M18 7L381 503H49V539H447V530L87 37H440V0H18V7ZM237 637Q224 637 215 646T206 667Q206 680 215 689T237 698Q250 698 259 689T268 667Q268 655 259 646T237 637Z" />
<glyph unicode="&#x17d;" glyph-name="Zcaron" horiz-adv-x="568" d="M158 892H193L290 807L388 892H422L309 771H269L158 892ZM19 9L476 678H55V715H538V706L85 38H532V0H19V9Z" />
<glyph unicode="&#x17e;" glyph-name="zcaron" horiz-adv-x="468" d="M107 744H142L237 649L333 744H367L256 613H216L107 744ZM18 7L381 503H49V539H447V530L87 37H440V0H18V7Z" />
<glyph unicode="&#x192;" glyph-name="uni0192" horiz-adv-x="374" d="M23 412H120L145 585Q158 672 201 709T307 746Q330 746 346 743T377 734V698Q365 703 348 707T307 711Q258 711 228 682T186 584L159 412H314V376H154L69 -187H27L113 376H23V412Z" />
<glyph unicode="&#x1fa;" glyph-name="Aringacute" horiz-adv-x="631" d="M160 260H467L313 679L160 260ZM286 715H344L606 0H563L480 225H148L66 0H24L286 715ZM358 1084H408L324 963H291L358 1084ZM313 1005Q294 1005 277 1012T247 1031T227 1060T219 1096Q219
1115 226 1132T247 1161T277 1181T313 1189Q333 1189 350 1182T380 1162T400 1132T408 1096Q408 1058 381 1032T313 1005ZM313 1031Q341 1031 359 1049T378 1096Q378 1125 360 1144T313 1163Q286 1163 268 1144T249 1096Q249 1068 267 1050T313 1031Z" />
<glyph unicode="&#x1fb;" glyph-name="aringacute" horiz-adv-x="525" d="M225 27Q263 27 297 38T356 68T397 113T412 169V274H289Q246 274 208 269T142 248T98 208T82 143Q82 87 118 57T225 27ZM224 -8Q143 -8 92 30T40 144Q40 191 60 222T115 272T194 299T287
307H412V357Q412 438 377 474T267 511Q203 511 160 482T105 389H65Q70 430 88 460T134 509T196 537T268 546Q354 546 403 502T453 357V0H412V87Q386 46 341 19T224 -8ZM260 851Q241 851 224 858T194 878T174 907T166 943Q166 962 173 978T194 1007T224 1027T260
1035Q280 1035 297 1028T327 1008T347 979T355 943Q355 924 348 908T328 879T298 859T260 851ZM260 877Q288 877 306 896T325 943Q325 972 307 990T260 1009Q233 1009 215 991T196 943Q196 915 214 896T260 877ZM308 951H358L274 830H241L308 951Z" />
<glyph unicode="&#x1fc;" glyph-name="AEacute" horiz-adv-x="929" d="M643 892H693L609 771H576L643 892ZM196 260H464V678H405L196 260ZM381 715H871V678H508V386H804V350H508V37H889V0H464V225H179L66 0H20L381 715Z" />
<glyph unicode="&#x1fd;" glyph-name="aeacute" horiz-adv-x="918" d="M494 749H545L457 602H424L494 749ZM658 -8Q575 -8 520 32T439 141Q429 105 409 77T360 30T297 2T224 -8Q143 -8 92 30T40 143Q40 190 60 221T113 271T191 297T285 305H413V356Q413 436 378
472T268 508Q205 508 162 480T109 388H64Q69 429 87 459T134 508T197 537T270 547Q345 547 389 512T445 407Q472 472 525 509T651 547Q700 547 742 531T815 482T863 400T881 285V268H457Q459 156 509 93T659 30Q726 30 771 59T832 149H877Q859 73 801 33T658 -8ZM835
305Q831 408 782 458T651 508Q611 508 577 494T518 453T478 389T458 305H835ZM228 29Q265 29 299 40T358 71T398 120T413 186V268H286Q244 268 207 263T143 244T101 206T85 143Q85 87 121 58T228 29Z" />
<glyph unicode="&#x1fe;" glyph-name="Oslashacute" horiz-adv-x="787" d="M91 353Q91 290 109 236T163 140L590 614Q552 648 502 667T393 686Q326 686 271 661T175 593T113 490T91 361V353ZM395 30Q461 30 516 55T611 123T673 226T695 356V364Q695 431 674 488T613
589L185 114Q226 73 279 52T395 30ZM38 2L135 109Q93 157 70 219T46 353V361Q46 437 72 503T145 617T255 694T393 722Q458 722 514 701T616 641L702 737L727 714L641 618Q688 570 714 505T741 364V356Q741 280 715 214T642 99T532 22T395 -7Q325 -7 265 17T158
85L62 -21L38 2ZM435 892H485L401 771H368L435 892Z" />
<glyph unicode="&#x1ff;" glyph-name="oslashacute" horiz-adv-x="592" d="M81 265Q81 218 93 179T128 110L438 457Q410 483 374 496T297 510Q252 510 213 494T144 446T98 372T81 273V265ZM296 27Q341 27 380 43T448 91T494 166T511 266V273Q511 323 498 362T461
432L150 85Q179 57 216 42T296 27ZM29 -1L102 82Q72 117 55 163T38 265V273Q38 334 58 384T114 470T196 526T297 546Q345 546 387 530T463 484L530 558L555 537L486 461Q517 426 535 379T553 274V266Q553 205 533 155T478 68T396 12T295 -8Q245 -8 203 9T125 57L54
-22L29 -1ZM330 749H381L293 602H260L330 749Z" />
<glyph unicode="&#x218;" glyph-name="uni0218" horiz-adv-x="577" d="M295 -7Q230 -7 183 9T105 53T56 119T32 200H75Q80 165 94 134T134 80T199 44T295 30Q340 30 376 42T436 75T474 126T488 190Q488 230 478 257T444 303T382 333T289 353Q170 370 116 413T61
538Q61 580 77 614T122 672T193 709T284 722Q382 722 439 677T508 550H467Q454 616 410 651T284 686Q198 686 151 649T103 541Q103 510 112 486T143 444T203 414T297 393Q357 384 401 370T474 333T517 276T531 192Q531 150 515 114T468 51T393 9T295 -7ZM252 -132Q283
-126 283 -101Q252 -101 252 -72Q252 -61 260 -54T281 -46Q294 -46 303 -55T312 -83V-91Q312 -122 296 -137T252 -154V-132Z" />
<glyph unicode="&#x219;" glyph-name="uni0219" horiz-adv-x="460" d="M237 -9Q143 -9 91 37T33 160H73Q81 101 119 64T237 27Q309 27 346 58T383 141Q383 169 375 188T350 220T304 241T236 258Q188 267 153 278T96 306T63 347T52 406Q52 439 66 465T104 509T159
536T226 546Q262 546 292 538T347 513T387 469T409 404H369Q358 459 323 484T225 510Q164 510 127 482T89 407Q89 381 97 364T123 334T172 312T245 295Q288 287 321 277T376 251T410 209T422 144Q422 112 410 84T375 36T317 3T237 -9ZM195 -132Q226 -126 226 -101Q195
-101 195 -72Q195 -61 203 -54T224 -46Q237 -46 246 -55T255 -83V-91Q255 -122 239 -137T195 -154V-132Z" />
<glyph unicode="&#x21a;" glyph-name="uni021A" horiz-adv-x="543" d="M242 -132Q273 -126 273 -101Q242 -101 242 -72Q242 -61 250 -54T271 -46Q284 -46 293 -55T302 -83V-91Q302 -122 286 -137T242 -154V-132ZM250 678H22V715H520V678H294V0H250V678Z" />
<glyph unicode="&#x21b;" glyph-name="uni021B" horiz-adv-x="328" d="M399 -132Q430 -126 430 -101Q399 -101 399 -72Q399 -61 407 -54T428 -46Q441 -46 450 -55T459 -83V-91Q459 -122 443 -137T399 -154V-132ZM225 -7Q165 -7 133 27T100 127V502H20V539H100V677H141V539H287V502H141V129Q141
76 164 52T226 28Q248 28 264 31T294 40V4Q282 -1 266 -4T225 -7Z" />
<glyph unicode="&#x237;" glyph-name="uni0237" horiz-adv-x="200" d="M-1 -147Q46 -143 63 -120T80 -50V539H120V-46Q120 -113 93 -146T-1 -183V-147Z" />
<glyph unicode="&#x2c6;" glyph-name="circumflex" horiz-adv-x="402" d="M182 733H222L331 602H296L201 698L105 602H71L182 733Z" />
<glyph unicode="&#x2c7;" glyph-name="caron" horiz-adv-x="402" d="M71 744H106L201 649L297 744H331L220 613H180L71 744Z" />
<glyph unicode="&#x2d8;" glyph-name="breve" horiz-adv-x="402" d="M200 614Q150 614 118 646T82 731H117Q121 694 142 672T200 650Q237 650 259 671T287 731H322Q318 679 284 647T200 614Z" />
<glyph unicode="&#x2d9;" glyph-name="dotaccent" horiz-adv-x="402" d="M201 637Q188 637 179 646T170 667Q170 680 179 689T201 698Q214 698 223 689T232 667Q232 655 223 646T201 637Z" />
<glyph unicode="&#x2da;" glyph-name="ring" horiz-adv-x="402" d="M201 602Q182 602 165 609T135 629T115 658T107 694Q107 713 114 729T135 758T165 778T201 786Q221 786 238 779T268 759T288 730T296 694Q296 675 289 659T269 630T239 610T201 602ZM201 628Q229
628 247 647T266 694Q266 723 248 741T201 760Q174 760 156 742T137 694Q137 666 155 647T201 628Z" />
<glyph unicode="&#x2db;" glyph-name="ogonek" horiz-adv-x="402" d="M216 -182Q174 -182 150 -161T126 -108Q126 -73 150 -46T206 0H246Q208 -25 188 -49T167 -103Q167 -123 179 -136T220 -150Q246 -150 270 -141V-172Q245 -182 216 -182Z" />
<glyph unicode="&#x2dc;" glyph-name="tilde" horiz-adv-x="402" d="M268 615Q250 615 233 624T199 643T168 663T139 672Q122 672 109 658T91 615H59Q64 661 86 684T140 707Q158 707 175 699T208 680T239 661T269 652Q286 652 299 666T317 708H349Q344 662 322
639T268 615Z" />
<glyph unicode="&#x2dd;" glyph-name="hungarumlaut" horiz-adv-x="402" d="M295 749H342L276 602H243L295 749ZM171 749H219L152 602H120L171 749Z" />
</font>
</defs>
</svg>
