<?xml version="1.0" encoding="UTF-8"?>
<svg width="100px" height="100px" viewBox="0 0 100 100" version="1.1" xmlns="http://www.w3.org/2000/svg" xmlns:xlink="http://www.w3.org/1999/xlink">
    <!-- Generator: Sketch 52.4 (67378) - http://www.bohemiancoding.com/sketch -->
    <title>icon_Call</title>
    <desc>Created with Sketch.</desc>
    <g id="icon_Call" stroke="none" stroke-width="1" fill="none" fill-rule="evenodd">
        <g id="icons-/-status-/-call" transform="translate(1.000000, 1.000000)" fill="#000000">
            <path d="M94.726212,71.6143324 L84.0401255,60.9297868 C79.6794355,56.5653698 72.6178187,56.5653698 68.248416,60.9297868 L65.3863048,63.7914853 C54.1905273,54.5312554 43.4390959,43.7813741 34.1993122,32.6046337 L37.0614234,29.7429352 C41.4134007,25.3915854 41.4134007,18.3092082 37.0614234,13.9578584 L26.3753369,3.2733127 C22.0146469,-1.09110423 14.9486737,-1.09110423 10.5836274,3.2733127 L4.72000232,9.13173664 C-0.694920412,14.5415229 -1.55311814,23.1179071 2.67688184,29.5164385 C19.8146984,55.4198193 42.5678291,78.1696692 68.4793017,95.3093705 C74.7959855,99.4821364 83.3256868,98.8026463 88.8625869,93.2621889 L94.726212,87.3994093 C99.099971,83.0349923 99.0825457,75.9613265 94.726212,71.6143324" id="Fill-402"></path>
        </g>
    </g>
</svg>