<?xml version="1.0" encoding="UTF-8"?>
<svg xmlns="http://www.w3.org/2000/svg" width="100" height="100" viewBox="0 0 100 100">
    <path fill-rule="evenodd" d="M33.7277254,70.8643232 C37.3636406,70.8643232 40.2723727,73.8909768 40.2723727,77.4624281 C40.2723727,81.0338794 37.3636406,84 33.7277254,84 C30.0918102,84 27.1830781,80.9733464 27.1830781,77.4018951 C27.1830781,73.8304437 30.0918102,70.8643232 33.7277254,70.8643232 Z M70.3777504,70.8643232 C73.953067,70.8643232 76.9223978,73.8909768 76.9223978,77.4624281 C76.9223978,81.0338794 74.0136656,84 70.3777504,84 C66.7418353,84 63.8331031,80.9733464 63.8331031,77.4018951 C63.8331031,73.8304437 66.7418353,70.8643232 70.3777504,70.8643232 Z M12.6099974,26.7023255 L3.28295167,24.4654317 C0.986149759,23.9145925 -0.430809451,21.5995255 0.118084694,19.2945849 C0.66697884,16.9896442 2.97387129,15.567664 5.27067321,16.1185031 L14.6675529,18.3721452 C17.7281603,18.6368328 20.3111541,20.8622597 20.8087935,23.9415433 L26.6618305,57.3493292 L82.4529135,57.3493292 L82.5833265,57.3581504 L91.5926305,23.5752454 C92.2031412,21.2859648 94.5473336,19.9268066 96.8285307,20.5394807 C99.1097279,21.1521548 100.464087,23.5046538 99.8535762,25.7939345 L90.6393153,60.3285764 C89.9797348,62.4200949 88.4835557,64.2651232 86.2150437,65.3364999 C84.9573206,65.8492708 83.5555392,66.0548368 82.2194749,65.9313047 L23.3194046,65.9313047 C21.3867631,65.9313047 19.6943869,64.6303252 19.1910983,62.7577539 C18.5347101,60.315549 18.2960647,59.397648 18.2220044,58.7364118 L12.6099974,26.7023255 Z"/>
</svg>