<?xml version="1.0" encoding="UTF-8"?>
<svg width="100px" height="100px" viewBox="0 0 100 100" version="1.1" xmlns="http://www.w3.org/2000/svg" xmlns:xlink="http://www.w3.org/1999/xlink">
    <!-- Generator: Sketch 52.4 (67378) - http://www.bohemiancoding.com/sketch -->
    <title>icon_SignIn</title>
    <desc>Created with Sketch.</desc>
    <g id="icon_SignIn" stroke="none" stroke-width="1" fill="none" fill-rule="evenodd">
        <path d="M30.9870179,35.1586316 C31.5010054,43.4522911 35.7213612,47.3554653 38.0083697,48.8783124 L38.0083697,57.6171118 C36.0137211,58.3527641 33.9672022,59.079045 31.9395452,59.8053259 C19.7877496,64.1302117 9.29108806,67.8600156 7.35302521,73.6749486 C5.02829289,80.6425598 5,96.072515 5,96.723825 C5,98.0170736 6.05626783,99.0666667 7.35774069,99.0666667 L92.2364056,99.0666667 C93.5378785,99.0666667 94.5941463,98.0170736 94.5941463,96.723825 C94.5941463,96.072515 94.5705689,80.6425598 92.2411211,73.670263 C90.2983428,67.8553299 80.5561583,64.3879243 68.2157435,59.997439 C66.0607685,59.2336726 63.8350613,58.4417921 61.5857766,57.6124261 L61.5857766,48.8783124 C63.8775006,47.3554653 68.0978564,43.4522911 68.6118439,35.1586316 C70.3377101,34.0809244 71.4269863,31.7521398 71.4269863,28.7814165 C71.4269863,26.1668052 70.5876306,24.053562 69.2059946,22.8493414 C70.3518565,19.8692468 72.2474801,14.6540813 70.9460072,9.47640117 C69.3851828,3.2210139 60.482354,1 53.3336842,1 C47.0055082,1 39.3004116,2.7430742 36.532424,7.48498575 C33.2315871,7.29755841 31.3972648,8.70326341 30.5107543,9.87468425 C28.0634195,13.1124914 29.204566,18.1870865 30.5201853,22.7415707 C28.9687919,23.9083059 28.0162646,26.1199484 28.0162646,28.8610732 C28.0162646,31.8739675 29.1668421,34.0949814 30.9870179,35.1586316" id="sign-in" fill="#000000"></path>
    </g>
</svg>