<?xml version="1.0" encoding="utf-8"?>
<svg version="1.1" id="Layer_1" xmlns="http://www.w3.org/2000/svg" xmlns:xlink="http://www.w3.org/1999/xlink" x="0px" y="0px" viewBox="0 0 100 100" style="enable-background:new 0 0 100 100;" xml:space="preserve">
    <path d="M61.9,1c-20.4,0-37,16.8-37,37.4c0,8.2,2.7,16.2,7.6,22.6L2.3,91.5c-1.7,1.7-1.7,4.5,0,6.2C3.1,98.5,4.2,99,5.4,99s2.3-0.5,3.1-1.3l30.1-30.3c6.6,5.4,14.8,8.3,23.4,8.3c20.4,0,37-16.7,37-37.3S82.4,1,61.9,1z M33.7,38.4c0-15.7,12.7-28.5,28.2-28.5c15.6,0,28.2,12.8,28.2,28.5S77.4,66.9,61.9,66.9c-7.7,0-14.9-3.1-20.3-8.7l-0.1-0.1C36.5,52.7,33.7,45.7,33.7,38.4z"/>
</svg>