<svg xmlns="http://www.w3.org/2000/svg" width="100" height="100" viewBox="0 0 100 100">
  <g fill="#FFCE0A" fill-rule="evenodd" transform="translate(11 3)">
    <path d="M31.3098638 64.6098559C40.2732255 53.1594267 47.326417 39.7284632 47.326417 30.0719126 47.326417 25.0272486 43.6786723 21.5105198 38.9273106 18.8279611 39.0152681 29.3236372 35.3559064 53.9126575 31.3098638 64.6098559M1.9043617 92.7972049C22.9245319 85.8347757 53.3860213 69.5924113 74.5721489 55.0910672 76.3495532 53.8769781 77.7452553 52.7454802 77.7452553 50.7798121 77.7452553 47.35063 71.4123191 42.760217 68.3288298 40.9316502 51.6567447 58.1105976 18.4785319 83.8525895 1.9043617 92.7972049"/>
    <path d="M21.3973915 78.2050105C34.3586681 69.3215126 53.1882 52.6149862 59.5543277 43.5283142 61.054583 41.3908567 62.169817 40.1503385 62.169817 37.9137717 62.169817 34.2450753 57.8549234 31.5559093 54.7465404 29.6876988 47.3116468 47.0731239 30.5831362 68.7152939 21.3973915 78.2050105M33.1996213 53.5728777C34.8890681 42.5882623 33.8966426 29.3389992 31.7607702 21.0286834 30.5874511 16.5010397 26.4766851 11.3952583 22.6696213 9.79464291 27.6599617 23.8450397 31.944983 43.8486024 33.1996213 53.5728777"/>
    <path d="M29.5173574,38.1774024 C25.5891447,27.6536453 15.8076128,5.72901377 1.40582553,0.294519838 C10.7791021,10.54903 24.6813574,30.8912162 29.5173574,38.1774024"/>
  </g>
</svg>