<?xml version="1.0" encoding="utf-8" ?><svg version="1.1" xmlns='http://www.w3.org/2000/svg'><defs><font id='font' horiz-adv-x="1000">
<font-face font-family="font" ascent="760" bbox="-80,-218,3572,825" x-height="466" units-per-em="1000" descent="-240" cap-height="672" />
<missing-glyph horiz-adv-x="230" d="" /><glyph unicode=" " d="" horiz-adv-x="215" />
<glyph unicode="!" d="M 70 672 L 122 672 L 122 180 L 70 180 L 70 672 Z M 70 93 L 122 93 L 122 0 L 70 0 L 70 93 Z" horiz-adv-x="192" />
<glyph unicode="&#x22;" d="M 52 474 C 51 477 50 484 49 495 C 47 506 46 518 45 530 C 43 542 42 554 41 564 C 40 574 40 580 40 582 L 40 672 L 99 672 L 99 582 C 99 580 98 574 97 564 C 96 554 95 542 94 530 C 92 518 91 506 90 495 C 89 484 88 477 88 474 L 52 474 Z M 166 474 C 165 477 164 484 163 495 C 162 506 161 518 160 530 C 158 542 157 554 156 564 C 155 574 155 580 155 582 L 155 672 L 214 672 L 214 582 C 214 580 213 574 212 564 C 211 554 210 542 209 530 C 207 518 206 506 205 495 C 203 484 202 477 202 474 L 166 474 Z" horiz-adv-x="254" />
<glyph unicode="#" d="M 432 472 L 561 472 L 561 426 L 426 426 L 403 246 L 530 246 L 530 200 L 397 200 L 371 0 L 321 0 L 347 200 L 208 200 L 182 0 L 132 0 L 158 200 L 30 200 L 30 246 L 164 246 L 187 426 L 61 426 L 61 472 L 193 472 L 220 672 L 270 672 L 243 472 L 382 472 L 409 672 L 459 672 L 432 472 Z M 214 246 L 353 246 L 376 426 L 237 426 L 214 246 Z" horiz-adv-x="591" />
<glyph unicode="$" d="M 257 672 L 257 616 C 275 614 293 609 311 602 C 329 595 344 586 358 574 C 371 562 382 548 390 532 C 398 515 403 496 404 476 L 352 476 C 350 492 346 506 339 518 C 331 530 322 539 311 547 C 299 555 287 560 273 564 C 259 567 244 569 230 569 C 194 569 165 561 143 546 C 121 530 110 508 110 478 C 110 454 118 435 134 422 C 150 409 169 398 193 390 C 217 382 242 374 270 367 C 298 360 323 351 347 339 C 371 327 391 312 407 293 C 423 273 431 247 431 214 C 431 188 426 166 417 148 C 407 130 395 114 379 102 C 363 89 344 79 323 73 C 302 66 280 62 257 60 L 257 0 L 205 0 L 205 60 C 152 64 110 79 79 107 C 47 135 32 174 32 224 L 84 224 C 85 186 98 157 124 137 C 150 117 186 107 233 107 C 249 107 266 108 284 112 C 301 116 317 122 331 130 C 345 138 356 149 365 163 C 374 177 379 194 379 214 C 379 239 371 259 355 273 C 339 287 320 298 296 307 C 272 316 246 324 219 331 C 191 337 166 346 142 357 C 118 368 98 383 82 402 C 66 420 59 446 59 478 C 59 518 72 550 100 574 C 127 598 162 612 205 616 L 205 672 L 257 672 Z" horiz-adv-x="505" />
<glyph unicode="%" d="M 495 672 L 548 672 L 189 0 L 136 0 L 495 672 Z M 182 379 C 162 379 143 382 125 390 C 107 398 91 408 77 422 C 63 436 51 452 43 470 C 34 488 30 508 30 530 C 30 551 34 571 43 589 C 51 607 63 623 77 637 C 91 650 107 660 125 668 C 143 676 162 680 182 680 C 201 680 220 676 238 668 C 256 660 273 650 287 637 C 301 623 312 607 320 589 C 328 571 333 551 333 530 C 333 508 328 488 320 470 C 312 452 301 436 287 422 C 273 408 256 398 238 390 C 220 382 201 379 182 379 Z M 502 -8 C 482 -8 463 -4 445 3 C 427 11 411 21 397 35 C 383 49 371 65 363 83 C 354 101 350 121 350 143 C 350 164 354 184 363 202 C 371 220 383 236 397 250 C 411 263 427 273 445 281 C 463 289 482 293 502 293 C 521 293 540 289 558 281 C 576 273 593 263 607 250 C 621 236 632 220 640 202 C 648 184 653 164 653 143 C 653 121 648 101 640 83 C 632 65 621 49 607 35 C 593 21 576 11 558 3 C 540 -4 521 -8 502 -8 Z M 76 530 C 76 515 78 501 84 488 C 90 475 97 464 107 454 C 116 444 127 437 140 431 C 153 425 167 423 181 423 C 195 423 208 425 221 431 C 234 437 245 444 255 454 C 265 463 272 474 278 487 C 284 500 287 514 287 530 C 287 544 284 558 278 571 C 272 584 265 595 255 605 C 245 614 234 621 221 627 C 208 633 195 636 181 636 C 167 636 153 633 141 627 C 128 621 117 614 107 604 C 97 594 90 583 84 571 C 78 558 76 544 76 530 Z M 396 143 C 396 128 398 114 404 101 C 410 88 417 77 427 67 C 436 57 447 50 460 44 C 473 38 487 36 501 36 C 515 36 528 38 541 44 C 554 50 565 57 575 67 C 585 76 592 87 598 100 C 604 113 607 127 607 143 C 607 157 604 171 598 184 C 592 197 585 208 575 218 C 565 227 554 234 541 240 C 528 246 515 249 501 249 C 487 249 473 246 461 240 C 448 234 437 227 427 217 C 417 207 410 196 404 184 C 398 171 396 157 396 143 Z" horiz-adv-x="683" />
<glyph unicode="&#x26;" d="M 472 134 L 441 100 C 405 62 371 34 340 17 C 309 0 276 -8 240 -8 C 182 -8 135 7 101 37 C 67 67 50 109 50 161 C 50 186 54 208 62 227 C 70 245 82 262 97 277 C 111 291 129 304 149 316 C 169 328 192 340 216 352 L 243 365 C 217 390 196 416 178 443 C 160 469 152 499 152 533 C 152 555 156 575 165 593 C 173 611 185 626 200 638 C 214 650 231 660 250 667 C 268 674 288 678 308 678 C 330 678 350 674 369 667 C 387 659 403 649 417 636 C 431 623 441 608 449 590 C 457 572 461 553 461 532 C 461 498 452 468 434 444 C 416 419 392 398 362 382 L 317 356 L 469 202 L 611 377 L 646 345 L 502 170 L 674 0 L 606 0 L 472 134 Z M 440 166 L 274 334 L 232 314 C 216 306 200 298 184 289 C 168 280 153 270 140 258 C 127 246 116 233 108 217 C 100 201 96 183 96 162 C 96 126 108 96 134 72 C 160 48 195 37 241 37 C 270 37 298 44 324 59 C 350 74 379 99 411 134 L 440 166 Z M 200 533 C 200 518 202 504 207 491 C 211 478 217 466 225 455 C 232 443 240 433 250 423 C 260 413 269 403 279 394 L 286 387 L 339 418 C 362 432 380 448 393 467 C 406 485 413 506 413 530 C 413 559 403 584 384 604 C 365 624 340 634 308 634 C 292 634 278 631 265 626 C 252 621 241 614 231 605 C 221 596 214 585 208 573 C 202 561 200 547 200 533 Z" horiz-adv-x="704" />
<glyph unicode="'" d="M 52 474 C 51 477 50 484 49 495 C 47 506 46 518 45 530 C 43 542 42 554 41 564 C 40 574 40 580 40 582 L 40 672 L 100 672 L 100 582 C 100 580 99 574 98 564 C 97 554 96 542 95 530 C 93 518 92 506 91 495 C 89 484 88 477 88 474 L 52 474 L 52 474 Z" horiz-adv-x="140" />
<glyph unicode="(" d="M 178 -115 C 132 -52 95 15 69 87 C 43 159 30 235 30 313 C 30 390 43 465 69 537 C 95 609 132 677 178 740 L 239 740 C 215 712 193 681 174 648 C 155 614 139 579 126 543 C 112 506 102 468 95 429 C 87 390 84 351 84 313 C 84 275 87 237 95 199 C 102 161 112 123 126 86 C 139 49 155 14 175 -20 C 194 -54 215 -85 239 -115 L 178 -115 Z" horiz-adv-x="259" />
<glyph unicode=")" d="M 20 -115 C 43 -85 64 -54 83 -20 C 102 14 118 49 132 86 C 146 123 156 161 164 199 C 171 237 175 275 175 313 C 175 351 171 390 164 429 C 156 468 146 506 133 543 C 119 579 103 614 84 648 C 65 681 44 712 20 740 L 81 740 C 127 677 163 609 189 537 C 215 465 229 390 229 313 C 229 235 215 159 189 87 C 163 15 127 -52 81 -115 L 20 -115 Z" horiz-adv-x="259" />
<glyph unicode="*" d="M 206 477 L 92 389 L 64 428 L 194 503 L 64 578 L 92 617 L 206 528 L 197 672 L 245 672 L 235 528 L 350 617 L 378 578 L 248 503 L 378 428 L 350 389 L 236 477 L 245 335 L 197 335 L 206 477 Z" horiz-adv-x="439" />
<glyph unicode="+" d="M 267 227 L 40 227 L 40 275 L 267 275 L 267 502 L 315 502 L 315 275 L 542 275 L 542 227 L 315 227 L 315 0 L 267 0 L 267 227 Z" horiz-adv-x="582" />
<glyph unicode="," d="M 20 -56 C 37 -56 49 -52 56 -45 C 63 -38 67 -23 67 0 L 30 0 L 30 76 L 103 76 L 103 0 C 103 -32 96 -56 83 -70 C 69 -84 48 -92 20 -92 L 20 -56 Z" horiz-adv-x="133" />
<glyph unicode="-" d="M 30 284 L 250 284 L 250 236 L 30 236 L 30 284 Z" horiz-adv-x="280" />
<glyph unicode="." d="M 30 76 L 104 76 L 104 0 L 30 0 L 30 76 Z" horiz-adv-x="134" />
<glyph unicode="/" d="M 283 702 L 334 702 L 62 -30 L 10 -30 L 283 702 Z" horiz-adv-x="344" />
<glyph unicode="0" d="M 263 -12 C 234 -12 207 -6 181 4 C 155 14 133 29 113 48 C 93 66 78 88 67 113 C 55 138 50 165 50 194 L 50 479 C 50 507 55 534 67 559 C 78 584 93 606 113 624 C 133 642 155 657 181 668 C 207 678 234 684 263 684 C 291 684 318 678 344 668 C 370 658 392 643 411 625 C 430 607 445 585 457 560 C 468 535 474 508 474 479 L 474 194 C 474 164 468 137 457 112 C 445 87 430 65 411 47 C 392 28 370 13 344 3 C 318 -6 291 -12 263 -12 Z M 263 37 C 285 37 305 41 325 49 C 344 57 361 67 376 81 C 390 95 402 111 411 130 C 419 149 424 170 424 192 L 424 480 C 424 502 419 523 411 542 C 402 561 390 577 376 591 C 362 605 345 615 325 623 C 305 631 285 635 263 635 C 241 635 220 631 200 623 C 180 615 163 604 149 590 C 135 576 123 560 115 541 C 106 522 102 502 102 480 L 102 192 C 102 170 106 149 115 131 C 123 112 135 96 150 82 C 164 68 181 57 201 49 C 220 41 241 37 263 37 Z" horiz-adv-x="524" />
<glyph unicode="1" d="M 157 624 L 45 624 L 45 672 L 185 672 C 192 672 198 669 202 664 C 206 658 209 653 209 647 L 209 0 L 157 0 L 157 624 Z" horiz-adv-x="294" />
<glyph unicode="2" d="M 63 0 C 55 0 49 2 44 7 C 38 12 36 18 36 26 C 36 34 39 41 45 47 L 353 355 C 370 372 384 391 395 411 C 406 431 412 454 412 480 C 412 502 407 523 399 542 C 390 561 378 578 363 592 C 348 606 331 616 311 624 C 291 632 269 636 247 636 C 223 636 201 632 182 624 C 163 616 147 605 133 591 C 119 577 109 560 101 541 C 93 522 88 502 87 480 L 35 480 C 36 508 42 535 54 560 C 65 584 80 606 99 624 C 117 642 139 657 165 668 C 190 678 217 684 247 684 C 277 684 306 678 332 668 C 358 657 381 642 401 624 C 421 605 436 583 447 558 C 458 533 464 507 464 479 C 464 449 457 421 444 393 C 430 365 413 342 393 322 L 114 50 L 468 50 L 468 0 L 63 0 Z" horiz-adv-x="503" />
<glyph unicode="3" d="M 262 -12 C 226 -12 193 -6 165 4 C 137 15 113 30 94 50 C 74 69 60 92 50 119 C 40 145 35 175 35 207 L 87 207 C 87 156 102 115 132 83 C 162 51 206 36 262 36 C 286 36 308 40 329 48 C 349 56 367 68 382 83 C 397 97 409 115 418 135 C 426 155 431 178 431 202 C 431 218 428 234 423 248 C 418 262 412 274 404 286 C 396 298 386 308 376 318 C 365 327 354 336 343 344 C 334 350 330 358 330 367 C 330 370 330 374 332 378 C 334 382 337 386 342 390 C 359 402 373 416 383 434 C 393 451 399 472 399 498 C 399 517 395 535 388 552 C 380 568 370 583 358 596 C 345 608 330 618 312 625 C 294 632 276 636 256 636 C 234 636 213 632 195 625 C 177 618 161 608 148 595 C 135 582 125 567 118 549 C 111 531 108 512 108 490 L 56 490 C 56 517 60 542 70 566 C 80 590 93 610 111 628 C 128 645 149 659 173 669 C 197 679 225 684 255 684 C 283 684 310 679 334 669 C 358 659 379 646 397 630 C 414 613 427 593 437 571 C 447 548 452 524 452 498 C 452 470 446 446 434 424 C 422 402 406 384 387 368 C 399 360 410 350 422 339 C 434 328 444 316 453 302 C 462 288 469 273 475 257 C 481 240 484 222 484 202 C 484 170 478 142 467 116 C 455 90 440 67 420 48 C 400 29 376 14 349 4 C 322 -6 293 -12 262 -12 Z" horiz-adv-x="519" />
<glyph unicode="4" d="M 365 136 L 54 136 C 46 136 39 138 33 144 C 27 150 25 156 25 164 C 25 169 26 174 30 179 L 361 672 L 423 672 L 94 184 L 365 184 L 365 373 L 417 373 L 417 184 L 511 184 L 511 136 L 417 136 L 417 0 L 365 0 L 365 136 Z" horiz-adv-x="536" />
<glyph unicode="5" d="M 125 372 C 142 384 162 395 185 404 C 207 412 234 417 264 417 C 294 417 321 411 347 401 C 373 390 395 375 413 356 C 431 337 446 315 457 289 C 467 263 473 235 473 205 C 473 175 467 146 456 120 C 445 94 430 71 411 51 C 391 31 368 16 342 5 C 315 -6 286 -12 256 -12 C 224 -12 194 -6 168 4 C 142 15 119 30 100 50 C 81 69 66 92 56 118 C 45 144 40 172 40 202 L 88 202 C 88 178 92 155 100 135 C 108 115 120 97 135 83 C 149 68 167 56 188 48 C 208 40 231 36 256 36 C 280 36 303 40 323 48 C 343 56 361 68 376 83 C 390 98 402 116 410 137 C 418 157 423 180 423 204 C 423 228 419 250 411 270 C 403 290 392 308 378 323 C 364 338 347 350 327 358 C 307 366 285 371 261 371 C 231 371 203 365 177 353 C 151 341 127 326 105 307 C 99 302 94 300 88 300 C 82 300 77 302 72 306 C 67 310 65 315 67 321 L 124 672 L 426 672 L 426 624 L 167 624 L 125 372 Z" horiz-adv-x="513" />
<glyph unicode="6" d="M 257 684 C 285 684 312 679 338 669 C 363 659 385 645 404 627 C 422 609 437 587 448 563 C 458 538 464 511 464 482 L 413 482 C 413 504 409 525 401 544 C 393 563 383 579 369 593 C 355 606 338 616 319 624 C 300 632 279 636 257 636 C 233 636 211 631 192 623 C 172 615 156 604 142 590 C 128 576 118 559 111 541 C 104 523 101 504 101 484 L 103 338 C 109 339 116 343 126 351 C 135 358 146 366 159 374 C 172 382 187 390 204 397 C 220 403 239 407 261 407 C 293 407 323 401 349 391 C 375 381 398 366 416 348 C 434 329 447 307 457 281 C 467 255 472 228 472 198 C 472 168 466 140 455 114 C 444 88 429 66 410 48 C 391 29 369 14 343 4 C 317 -6 290 -12 261 -12 C 233 -12 206 -6 181 3 C 155 13 133 28 113 47 C 93 65 78 87 67 113 C 55 139 50 167 50 198 L 50 484 C 50 512 55 539 66 563 C 76 587 91 609 110 627 C 128 645 150 659 175 669 C 200 679 227 684 257 684 Z M 261 359 C 238 359 219 355 203 348 C 187 340 174 332 162 324 C 150 315 139 307 130 300 C 120 292 111 288 101 288 L 101 198 C 101 175 105 154 113 134 C 121 114 133 97 147 83 C 161 68 178 56 198 48 C 217 40 238 36 261 36 C 284 36 305 40 325 48 C 345 56 362 67 376 82 C 390 96 402 113 410 133 C 418 153 422 174 422 198 C 422 246 407 285 379 315 C 350 344 311 359 261 359 Z" horiz-adv-x="517" />
<glyph unicode="7" d="M 400 624 L 15 624 L 15 672 L 437 672 C 444 672 450 670 454 666 C 458 662 461 656 461 650 C 461 641 459 632 455 624 L 169 0 L 113 0 L 400 624 Z" horiz-adv-x="476" />
<glyph unicode="8" d="M 261 -12 C 229 -12 199 -6 172 4 C 144 15 120 30 100 49 C 80 68 64 91 52 117 C 40 143 35 171 35 201 C 35 236 43 268 61 296 C 78 324 101 348 129 369 C 111 384 96 403 84 425 C 72 447 67 473 67 501 C 67 527 72 552 82 574 C 92 596 106 616 124 632 C 141 648 161 661 185 670 C 209 679 234 684 261 684 C 287 684 312 679 336 670 C 360 660 380 647 398 631 C 416 615 430 595 440 573 C 450 551 456 527 456 501 C 456 473 450 447 439 425 C 427 403 413 384 395 370 C 421 350 443 326 461 297 C 479 268 488 236 488 201 C 488 171 482 143 470 117 C 458 91 441 68 421 49 C 401 30 377 15 349 4 C 321 -6 292 -12 261 -12 Z M 261 36 C 284 36 306 40 328 48 C 349 56 368 67 384 82 C 400 96 412 114 422 135 C 431 155 436 178 436 203 C 436 235 427 264 411 288 C 394 312 374 331 351 346 C 347 348 344 352 342 356 C 339 360 338 364 338 368 C 338 372 338 376 340 380 C 341 384 344 387 349 391 C 354 395 360 401 367 407 C 373 413 379 421 385 430 C 391 438 395 448 399 460 C 403 471 405 484 405 498 C 405 517 401 535 394 552 C 387 569 377 584 364 596 C 351 608 336 618 318 626 C 300 633 281 637 261 637 C 240 637 221 633 203 626 C 185 618 170 608 158 596 C 145 584 135 569 128 552 C 121 535 118 517 118 498 C 118 482 119 469 123 458 C 127 446 131 437 137 429 C 142 421 148 414 154 408 C 160 402 166 396 172 392 C 180 383 185 375 185 368 C 185 359 180 352 171 346 C 147 332 127 312 111 288 C 94 264 86 235 86 203 C 86 179 90 156 99 136 C 108 115 121 97 137 83 C 153 68 171 56 193 48 C 214 40 237 36 261 36 Z" horiz-adv-x="523" />
<glyph unicode="9" d="M 260 -12 C 231 -12 204 -7 179 3 C 153 13 131 27 113 45 C 94 63 79 84 69 109 C 58 133 53 160 53 190 L 104 190 C 104 167 107 146 115 127 C 123 108 134 92 148 79 C 162 65 178 55 197 47 C 216 39 237 36 260 36 C 284 36 305 40 325 48 C 344 56 360 68 374 82 C 388 96 398 112 405 130 C 412 148 416 168 416 188 L 414 334 C 408 332 400 328 391 321 C 381 313 370 305 357 297 C 344 289 329 281 312 275 C 295 268 276 265 256 265 C 222 265 193 270 167 280 C 141 290 119 305 101 324 C 83 342 69 364 59 390 C 49 416 45 444 45 474 C 45 504 50 531 61 557 C 72 583 87 605 106 624 C 125 642 147 657 173 668 C 199 678 226 684 256 684 C 284 684 310 678 336 668 C 361 658 383 643 403 625 C 423 606 438 584 450 558 C 461 532 467 504 467 474 L 467 188 C 467 159 461 132 451 108 C 440 84 425 63 407 45 C 388 27 366 13 341 3 C 315 -7 288 -12 260 -12 Z M 256 313 C 278 313 297 316 313 324 C 329 331 343 339 355 348 C 367 356 377 364 387 372 C 396 379 406 383 416 384 L 416 474 C 416 496 411 517 403 537 C 395 557 383 574 369 589 C 355 603 338 615 319 623 C 299 631 278 636 256 636 C 232 636 211 632 191 624 C 171 616 154 604 140 590 C 126 575 115 558 107 538 C 99 518 95 497 95 474 C 95 425 109 386 138 357 C 166 327 206 313 256 313 Z" horiz-adv-x="517" />
<glyph unicode=":" d="M 40 76 L 113 76 L 113 0 L 40 0 L 40 76 Z M 40 466 L 113 466 L 113 390 L 40 390 L 40 466 Z" horiz-adv-x="153" />
<glyph unicode=";" d="M 45 466 L 118 466 L 118 390 L 45 390 L 45 466 Z M 35 -66 C 50 -64 62 -58 70 -50 C 78 -41 82 -24 83 0 L 45 0 L 45 76 L 118 76 L 118 -9 C 118 -40 110 -63 95 -78 C 80 -92 60 -101 35 -104 L 35 -66 Z" horiz-adv-x="158" />
<glyph unicode="&#x3C;" d="M 40 225 L 40 273 L 519 499 L 519 449 L 89 249 L 519 49 L 519 -1 L 40 225 Z" horiz-adv-x="559" />
<glyph unicode="=" d="M 40 305 L 40 353 L 542 353 L 542 305 L 40 305 Z M 40 149 L 40 197 L 542 197 L 542 149 L 40 149 Z" horiz-adv-x="582" />
<glyph unicode="&#x3E;" d="M 40 -1 L 40 49 L 470 249 L 40 449 L 40 499 L 519 273 L 519 225 L 40 -1 Z" horiz-adv-x="559" />
<glyph unicode="?" d="M 182 93 L 234 93 L 234 0 L 182 0 L 182 93 Z M 182 235 C 182 257 186 276 195 292 C 203 308 214 323 227 336 C 240 349 254 361 270 373 C 285 385 299 397 312 410 C 325 422 336 436 345 452 C 353 468 358 486 358 507 C 358 526 354 544 347 560 C 340 576 330 589 318 600 C 305 611 290 620 274 626 C 257 632 239 635 219 635 C 178 635 145 622 120 598 C 94 573 82 540 82 498 L 30 498 C 30 525 34 550 44 573 C 53 595 66 615 83 632 C 100 648 120 661 143 670 C 166 679 191 684 219 684 C 245 684 269 679 293 671 C 316 662 336 650 354 635 C 371 619 385 601 395 579 C 405 557 410 533 410 507 C 410 481 405 458 397 440 C 388 422 377 406 364 392 C 351 378 337 365 322 354 C 306 342 292 331 279 319 C 266 307 255 295 247 282 C 238 269 234 254 234 236 L 234 180 L 182 180 L 182 235 Z" horiz-adv-x="440" />
<glyph unicode="@" d="M 367 97 C 381 97 393 98 405 101 C 416 104 427 107 438 111 C 449 114 460 117 472 120 C 483 123 495 125 509 125 C 505 131 503 141 503 154 L 503 340 C 487 342 475 344 466 348 C 457 352 448 355 440 359 C 431 363 421 366 411 368 C 400 370 385 372 367 372 C 325 372 291 359 267 333 C 242 307 230 274 230 235 C 230 216 233 198 239 182 C 245 165 255 150 267 138 C 279 125 293 115 310 108 C 327 100 346 97 367 97 Z M 680 241 C 680 281 672 319 658 355 C 643 390 622 421 596 448 C 569 474 537 495 501 511 C 465 526 425 534 383 534 C 341 534 302 526 266 511 C 230 495 198 474 171 448 C 144 421 123 389 107 353 C 91 316 83 277 83 235 C 83 195 90 156 106 120 C 121 84 142 52 169 25 C 195 -2 227 -24 264 -40 C 300 -56 340 -64 382 -64 C 410 -64 437 -60 463 -54 C 489 -48 513 -39 537 -28 L 558 -68 C 534 -81 506 -91 476 -98 C 446 -104 415 -108 384 -108 C 339 -108 296 -99 254 -82 C 212 -65 176 -41 144 -11 C 112 19 86 56 67 98 C 47 140 38 185 38 235 C 38 283 47 328 66 370 C 84 412 109 448 141 479 C 173 509 210 533 252 551 C 294 569 338 578 384 578 C 430 578 474 569 516 553 C 557 536 593 513 624 483 C 655 453 680 417 698 376 C 716 334 726 289 726 241 C 726 218 723 196 718 175 C 713 154 706 135 696 119 C 686 103 673 90 657 80 C 641 70 623 65 601 65 C 592 65 584 65 577 67 C 569 69 562 71 555 73 C 548 75 541 77 534 79 C 527 81 519 82 511 82 C 498 82 486 80 476 77 C 466 74 455 71 444 67 C 433 63 421 59 409 56 C 396 53 381 52 365 52 C 341 52 317 56 295 64 C 273 72 253 85 237 101 C 220 117 207 136 197 159 C 187 181 182 207 182 235 C 182 263 187 288 197 311 C 207 333 221 352 238 368 C 255 384 274 396 296 405 C 318 413 340 418 364 418 C 383 418 398 416 410 413 C 422 410 432 407 442 403 C 451 399 460 396 469 392 C 478 388 489 386 503 384 L 503 411 L 551 411 L 551 153 C 551 123 568 108 603 108 C 617 108 630 112 640 121 C 650 129 658 140 664 153 C 670 166 674 180 676 196 C 678 212 680 227 680 241 Z" horiz-adv-x="776" />
<glyph unicode="A" d="M 264 672 L 319 672 L 573 0 L 519 0 L 446 192 L 240 192 C 204 192 175 185 154 173 C 132 161 117 142 108 117 L 64 0 L 10 0 L 264 672 Z M 145 216 C 156 225 169 231 185 235 C 201 239 217 241 235 241 L 428 241 L 292 601 L 145 216 Z" horiz-adv-x="583" />
<glyph unicode="B" d="M 60 672 L 325 672 C 352 672 377 667 399 657 C 421 647 441 633 457 617 C 473 600 485 580 494 558 C 502 535 507 511 507 487 C 507 456 499 428 483 403 C 467 377 447 357 423 343 C 461 328 490 306 508 278 C 526 250 535 218 535 184 C 535 158 530 134 520 112 C 510 90 497 70 481 54 C 465 37 445 24 423 14 C 400 4 376 0 350 0 L 60 0 L 60 672 Z M 350 48 C 370 48 389 51 405 59 C 421 67 435 77 447 90 C 458 103 467 118 473 135 C 479 151 483 169 483 187 C 483 204 479 220 473 236 C 466 251 457 264 445 276 C 433 287 418 296 402 302 C 386 308 368 312 350 312 L 214 312 C 184 312 159 302 140 284 C 121 266 112 242 112 212 L 112 48 L 350 48 Z M 112 315 C 125 331 140 342 158 349 C 175 356 195 360 217 360 L 327 360 C 345 360 361 363 377 371 C 393 378 406 388 418 400 C 430 412 439 425 445 440 C 451 455 455 471 455 487 C 455 506 451 524 445 541 C 438 557 429 572 418 584 C 406 596 393 606 377 613 C 361 620 343 624 325 624 L 112 624 L 112 315 Z" horiz-adv-x="565" />
<glyph unicode="C" d="M 371 -12 C 325 -12 281 -2 240 15 C 198 33 162 58 131 90 C 100 121 75 158 57 200 C 39 242 30 287 30 335 C 30 383 39 429 57 472 C 75 514 100 551 132 583 C 164 614 200 639 242 657 C 284 675 328 684 376 684 C 410 684 443 678 475 667 C 507 656 536 641 563 622 C 590 602 614 579 635 553 C 656 527 673 498 686 468 L 630 468 C 618 492 604 514 586 534 C 568 554 549 572 527 587 C 505 602 481 614 456 622 C 430 630 404 635 376 635 C 335 635 297 627 261 611 C 225 595 194 574 168 547 C 141 519 120 487 105 451 C 89 415 82 376 82 335 C 82 293 89 255 105 219 C 121 183 142 151 168 124 C 194 97 225 76 260 60 C 295 44 332 37 371 37 C 398 37 425 41 451 49 C 477 57 502 68 524 82 C 546 96 567 114 585 134 C 603 154 618 176 630 200 L 686 200 C 672 168 655 140 634 114 C 612 88 588 65 560 47 C 532 28 503 13 471 3 C 439 -6 405 -12 371 -12 Z" horiz-adv-x="711" />
<glyph unicode="D" d="M 60 672 L 281 672 C 329 672 373 663 411 646 C 449 628 482 605 508 575 C 534 545 554 509 568 469 C 582 428 589 384 589 337 C 589 289 582 245 568 204 C 554 163 535 127 509 97 C 483 67 450 43 412 26 C 374 8 330 0 281 0 L 60 0 L 60 672 Z M 281 48 C 323 48 361 55 393 71 C 425 87 452 108 474 134 C 495 160 511 191 522 226 C 532 261 538 298 538 337 C 538 375 532 412 522 447 C 511 482 495 513 474 539 C 452 565 425 585 393 601 C 361 616 323 624 281 624 L 112 624 L 112 48 L 281 48 Z" horiz-adv-x="619" />
<glyph unicode="E" d="M 60 672 L 494 672 L 494 624 L 112 624 L 112 314 C 125 332 140 344 158 351 C 175 357 192 361 210 361 L 491 361 L 491 313 L 213 313 C 184 313 160 303 141 285 C 121 266 112 242 112 214 L 112 48 L 494 48 L 494 0 L 60 0 L 60 672 Z" horiz-adv-x="554" />
<glyph unicode="F" d="M 60 672 L 494 672 L 494 624 L 112 624 L 112 314 C 125 332 140 344 158 351 C 175 357 192 361 210 361 L 491 361 L 491 313 L 213 313 C 184 313 160 303 141 285 C 121 266 112 242 112 214 L 112 0 L 60 0 L 60 672 Z" horiz-adv-x="534" />
<glyph unicode="G" d="M 374 -12 C 326 -12 281 -2 239 15 C 197 33 160 58 129 90 C 98 121 74 158 56 200 C 38 242 30 287 30 335 C 30 383 39 429 57 472 C 75 514 100 551 132 583 C 164 614 201 639 243 657 C 285 675 329 684 377 684 C 411 684 444 678 476 667 C 508 656 537 641 564 622 C 591 602 615 579 636 553 C 657 527 674 498 687 468 L 630 468 C 618 492 603 514 586 534 C 568 554 549 572 527 587 C 505 602 481 614 456 622 C 430 630 404 635 377 635 C 336 635 298 627 262 611 C 226 595 195 574 169 547 C 142 519 121 487 105 451 C 89 415 82 376 82 335 C 82 293 89 255 105 219 C 120 183 141 151 167 124 C 193 97 224 76 260 60 C 296 44 334 37 374 37 C 411 37 446 43 479 57 C 511 70 540 88 565 112 C 590 135 611 162 627 194 C 643 225 654 258 658 294 L 376 294 L 376 344 L 712 344 L 712 329 C 712 285 703 243 687 203 C 670 162 647 126 617 94 C 587 62 551 36 510 17 C 468 -2 423 -12 374 -12 Z" horiz-adv-x="742" />
<glyph unicode="H" d="M 60 672 L 112 672 L 112 314 C 125 331 140 343 158 350 C 175 357 192 361 210 361 L 510 361 L 510 672 L 562 672 L 562 0 L 510 0 L 510 313 L 213 313 C 199 313 186 310 174 305 C 162 299 151 292 142 283 C 132 274 125 263 120 251 C 114 239 112 225 112 211 L 112 0 L 60 0 L 60 672 Z" horiz-adv-x="622" />
<glyph unicode="I" d="M 65 672 L 117 672 L 117 0 L 65 0 L 65 672 Z" horiz-adv-x="182" />
<glyph unicode="J" d="M 275 -10 C 239 -10 207 -4 177 7 C 147 19 121 35 99 57 C 77 78 60 103 48 133 C 36 163 30 195 30 231 L 82 231 C 82 202 86 176 96 152 C 106 128 119 108 136 91 C 153 74 173 61 197 52 C 221 42 247 38 275 38 C 303 38 328 42 352 52 C 376 61 396 74 414 91 C 431 108 444 128 454 152 C 464 176 469 202 469 230 L 469 672 L 521 672 L 521 232 C 521 195 514 162 502 132 C 489 102 471 77 449 56 C 427 35 401 19 371 7 C 341 -4 309 -10 275 -10 Z" horiz-adv-x="581" />
<glyph unicode="K" d="M 60 672 L 112 672 L 112 361 L 141 361 C 158 361 172 361 184 363 C 195 365 205 368 213 373 C 221 378 230 385 238 393 C 246 401 256 412 268 426 L 479 672 L 546 672 L 298 384 C 288 372 278 362 268 354 C 257 345 248 339 241 336 C 248 332 257 325 269 315 C 281 305 290 296 297 288 L 545 0 L 477 0 L 269 243 C 254 260 242 273 233 283 C 223 292 214 299 205 303 C 196 307 186 310 176 311 C 166 311 152 312 136 312 L 112 312 L 112 0 L 60 0 L 60 672 Z" horiz-adv-x="566" />
<glyph unicode="L" d="M 60 672 L 112 672 L 112 48 L 498 48 L 498 0 L 60 0 L 60 672 Z" horiz-adv-x="528" />
<glyph unicode="M" d="M 60 672 L 112 672 L 381 190 L 651 672 L 703 672 L 703 0 L 651 0 L 651 572 L 404 133 L 387 133 C 375 133 365 135 359 141 C 352 146 346 154 341 164 L 112 572 L 112 0 L 60 0 L 60 672 Z" horiz-adv-x="763" />
<glyph unicode="N" d="M 60 672 L 111 672 L 470 88 C 479 72 487 62 494 58 C 501 53 512 50 528 50 L 528 672 L 580 672 L 580 0 L 535 0 C 509 0 488 4 473 13 C 457 21 443 36 431 57 L 112 576 L 112 0 L 60 0 L 60 672 Z" horiz-adv-x="640" />
<glyph unicode="O" d="M 378 -12 C 330 -12 284 -3 242 15 C 200 33 163 57 132 89 C 100 121 75 158 57 200 C 39 242 30 287 30 335 C 30 383 39 428 57 470 C 75 512 100 549 132 581 C 163 613 200 638 242 656 C 284 674 330 684 378 684 C 426 684 471 674 513 656 C 555 638 592 613 624 581 C 656 549 681 512 699 470 C 717 428 727 383 727 335 C 727 287 717 242 699 200 C 681 158 656 121 624 89 C 592 57 555 33 513 15 C 471 -3 426 -12 378 -12 Z M 378 36 C 419 36 458 43 494 59 C 530 75 561 96 588 124 C 615 151 636 183 652 219 C 667 255 675 293 675 335 C 675 376 667 415 652 451 C 636 487 615 519 588 547 C 561 574 530 596 494 612 C 458 628 419 636 378 636 C 336 636 298 628 262 612 C 226 596 194 574 168 547 C 141 519 120 487 105 451 C 89 415 82 376 82 335 C 82 293 89 255 105 219 C 120 183 141 151 168 124 C 194 96 226 75 262 59 C 298 43 336 36 378 36 Z" horiz-adv-x="757" />
<glyph unicode="P" d="M 60 672 L 340 672 C 370 672 397 666 423 655 C 448 644 470 629 488 610 C 506 591 521 569 531 543 C 541 517 547 490 547 461 C 547 432 541 405 531 381 C 520 356 505 334 487 316 C 468 298 446 283 421 273 C 395 263 368 258 340 258 L 217 258 C 186 258 161 248 141 230 C 121 211 112 186 112 155 L 112 0 L 60 0 L 60 672 Z M 112 260 C 126 278 142 290 160 296 C 178 302 196 305 214 305 L 340 305 C 361 305 381 309 400 317 C 419 325 436 337 450 351 C 464 365 475 381 483 400 C 491 419 495 440 495 462 C 495 484 491 504 483 524 C 475 544 465 561 451 576 C 437 590 420 602 401 611 C 382 619 362 624 340 624 L 112 624 L 112 260 Z" horiz-adv-x="572" />
<glyph unicode="Q" d="M 378 -12 C 330 -12 284 -3 242 15 C 200 33 163 57 132 89 C 100 121 75 158 57 200 C 39 242 30 287 30 335 C 30 383 39 428 57 470 C 75 512 100 549 132 581 C 163 613 200 638 242 656 C 284 674 330 684 378 684 C 426 684 471 674 513 656 C 555 638 592 613 624 581 C 656 549 681 512 699 470 C 717 428 727 383 727 335 C 727 289 718 246 702 206 C 686 166 663 130 634 99 L 721 0 L 658 0 L 599 66 C 568 41 534 22 497 8 C 459 -5 420 -12 378 -12 Z M 378 36 C 414 36 448 42 480 54 C 512 66 540 82 566 104 L 527 148 C 507 170 486 186 466 196 C 446 206 420 212 390 212 L 344 212 L 344 261 L 389 261 C 429 261 462 254 488 241 C 513 228 537 209 560 183 L 600 137 C 623 163 641 193 655 227 C 668 261 675 297 675 335 C 675 376 667 415 652 451 C 636 487 615 519 588 547 C 561 574 530 596 494 612 C 458 628 419 636 378 636 C 336 636 298 628 262 612 C 226 596 194 574 168 547 C 141 519 120 487 105 451 C 89 415 82 376 82 335 C 82 293 89 255 105 219 C 120 183 141 151 168 124 C 194 96 226 75 262 59 C 298 43 336 36 378 36 Z" horiz-adv-x="757" />
<glyph unicode="R" d="M 60 672 L 340 672 C 370 672 397 666 423 655 C 448 644 470 629 488 610 C 506 591 520 569 530 543 C 540 517 546 490 546 461 C 546 434 540 408 530 384 C 519 360 505 338 487 320 C 469 302 447 287 423 276 C 399 265 373 260 346 260 L 318 260 C 324 258 331 253 339 245 C 347 237 355 229 361 222 L 551 0 L 485 0 L 326 186 C 314 198 304 209 295 219 C 286 228 277 235 268 241 C 258 246 249 250 239 253 C 229 255 218 257 206 257 C 174 257 150 247 135 229 C 119 210 112 187 112 159 L 112 0 L 60 0 L 60 672 Z M 112 262 C 125 280 141 291 159 297 C 177 302 195 305 213 305 L 340 305 C 361 305 381 309 400 317 C 418 325 435 337 449 351 C 463 365 474 382 482 401 C 490 420 494 440 494 462 C 494 484 490 505 482 525 C 474 545 464 562 450 577 C 436 591 420 603 401 611 C 382 619 362 624 340 624 L 112 624 L 112 262 Z" horiz-adv-x="586" />
<glyph unicode="S" d="M 260 -10 C 228 -10 198 -5 170 3 C 142 11 117 24 96 41 C 75 58 58 79 46 105 C 34 130 28 159 28 193 L 81 193 C 81 167 85 145 95 126 C 104 107 117 91 133 79 C 149 66 168 56 190 50 C 212 44 235 41 261 41 C 283 41 305 44 326 50 C 347 56 366 66 382 78 C 398 90 410 104 420 122 C 430 140 435 160 435 184 C 435 215 425 239 407 257 C 388 274 365 288 337 299 C 309 310 278 320 245 329 C 212 337 182 348 154 362 C 126 375 102 393 84 415 C 65 437 56 468 56 507 C 56 535 61 560 72 582 C 83 604 98 622 116 637 C 134 651 156 662 180 670 C 204 678 230 682 257 682 C 280 682 304 678 328 672 C 352 666 373 656 392 643 C 411 630 427 614 439 594 C 451 574 457 551 457 525 L 403 525 C 403 543 398 558 390 572 C 381 586 370 597 356 606 C 342 614 327 621 310 625 C 292 629 275 632 258 632 C 238 632 218 629 200 624 C 182 619 166 611 152 601 C 138 591 128 578 120 562 C 112 546 108 528 108 508 C 108 484 113 465 124 450 C 135 434 149 422 167 412 C 185 402 205 393 228 386 C 250 379 273 372 297 366 C 321 359 344 351 367 343 C 389 335 409 324 427 310 C 445 296 459 280 470 260 C 481 240 487 214 487 184 C 487 152 480 125 468 101 C 455 77 438 56 417 40 C 396 23 372 10 345 2 C 317 -5 289 -10 260 -10 Z" horiz-adv-x="520" />
<glyph unicode="T" d="M 264 524 C 264 550 267 570 275 586 C 282 602 294 614 311 624 L 20 624 L 20 672 L 560 672 L 560 624 L 418 624 C 384 624 358 615 341 597 C 324 579 316 555 316 524 L 316 0 L 264 0 L 264 524 Z" horiz-adv-x="580" />
<glyph unicode="U" d="M 305 -7 C 268 -7 235 0 205 12 C 175 25 149 43 127 66 C 105 88 89 115 77 145 C 65 175 60 207 60 241 L 60 672 L 112 672 L 112 243 C 112 215 116 189 125 165 C 133 141 146 119 162 101 C 178 82 199 67 223 57 C 247 46 274 41 305 41 C 335 41 363 46 387 57 C 411 67 431 82 448 101 C 464 119 477 141 486 165 C 494 189 499 215 499 243 L 499 672 L 551 672 L 551 241 C 551 207 545 174 533 144 C 521 114 504 87 483 65 C 461 43 435 25 405 12 C 375 0 341 -7 305 -7 Z" horiz-adv-x="611" />
<glyph unicode="V" d="M 313 0 C 297 0 283 2 271 7 C 259 11 249 18 241 26 C 233 34 226 45 220 57 C 214 69 208 83 204 99 L 10 672 L 66 672 L 257 100 C 263 81 270 68 278 62 C 286 55 298 52 314 52 L 524 672 L 579 672 L 350 0 L 313 0 Z" horiz-adv-x="589" />
<glyph unicode="W" d="M 286 0 C 255 0 231 9 215 27 C 199 45 187 70 180 100 L 30 672 L 85 672 L 230 109 C 235 89 242 74 250 64 C 258 54 272 50 290 51 L 454 672 L 508 672 L 655 109 C 660 89 667 74 675 64 C 683 54 696 50 714 51 L 877 672 L 932 672 L 754 0 L 710 0 C 679 0 655 9 639 27 C 622 45 610 70 603 100 L 481 571 L 330 0 L 286 0 L 286 0 Z" horiz-adv-x="962" />
<glyph unicode="X" d="M 259 289 L 82 0 L 21 0 L 230 335 L 20 672 L 81 672 L 259 380 L 437 672 L 498 672 L 288 335 L 496 0 L 435 0 L 259 289 Z" horiz-adv-x="518" />
<glyph unicode="Y" d="M 323 218 C 303 218 286 219 272 223 C 258 227 245 232 235 240 C 224 247 214 256 206 268 C 198 279 190 293 183 309 L 10 672 L 67 672 L 225 331 C 231 317 238 305 244 297 C 250 288 257 281 266 277 C 274 272 284 269 296 268 C 308 266 323 266 341 266 L 489 672 L 544 672 L 297 0 L 243 0 L 323 218 Z" horiz-adv-x="554" />
<glyph unicode="Z" d="M 30 45 L 419 624 L 45 624 L 45 672 L 480 672 L 480 626 L 91 48 L 499 48 L 499 0 L 30 0 L 30 45 Z" horiz-adv-x="524" />
<glyph unicode="[" d="M 50 740 L 219 740 L 219 692 L 102 692 L 102 -67 L 219 -67 L 219 -115 L 50 -115 L 50 740 Z" horiz-adv-x="249" />
<glyph unicode="\" d="M 334 -30 L 282 -30 L 10 702 L 61 702 L 334 -30 Z" horiz-adv-x="344" />
<glyph unicode="]" d="M 199 -115 L 30 -115 L 30 -67 L 147 -67 L 147 692 L 30 692 L 30 740 L 199 740 L 199 -115 Z" horiz-adv-x="249" />
<glyph unicode="^" d="M 172 672 L 230 672 L 372 405 L 319 405 L 201 629 L 83 405 L 30 405 L 172 672 Z" horiz-adv-x="402" />
<glyph unicode="_" d="M 30 48 L 464 48 L 464 0 L 30 0 L 30 48 Z" horiz-adv-x="494" />
<glyph unicode="`" d="M 211 517 L 160 517 L 30 639 L 113 639 L 211 517 Z" horiz-adv-x="241" />
<glyph unicode="a" d="M 280 -12 C 246 -12 214 -6 184 6 C 154 18 128 34 106 56 C 84 78 66 104 54 134 C 41 164 35 198 35 234 C 35 268 41 301 54 331 C 67 361 85 387 107 409 C 129 431 155 448 185 461 C 215 473 247 480 281 480 C 303 480 323 477 340 472 C 356 467 371 461 385 455 C 398 449 410 443 422 438 C 434 433 446 431 459 431 L 459 466 L 509 466 L 509 127 C 509 117 509 107 510 99 C 511 91 513 83 517 76 C 520 68 524 61 530 54 C 536 47 544 40 554 32 L 522 -1 C 512 9 502 17 492 23 C 482 29 471 33 458 33 C 444 33 431 30 420 26 C 408 21 396 16 384 10 C 371 4 356 0 340 -5 C 324 -9 304 -12 280 -12 Z M 280 36 C 299 36 316 38 330 42 C 344 46 358 51 371 57 C 383 63 396 68 409 72 C 421 76 436 79 452 79 C 454 79 456 78 458 78 C 460 78 462 78 465 78 C 461 86 459 102 459 124 L 459 385 C 441 385 425 387 412 392 C 398 397 385 402 373 408 C 361 414 347 419 333 424 C 319 429 301 432 281 432 C 254 432 229 427 205 417 C 181 407 161 393 143 375 C 125 357 110 336 100 312 C 90 288 85 262 85 234 C 85 204 90 177 100 153 C 110 129 124 108 142 91 C 160 73 180 60 204 50 C 228 40 253 36 280 36 Z" horiz-adv-x="564" />
<glyph unicode="b" d="M 281 -12 C 257 -12 236 -9 220 -5 C 203 0 188 5 176 11 C 163 17 151 22 140 27 C 129 31 117 34 105 34 L 105 0 L 55 0 L 55 672 L 105 672 L 105 434 C 117 434 129 436 140 441 C 150 445 162 451 175 457 C 187 463 202 468 218 473 C 234 477 255 480 279 480 C 314 480 347 473 377 461 C 407 449 434 432 456 410 C 478 388 495 363 507 333 C 519 303 526 270 526 235 C 526 201 519 169 507 139 C 495 109 478 82 456 60 C 434 38 408 20 378 7 C 348 -5 315 -12 281 -12 Z M 279 34 C 306 34 332 39 356 49 C 380 59 400 74 418 92 C 436 110 450 132 460 156 C 470 180 476 207 476 235 C 476 263 471 290 461 314 C 451 338 437 359 419 377 C 401 395 381 408 357 418 C 333 428 307 433 279 433 C 258 433 241 430 227 426 C 213 421 199 416 187 411 C 175 405 162 400 150 395 C 138 390 123 388 105 388 L 105 80 C 123 80 138 77 151 72 C 163 67 176 62 188 56 C 200 50 213 45 227 41 C 241 36 258 34 279 34 Z" horiz-adv-x="561" />
<glyph unicode="c" d="M 280 -12 C 246 -12 214 -5 184 7 C 154 20 128 38 106 60 C 84 82 66 108 54 138 C 41 168 35 200 35 234 C 35 268 41 299 54 329 C 66 359 84 385 106 407 C 128 429 154 447 184 460 C 214 473 246 480 280 480 C 304 480 327 476 349 470 C 371 463 392 453 412 441 C 431 429 448 414 464 397 C 479 379 492 360 502 339 L 448 339 C 429 365 405 388 375 406 C 345 424 314 434 280 434 C 252 434 227 428 203 418 C 179 407 158 393 141 375 C 123 357 110 335 100 311 C 90 287 85 261 85 234 C 85 206 90 180 100 156 C 110 132 123 111 141 93 C 158 75 179 60 203 50 C 227 39 252 34 280 34 C 315 34 347 42 376 60 C 405 78 428 101 446 129 L 502 129 C 480 86 450 52 411 26 C 372 0 328 -12 280 -12 Z" horiz-adv-x="532" />
<glyph unicode="d" d="M 279 -12 C 245 -12 213 -6 183 6 C 153 18 128 34 106 56 C 84 78 66 104 54 134 C 41 164 35 198 35 234 C 35 268 41 301 54 331 C 66 361 84 387 106 409 C 128 431 154 448 184 461 C 214 473 246 480 280 480 C 303 480 323 477 339 472 C 355 467 370 462 383 456 C 396 450 408 445 420 440 C 432 435 444 433 458 433 L 458 672 L 507 672 L 507 127 C 507 115 507 105 509 97 C 510 89 512 81 516 74 C 519 67 523 60 529 54 C 535 48 542 41 552 34 L 521 -1 C 510 9 500 17 491 23 C 481 29 470 33 456 33 C 442 33 429 30 417 26 C 405 21 393 16 381 10 C 368 4 354 0 338 -5 C 322 -9 302 -12 279 -12 Z M 279 34 C 297 34 313 36 327 41 C 341 45 355 50 368 56 C 381 62 394 67 408 72 C 421 76 436 79 453 79 L 464 79 C 460 87 458 102 458 124 L 458 388 C 439 388 423 390 409 395 C 395 399 382 405 370 411 C 357 417 344 422 330 427 C 316 431 299 434 280 434 C 253 434 228 428 204 418 C 180 408 160 394 142 376 C 124 358 110 336 100 312 C 90 288 85 262 85 234 C 85 204 90 177 100 153 C 110 128 124 107 142 89 C 160 71 180 58 204 48 C 228 38 253 34 279 34 Z" horiz-adv-x="562" />
<glyph unicode="e" d="M 281 -12 C 245 -12 213 -5 183 7 C 153 19 127 37 105 59 C 83 81 65 108 53 138 C 41 168 35 200 35 234 C 35 268 41 300 54 330 C 67 360 85 386 107 408 C 129 430 155 447 185 460 C 215 473 247 480 281 480 C 315 480 347 473 377 461 C 407 449 433 432 455 411 C 477 389 494 364 506 335 C 518 305 525 273 525 239 C 525 236 525 232 525 228 C 525 223 524 219 524 217 L 168 217 C 150 217 134 212 121 204 C 108 195 102 183 102 167 C 102 153 105 140 113 127 C 120 113 129 102 139 92 C 160 72 182 58 204 48 C 226 38 252 34 281 34 C 319 34 352 43 382 61 C 411 79 435 105 454 139 L 506 139 C 496 115 483 94 468 76 C 453 58 436 42 416 29 C 396 15 375 5 352 -1 C 329 -8 305 -12 281 -12 Z M 85 217 C 90 231 100 241 115 249 C 129 257 144 261 160 261 L 473 261 C 471 287 464 310 454 332 C 443 353 429 371 412 387 C 394 402 374 414 352 422 C 330 430 306 435 281 435 C 254 435 228 429 204 418 C 179 407 157 392 139 373 C 120 353 105 330 95 304 C 85 277 81 248 85 217 Z" horiz-adv-x="560" />
<glyph unicode="f" d="M 60 340 C 60 366 65 387 75 404 C 85 420 100 433 118 443 C 98 451 83 465 72 483 C 60 501 55 522 55 546 C 55 566 58 583 65 599 C 72 615 82 628 94 639 C 106 649 121 657 137 663 C 153 669 170 672 188 672 L 276 672 L 276 626 L 188 626 C 164 626 145 619 129 605 C 113 591 105 571 105 545 C 105 519 113 500 129 486 C 145 472 165 466 188 466 L 276 466 L 276 420 L 188 420 C 136 420 110 393 110 339 L 110 0 L 60 0 L 60 340 Z" horiz-adv-x="306" />
<glyph unicode="g" d="M 287 -218 C 231 -218 185 -205 147 -179 C 109 -153 83 -119 70 -76 L 125 -76 C 137 -110 159 -134 189 -150 C 219 -165 253 -173 289 -173 C 343 -173 384 -158 413 -129 C 441 -100 456 -55 456 7 L 456 39 C 442 39 430 36 419 32 C 407 27 395 22 382 16 C 369 10 354 5 338 1 C 322 -3 302 -6 279 -6 C 245 -6 213 0 183 12 C 153 24 128 40 106 61 C 84 82 66 107 54 137 C 41 166 35 198 35 234 C 35 269 41 302 54 332 C 66 362 83 388 105 410 C 127 432 152 449 182 461 C 212 473 244 480 278 480 C 301 480 321 477 337 473 C 353 468 368 463 381 457 C 394 451 406 445 418 441 C 430 436 442 434 456 434 L 456 466 L 506 466 L 506 7 C 506 -69 486 -125 448 -162 C 409 -199 355 -218 287 -218 Z M 279 40 C 298 40 315 42 329 47 C 343 51 357 56 370 62 C 382 68 395 73 409 77 C 422 81 438 84 456 84 L 456 388 C 438 388 422 390 409 395 C 395 399 382 404 370 410 C 357 416 343 421 329 426 C 315 431 298 434 278 434 C 251 434 226 428 203 418 C 179 408 159 394 141 376 C 123 358 110 336 100 312 C 90 288 85 262 85 234 C 85 206 90 180 100 156 C 110 132 124 112 142 95 C 160 77 180 64 204 54 C 227 44 252 40 279 40 Z" horiz-adv-x="561" />
<glyph unicode="h" d="M 55 672 L 105 672 L 105 427 C 117 427 128 430 140 436 C 152 442 165 448 179 454 C 193 460 208 466 225 472 C 242 477 262 480 286 480 C 314 480 339 475 362 466 C 385 457 405 444 422 427 C 438 410 451 389 460 365 C 469 341 474 313 474 283 L 474 0 L 424 0 L 424 283 C 424 328 412 364 389 392 C 366 420 332 434 286 434 C 266 434 248 431 233 427 C 217 422 203 417 190 411 C 176 405 163 399 149 394 C 135 388 121 385 105 384 L 105 0 L 55 0 L 55 672 Z" horiz-adv-x="529" />
<glyph unicode="i" d="M 55 466 L 105 466 L 105 0 L 55 0 L 55 466 Z M 55 672 L 105 672 L 105 583 L 55 583 L 55 672 Z" horiz-adv-x="160" />
<glyph unicode="j" d="M -5 -159 C 18 -159 34 -154 44 -144 C 53 -134 58 -117 58 -92 L 58 466 L 108 466 L 108 -92 C 108 -168 70 -206 -5 -206 L -5 -159 Z M 58 672 L 108 672 L 108 583 L 58 583 L 58 672 Z" horiz-adv-x="163" />
<glyph unicode="k" d="M 55 672 L 105 672 L 105 256 L 127 256 C 138 256 148 256 156 258 C 164 259 171 261 178 264 C 184 267 191 271 198 277 C 204 283 212 290 221 299 L 392 466 L 460 466 L 256 267 C 254 265 250 262 246 258 C 242 254 237 251 232 247 C 227 243 222 240 218 238 C 213 235 209 233 205 233 C 215 229 225 224 235 218 C 245 211 254 204 262 196 L 455 0 L 387 0 L 224 166 C 207 182 192 194 179 200 C 165 206 148 210 127 210 L 105 210 L 105 0 L 55 0 L 55 672 Z" horiz-adv-x="475" />
<glyph unicode="l" d="M 55 672 L 105 672 L 105 0 L 55 0 L 55 672 Z" horiz-adv-x="160" />
<glyph unicode="m" d="M 580 434 C 562 434 547 432 533 428 C 519 424 506 419 493 413 C 480 407 467 401 455 395 C 442 389 429 384 415 380 C 423 356 427 331 427 304 L 427 0 L 377 0 L 377 304 C 377 346 367 378 349 400 C 331 422 301 434 259 434 C 241 434 226 431 213 427 C 200 422 188 417 176 411 C 164 405 153 399 142 393 C 131 387 119 382 105 380 L 105 0 L 55 0 L 55 466 L 105 466 L 105 426 C 115 428 126 432 137 438 C 147 444 159 450 171 456 C 183 462 196 467 210 472 C 224 477 241 480 259 480 C 290 480 317 474 339 464 C 361 453 380 438 394 419 C 412 425 428 431 442 438 C 456 445 469 452 483 458 C 497 464 511 469 526 473 C 541 477 559 480 580 480 C 637 480 679 464 707 432 C 735 400 749 358 749 304 L 749 0 L 699 0 L 699 304 C 699 346 689 378 671 400 C 652 422 622 434 580 434 Z" horiz-adv-x="804" />
<glyph unicode="n" d="M 55 466 L 105 466 L 105 427 C 117 427 128 430 140 436 C 152 442 165 448 179 454 C 193 460 208 466 226 472 C 243 477 263 480 287 480 C 315 480 340 475 363 466 C 386 457 406 444 422 427 C 438 410 451 389 460 365 C 469 341 474 313 474 283 L 474 0 L 424 0 L 424 283 C 424 328 412 364 389 392 C 366 420 332 434 286 434 C 266 434 248 431 233 427 C 217 422 203 417 190 411 C 176 405 163 399 149 393 C 135 387 121 384 105 383 L 105 0 L 55 0 L 55 466 Z" horiz-adv-x="529" />
<glyph unicode="o" d="M 35 234 C 35 268 41 300 54 330 C 67 360 85 386 107 408 C 129 430 155 447 185 460 C 215 473 247 480 281 480 C 315 480 347 473 377 460 C 407 447 433 430 455 408 C 477 386 494 360 507 330 C 520 300 527 268 527 234 C 527 200 520 168 507 138 C 494 108 477 82 455 60 C 433 38 407 20 377 7 C 347 -5 315 -12 281 -12 C 247 -12 215 -5 185 7 C 155 20 129 38 107 60 C 85 82 67 108 54 138 C 41 168 35 200 35 234 Z M 281 34 C 307 34 333 39 357 50 C 381 60 401 75 419 93 C 437 111 451 132 461 156 C 471 180 477 206 477 234 C 477 262 471 288 461 312 C 451 336 437 358 419 376 C 401 394 381 408 357 418 C 333 428 307 434 281 434 C 253 434 228 428 204 418 C 180 408 160 394 142 376 C 124 358 110 336 100 312 C 90 288 85 262 85 234 C 85 206 90 180 100 156 C 110 132 124 111 142 93 C 160 75 180 60 204 50 C 228 39 253 34 281 34 Z" horiz-adv-x="562" />
<glyph unicode="p" d="M 281 -12 C 257 -12 236 -9 220 -5 C 203 0 188 5 176 11 C 163 17 151 22 140 27 C 129 31 117 34 105 34 L 105 -206 L 55 -206 L 55 466 L 105 466 L 105 434 C 117 434 129 436 140 441 C 150 445 162 451 175 457 C 187 463 202 468 218 473 C 234 477 255 480 279 480 C 314 480 347 473 377 461 C 407 449 434 432 456 410 C 478 388 495 363 507 333 C 519 303 526 270 526 235 C 526 201 519 169 507 139 C 495 109 478 82 456 60 C 434 38 408 20 378 7 C 348 -5 315 -12 281 -12 Z M 279 34 C 306 34 332 39 356 49 C 380 59 400 74 418 92 C 436 110 450 132 460 156 C 470 180 476 207 476 235 C 476 263 471 290 461 314 C 451 338 437 359 419 377 C 401 395 381 408 357 418 C 333 428 307 433 279 433 C 258 433 241 430 227 426 C 213 421 199 416 187 411 C 175 405 162 400 150 395 C 138 390 123 388 105 388 L 105 80 C 123 80 138 77 151 72 C 163 67 176 62 188 56 C 200 50 213 45 227 41 C 241 36 258 34 279 34 Z" horiz-adv-x="561" />
<glyph unicode="q" d="M 279 480 C 302 480 322 477 338 473 C 354 468 368 463 381 457 C 393 451 405 446 417 442 C 429 437 442 435 456 435 C 470 435 481 438 491 444 C 500 450 510 459 521 469 L 552 436 C 533 421 521 407 515 394 C 509 380 507 363 507 341 L 507 -206 L 458 -206 L 458 30 C 444 30 432 27 420 23 C 408 19 396 14 383 9 C 370 3 355 -1 339 -5 C 323 -9 303 -12 280 -12 C 246 -12 214 -5 184 6 C 154 18 128 36 106 58 C 84 80 66 106 54 136 C 41 166 35 198 35 234 C 35 270 41 303 54 333 C 66 363 84 389 106 411 C 128 433 153 450 183 462 C 213 474 245 480 279 480 Z M 279 434 C 253 434 228 429 204 419 C 180 409 160 396 142 378 C 124 360 110 339 100 315 C 90 290 85 263 85 234 C 85 206 90 179 100 155 C 110 131 124 110 142 92 C 160 74 180 59 204 49 C 228 39 253 34 280 34 C 299 34 316 36 330 40 C 344 44 357 49 370 54 C 382 59 395 64 409 68 C 423 72 439 75 458 75 L 458 344 C 458 364 460 379 464 389 L 453 389 C 436 389 421 391 408 396 C 394 400 381 405 368 411 C 355 417 341 422 327 427 C 313 431 297 434 279 434 Z" horiz-adv-x="562" />
<glyph unicode="r" d="M 55 339 C 55 350 54 360 53 368 C 52 376 50 384 47 390 C 43 396 39 403 33 409 C 27 415 20 422 11 430 L 42 465 C 56 452 67 443 76 438 C 84 433 94 431 106 431 C 121 431 134 433 146 439 C 157 444 169 450 182 457 C 194 463 208 469 224 475 C 240 480 260 483 284 483 L 284 436 C 266 436 250 433 236 428 C 222 423 208 417 196 411 C 183 405 170 399 156 394 C 142 388 127 386 110 386 C 108 386 105 386 103 386 C 101 386 99 386 97 387 C 102 378 105 362 105 339 L 105 0 L 55 0 L 55 339 Z" horiz-adv-x="314" />
<glyph unicode="s" d="M 209 -12 C 153 -12 109 1 77 28 C 45 54 30 92 30 141 L 80 141 C 80 107 91 81 114 62 C 136 43 168 34 209 34 C 223 34 238 35 253 39 C 267 43 281 49 293 57 C 305 65 314 75 322 87 C 330 99 334 113 334 130 C 334 152 327 170 313 182 C 299 194 282 204 261 212 C 240 219 218 225 194 231 C 170 236 147 243 126 253 C 105 262 88 274 74 290 C 60 306 54 328 54 356 C 54 375 58 392 66 408 C 74 423 86 436 100 447 C 114 457 131 465 150 471 C 168 477 188 480 209 480 C 227 480 246 477 264 472 C 282 467 298 460 312 450 C 326 440 338 427 347 412 C 355 396 360 378 360 358 L 310 358 C 310 371 306 382 300 392 C 294 402 286 410 277 416 C 267 422 257 427 245 430 C 233 433 221 435 209 435 C 179 435 154 428 134 415 C 114 401 104 382 104 357 C 104 337 110 321 124 311 C 138 300 155 291 176 285 C 197 278 220 272 244 266 C 268 260 290 253 311 243 C 332 233 349 219 363 201 C 377 183 384 160 384 130 C 384 106 379 85 369 67 C 359 49 346 35 330 23 C 314 11 295 3 274 -3 C 253 -9 231 -12 209 -12 Z" horiz-adv-x="414" />
<glyph unicode="t" d="M 176 0 C 138 0 109 11 87 34 C 65 57 55 88 55 126 L 55 333 C 55 358 59 380 67 398 C 75 416 89 431 109 442 C 89 451 75 464 67 481 C 59 497 55 518 55 542 L 55 632 L 105 632 L 105 547 C 105 521 111 501 125 487 C 138 473 158 466 184 466 L 271 466 L 271 420 L 184 420 C 156 420 136 412 124 396 C 111 380 105 359 105 333 L 105 126 C 105 103 111 84 123 69 C 135 53 153 46 176 46 L 271 46 L 271 0 L 176 0 Z" horiz-adv-x="306" />
<glyph unicode="u" d="M 247 -12 C 219 -12 193 -7 169 0 C 145 8 125 21 108 37 C 91 53 78 74 69 98 C 59 122 55 151 55 183 L 55 466 L 105 466 L 105 183 C 105 135 117 99 141 73 C 165 47 200 34 248 34 C 270 34 288 36 303 42 C 317 47 331 53 344 59 C 357 65 370 71 384 75 C 398 79 414 81 433 79 C 427 87 425 102 425 125 L 425 466 L 475 466 L 475 129 C 475 105 478 87 485 75 C 491 63 504 49 523 35 L 491 -1 C 479 9 469 18 460 24 C 451 30 439 34 424 34 C 410 34 397 31 386 27 C 374 22 362 17 350 11 C 337 5 323 0 307 -5 C 291 -9 271 -12 247 -12 Z" horiz-adv-x="538" />
<glyph unicode="v" d="M 266 0 C 233 0 208 7 192 23 C 176 38 163 58 154 82 L 10 466 L 64 466 L 199 101 C 206 79 215 65 226 57 C 236 49 252 46 272 46 L 427 466 L 481 466 L 306 0 L 266 0 Z" horiz-adv-x="491" />
<glyph unicode="w" d="M 247 0 C 230 0 216 2 205 6 C 194 10 185 15 178 23 C 170 30 164 39 160 49 C 155 59 151 70 147 82 L 20 466 L 72 466 L 192 98 C 198 76 206 62 214 56 C 222 49 234 46 250 46 L 386 466 L 433 466 L 552 100 C 559 78 566 64 574 57 C 582 49 594 46 611 46 L 747 466 L 799 466 L 646 0 L 609 0 C 592 0 578 2 567 6 C 556 10 547 15 539 23 C 531 30 525 39 521 49 C 516 59 512 70 508 82 L 409 383 L 286 0 L 247 0 Z" horiz-adv-x="819" />
<glyph unicode="x" d="M 184 233 L 14 466 L 74 466 L 213 272 L 355 466 L 416 466 L 243 233 L 414 0 L 354 0 L 213 194 L 71 0 L 10 0 L 184 233 Z" horiz-adv-x="426" />
<glyph unicode="y" d="M 112 -159 C 128 -159 142 -158 153 -156 C 164 -154 173 -152 181 -148 C 188 -144 194 -138 199 -131 C 203 -124 208 -115 213 -104 L 254 0 C 226 1 204 9 190 24 C 176 38 164 57 156 81 L 15 466 L 70 466 L 202 97 C 210 75 219 61 229 55 C 239 49 254 46 272 46 L 430 466 L 485 466 L 260 -123 C 254 -139 247 -152 239 -162 C 231 -172 221 -181 210 -188 C 198 -194 185 -199 169 -202 C 153 -204 134 -206 112 -206 L 112 -159 Z" horiz-adv-x="500" />
<glyph unicode="z" d="M 30 42 L 353 420 L 37 420 L 37 466 L 418 466 L 418 421 L 98 46 L 430 46 L 430 0 L 30 0 L 30 42 Z" horiz-adv-x="460" />
<glyph unicode="{" d="M 153 -4 C 153 -26 158 -42 168 -52 C 178 -62 193 -67 215 -67 L 270 -67 L 270 -115 L 215 -115 C 178 -115 150 -105 130 -86 C 110 -67 101 -40 101 -4 L 101 214 C 101 239 95 258 85 270 C 75 282 55 289 25 289 L 20 289 L 20 337 L 25 337 C 53 337 72 343 84 355 C 95 367 101 386 101 412 L 101 629 C 101 665 110 692 130 711 C 150 730 178 740 215 740 L 270 740 L 270 692 L 215 692 C 193 692 178 687 168 677 C 158 667 153 651 153 629 L 153 411 C 153 387 148 367 139 352 C 129 336 116 323 98 313 C 116 303 129 290 139 274 C 148 258 153 238 153 214 L 153 -4 Z" horiz-adv-x="300" />
<glyph unicode="|" d="M 70 745 L 122 745 L 122 -120 L 70 -120 L 70 745 Z" horiz-adv-x="192" />
<glyph unicode="}" d="M 147 214 C 147 238 151 258 161 274 C 170 290 184 303 202 313 C 184 323 170 336 161 352 C 151 367 147 387 147 411 L 147 629 C 147 651 142 667 132 677 C 122 687 106 692 85 692 L 30 692 L 30 740 L 85 740 C 121 740 149 730 169 711 C 189 692 199 665 199 629 L 199 412 C 199 386 204 367 216 355 C 227 343 247 337 275 337 L 280 337 L 280 289 L 275 289 C 245 289 224 282 214 270 C 204 258 199 239 199 214 L 199 -4 C 199 -40 189 -67 169 -86 C 149 -105 121 -115 85 -115 L 30 -115 L 30 -67 L 85 -67 C 106 -67 122 -62 132 -52 C 142 -42 147 -26 147 -4 L 147 214 Z" horiz-adv-x="300" />
<glyph unicode="~" d="M 386 531 C 358 531 334 536 316 547 C 298 558 281 570 267 583 C 252 596 237 608 222 619 C 207 630 189 636 168 636 C 139 636 119 628 107 612 C 95 596 89 573 89 543 L 40 543 C 40 589 51 624 73 648 C 95 672 127 684 168 684 C 196 684 219 678 237 667 C 255 656 272 644 287 631 C 301 618 316 606 331 595 C 345 584 364 579 386 579 C 414 579 434 587 446 603 C 458 619 465 642 465 672 L 514 672 C 514 626 503 591 481 567 C 459 543 428 531 386 531 Z" horiz-adv-x="554" />
<glyph unicode="" d="" horiz-adv-x="230" />
<glyph unicode="" d="M 70 492 L 122 492 L 122 0 L 70 0 L 70 492 Z M 70 672 L 122 672 L 122 579 L 70 579 L 70 672 Z" horiz-adv-x="192" />
<glyph unicode="" d="M 325 583 C 369 578 408 563 444 537 C 479 511 506 479 526 439 L 468 439 C 449 465 425 488 396 506 C 366 524 335 534 301 534 C 273 534 248 528 225 518 C 201 507 181 493 164 475 C 146 457 133 436 123 412 C 113 388 108 362 108 336 C 108 308 113 283 123 259 C 133 235 146 214 164 196 C 181 178 201 163 225 153 C 248 143 273 138 301 138 C 335 138 367 146 396 164 C 425 182 448 205 466 233 L 526 233 C 506 193 478 160 443 134 C 408 108 369 93 325 89 L 325 0 L 275 0 L 275 89 C 243 92 214 101 187 115 C 160 129 137 147 117 169 C 97 191 82 216 71 245 C 59 273 54 304 54 336 C 54 368 59 398 71 426 C 82 454 97 480 117 502 C 137 524 160 542 187 556 C 214 570 243 578 275 582 L 275 672 L 325 672 L 325 583 Z" horiz-adv-x="581" />
<glyph unicode="" d="M 110 446 C 85 445 65 451 51 464 C 36 477 29 494 29 515 L 60 515 C 60 501 64 491 73 483 C 81 475 94 471 110 471 C 122 471 133 474 143 481 C 153 488 158 498 158 511 C 158 521 155 528 149 534 C 143 539 136 543 127 547 C 118 551 109 554 99 557 C 89 560 79 564 70 569 C 61 573 54 579 48 587 C 42 595 40 605 40 618 C 40 635 46 649 59 659 C 72 669 88 675 108 675 C 124 675 140 670 154 660 C 168 650 175 637 175 620 L 145 620 C 145 629 141 636 134 641 C 127 646 118 649 107 649 C 95 649 85 646 79 640 C 72 634 69 627 69 618 C 69 609 72 602 78 598 C 84 593 91 589 100 586 C 108 582 118 579 128 576 C 138 573 148 569 157 564 C 165 559 173 552 179 544 C 185 536 188 525 188 511 C 188 501 185 491 181 483 C 176 475 170 468 163 463 C 155 457 147 453 138 450 C 128 447 119 446 110 446 Z M 221 672 L 248 672 L 328 524 C 328 522 329 521 330 520 C 330 518 331 518 333 518 L 415 672 L 442 672 L 442 448 L 415 448 L 415 611 L 347 489 L 336 489 C 325 489 318 492 314 498 C 310 504 306 511 302 519 L 248 612 L 248 448 L 221 448 L 221 672 Z" horiz-adv-x="514" />
<glyph unicode="" d="M 162 613 L 234 613 L 234 538 L 162 538 L 162 613 Z M 30 613 L 102 613 L 102 538 L 30 538 L 30 613 Z" horiz-adv-x="264" />
<glyph unicode="" d="M 366 130 C 338 130 312 135 288 146 C 263 157 241 172 223 191 C 204 209 189 231 178 256 C 167 281 162 308 162 336 C 162 365 167 392 178 418 C 189 443 204 465 223 484 C 241 502 263 517 289 528 C 314 538 341 544 369 544 C 389 544 408 540 427 534 C 446 528 464 519 480 507 C 496 495 510 482 522 466 C 534 450 544 434 552 416 L 506 416 C 492 440 473 461 449 477 C 425 493 399 502 369 502 C 346 502 324 497 304 489 C 284 480 266 468 251 453 C 236 438 224 421 216 401 C 207 381 203 359 203 336 C 203 313 207 292 216 272 C 225 252 237 234 252 219 C 267 204 284 192 304 184 C 324 175 344 171 366 171 C 396 171 423 178 448 194 C 472 210 492 230 506 256 L 552 256 C 536 218 512 187 478 164 C 444 141 406 130 366 130 Z M 368 -5 C 321 -5 277 3 236 21 C 194 39 158 63 128 94 C 97 125 73 161 55 202 C 37 243 28 287 28 335 C 28 381 37 425 55 467 C 73 509 97 545 128 576 C 158 606 194 631 236 649 C 277 667 321 676 368 676 C 414 676 458 667 500 649 C 542 631 578 606 609 576 C 639 545 664 509 682 467 C 700 425 709 381 709 335 C 709 287 700 243 682 202 C 664 161 639 125 609 94 C 578 63 542 39 500 21 C 458 3 414 -5 368 -5 Z M 368 35 C 409 35 448 42 484 58 C 520 74 552 95 579 123 C 606 150 627 182 643 218 C 659 254 667 293 667 335 C 667 376 659 415 643 451 C 627 487 606 519 579 547 C 552 574 520 596 484 612 C 448 628 409 636 368 636 C 326 636 288 628 252 612 C 216 596 184 574 157 547 C 129 519 108 487 92 451 C 76 415 69 376 69 335 C 69 293 76 254 92 218 C 108 182 129 150 157 123 C 184 95 216 74 252 58 C 288 42 326 35 368 35 Z" horiz-adv-x="737" />
<glyph unicode="" d="M 212 43 L 158 43 L 38 233 L 158 423 L 212 423 L 92 233 L 212 43 Z M 355 43 L 301 43 L 181 233 L 301 423 L 355 423 L 235 233 L 355 43 Z" horiz-adv-x="395" />
<glyph unicode="" d="M 542 371 L 542 96 L 494 96 L 494 323 L 40 323 L 40 371 L 542 371 Z" horiz-adv-x="582" />
<glyph unicode="" d="M 30 284 L 250 284 L 250 236 L 30 236 L 30 284 Z" horiz-adv-x="280" />
<glyph unicode="" d="M 156 443 C 140 443 124 446 110 452 C 96 458 83 467 73 477 C 63 487 54 500 48 514 C 42 528 39 544 39 560 C 39 576 42 591 48 605 C 54 619 63 632 73 643 C 83 653 96 662 110 668 C 124 674 140 678 156 678 C 172 678 187 674 201 668 C 215 662 228 653 239 643 C 249 632 258 619 264 605 C 270 591 274 576 274 560 C 274 544 270 528 264 514 C 258 500 249 487 239 477 C 228 467 215 458 201 452 C 187 446 172 443 156 443 Z M 156 459 C 170 459 183 461 195 467 C 207 472 217 479 226 489 C 235 498 242 509 248 521 C 253 533 256 546 256 560 C 256 574 253 587 248 599 C 242 611 235 621 226 631 C 217 640 207 647 195 653 C 183 658 170 661 156 661 C 142 661 129 658 117 653 C 105 647 94 640 85 631 C 76 621 69 611 64 599 C 58 587 56 574 56 560 C 56 546 58 533 64 521 C 69 509 76 498 85 489 C 94 479 105 472 117 467 C 129 461 142 459 156 459 Z M 110 631 L 168 631 C 181 631 192 626 200 618 C 208 609 213 598 213 586 C 213 575 209 566 202 558 C 194 550 184 546 170 546 C 171 545 172 544 174 542 C 176 540 178 539 180 537 L 218 493 L 196 493 L 164 530 C 159 535 155 539 153 541 C 150 543 146 544 141 544 C 135 544 131 542 129 538 C 127 534 126 530 126 525 L 126 493 L 110 493 L 110 631 Z M 126 554 C 130 558 135 560 142 560 L 168 560 C 175 560 181 562 187 566 C 192 570 195 577 195 586 C 195 594 192 601 187 607 C 182 612 176 615 168 615 L 126 615 L 126 554 Z" horiz-adv-x="313" />
<glyph unicode="" d="M 147 466 C 131 466 117 468 104 474 C 91 480 80 487 71 497 C 61 507 54 518 48 531 C 42 544 40 558 40 574 C 40 588 42 602 48 615 C 54 628 61 639 71 649 C 81 659 92 666 105 672 C 118 678 132 681 147 681 C 161 681 175 678 188 672 C 201 666 213 659 223 650 C 233 640 240 629 246 616 C 252 602 255 588 255 574 C 255 558 252 544 246 531 C 240 518 233 507 223 497 C 213 487 202 480 189 474 C 175 468 161 466 147 466 Z M 147 503 C 166 503 183 510 197 524 C 211 538 218 554 218 574 C 218 593 211 609 197 623 C 183 637 166 644 147 644 C 128 644 112 637 98 623 C 84 609 78 593 78 574 C 78 555 84 538 98 524 C 111 510 127 503 147 503 Z" horiz-adv-x="295" />
<glyph unicode="" d="M 267 397 L 40 397 L 40 445 L 267 445 L 267 672 L 315 672 L 315 445 L 542 445 L 542 397 L 315 397 L 315 170 L 267 170 L 267 397 Z M 542 0 L 40 0 L 40 48 L 542 48 L 542 0 Z" horiz-adv-x="582" />
<glyph unicode="" d="M 53 270 C 46 270 41 272 38 277 C 34 281 33 286 33 292 C 33 297 35 302 40 307 L 219 485 C 228 494 236 504 242 516 C 248 527 252 540 252 555 C 252 581 243 602 225 619 C 207 635 185 644 159 644 C 131 644 110 635 94 618 C 78 600 71 578 71 552 L 30 552 C 30 570 33 587 39 603 C 45 619 54 633 66 645 C 77 657 90 666 106 673 C 122 679 139 683 159 683 C 178 683 196 679 212 673 C 228 667 242 658 254 646 C 266 634 275 621 282 605 C 288 589 292 573 292 555 C 292 533 287 514 279 498 C 270 482 259 468 247 456 L 94 308 L 300 308 L 300 270 L 53 270 Z" horiz-adv-x="330" />
<glyph unicode="" d="M 170 259 C 125 259 91 272 67 298 C 43 324 30 357 30 398 L 70 398 C 70 368 79 343 97 325 C 114 306 138 297 170 297 C 198 297 221 305 239 322 C 257 338 267 361 267 389 C 267 407 261 422 251 436 C 240 449 228 460 215 470 C 209 474 206 480 206 487 C 206 489 206 491 208 495 C 209 499 211 502 213 504 C 222 512 230 520 237 530 C 244 540 248 552 248 566 C 248 588 240 606 224 622 C 208 638 189 646 166 646 C 142 646 122 637 106 620 C 90 603 83 583 83 559 L 42 559 C 42 576 46 592 52 608 C 58 623 66 636 77 648 C 88 659 101 668 116 674 C 131 680 148 684 166 684 C 184 684 200 680 215 674 C 230 668 243 659 254 649 C 264 638 273 625 279 611 C 285 597 288 582 288 566 C 288 550 284 536 276 523 C 268 510 260 499 251 489 C 265 477 277 463 289 447 C 301 431 307 411 307 389 C 307 369 303 352 296 336 C 289 320 279 306 267 295 C 255 283 240 274 224 268 C 207 262 189 259 170 259 Z" horiz-adv-x="337" />
<glyph unicode="" d="M 128 639 L 211 639 L 81 517 L 30 517 L 128 639 Z" horiz-adv-x="241" />
<glyph unicode="" d="M 238 295 C 212 295 187 299 164 309 C 141 319 121 332 104 349 C 87 366 74 386 64 409 C 54 432 50 457 50 483 C 50 509 54 533 64 556 C 74 579 87 599 104 616 C 121 633 141 647 164 657 C 187 667 212 672 238 672 L 518 672 L 518 630 L 421 630 L 421 0 L 374 0 L 374 630 L 286 630 L 286 0 L 238 0 L 238 295 Z" horiz-adv-x="568" />
<glyph unicode="" d="M 50 297 L 124 297 L 124 221 L 50 221 L 50 297 Z" horiz-adv-x="174" />
<glyph unicode="" d="M 119 633 L 50 633 L 50 672 L 142 672 C 147 672 151 670 155 666 C 158 662 160 658 160 654 L 160 270 L 119 270 L 119 633 Z" horiz-adv-x="230" />
<glyph unicode="" d="M 301 233 L 181 423 L 235 423 L 355 233 L 235 43 L 181 43 L 301 233 Z M 158 233 L 38 423 L 92 423 L 212 233 L 92 43 L 38 43 L 158 233 Z" horiz-adv-x="395" />
<glyph unicode="" d="M 258 579 L 206 579 L 206 672 L 258 672 L 258 579 Z M 258 437 C 258 415 253 395 245 379 C 236 363 225 348 212 335 C 199 322 185 310 170 298 C 154 286 140 274 127 262 C 114 249 103 235 95 219 C 86 203 82 185 82 165 C 82 145 85 128 92 112 C 99 96 109 82 122 71 C 134 60 149 52 166 46 C 182 40 201 37 221 37 C 261 37 294 49 320 74 C 345 98 358 132 358 174 L 410 174 C 410 146 405 121 396 99 C 386 76 373 56 356 40 C 339 23 319 10 296 1 C 273 -7 248 -12 221 -12 C 195 -12 170 -7 147 0 C 123 8 103 20 86 36 C 68 52 55 70 45 92 C 35 114 30 138 30 165 C 30 190 34 212 43 231 C 51 249 62 266 75 280 C 88 294 102 306 118 318 C 133 329 147 340 160 352 C 173 364 184 376 193 389 C 201 402 206 418 206 436 L 206 492 L 258 492 L 258 437 Z" horiz-adv-x="440" />
<glyph unicode="" d="M 264 672 L 319 672 L 573 0 L 519 0 L 446 192 L 240 192 C 204 192 175 185 154 173 C 132 161 117 142 108 117 L 64 0 L 10 0 L 264 672 Z M 145 216 C 156 225 169 231 185 235 C 201 239 217 241 235 241 L 428 241 L 292 601 L 145 216 Z M 318 703 L 267 703 L 137 825 L 220 825 L 318 703 Z" horiz-adv-x="583" />
<glyph unicode="" d="M 264 672 L 319 672 L 573 0 L 519 0 L 446 192 L 240 192 C 204 192 175 185 154 173 C 132 161 117 142 108 117 L 64 0 L 10 0 L 264 672 Z M 145 216 C 156 225 169 231 185 235 C 201 239 217 241 235 241 L 428 241 L 292 601 L 145 216 Z M 364 825 L 447 825 L 317 703 L 266 703 L 364 825 Z" horiz-adv-x="583" />
<glyph unicode="" d="M 264 672 L 319 672 L 573 0 L 519 0 L 446 192 L 240 192 C 204 192 175 185 154 173 C 132 161 117 142 108 117 L 64 0 L 10 0 L 264 672 Z M 145 216 C 156 225 169 231 185 235 C 201 239 217 241 235 241 L 428 241 L 292 601 L 145 216 Z M 451 801 C 451 773 443 750 429 732 C 414 714 392 705 362 705 C 346 705 331 708 319 714 C 306 720 294 726 283 733 C 271 740 261 747 251 753 C 241 759 231 762 221 762 C 207 762 196 757 188 749 C 180 741 176 728 176 712 L 131 712 C 131 739 138 762 153 780 C 167 798 190 808 220 808 C 236 808 250 805 263 799 C 275 793 287 786 299 779 C 310 772 321 766 331 760 C 341 754 351 751 361 751 C 375 751 386 755 394 763 C 402 771 406 784 406 801 L 451 801 Z" horiz-adv-x="583" />
<glyph unicode="" d="M 50 672 L 484 672 L 484 624 L 102 624 L 102 314 C 115 332 130 344 148 351 C 165 357 182 361 200 361 L 481 361 L 481 313 L 203 313 C 174 313 150 303 131 285 C 111 266 102 242 102 214 L 102 48 L 484 48 L 484 0 L 50 0 L 50 672 Z M 327 703 L 276 703 L 146 825 L 229 825 L 327 703 Z" horiz-adv-x="534" />
<glyph unicode="" d="M 50 672 L 484 672 L 484 624 L 102 624 L 102 314 C 115 332 130 344 148 351 C 165 357 182 361 200 361 L 481 361 L 481 313 L 203 313 C 174 313 150 303 131 285 C 111 266 102 242 102 214 L 102 48 L 484 48 L 484 0 L 50 0 L 50 672 Z M 354 825 L 437 825 L 307 703 L 256 703 L 354 825 Z" horiz-adv-x="534" />
<glyph unicode="" d="M 60 672 L 112 672 L 112 0 L 60 0 L 60 672 Z M 110 703 L 59 703 L -71 825 L 12 825 L 110 703 Z" horiz-adv-x="171" />
<glyph unicode="" d="M 60 672 L 112 672 L 112 0 L 60 0 L 60 672 Z M 157 825 L 240 825 L 110 703 L 59 703 L 157 825 Z" horiz-adv-x="171" />
<glyph unicode="" d="M 50 672 L 101 672 L 460 88 C 469 72 477 62 484 58 C 491 53 502 50 518 50 L 518 672 L 570 672 L 570 0 L 525 0 C 499 0 478 4 463 13 C 447 21 433 36 421 57 L 102 576 L 102 0 L 50 0 L 50 672 Z M 473 801 C 473 773 465 750 451 732 C 436 714 414 705 384 705 C 368 705 353 708 341 714 C 328 720 316 726 305 733 C 293 740 283 747 273 753 C 263 759 253 762 243 762 C 229 762 218 757 210 749 C 202 741 198 728 198 712 L 153 712 C 153 739 160 762 175 780 C 189 798 212 808 242 808 C 258 808 272 805 285 799 C 297 793 309 786 321 779 C 332 772 343 766 353 760 C 363 754 373 751 383 751 C 397 751 408 755 416 763 C 424 771 428 784 428 801 L 473 801 Z" horiz-adv-x="620" />
<glyph unicode="" d="M 378 -12 C 330 -12 284 -3 242 15 C 200 33 163 57 132 89 C 100 121 75 158 57 200 C 39 242 30 287 30 335 C 30 383 39 428 57 470 C 75 512 100 549 132 581 C 163 613 200 638 242 656 C 284 674 330 684 378 684 C 426 684 471 674 513 656 C 555 638 592 613 624 581 C 656 549 681 512 699 470 C 717 428 727 383 727 335 C 727 287 717 242 699 200 C 681 158 656 121 624 89 C 592 57 555 33 513 15 C 471 -3 426 -12 378 -12 Z M 378 36 C 419 36 458 43 494 59 C 530 75 561 96 588 124 C 615 151 636 183 652 219 C 667 255 675 293 675 335 C 675 376 667 415 652 451 C 636 487 615 519 588 547 C 561 574 530 596 494 612 C 458 628 419 636 378 636 C 336 636 298 628 262 612 C 226 596 194 574 168 547 C 141 519 120 487 105 451 C 89 415 82 376 82 335 C 82 293 89 255 105 219 C 120 183 141 151 168 124 C 194 96 226 75 262 59 C 298 43 336 36 378 36 Z M 410 703 L 359 703 L 229 825 L 312 825 L 410 703 Z" horiz-adv-x="757" />
<glyph unicode="" d="M 378 -12 C 330 -12 284 -3 242 15 C 200 33 163 57 132 89 C 100 121 75 158 57 200 C 39 242 30 287 30 335 C 30 383 39 428 57 470 C 75 512 100 549 132 581 C 163 613 200 638 242 656 C 284 674 330 684 378 684 C 426 684 471 674 513 656 C 555 638 592 613 624 581 C 656 549 681 512 699 470 C 717 428 727 383 727 335 C 727 287 717 242 699 200 C 681 158 656 121 624 89 C 592 57 555 33 513 15 C 471 -3 426 -12 378 -12 Z M 378 36 C 419 36 458 43 494 59 C 530 75 561 96 588 124 C 615 151 636 183 652 219 C 667 255 675 293 675 335 C 675 376 667 415 652 451 C 636 487 615 519 588 547 C 561 574 530 596 494 612 C 458 628 419 636 378 636 C 336 636 298 628 262 612 C 226 596 194 574 168 547 C 141 519 120 487 105 451 C 89 415 82 376 82 335 C 82 293 89 255 105 219 C 120 183 141 151 168 124 C 194 96 226 75 262 59 C 298 43 336 36 378 36 Z M 451 825 L 534 825 L 404 703 L 353 703 L 451 825 Z" horiz-adv-x="757" />
<glyph unicode="" d="M 378 -12 C 330 -12 284 -3 242 15 C 200 33 163 57 132 89 C 100 121 75 158 57 200 C 39 242 30 287 30 335 C 30 383 39 428 57 470 C 75 512 100 549 132 581 C 163 613 200 638 242 656 C 284 674 330 684 378 684 C 426 684 471 674 513 656 C 555 638 592 613 624 581 C 656 549 681 512 699 470 C 717 428 727 383 727 335 C 727 287 717 242 699 200 C 681 158 656 121 624 89 C 592 57 555 33 513 15 C 471 -3 426 -12 378 -12 Z M 378 36 C 419 36 458 43 494 59 C 530 75 561 96 588 124 C 615 151 636 183 652 219 C 667 255 675 293 675 335 C 675 376 667 415 652 451 C 636 487 615 519 588 547 C 561 574 530 596 494 612 C 458 628 419 636 378 636 C 336 636 298 628 262 612 C 226 596 194 574 168 547 C 141 519 120 487 105 451 C 89 415 82 376 82 335 C 82 293 89 255 105 219 C 120 183 141 151 168 124 C 194 96 226 75 262 59 C 298 43 336 36 378 36 Z M 538 804 C 538 776 530 753 516 735 C 501 717 479 708 449 708 C 433 708 418 711 406 717 C 393 723 381 729 370 736 C 358 743 348 750 338 756 C 328 762 318 765 308 765 C 294 765 283 760 275 752 C 267 744 263 731 263 715 L 218 715 C 218 742 225 765 240 783 C 254 801 277 811 307 811 C 323 811 337 808 350 802 C 362 796 374 789 386 782 C 397 775 408 769 418 763 C 428 757 438 754 448 754 C 462 754 473 758 481 766 C 489 774 493 787 493 804 L 538 804 Z" horiz-adv-x="757" />
<glyph unicode="" d="M 251 219 L 63 30 L 30 63 L 219 251 L 30 439 L 63 472 L 251 283 L 439 472 L 472 439 L 283 251 L 472 63 L 439 30 L 251 219 Z" horiz-adv-x="502" />
<glyph unicode="" d="M 638 567 C 666 535 687 500 703 461 C 719 421 727 379 727 335 C 727 287 717 242 699 200 C 681 158 656 121 624 89 C 592 57 555 33 513 15 C 471 -3 426 -12 378 -12 C 333 -12 291 -4 252 11 C 212 26 177 48 147 76 L 66 -5 L 37 23 L 118 104 C 90 134 68 169 53 209 C 37 248 30 290 30 335 C 30 383 39 428 57 470 C 75 512 100 549 132 581 C 163 613 200 638 242 656 C 284 674 330 684 378 684 C 422 684 463 676 503 660 C 543 644 578 623 609 595 L 690 676 L 719 648 L 638 567 Z M 82 335 C 82 297 88 261 100 228 C 112 195 130 165 153 139 L 574 560 C 548 583 518 601 485 615 C 451 629 416 636 378 636 C 336 636 298 628 262 612 C 226 596 194 574 168 547 C 141 519 120 487 105 451 C 89 415 82 376 82 335 Z M 378 36 C 419 36 458 43 494 59 C 530 75 561 96 588 124 C 615 151 636 183 652 219 C 667 255 675 293 675 335 C 675 373 668 408 656 442 C 643 475 625 505 603 532 L 182 111 C 208 87 237 69 271 56 C 304 42 340 36 378 36 Z" horiz-adv-x="757" />
<glyph unicode="" d="M 295 -7 C 258 -7 225 0 195 12 C 165 25 139 43 117 66 C 95 88 79 115 67 145 C 55 175 50 207 50 241 L 50 672 L 102 672 L 102 243 C 102 215 106 189 115 165 C 123 141 136 119 152 101 C 168 82 189 67 213 57 C 237 46 264 41 295 41 C 325 41 353 46 377 57 C 401 67 421 82 438 101 C 454 119 467 141 476 165 C 484 189 489 215 489 243 L 489 672 L 541 672 L 541 241 C 541 207 535 174 523 144 C 511 114 494 87 473 65 C 451 43 425 25 395 12 C 365 0 331 -7 295 -7 Z M 328 703 L 277 703 L 147 825 L 230 825 L 328 703 Z" horiz-adv-x="591" />
<glyph unicode="" d="M 295 -7 C 258 -7 225 0 195 12 C 165 25 139 43 117 66 C 95 88 79 115 67 145 C 55 175 50 207 50 241 L 50 672 L 102 672 L 102 243 C 102 215 106 189 115 165 C 123 141 136 119 152 101 C 168 82 189 67 213 57 C 237 46 264 41 295 41 C 325 41 353 46 377 57 C 401 67 421 82 438 101 C 454 119 467 141 476 165 C 484 189 489 215 489 243 L 489 672 L 541 672 L 541 241 C 541 207 535 174 523 144 C 511 114 494 87 473 65 C 451 43 425 25 395 12 C 365 0 331 -7 295 -7 Z M 369 825 L 452 825 L 322 703 L 271 703 L 369 825 Z" horiz-adv-x="591" />
<glyph unicode="" d="M 323 218 C 303 218 286 219 272 223 C 258 227 245 232 235 240 C 224 247 214 256 206 268 C 198 279 190 293 183 309 L 10 672 L 67 672 L 225 331 C 231 317 238 305 244 297 C 250 288 257 281 266 277 C 274 272 284 269 296 268 C 308 266 323 266 341 266 L 489 672 L 544 672 L 297 0 L 243 0 L 323 218 Z M 345 825 L 428 825 L 298 703 L 247 703 L 345 825 Z" horiz-adv-x="554" />
<glyph unicode="" d="M 275 -12 C 241 -12 209 -6 179 6 C 149 18 123 34 101 56 C 79 78 61 104 49 134 C 36 164 30 198 30 234 C 30 268 36 301 49 331 C 62 361 80 387 102 409 C 124 431 150 448 180 461 C 210 473 242 480 276 480 C 298 480 318 477 335 472 C 351 467 366 461 380 455 C 393 449 405 443 417 438 C 429 433 441 431 454 431 L 454 466 L 504 466 L 504 127 C 504 117 504 107 505 99 C 506 91 508 83 512 76 C 515 68 519 61 525 54 C 531 47 539 40 549 32 L 517 -1 C 507 9 497 17 487 23 C 477 29 466 33 453 33 C 439 33 426 30 415 26 C 403 21 391 16 379 10 C 366 4 351 0 335 -5 C 319 -9 299 -12 275 -12 Z M 275 36 C 294 36 311 38 325 42 C 339 46 353 51 366 57 C 378 63 391 68 404 72 C 416 76 431 79 447 79 C 449 79 451 78 453 78 C 455 78 457 78 460 78 C 456 86 454 102 454 124 L 454 385 C 436 385 420 387 407 392 C 393 397 380 402 368 408 C 356 414 342 419 328 424 C 314 429 296 432 276 432 C 249 432 224 427 200 417 C 176 407 156 393 138 375 C 120 357 105 336 95 312 C 85 288 80 262 80 234 C 80 204 85 177 95 153 C 105 129 119 108 137 91 C 155 73 175 60 199 50 C 223 40 248 36 275 36 Z M 311 517 L 260 517 L 130 639 L 213 639 L 311 517 Z" horiz-adv-x="554" />
<glyph unicode="" d="M 275 -12 C 241 -12 209 -6 179 6 C 149 18 123 34 101 56 C 79 78 61 104 49 134 C 36 164 30 198 30 234 C 30 268 36 301 49 331 C 62 361 80 387 102 409 C 124 431 150 448 180 461 C 210 473 242 480 276 480 C 298 480 318 477 335 472 C 351 467 366 461 380 455 C 393 449 405 443 417 438 C 429 433 441 431 454 431 L 454 466 L 504 466 L 504 127 C 504 117 504 107 505 99 C 506 91 508 83 512 76 C 515 68 519 61 525 54 C 531 47 539 40 549 32 L 517 -1 C 507 9 497 17 487 23 C 477 29 466 33 453 33 C 439 33 426 30 415 26 C 403 21 391 16 379 10 C 366 4 351 0 335 -5 C 319 -9 299 -12 275 -12 Z M 275 36 C 294 36 311 38 325 42 C 339 46 353 51 366 57 C 378 63 391 68 404 72 C 416 76 431 79 447 79 C 449 79 451 78 453 78 C 455 78 457 78 460 78 C 456 86 454 102 454 124 L 454 385 C 436 385 420 387 407 392 C 393 397 380 402 368 408 C 356 414 342 419 328 424 C 314 429 296 432 276 432 C 249 432 224 427 200 417 C 176 407 156 393 138 375 C 120 357 105 336 95 312 C 85 288 80 262 80 234 C 80 204 85 177 95 153 C 105 129 119 108 137 91 C 155 73 175 60 199 50 C 223 40 248 36 275 36 Z M 343 639 L 426 639 L 296 517 L 245 517 L 343 639 Z" horiz-adv-x="554" />
<glyph unicode="" d="M 275 -12 C 241 -12 209 -6 179 6 C 149 18 123 34 101 56 C 79 78 61 104 49 134 C 36 164 30 198 30 234 C 30 268 36 301 49 331 C 62 361 80 387 102 409 C 124 431 150 448 180 461 C 210 473 242 480 276 480 C 298 480 318 477 335 472 C 351 467 366 461 380 455 C 393 449 405 443 417 438 C 429 433 441 431 454 431 L 454 466 L 504 466 L 504 127 C 504 117 504 107 505 99 C 506 91 508 83 512 76 C 515 68 519 61 525 54 C 531 47 539 40 549 32 L 517 -1 C 507 9 497 17 487 23 C 477 29 466 33 453 33 C 439 33 426 30 415 26 C 403 21 391 16 379 10 C 366 4 351 0 335 -5 C 319 -9 299 -12 275 -12 Z M 275 36 C 294 36 311 38 325 42 C 339 46 353 51 366 57 C 378 63 391 68 404 72 C 416 76 431 79 447 79 C 449 79 451 78 453 78 C 455 78 457 78 460 78 C 456 86 454 102 454 124 L 454 385 C 436 385 420 387 407 392 C 393 397 380 402 368 408 C 356 414 342 419 328 424 C 314 429 296 432 276 432 C 249 432 224 427 200 417 C 176 407 156 393 138 375 C 120 357 105 336 95 312 C 85 288 80 262 80 234 C 80 204 85 177 95 153 C 105 129 119 108 137 91 C 155 73 175 60 199 50 C 223 40 248 36 275 36 Z M 444 625 C 444 597 436 574 422 556 C 407 538 385 529 355 529 C 339 529 324 532 312 538 C 299 544 287 550 276 557 C 264 564 254 571 244 577 C 234 583 224 586 214 586 C 200 586 189 581 181 573 C 173 565 169 552 169 536 L 124 536 C 124 563 131 586 146 604 C 160 622 183 632 213 632 C 229 632 243 629 256 623 C 268 617 280 610 292 603 C 303 596 314 590 324 584 C 334 578 344 575 354 575 C 368 575 379 579 387 587 C 395 595 399 608 399 625 L 444 625 Z" horiz-adv-x="554" />
<glyph unicode="" d="M 278 -12 C 242 -12 210 -5 180 7 C 150 19 124 37 102 59 C 80 81 62 108 50 138 C 38 168 32 200 32 234 C 32 268 38 300 51 330 C 64 360 82 386 104 408 C 126 430 152 447 182 460 C 212 473 244 480 278 480 C 312 480 344 473 374 461 C 404 449 430 432 452 411 C 474 389 491 364 503 335 C 515 305 522 273 522 239 C 522 236 522 232 522 228 C 522 223 521 219 521 217 L 165 217 C 147 217 131 212 118 204 C 105 195 99 183 99 167 C 99 153 102 140 110 127 C 117 113 126 102 136 92 C 157 72 179 58 201 48 C 223 38 249 34 278 34 C 316 34 349 43 379 61 C 408 79 432 105 451 139 L 503 139 C 493 115 480 94 465 76 C 450 58 433 42 413 29 C 393 15 372 5 349 -1 C 326 -8 302 -12 278 -12 Z M 82 217 C 87 231 97 241 112 249 C 126 257 141 261 157 261 L 470 261 C 468 287 461 310 451 332 C 440 353 426 371 409 387 C 391 402 371 414 349 422 C 327 430 303 435 278 435 C 251 435 225 429 201 418 C 176 407 154 392 136 373 C 117 353 102 330 92 304 C 82 277 78 248 82 217 Z M 313 517 L 262 517 L 132 639 L 215 639 L 313 517 Z" horiz-adv-x="553" />
<glyph unicode="" d="M 278 -12 C 242 -12 210 -5 180 7 C 150 19 124 37 102 59 C 80 81 62 108 50 138 C 38 168 32 200 32 234 C 32 268 38 300 51 330 C 64 360 82 386 104 408 C 126 430 152 447 182 460 C 212 473 244 480 278 480 C 312 480 344 473 374 461 C 404 449 430 432 452 411 C 474 389 491 364 503 335 C 515 305 522 273 522 239 C 522 236 522 232 522 228 C 522 223 521 219 521 217 L 165 217 C 147 217 131 212 118 204 C 105 195 99 183 99 167 C 99 153 102 140 110 127 C 117 113 126 102 136 92 C 157 72 179 58 201 48 C 223 38 249 34 278 34 C 316 34 349 43 379 61 C 408 79 432 105 451 139 L 503 139 C 493 115 480 94 465 76 C 450 58 433 42 413 29 C 393 15 372 5 349 -1 C 326 -8 302 -12 278 -12 Z M 82 217 C 87 231 97 241 112 249 C 126 257 141 261 157 261 L 470 261 C 468 287 461 310 451 332 C 440 353 426 371 409 387 C 391 402 371 414 349 422 C 327 430 303 435 278 435 C 251 435 225 429 201 418 C 176 407 154 392 136 373 C 117 353 102 330 92 304 C 82 277 78 248 82 217 Z M 352 639 L 435 639 L 305 517 L 254 517 L 352 639 Z" horiz-adv-x="553" />
<glyph unicode="" d="M 50 466 L 100 466 L 100 0 L 50 0 L 50 466 Z M 101 517 L 50 517 L -80 639 L 3 639 L 101 517 Z" horiz-adv-x="150" />
<glyph unicode="" d="M 50 466 L 100 466 L 100 0 L 50 0 L 50 466 Z M 147 639 L 230 639 L 100 517 L 49 517 L 147 639 Z" horiz-adv-x="150" />
<glyph unicode="" d="M 50 466 L 100 466 L 100 427 C 112 427 123 430 135 436 C 147 442 160 448 174 454 C 188 460 203 466 221 472 C 238 477 258 480 282 480 C 310 480 335 475 358 466 C 381 457 401 444 417 427 C 433 410 446 389 455 365 C 464 341 469 313 469 283 L 469 0 L 419 0 L 419 283 C 419 328 407 364 384 392 C 361 420 327 434 281 434 C 261 434 243 431 228 427 C 212 422 198 417 185 411 C 171 405 158 399 144 393 C 130 387 116 384 100 383 L 100 0 L 50 0 L 50 466 Z M 419 625 C 419 597 411 574 397 556 C 382 538 360 529 330 529 C 314 529 299 532 287 538 C 274 544 262 550 251 557 C 239 564 229 571 219 577 C 209 583 199 586 189 586 C 175 586 164 581 156 573 C 148 565 144 552 144 536 L 99 536 C 99 563 106 586 121 604 C 135 622 158 632 188 632 C 204 632 218 629 231 623 C 243 617 255 610 267 603 C 278 596 289 590 299 584 C 309 578 319 575 329 575 C 343 575 354 579 362 587 C 370 595 374 608 374 625 L 419 625 Z" horiz-adv-x="519" />
<glyph unicode="" d="M 30 234 C 30 268 36 300 49 330 C 62 360 80 386 102 408 C 124 430 150 447 180 460 C 210 473 242 480 276 480 C 310 480 342 473 372 460 C 402 447 428 430 450 408 C 472 386 489 360 502 330 C 515 300 522 268 522 234 C 522 200 515 168 502 138 C 489 108 472 82 450 60 C 428 38 402 20 372 7 C 342 -5 310 -12 276 -12 C 242 -12 210 -5 180 7 C 150 20 124 38 102 60 C 80 82 62 108 49 138 C 36 168 30 200 30 234 Z M 276 34 C 302 34 328 39 352 50 C 376 60 396 75 414 93 C 432 111 446 132 456 156 C 466 180 472 206 472 234 C 472 262 466 288 456 312 C 446 336 432 358 414 376 C 396 394 376 408 352 418 C 328 428 302 434 276 434 C 248 434 223 428 199 418 C 175 408 155 394 137 376 C 119 358 105 336 95 312 C 85 288 80 262 80 234 C 80 206 85 180 95 156 C 105 132 119 111 137 93 C 155 75 175 60 199 50 C 223 39 248 34 276 34 Z M 305 517 L 254 517 L 124 639 L 207 639 L 305 517 Z" horiz-adv-x="552" />
<glyph unicode="" d="M 30 234 C 30 268 36 300 49 330 C 62 360 80 386 102 408 C 124 430 150 447 180 460 C 210 473 242 480 276 480 C 310 480 342 473 372 460 C 402 447 428 430 450 408 C 472 386 489 360 502 330 C 515 300 522 268 522 234 C 522 200 515 168 502 138 C 489 108 472 82 450 60 C 428 38 402 20 372 7 C 342 -5 310 -12 276 -12 C 242 -12 210 -5 180 7 C 150 20 124 38 102 60 C 80 82 62 108 49 138 C 36 168 30 200 30 234 Z M 276 34 C 302 34 328 39 352 50 C 376 60 396 75 414 93 C 432 111 446 132 456 156 C 466 180 472 206 472 234 C 472 262 466 288 456 312 C 446 336 432 358 414 376 C 396 394 376 408 352 418 C 328 428 302 434 276 434 C 248 434 223 428 199 418 C 175 408 155 394 137 376 C 119 358 105 336 95 312 C 85 288 80 262 80 234 C 80 206 85 180 95 156 C 105 132 119 111 137 93 C 155 75 175 60 199 50 C 223 39 248 34 276 34 Z M 342 639 L 425 639 L 295 517 L 244 517 L 342 639 Z" horiz-adv-x="552" />
<glyph unicode="" d="M 30 234 C 30 268 36 300 49 330 C 62 360 80 386 102 408 C 124 430 150 447 180 460 C 210 473 242 480 276 480 C 310 480 342 473 372 460 C 402 447 428 430 450 408 C 472 386 489 360 502 330 C 515 300 522 268 522 234 C 522 200 515 168 502 138 C 489 108 472 82 450 60 C 428 38 402 20 372 7 C 342 -5 310 -12 276 -12 C 242 -12 210 -5 180 7 C 150 20 124 38 102 60 C 80 82 62 108 49 138 C 36 168 30 200 30 234 Z M 276 34 C 302 34 328 39 352 50 C 376 60 396 75 414 93 C 432 111 446 132 456 156 C 466 180 472 206 472 234 C 472 262 466 288 456 312 C 446 336 432 358 414 376 C 396 394 376 408 352 418 C 328 428 302 434 276 434 C 248 434 223 428 199 418 C 175 408 155 394 137 376 C 119 358 105 336 95 312 C 85 288 80 262 80 234 C 80 206 85 180 95 156 C 105 132 119 111 137 93 C 155 75 175 60 199 50 C 223 39 248 34 276 34 Z M 436 625 C 436 597 428 574 414 556 C 399 538 377 529 347 529 C 331 529 316 532 304 538 C 291 544 279 550 268 557 C 256 564 246 571 236 577 C 226 583 216 586 206 586 C 192 586 181 581 173 573 C 165 565 161 552 161 536 L 116 536 C 116 563 123 586 138 604 C 152 622 175 632 205 632 C 221 632 235 629 248 623 C 260 617 272 610 284 603 C 295 596 306 590 316 584 C 326 578 336 575 346 575 C 360 575 371 579 379 587 C 387 595 391 608 391 625 L 436 625 Z" horiz-adv-x="552" />
<glyph unicode="" d="M 327 426 L 255 426 L 255 502 L 327 502 L 327 426 Z M 327 0 L 255 0 L 255 76 L 327 76 L 327 0 Z M 40 227 L 40 275 L 542 275 L 542 227 L 40 227 Z" horiz-adv-x="582" />
<glyph unicode="" d="M 237 -12 C 209 -12 183 -7 159 0 C 135 8 115 21 98 37 C 81 53 68 74 59 98 C 49 122 45 151 45 183 L 45 466 L 95 466 L 95 183 C 95 135 107 99 131 73 C 155 47 190 34 238 34 C 260 34 278 36 293 42 C 307 47 321 53 334 59 C 347 65 360 71 374 75 C 388 79 404 81 423 79 C 417 87 415 102 415 125 L 415 466 L 465 466 L 465 129 C 465 105 468 87 475 75 C 481 63 494 49 513 35 L 481 -1 C 469 9 459 18 450 24 C 441 30 429 34 414 34 C 400 34 387 31 376 27 C 364 22 352 17 340 11 C 327 5 313 0 297 -5 C 281 -9 261 -12 237 -12 Z M 297 517 L 246 517 L 116 639 L 199 639 L 297 517 Z" horiz-adv-x="518" />
<glyph unicode="" d="M 237 -12 C 209 -12 183 -7 159 0 C 135 8 115 21 98 37 C 81 53 68 74 59 98 C 49 122 45 151 45 183 L 45 466 L 95 466 L 95 183 C 95 135 107 99 131 73 C 155 47 190 34 238 34 C 260 34 278 36 293 42 C 307 47 321 53 334 59 C 347 65 360 71 374 75 C 388 79 404 81 423 79 C 417 87 415 102 415 125 L 415 466 L 465 466 L 465 129 C 465 105 468 87 475 75 C 481 63 494 49 513 35 L 481 -1 C 469 9 459 18 450 24 C 441 30 429 34 414 34 C 400 34 387 31 376 27 C 364 22 352 17 340 11 C 327 5 313 0 297 -5 C 281 -9 261 -12 237 -12 Z M 322 639 L 405 639 L 275 517 L 224 517 L 322 639 Z" horiz-adv-x="518" />
<glyph unicode="" d="M 112 -159 C 128 -159 142 -158 153 -156 C 164 -154 173 -152 181 -148 C 188 -144 194 -138 199 -131 C 203 -124 208 -115 213 -104 L 254 0 C 226 1 204 9 190 24 C 176 38 164 57 156 81 L 15 466 L 70 466 L 202 97 C 210 75 219 61 229 55 C 239 49 254 46 272 46 L 430 466 L 485 466 L 260 -123 C 254 -139 247 -152 239 -162 C 231 -172 221 -181 210 -188 C 198 -194 185 -199 169 -202 C 153 -204 134 -206 112 -206 L 112 -159 Z M 320 639 L 403 639 L 273 517 L 222 517 L 320 639 Z" horiz-adv-x="500" />
<glyph unicode="" d="M 50 466 L 100 466 L 100 0 L 50 0 L 50 466 Z" horiz-adv-x="150" />
<glyph unicode="" d="M -4 -114 C 26 -114 47 -107 60 -95 C 73 -82 80 -61 80 -33 L 80 340 C 80 361 84 381 94 400 C 104 419 118 433 136 443 C 116 453 101 466 91 483 C 81 500 76 520 76 544 C 76 564 79 581 86 597 C 92 613 102 626 114 637 C 126 648 139 657 155 663 C 171 669 188 672 206 672 L 294 672 L 294 626 L 206 626 C 182 626 163 619 147 605 C 131 591 123 571 123 545 C 123 519 131 500 147 487 C 163 473 183 467 206 467 L 294 467 L 294 421 L 206 421 C 182 421 163 413 149 397 C 135 381 128 360 128 334 L 128 -33 C 128 -75 116 -106 93 -127 C 70 -148 40 -159 3 -160 L -4 -160 L -4 -114 Z" horiz-adv-x="324" />
<glyph unicode="" d="M 282 517 L 226 517 L 156 602 L 86 517 L 30 517 L 128 639 L 184 639 L 282 517 Z" horiz-adv-x="312" />
<glyph unicode="" d="M 184 517 L 128 517 L 30 639 L 86 639 L 156 554 L 226 639 L 282 639 L 184 517 Z" horiz-adv-x="312" />
<glyph unicode="" d="M 350 625 C 350 597 342 574 328 556 C 313 538 291 529 261 529 C 245 529 230 532 218 538 C 205 544 193 550 182 557 C 170 564 160 571 150 577 C 140 583 130 586 120 586 C 106 586 95 581 87 573 C 79 565 75 552 75 536 L 30 536 C 30 563 37 586 52 604 C 66 622 89 632 119 632 C 135 632 149 629 162 623 C 174 617 186 610 198 603 C 209 596 220 590 230 584 C 240 578 250 575 260 575 C 274 575 285 579 293 587 C 301 595 305 608 305 625 L 350 625 Z" horiz-adv-x="380" />
<glyph unicode="" d="M 30 284 L 420 284 L 420 236 L 30 236 L 30 284 Z" horiz-adv-x="450" />
<glyph unicode="" d="M 30 283 L 640 283 L 640 237 L 30 237 L 30 283 Z" horiz-adv-x="670" />
<glyph unicode="" d="M 40 585 C 40 610 47 630 62 646 C 77 662 97 670 123 672 L 123 633 C 92 631 77 615 77 585 L 77 568 L 114 568 L 114 492 L 40 492 L 40 585 Z" horiz-adv-x="163" />
<glyph unicode="" d="M 123 579 C 123 553 115 533 100 517 C 85 501 65 493 40 492 L 40 531 C 70 533 86 549 86 579 L 86 596 L 49 596 L 49 672 L 123 672 L 123 579 Z" horiz-adv-x="163" />
<glyph unicode="" d="M 123 -17 C 123 -42 115 -62 100 -78 C 85 -94 65 -102 40 -104 L 40 -65 C 70 -63 86 -47 86 -17 L 86 0 L 49 0 L 49 76 L 123 76 L 123 -17 Z" horiz-adv-x="163" />
<glyph unicode="" d="M 40 585 C 40 610 47 630 62 646 C 77 662 97 670 123 672 L 123 633 C 92 631 77 615 77 585 L 77 568 L 114 568 L 114 492 L 40 492 L 40 585 Z M 159 585 C 159 610 166 630 181 646 C 196 662 216 670 242 672 L 242 633 C 211 631 196 615 196 585 L 196 568 L 233 568 L 233 492 L 159 492 L 159 585 Z" horiz-adv-x="282" />
<glyph unicode="" d="M 242 579 C 242 553 234 533 219 517 C 204 501 184 493 159 492 L 159 531 C 189 533 205 549 205 579 L 205 596 L 168 596 L 168 672 L 242 672 L 242 579 Z M 123 579 C 123 553 115 533 100 517 C 85 501 65 493 40 492 L 40 531 C 70 533 86 549 86 579 L 86 596 L 49 596 L 49 672 L 123 672 L 123 579 Z" horiz-adv-x="282" />
<glyph unicode="" d="M 242 -17 C 242 -42 234 -62 219 -78 C 204 -94 184 -102 159 -104 L 159 -65 C 189 -63 205 -47 205 -17 L 205 0 L 168 0 L 168 76 L 242 76 L 242 -17 Z M 123 -17 C 123 -42 115 -62 100 -78 C 85 -94 65 -102 40 -104 L 40 -65 C 70 -63 86 -47 86 -17 L 86 0 L 49 0 L 49 76 L 123 76 L 123 -17 Z" horiz-adv-x="282" />
<glyph unicode="" d="M 207 460 L 40 460 L 40 508 L 207 508 L 207 722 L 257 722 L 257 508 L 423 508 L 423 460 L 257 460 L 257 -50 L 207 -50 L 207 460 Z" horiz-adv-x="463" />
<glyph unicode="" d="M 153 140 C 137 140 122 143 108 149 C 94 155 83 163 73 173 C 63 183 55 194 49 208 C 43 222 40 237 40 253 C 40 269 43 283 49 297 C 55 311 63 323 73 333 C 83 343 94 351 108 357 C 122 363 137 366 153 366 C 169 366 183 363 197 357 C 211 351 223 343 233 333 C 243 323 251 311 257 297 C 263 283 266 269 266 253 C 266 237 263 222 257 208 C 251 194 243 183 233 173 C 223 163 211 155 197 149 C 183 143 169 140 153 140 Z" horiz-adv-x="306" />
<glyph unicode="" d="M 40 0 L 40 76 L 113 76 L 113 0 L 40 0 Z M 175 0 L 175 76 L 249 76 L 249 0 L 175 0 Z M 311 0 L 311 76 L 384 76 L 384 0 L 311 0 Z" horiz-adv-x="424" />
<glyph unicode="" d="M 212 43 L 158 43 L 38 233 L 158 423 L 212 423 L 92 233 L 212 43 Z" horiz-adv-x="252" />
<glyph unicode="" d="M 158 233 L 38 423 L 92 423 L 212 233 L 92 43 L 38 43 L 158 233 Z" horiz-adv-x="252" />
<glyph unicode="" d="M 168 258 C 149 258 132 261 116 267 C 100 273 86 282 74 294 C 62 306 52 319 45 335 C 38 350 35 367 35 385 L 35 557 C 35 575 38 591 45 607 C 51 622 61 635 73 647 C 85 659 99 668 115 674 C 131 680 149 684 168 684 C 186 684 203 680 219 674 C 235 668 249 659 261 648 C 273 636 282 623 289 607 C 295 591 299 575 299 557 L 299 385 C 299 366 295 349 289 334 C 282 318 273 305 261 294 C 249 282 236 273 220 267 C 204 261 186 258 168 258 Z M 168 297 C 192 297 214 305 232 322 C 250 338 259 359 259 385 L 259 557 C 259 569 256 581 251 592 C 246 602 239 612 231 620 C 223 628 213 634 202 638 C 191 642 180 645 168 645 C 142 645 121 636 103 620 C 85 603 76 582 76 557 L 76 385 C 76 373 78 361 83 351 C 88 340 95 331 103 323 C 111 315 121 308 133 304 C 144 299 156 297 168 297 Z" horiz-adv-x="334" />
<glyph unicode="" d="M 221 349 L 42 349 C 36 349 30 351 26 355 C 22 359 20 364 20 370 C 20 372 20 375 21 378 C 22 380 23 382 25 384 L 219 672 L 267 672 L 72 386 L 221 386 L 221 497 L 261 497 L 261 386 L 316 386 L 316 349 L 261 349 L 261 270 L 221 270 L 221 349 Z" horiz-adv-x="336" />
<glyph unicode="" d="M 92 499 C 102 505 113 510 125 514 C 137 518 150 521 166 521 C 186 521 204 517 220 510 C 236 503 250 494 262 482 C 274 470 283 455 289 439 C 295 423 299 405 299 387 C 299 368 295 351 289 335 C 282 319 273 306 261 294 C 249 282 234 273 218 267 C 201 261 183 258 164 258 C 124 258 91 269 67 293 C 42 317 30 348 30 388 L 67 388 C 67 358 76 336 94 320 C 112 304 136 296 164 296 C 192 296 215 304 233 320 C 251 336 260 359 260 387 C 260 414 251 437 235 456 C 218 475 195 485 165 485 C 147 485 131 481 117 475 C 103 469 90 461 80 453 C 76 449 71 448 65 448 C 59 448 55 450 51 454 C 47 458 46 462 48 468 L 79 672 L 272 672 L 272 632 L 113 632 L 92 499 Z" horiz-adv-x="329" />
<glyph unicode="" d="M 169 684 C 187 684 203 680 219 674 C 235 667 248 658 260 647 C 271 635 280 621 287 605 C 293 589 297 571 297 553 L 257 553 C 257 581 248 603 232 620 C 215 636 194 645 169 645 C 142 645 120 636 104 620 C 88 603 80 584 80 562 L 80 484 C 86 486 92 488 98 492 C 104 496 110 499 118 503 C 125 507 133 510 141 513 C 149 515 159 517 171 517 C 212 517 244 504 267 480 C 290 456 302 425 302 387 C 302 367 298 350 292 335 C 285 319 276 306 264 295 C 252 283 239 275 223 269 C 207 263 189 260 171 260 C 153 260 137 263 121 269 C 105 275 91 283 79 294 C 67 305 57 318 50 334 C 43 350 40 367 40 387 L 40 560 C 40 578 43 594 50 609 C 56 624 65 637 77 648 C 88 659 102 668 118 674 C 134 680 151 684 169 684 Z M 171 478 C 159 478 148 476 140 473 C 131 470 123 467 116 463 C 109 459 103 456 97 453 C 91 449 86 447 80 446 L 80 387 C 80 361 88 339 106 323 C 124 306 145 298 171 298 C 197 298 219 306 236 322 C 253 338 262 360 262 387 C 262 414 254 436 238 453 C 222 469 199 478 171 478 Z" horiz-adv-x="332" />
<glyph unicode="" d="M 249 634 L 20 634 L 20 672 L 277 672 C 289 672 296 666 296 654 C 296 649 294 643 292 637 L 125 270 L 80 270 L 249 634 Z" horiz-adv-x="316" />
<glyph unicode="" d="M 170 299 C 198 299 221 307 241 324 C 260 341 270 364 270 392 C 270 410 264 427 254 442 C 244 457 232 469 219 477 C 213 480 210 485 210 491 C 210 497 213 503 220 508 C 229 515 236 524 242 534 C 248 544 251 556 251 568 C 251 590 243 609 228 623 C 212 637 193 645 170 645 C 146 645 127 637 112 623 C 96 609 89 590 89 568 C 89 556 91 544 97 534 C 103 524 110 515 120 508 C 126 503 130 497 130 491 C 130 485 127 480 121 477 C 107 469 95 457 85 442 C 75 427 70 410 70 392 C 70 364 79 341 99 324 C 118 307 142 299 170 299 Z M 170 260 C 150 260 132 263 115 269 C 98 275 83 284 71 296 C 58 308 48 321 41 337 C 33 353 30 370 30 389 C 30 410 35 429 45 446 C 55 462 68 477 84 491 C 74 500 65 511 59 525 C 52 539 49 554 49 570 C 49 586 52 602 58 616 C 64 630 73 642 84 652 C 95 662 108 669 123 675 C 137 680 153 683 170 683 C 186 683 202 680 217 675 C 231 669 244 662 255 652 C 266 642 275 630 281 616 C 287 602 291 586 291 570 C 291 554 287 539 281 525 C 274 511 266 500 256 491 C 272 477 285 462 295 446 C 305 429 310 410 310 389 C 310 370 306 353 299 337 C 291 321 281 308 269 296 C 256 284 241 275 224 269 C 207 263 189 260 170 260 Z" horiz-adv-x="340" />
<glyph unicode="" d="M 163 260 C 145 260 128 263 112 270 C 96 276 83 285 72 297 C 60 308 51 322 45 338 C 38 354 35 371 35 391 L 75 391 C 75 363 83 340 100 324 C 116 307 137 299 163 299 C 189 299 211 307 227 324 C 243 340 252 360 252 382 L 252 460 C 246 458 240 455 234 451 C 228 447 221 444 214 440 C 206 436 198 433 190 431 C 181 428 171 427 161 427 C 119 427 87 439 64 463 C 41 487 30 519 30 557 C 30 575 33 592 40 608 C 46 624 55 637 67 649 C 79 660 93 669 109 675 C 125 681 142 684 161 684 C 178 684 195 681 211 675 C 227 669 241 660 253 649 C 265 638 274 625 281 609 C 288 593 292 576 292 557 L 292 384 C 292 366 288 349 282 334 C 275 319 266 306 255 295 C 243 284 230 275 214 269 C 198 263 181 260 163 260 Z M 161 466 C 173 466 183 467 192 470 C 200 473 208 476 215 480 C 222 484 228 487 234 491 C 240 494 246 496 252 498 L 252 557 C 252 583 243 604 225 621 C 207 637 186 646 161 646 C 134 646 112 637 95 621 C 78 605 70 583 70 557 C 70 529 78 507 94 491 C 110 474 132 466 161 466 Z" horiz-adv-x="327" />
<glyph unicode="" d="M 305 672 L 345 672 L 461 447 C 463 442 466 439 469 439 L 589 672 L 629 672 L 629 334 L 590 334 L 590 594 L 487 397 L 479 397 C 467 397 457 398 451 402 C 445 406 439 413 433 425 L 344 594 L 344 334 L 305 334 L 305 672 Z M 148 331 C 111 331 82 339 61 357 C 40 374 30 399 30 432 L 70 432 C 70 388 96 366 149 366 C 157 366 166 367 175 369 C 184 371 192 375 200 380 C 207 385 213 391 218 399 C 222 407 225 416 225 426 C 225 441 220 453 211 462 C 202 471 191 479 178 485 C 165 491 151 497 135 502 C 119 506 105 512 92 519 C 79 526 68 535 59 546 C 50 557 46 572 46 591 C 46 617 55 638 74 653 C 92 667 116 675 146 675 C 158 675 170 673 182 670 C 194 666 204 661 213 654 C 222 647 229 638 235 628 C 241 618 244 606 244 593 L 204 593 C 204 608 198 620 186 628 C 174 636 160 640 145 640 C 125 640 110 635 100 627 C 89 618 84 606 84 592 C 84 579 88 569 97 562 C 106 554 117 548 130 543 C 143 537 157 532 173 527 C 189 522 203 516 216 508 C 229 500 240 489 249 476 C 258 463 263 446 263 426 C 263 410 259 396 253 384 C 246 372 237 363 227 355 C 216 347 204 341 190 337 C 176 333 162 331 148 331 Z" horiz-adv-x="679" />
<glyph unicode="" d="M 109 622 C 109 632 112 640 118 646 L 30 646 L 30 672 L 214 672 L 214 646 L 161 646 C 144 646 136 637 136 620 L 136 448 L 109 448 L 109 622 Z M 240 672 L 267 672 L 347 524 C 347 522 348 521 349 520 C 349 518 350 518 352 518 L 434 672 L 461 672 L 461 448 L 434 448 L 434 611 L 366 489 L 355 489 C 344 489 337 492 333 498 C 329 504 325 511 321 519 L 267 612 L 267 448 L 240 448 L 240 672 Z" horiz-adv-x="522" />
<glyph unicode="" d="M 40 227 L 40 275 L 542 275 L 542 227 L 40 227 Z" horiz-adv-x="582" />
<glyph unicode="" d="M 154 330 C 132 330 113 326 95 320 C 77 313 58 304 40 294 L 40 347 C 58 358 76 366 96 372 C 115 377 134 380 154 380 C 180 380 204 377 226 372 C 248 366 270 360 292 354 C 313 348 335 342 357 337 C 379 331 402 329 428 329 C 450 329 469 331 487 337 C 504 343 522 352 542 365 L 542 312 C 506 290 468 279 428 279 C 402 279 378 281 356 287 C 333 292 311 298 289 304 C 267 310 245 316 223 322 C 201 327 178 330 154 330 Z M 154 173 C 132 173 113 169 95 163 C 77 156 58 147 40 137 L 40 190 C 58 201 76 209 96 215 C 115 220 134 223 154 223 C 180 223 204 220 226 215 C 248 209 270 203 292 197 C 313 191 335 185 357 180 C 379 174 402 172 428 172 C 450 172 469 174 487 180 C 504 186 522 195 542 208 L 542 155 C 506 133 468 122 428 122 C 402 122 378 124 356 130 C 333 135 311 141 289 147 C 267 153 245 159 223 165 C 201 170 178 173 154 173 Z" horiz-adv-x="582" />
<glyph unicode="" d="M 288 0 C 268 0 249 4 232 14 C 214 23 195 43 175 75 L 40 282 L 83 310 L 217 105 C 232 81 244 67 253 62 C 261 57 269 55 277 55 L 442 672 L 495 672 L 313 0 L 288 0 Z" horiz-adv-x="525" />
<glyph unicode="" d="M 206 666 C 233 664 256 654 276 638 C 296 622 307 598 310 566 L 266 566 C 263 588 254 604 240 614 C 225 623 206 628 184 628 C 158 628 139 622 125 611 C 111 600 105 586 105 569 C 105 551 110 538 121 530 C 132 521 146 514 163 509 C 179 503 197 498 216 494 C 235 490 253 484 270 476 C 286 468 300 458 311 445 C 322 431 328 413 328 389 C 328 369 324 353 317 340 C 309 326 300 315 288 307 C 276 298 263 291 249 287 C 235 283 220 280 206 280 L 206 222 L 165 222 L 165 280 C 149 281 133 284 119 288 C 104 292 91 299 80 308 C 68 316 59 327 52 341 C 45 354 41 370 40 390 L 84 390 C 85 366 94 348 112 337 C 129 325 153 320 184 320 C 216 320 241 325 259 337 C 276 349 285 366 285 389 C 285 405 279 418 268 427 C 257 436 243 443 227 449 C 211 454 193 459 174 463 C 154 467 136 472 120 480 C 104 488 90 498 79 512 C 68 526 63 545 63 569 C 63 583 65 596 71 608 C 77 619 84 629 94 637 C 103 645 114 652 126 657 C 138 661 151 664 165 666 L 165 724 L 206 724 L 206 666 Z" horiz-adv-x="368" />
<glyph unicode="" d="M 206 614 C 233 612 256 602 276 586 C 296 570 307 546 310 514 L 266 514 C 263 536 254 552 240 562 C 225 571 206 576 184 576 C 158 576 139 570 125 559 C 111 548 105 534 105 517 C 105 499 110 486 121 478 C 132 469 146 462 163 457 C 179 451 197 446 216 442 C 235 438 253 432 270 424 C 286 416 300 406 311 393 C 322 379 328 361 328 337 C 328 317 324 301 317 288 C 309 274 300 263 288 255 C 276 246 263 239 249 235 C 235 231 220 228 206 228 L 206 170 L 165 170 L 165 228 C 149 229 133 232 119 236 C 104 240 91 247 80 256 C 68 264 59 275 52 289 C 45 302 41 318 40 338 L 84 338 C 85 314 94 296 112 285 C 129 273 153 268 184 268 C 216 268 241 273 259 285 C 276 297 285 314 285 337 C 285 353 279 366 268 375 C 257 384 243 391 227 397 C 211 402 193 407 174 411 C 154 415 136 420 120 428 C 104 436 90 446 79 460 C 68 474 63 493 63 517 C 63 531 65 544 71 556 C 77 567 84 577 94 585 C 103 593 114 600 126 605 C 138 609 151 612 165 614 L 165 672 L 206 672 L 206 614 Z" horiz-adv-x="368" />
</font>
</defs>
</svg>
