<?xml version="1.0" encoding="utf-8" ?><svg version="1.1" xmlns='http://www.w3.org/2000/svg'><defs><font id='font' horiz-adv-x="1000">
<font-face font-family="font" x-height="466" descent="-240" bbox="-65,-218,3572,825" cap-height="672" ascent="760" units-per-em="1000" />
<missing-glyph horiz-adv-x="230" d="" /><glyph unicode=" " horiz-adv-x="210" d="" />
<glyph unicode="!" horiz-adv-x="209" d="M 67 672 L 142 672 L 142 174 L 67 174 L 67 672 Z M 67 104 L 142 104 L 142 0 L 67 0 L 67 104 Z" />
<glyph unicode="&#x22;" horiz-adv-x="282" d="M 40 568 L 40 672 L 121 672 L 121 568 L 102 433 L 59 433 L 40 568 Z M 161 568 L 161 672 L 242 672 L 242 568 L 223 433 L 180 433 L 161 568 Z" />
<glyph unicode="#" horiz-adv-x="593" d="M 449 483 L 561 483 L 561 412 L 440 412 L 420 260 L 532 260 L 532 189 L 410 189 L 386 0 L 312 0 L 336 189 L 218 189 L 194 0 L 120 0 L 144 189 L 32 189 L 32 260 L 154 260 L 174 412 L 61 412 L 61 483 L 183 483 L 208 672 L 282 672 L 257 483 L 375 483 L 400 672 L 474 672 L 449 483 Z M 228 260 L 346 260 L 366 412 L 248 412 L 228 260 Z" />
<glyph unicode="$" horiz-adv-x="472" d="M 191 0 L 191 56 C 139 63 98 81 70 111 C 41 141 26 176 25 217 L 102 217 C 103 187 116 163 141 147 C 165 131 196 123 234 123 C 252 123 269 124 285 128 C 301 132 314 137 326 145 C 338 152 347 161 354 172 C 360 183 364 196 364 211 C 364 233 356 251 341 264 C 325 276 306 287 283 295 C 259 303 234 311 208 319 C 181 326 156 336 133 348 C 109 360 90 375 75 395 C 59 415 52 441 52 475 C 52 512 64 543 90 569 C 115 594 149 610 191 618 L 191 672 L 270 672 L 270 618 C 312 611 347 595 373 569 C 399 543 414 512 416 476 L 337 476 C 335 498 324 517 305 531 C 285 545 261 552 232 552 C 200 552 174 545 155 531 C 136 517 127 498 127 475 C 127 453 134 437 150 425 C 166 413 185 402 209 394 C 232 386 257 378 284 371 C 311 363 336 353 360 341 C 383 329 402 312 418 292 C 434 271 442 244 442 210 C 442 170 427 135 398 107 C 369 78 326 61 270 55 L 270 0 L 191 0 Z" />
<glyph unicode="%" horiz-adv-x="776" d="M 529 672 L 609 672 L 246 0 L 166 0 L 529 672 Z M 42 519 C 42 541 46 562 55 582 C 63 601 75 618 90 633 C 104 647 121 659 141 667 C 161 675 182 680 205 680 C 227 680 248 675 268 667 C 288 659 305 647 320 633 C 334 618 346 601 355 582 C 363 562 368 541 368 519 C 368 496 363 475 355 455 C 346 435 334 418 320 404 C 305 390 288 378 268 370 C 248 362 227 358 205 358 C 182 358 161 362 141 370 C 121 378 104 390 90 404 C 75 418 63 435 55 455 C 46 475 42 496 42 519 Z M 734 153 C 734 130 729 109 721 89 C 712 69 700 52 686 38 C 671 24 654 12 634 4 C 614 -3 593 -8 571 -8 C 548 -8 527 -3 507 4 C 487 12 470 24 456 38 C 441 52 429 69 421 89 C 412 109 408 130 408 153 C 408 175 412 196 421 216 C 429 235 441 252 456 267 C 470 281 487 293 507 301 C 527 309 548 314 571 314 C 593 314 614 309 634 301 C 654 293 671 281 686 267 C 700 252 712 235 721 216 C 729 196 734 175 734 153 Z M 111 519 C 111 505 113 493 118 482 C 123 470 130 460 138 452 C 146 444 156 437 168 432 C 179 427 191 425 205 425 C 217 425 229 427 241 432 C 253 437 263 444 271 452 C 279 460 286 470 291 482 C 296 493 299 505 299 519 C 299 531 296 543 291 555 C 286 567 279 577 271 585 C 263 593 253 600 241 605 C 229 610 217 613 205 613 C 191 613 179 610 168 605 C 156 600 146 593 138 585 C 130 577 123 567 118 555 C 113 543 111 531 111 519 Z M 665 153 C 665 165 662 177 657 189 C 652 201 645 211 637 219 C 629 227 619 234 607 239 C 595 244 583 247 571 247 C 557 247 545 244 534 239 C 522 234 512 227 504 219 C 496 211 489 201 484 189 C 479 177 477 165 477 153 C 477 139 479 127 484 116 C 489 104 496 94 504 86 C 512 78 522 71 534 66 C 545 61 557 59 571 59 C 583 59 595 61 607 66 C 619 71 629 78 637 86 C 645 94 652 104 657 116 C 662 127 665 139 665 153 Z" />
<glyph unicode="&#x26;" horiz-adv-x="692" d="M 462 526 C 462 486 451 452 430 425 C 409 398 377 372 333 348 L 454 224 C 476 250 497 277 517 303 C 537 329 558 357 578 385 L 633 329 C 611 301 590 274 570 248 C 549 222 528 196 506 171 L 672 0 L 563 0 L 455 113 L 435 92 C 414 70 395 52 377 39 C 359 25 342 15 326 8 C 310 0 293 -4 277 -7 C 260 -9 242 -11 224 -11 C 194 -11 168 -6 145 2 C 121 11 101 23 85 39 C 69 54 56 72 48 94 C 39 115 35 138 35 164 C 35 189 39 211 49 231 C 59 251 72 269 88 285 C 104 301 124 315 146 328 C 168 341 191 354 216 366 C 204 378 193 391 183 403 C 173 415 165 427 159 440 C 152 452 147 465 144 479 C 140 493 139 508 139 525 C 139 547 143 567 151 586 C 159 604 171 620 186 634 C 200 648 217 658 237 666 C 257 674 278 678 301 678 C 323 678 343 674 363 666 C 383 658 400 648 415 635 C 429 621 441 605 449 587 C 457 568 462 548 462 526 Z M 404 167 L 265 314 C 237 300 214 288 194 277 C 174 265 158 254 146 242 C 134 230 125 218 119 206 C 113 194 111 180 111 166 C 111 132 121 106 143 88 C 164 69 191 60 225 60 C 237 60 250 61 262 63 C 274 65 286 70 299 77 C 311 83 325 92 339 103 C 353 114 368 128 384 146 L 404 167 Z M 215 522 C 215 499 220 479 232 461 C 244 443 261 422 285 398 C 318 414 343 432 360 451 C 377 470 386 494 386 523 C 386 547 378 567 362 584 C 346 600 325 609 301 609 C 275 609 255 600 239 583 C 223 566 215 546 215 522 Z" />
<glyph unicode="'" horiz-adv-x="161" d="M 40 568 L 40 672 L 121 672 L 121 568 L 102 433 L 59 433 L 40 568 Z" />
<glyph unicode="(" horiz-adv-x="270" d="M 174 -115 C 128 -52 92 15 68 88 C 44 160 32 235 32 313 C 32 390 44 465 68 537 C 92 609 128 677 174 740 L 258 740 C 209 680 171 613 145 541 C 119 468 106 392 106 313 C 106 236 119 160 145 86 C 171 12 209 -55 258 -115 L 174 -115 Z" />
<glyph unicode=")" horiz-adv-x="270" d="M 12 -115 C 60 -55 98 12 124 86 C 150 160 164 236 164 313 C 164 392 150 468 124 541 C 98 613 60 680 12 740 L 96 740 C 142 677 177 609 201 537 C 225 465 238 390 238 313 C 238 235 225 160 201 88 C 177 15 142 -52 96 -115 L 12 -115 Z" />
<glyph unicode="*" horiz-adv-x="411" d="M 182 462 L 83 380 L 42 441 L 163 502 L 42 566 L 83 626 L 182 544 L 170 672 L 242 672 L 229 544 L 328 626 L 369 566 L 248 502 L 369 441 L 328 380 L 229 462 L 242 335 L 170 335 L 182 462 Z" />
<glyph unicode="+" horiz-adv-x="586" d="M 256 214 L 42 214 L 42 288 L 256 288 L 256 502 L 330 502 L 330 288 L 544 288 L 544 214 L 330 214 L 330 0 L 256 0 L 256 214 Z" />
<glyph unicode="," horiz-adv-x="184" d="M 42 -44 C 58 -44 70 -40 77 -33 C 84 -26 88 -15 88 0 L 42 0 L 42 100 L 142 100 L 142 0 C 142 -32 133 -57 115 -74 C 97 -90 73 -99 42 -99 L 42 -44 Z" />
<glyph unicode="-" horiz-adv-x="337" d="M 47 294 L 290 294 L 290 220 L 47 220 L 47 294 Z" />
<glyph unicode="." horiz-adv-x="185" d="M 42 100 L 142 100 L 142 0 L 42 0 L 42 100 Z" />
<glyph unicode="/" horiz-adv-x="370" d="M 89 -30 L 10 -30 L 282 702 L 360 702 L 89 -30 Z" />
<glyph unicode="0" horiz-adv-x="533" d="M 267 -13 C 237 -13 208 -7 181 3 C 154 14 130 29 110 48 C 90 67 74 90 62 116 C 50 142 44 170 44 200 L 44 472 C 44 502 50 530 62 556 C 74 582 90 604 110 623 C 130 642 154 657 181 668 C 208 679 237 685 267 685 C 297 685 325 679 352 669 C 379 658 403 643 423 624 C 443 605 459 583 471 557 C 483 531 489 502 489 472 L 489 200 C 489 169 483 141 471 115 C 459 89 443 66 423 47 C 403 28 379 13 352 3 C 325 -7 297 -13 267 -13 Z M 267 61 C 285 61 303 64 321 71 C 338 78 353 88 366 100 C 379 112 389 126 397 143 C 405 159 409 177 409 197 L 409 474 C 409 493 405 511 397 528 C 389 544 379 559 366 571 C 353 583 338 593 321 600 C 303 607 285 611 267 611 C 247 611 229 607 212 600 C 195 593 180 583 167 571 C 154 559 144 544 136 528 C 128 511 125 493 125 474 L 125 197 C 125 177 128 159 136 143 C 144 126 154 112 167 100 C 180 88 195 78 212 71 C 229 64 247 61 267 61 Z" />
<glyph unicode="1" horiz-adv-x="298" d="M 135 598 L 32 598 L 32 672 L 179 672 C 189 672 198 668 205 660 C 212 652 216 644 216 634 L 216 0 L 135 0 L 135 598 Z" />
<glyph unicode="2" horiz-adv-x="520" d="M 87 0 C 75 0 65 4 57 13 C 49 21 45 31 45 43 C 45 50 46 57 50 64 C 54 71 58 77 62 81 L 351 371 C 366 386 378 402 386 419 C 394 435 398 454 398 474 C 398 494 394 512 387 528 C 379 544 369 559 357 571 C 344 583 329 592 312 599 C 295 605 277 609 258 609 C 238 609 219 605 202 599 C 185 593 170 584 158 572 C 145 560 135 545 128 529 C 120 512 117 493 117 473 L 38 473 C 38 505 43 534 55 560 C 66 586 81 608 101 626 C 121 644 144 659 171 669 C 197 679 226 685 258 685 C 290 685 319 679 346 669 C 373 659 396 644 416 625 C 436 606 451 584 462 558 C 472 532 478 503 478 473 C 478 441 471 412 458 386 C 445 360 428 336 407 316 L 163 76 L 484 76 L 484 0 L 87 0 Z" />
<glyph unicode="3" horiz-adv-x="524" d="M 265 -13 C 232 -13 202 -7 174 3 C 146 14 121 29 101 49 C 81 68 65 91 54 119 C 42 146 37 176 37 209 L 119 209 C 119 187 122 168 130 150 C 137 132 147 117 160 104 C 173 91 188 81 206 74 C 224 67 243 64 264 64 C 284 64 304 67 322 74 C 340 81 355 91 368 103 C 380 115 390 130 398 148 C 405 165 409 184 409 205 C 409 234 401 258 385 278 C 369 298 348 316 322 334 C 310 341 304 352 304 368 C 304 374 305 381 309 387 C 312 393 316 398 322 402 C 338 415 352 429 362 445 C 372 461 378 479 378 500 C 378 532 367 559 345 579 C 323 599 295 609 262 609 C 224 609 194 597 173 575 C 151 553 141 522 141 484 L 58 484 C 58 513 63 540 73 565 C 83 589 97 610 115 628 C 133 646 154 660 179 670 C 204 680 232 685 262 685 C 289 685 315 680 339 671 C 363 661 384 648 402 632 C 420 615 434 595 444 573 C 454 550 460 526 460 500 C 460 472 454 448 444 426 C 433 404 419 386 401 371 C 426 351 447 328 465 300 C 483 272 492 241 492 205 C 492 174 486 145 474 119 C 462 93 446 70 426 50 C 405 30 381 15 354 4 C 326 -7 297 -13 265 -13 Z" />
<glyph unicode="4" horiz-adv-x="562" d="M 365 128 L 69 128 C 55 128 45 132 39 140 C 32 148 29 157 29 169 C 29 175 31 183 36 191 L 359 672 L 451 672 L 132 200 L 365 200 L 365 375 L 446 375 L 446 200 L 538 200 L 538 128 L 446 128 L 446 0 L 365 0 L 365 128 Z" />
<glyph unicode="5" horiz-adv-x="526" d="M 136 307 C 132 304 128 302 124 300 C 119 298 114 298 109 298 C 97 298 87 302 77 310 C 67 318 64 331 67 347 L 118 672 L 449 672 L 449 598 L 183 598 L 152 396 C 170 406 190 414 210 420 C 230 426 251 429 273 429 C 307 429 337 422 363 410 C 389 398 412 381 430 361 C 448 340 462 316 472 289 C 482 261 487 233 487 203 C 487 172 481 143 469 117 C 457 91 441 68 421 49 C 401 29 377 14 350 3 C 323 -7 294 -13 264 -13 C 233 -13 204 -7 177 3 C 150 14 126 29 106 49 C 86 68 70 91 58 117 C 46 143 41 172 41 203 L 121 203 C 121 182 124 163 131 146 C 138 128 148 113 161 101 C 173 88 188 78 206 71 C 224 64 243 61 264 61 C 284 61 303 64 321 72 C 338 79 353 89 366 102 C 378 114 388 129 395 147 C 402 164 406 183 406 203 C 406 223 402 242 395 260 C 388 278 378 295 366 309 C 353 323 338 334 321 342 C 304 350 285 355 265 355 C 240 355 217 350 196 341 C 174 331 154 320 136 307 Z" />
<glyph unicode="6" horiz-adv-x="534" d="M 268 -13 C 235 -13 205 -7 178 3 C 150 14 127 29 108 49 C 88 68 73 91 62 117 C 51 143 46 171 46 202 L 46 472 C 46 502 51 530 62 556 C 73 582 88 604 108 623 C 127 642 150 657 177 668 C 204 679 233 685 265 685 C 296 685 325 679 352 668 C 378 657 401 642 421 623 C 441 603 456 580 467 554 C 478 528 484 499 484 469 L 404 469 C 404 489 400 508 393 526 C 386 543 376 558 364 571 C 352 583 337 593 320 600 C 303 607 285 611 265 611 C 245 611 226 607 209 600 C 192 593 177 583 165 571 C 153 559 143 544 136 527 C 129 510 126 492 126 472 L 126 366 C 138 370 149 375 159 381 C 169 386 180 391 191 396 C 202 401 214 405 227 409 C 240 412 255 414 273 414 C 305 414 335 408 362 398 C 388 387 411 372 430 353 C 449 334 464 312 474 286 C 484 260 489 232 489 202 C 489 171 483 143 472 117 C 460 91 445 68 425 49 C 405 29 382 14 355 3 C 328 -7 299 -13 268 -13 Z M 268 61 C 288 61 307 64 324 72 C 341 79 356 89 369 101 C 381 113 391 128 398 146 C 405 163 409 182 409 202 C 409 242 396 276 371 302 C 346 328 312 342 270 342 C 251 342 235 339 222 335 C 208 331 196 326 186 320 C 175 314 165 308 156 302 C 146 296 136 292 126 290 L 126 202 C 126 182 129 163 136 146 C 143 128 153 113 166 101 C 178 89 193 79 211 72 C 228 64 247 61 268 61 Z" />
<glyph unicode="7" horiz-adv-x="492" d="M 368 593 L 22 593 L 22 672 L 430 672 C 439 672 447 670 453 666 C 459 662 463 657 466 651 C 468 645 469 638 469 631 C 469 624 467 617 465 611 L 181 0 L 91 0 L 368 593 Z" />
<glyph unicode="8" horiz-adv-x="526" d="M 263 -13 C 231 -13 201 -7 173 3 C 145 14 121 29 101 49 C 80 68 64 91 52 117 C 40 143 34 171 34 202 C 34 238 43 270 61 299 C 79 327 101 351 127 370 C 109 385 94 404 83 426 C 71 448 66 474 66 502 C 66 528 71 552 81 574 C 91 596 105 616 123 632 C 141 648 162 661 186 671 C 210 680 235 685 263 685 C 290 685 316 680 340 671 C 364 661 384 648 402 632 C 420 616 434 596 444 574 C 454 552 460 528 460 502 C 460 474 454 448 443 426 C 431 404 417 385 400 371 C 424 352 446 328 464 299 C 482 270 492 238 492 202 C 492 171 486 143 474 117 C 462 91 445 68 425 49 C 404 29 380 14 352 3 C 324 -7 295 -13 263 -13 Z M 263 60 C 283 60 303 63 321 70 C 339 77 355 87 369 100 C 382 112 392 127 400 145 C 408 162 412 181 412 202 C 412 232 404 257 390 278 C 375 299 354 318 328 336 C 322 339 318 344 316 350 C 313 356 312 363 312 369 C 312 375 313 380 316 386 C 319 392 323 396 328 400 C 343 413 356 428 366 444 C 376 460 381 479 381 502 C 381 518 378 532 372 546 C 366 560 357 572 347 582 C 336 592 323 599 309 605 C 295 611 279 614 263 614 C 246 614 230 611 216 605 C 202 599 189 592 179 582 C 168 572 160 560 154 546 C 148 532 145 518 145 502 C 145 478 150 459 160 443 C 170 427 182 412 198 400 C 208 390 214 380 214 369 C 214 362 212 356 210 350 C 207 344 203 339 198 336 C 172 319 152 300 136 278 C 120 256 113 231 113 202 C 113 181 116 162 124 145 C 132 127 142 112 156 100 C 170 87 186 77 204 70 C 222 63 241 60 263 60 Z" />
<glyph unicode="9" horiz-adv-x="539" d="M 267 685 C 299 685 329 679 357 668 C 384 657 407 642 427 623 C 446 603 461 581 472 555 C 483 529 489 500 489 470 L 489 200 C 489 170 483 142 472 116 C 461 90 446 67 426 48 C 406 29 383 14 357 3 C 330 -7 301 -13 270 -13 C 238 -13 209 -7 182 3 C 155 14 132 29 113 49 C 93 68 78 91 67 117 C 56 143 51 172 51 203 L 131 203 C 131 182 134 163 141 146 C 148 128 158 113 170 101 C 182 88 197 78 214 71 C 231 64 250 61 270 61 C 290 61 308 64 325 71 C 342 78 357 88 369 100 C 381 112 391 127 398 144 C 405 161 409 180 409 200 L 409 306 C 397 301 385 296 375 291 C 365 285 354 280 343 275 C 332 270 320 266 308 263 C 295 259 280 258 263 258 C 229 258 199 263 173 274 C 146 284 123 299 105 318 C 86 337 71 359 61 385 C 51 411 46 439 46 470 C 46 500 51 529 63 555 C 74 581 89 603 109 623 C 129 642 152 657 179 668 C 206 679 235 685 267 685 Z M 267 611 C 246 611 227 607 210 600 C 192 592 177 582 165 570 C 153 558 143 543 136 526 C 129 508 126 490 126 470 C 126 429 138 395 163 369 C 188 343 222 330 265 330 C 283 330 299 332 313 336 C 326 340 338 346 349 352 C 359 358 369 363 379 369 C 388 375 398 379 409 382 L 409 470 C 409 490 405 508 398 526 C 391 543 381 558 369 570 C 356 582 341 592 324 600 C 306 607 287 611 267 611 Z" />
<glyph unicode=":" horiz-adv-x="205" d="M 42 366 L 42 466 L 142 466 L 142 366 L 42 366 Z M 42 0 L 42 100 L 142 100 L 142 0 L 42 0 Z" />
<glyph unicode=";" horiz-adv-x="204" d="M 42 -44 C 58 -44 70 -40 77 -33 C 84 -26 88 -15 88 0 L 42 0 L 42 100 L 142 100 L 142 0 C 142 -32 133 -57 115 -74 C 97 -90 73 -99 42 -99 L 42 -44 Z M 42 366 L 42 466 L 142 466 L 142 366 L 42 366 Z" />
<glyph unicode="&#x3C;" horiz-adv-x="586" d="M 544 507 L 544 427 L 135 252 L 544 77 L 544 -3 L 42 216 L 42 288 L 544 507 Z" />
<glyph unicode="=" horiz-adv-x="586" d="M 42 304 L 42 378 L 544 378 L 544 304 L 42 304 Z M 42 124 L 42 198 L 544 198 L 544 124 L 42 124 Z" />
<glyph unicode="&#x3E;" horiz-adv-x="586" d="M 544 288 L 544 216 L 42 -3 L 42 77 L 451 252 L 42 427 L 42 507 L 544 288 Z" />
<glyph unicode="?" horiz-adv-x="458" d="M 181 104 L 256 104 L 256 0 L 181 0 L 181 104 Z M 181 215 C 181 240 185 261 194 279 C 202 297 213 312 226 326 C 239 340 253 352 269 364 C 284 375 298 387 311 399 C 324 411 335 425 344 439 C 352 453 357 471 357 492 C 357 510 353 526 347 542 C 341 558 332 571 320 583 C 308 594 295 603 279 609 C 263 615 247 619 229 619 C 191 619 161 607 137 583 C 113 559 102 529 102 492 L 102 491 L 27 491 L 27 492 C 27 520 32 546 43 570 C 53 594 68 614 86 632 C 104 649 126 662 150 672 C 174 682 201 687 229 687 C 256 687 282 682 307 672 C 331 662 353 649 371 631 C 389 613 404 593 415 569 C 425 545 431 520 431 492 C 431 464 426 440 418 420 C 409 400 398 383 385 369 C 372 354 358 341 343 330 C 328 318 314 307 301 296 C 288 285 277 274 269 262 C 260 250 256 237 256 222 L 256 174 L 181 174 L 181 215 Z" />
<glyph unicode="@" horiz-adv-x="778" d="M 376 115 C 386 115 396 116 405 119 C 414 122 423 125 432 129 C 441 132 450 135 460 138 C 470 141 480 143 492 143 C 488 151 487 159 487 168 L 487 323 C 475 325 464 327 455 331 C 446 334 437 337 429 341 C 420 344 411 347 403 349 C 395 351 386 353 376 353 C 340 353 311 341 290 319 C 269 296 259 268 259 234 C 259 217 261 201 267 187 C 272 172 280 159 290 149 C 300 138 313 130 327 124 C 341 118 358 115 376 115 Z M 389 -48 C 413 -48 438 -45 464 -39 C 490 -33 514 -24 538 -13 L 566 -71 C 540 -85 511 -95 479 -102 C 447 -109 417 -113 389 -113 C 339 -113 294 -104 252 -86 C 210 -68 173 -43 142 -11 C 110 20 86 57 68 99 C 50 141 42 186 42 234 C 42 282 50 327 68 369 C 86 411 110 448 142 480 C 173 511 210 536 252 554 C 294 572 339 581 389 581 C 437 581 483 572 525 554 C 567 536 604 511 635 480 C 666 448 691 411 709 369 C 727 327 736 282 736 234 C 736 214 733 193 728 173 C 723 153 715 134 705 118 C 694 102 680 88 664 78 C 648 68 628 63 606 63 C 594 63 585 64 577 66 C 569 68 562 71 556 73 C 549 75 542 78 536 80 C 529 82 521 84 513 84 C 501 84 491 82 481 78 C 471 74 460 70 449 66 C 438 62 426 58 414 54 C 401 50 386 49 370 49 C 344 49 321 53 299 63 C 277 73 258 86 242 103 C 226 119 213 139 204 161 C 194 183 190 208 190 234 C 190 260 194 284 204 307 C 213 329 226 349 242 365 C 258 381 276 394 298 404 C 320 414 343 419 368 419 C 383 419 396 417 408 415 C 420 412 430 409 440 405 C 449 401 457 398 465 395 C 472 391 479 389 487 388 L 487 410 L 556 410 L 556 169 C 556 155 560 144 570 137 C 579 129 591 126 605 126 C 618 126 629 129 637 137 C 645 145 652 154 656 165 C 660 176 663 188 665 201 C 667 213 668 224 668 234 C 668 273 661 310 647 344 C 633 378 613 408 589 434 C 564 459 534 479 500 494 C 466 508 429 516 389 516 C 349 516 311 508 277 494 C 243 479 213 459 189 434 C 164 408 145 378 131 344 C 117 310 110 273 110 234 C 110 194 117 158 131 124 C 145 90 164 60 189 34 C 213 8 243 -11 277 -26 C 311 -40 349 -48 389 -48 Z" />
<glyph unicode="A" horiz-adv-x="609" d="M 261 672 L 348 672 L 602 0 L 517 0 L 453 171 L 247 171 C 213 171 187 165 170 154 C 152 142 139 124 129 98 L 92 0 L 7 0 L 261 672 Z M 179 231 C 190 237 201 242 212 245 C 223 247 235 249 249 249 L 423 249 L 305 568 L 179 231 Z" />
<glyph unicode="B" horiz-adv-x="581" d="M 57 672 L 344 672 C 371 672 396 667 419 658 C 442 648 462 635 478 618 C 494 601 507 581 516 558 C 525 535 530 510 530 484 C 530 455 524 429 512 406 C 500 383 485 363 465 346 C 524 308 554 254 554 184 C 554 158 549 133 540 111 C 530 88 517 68 501 52 C 484 36 464 23 442 14 C 419 4 395 0 369 0 L 57 0 L 57 672 Z M 138 350 C 150 358 163 364 177 368 C 191 372 205 374 221 374 L 347 374 C 377 374 401 384 420 406 C 438 427 448 453 448 483 C 448 517 438 544 418 564 C 398 584 373 594 344 594 L 138 594 L 138 350 Z M 369 78 C 401 78 426 89 445 111 C 463 133 473 159 473 191 C 473 221 463 246 444 267 C 424 287 399 298 369 298 L 225 298 C 167 298 138 269 138 211 L 138 78 L 369 78 Z" />
<glyph unicode="C" horiz-adv-x="730" d="M 380 -13 C 332 -13 286 -3 244 14 C 202 32 165 57 134 89 C 102 121 77 158 59 200 C 41 242 32 288 32 336 C 32 384 41 429 59 471 C 77 513 102 550 134 582 C 165 614 202 639 244 657 C 286 675 332 685 380 685 C 416 685 450 679 483 669 C 516 659 547 644 575 626 C 603 607 627 584 649 558 C 671 531 689 502 703 470 L 614 470 C 590 513 558 547 517 571 C 475 595 430 608 380 608 C 342 608 307 600 275 586 C 243 572 215 552 191 528 C 167 503 149 474 135 441 C 121 408 115 373 115 336 C 115 298 121 263 135 230 C 149 197 167 168 191 144 C 215 119 243 99 275 85 C 307 71 342 64 380 64 C 430 64 475 76 517 101 C 558 125 590 159 614 202 L 703 202 C 689 170 672 140 650 114 C 628 87 604 64 576 46 C 548 27 517 12 484 2 C 450 -7 416 -13 380 -13 Z" />
<glyph unicode="D" horiz-adv-x="632" d="M 57 672 L 288 672 C 338 672 382 663 421 647 C 459 630 492 607 519 577 C 545 547 565 512 579 471 C 593 430 600 386 600 338 C 600 290 593 245 579 204 C 565 162 545 127 519 97 C 493 67 460 43 421 26 C 382 8 338 0 288 0 L 57 0 L 57 672 Z M 288 78 C 326 78 360 84 389 98 C 418 112 442 130 461 154 C 480 177 494 204 504 236 C 514 268 519 302 519 338 C 519 374 514 408 505 440 C 495 471 481 498 462 521 C 442 543 418 561 389 574 C 360 587 326 594 288 594 L 138 594 L 138 78 L 288 78 Z" />
<glyph unicode="E" horiz-adv-x="558" d="M 57 672 L 506 672 L 506 594 L 138 594 L 138 345 C 150 356 164 364 180 368 C 195 372 211 374 227 374 L 504 374 L 504 298 L 227 298 C 198 298 176 290 161 274 C 145 258 138 237 138 209 L 138 78 L 506 78 L 506 0 L 57 0 L 57 672 Z" />
<glyph unicode="F" horiz-adv-x="548" d="M 227 298 C 198 298 176 290 161 274 C 145 258 138 237 138 209 L 138 0 L 57 0 L 57 672 L 506 672 L 506 594 L 138 594 L 138 344 C 150 355 165 363 181 367 C 197 371 214 374 230 374 L 504 374 L 504 298 L 227 298 Z" />
<glyph unicode="G" horiz-adv-x="762" d="M 380 283 L 380 364 L 729 364 C 729 358 730 353 730 349 C 730 345 730 340 730 336 C 730 288 720 242 702 200 C 684 158 659 121 627 89 C 595 57 558 32 516 14 C 474 -3 429 -13 381 -13 C 333 -13 287 -3 245 14 C 203 32 166 57 134 89 C 102 121 77 158 59 200 C 41 242 32 288 32 336 C 32 384 41 429 59 471 C 77 513 102 550 134 582 C 166 614 203 639 245 657 C 287 675 333 685 381 685 C 416 685 450 679 483 669 C 516 659 547 644 575 626 C 603 607 627 584 649 558 C 671 531 689 502 703 470 L 612 471 C 588 513 556 547 515 571 C 474 595 429 608 381 608 C 343 608 308 600 276 586 C 243 572 215 552 191 528 C 167 503 148 474 134 441 C 120 408 113 373 113 336 C 113 298 120 263 134 230 C 148 197 167 168 191 144 C 215 119 243 99 275 85 C 307 71 342 64 380 64 C 412 64 443 69 473 81 C 502 92 528 107 551 127 C 574 146 594 169 610 196 C 626 222 637 251 643 283 L 380 283 Z" />
<glyph unicode="H" horiz-adv-x="646" d="M 57 672 L 138 672 L 138 345 C 150 355 165 363 181 368 C 197 372 214 375 230 375 L 508 375 L 508 672 L 589 672 L 589 0 L 508 0 L 508 297 L 230 297 C 200 297 178 288 162 272 C 146 256 138 233 138 205 L 138 0 L 57 0 L 57 672 Z" />
<glyph unicode="I" horiz-adv-x="205" d="M 62 672 L 143 672 L 143 0 L 62 0 L 62 672 Z" />
<glyph unicode="J" horiz-adv-x="609" d="M 292 -13 C 254 -13 220 -6 188 6 C 156 19 128 37 105 60 C 82 83 64 110 51 142 C 38 174 32 208 32 246 L 113 246 C 113 220 117 196 126 174 C 134 152 147 133 163 117 C 179 101 198 89 220 81 C 242 72 266 68 292 68 C 318 68 342 72 364 81 C 386 89 405 101 421 117 C 437 133 449 151 458 173 C 466 195 471 219 471 246 L 471 672 L 552 672 L 552 246 C 552 208 545 174 532 142 C 519 110 501 83 478 60 C 455 37 428 19 396 6 C 364 -6 329 -13 292 -13 Z" />
<glyph unicode="K" horiz-adv-x="591" d="M 57 672 L 138 672 L 138 377 L 154 377 C 168 377 180 377 190 379 C 200 380 209 383 217 387 C 225 391 233 397 241 405 C 249 413 258 423 269 435 L 471 672 L 578 672 L 328 382 C 320 374 312 366 304 358 C 296 350 287 343 278 336 C 297 322 314 307 328 291 L 579 0 L 472 0 L 270 237 C 258 249 249 259 241 267 C 233 275 225 281 217 285 C 209 289 200 292 190 294 C 180 295 168 296 154 296 L 138 296 L 138 0 L 57 0 L 57 672 Z" />
<glyph unicode="L" horiz-adv-x="532" d="M 57 672 L 138 672 L 138 78 L 510 78 L 510 0 L 57 0 L 57 672 Z" />
<glyph unicode="M" horiz-adv-x="772" d="M 57 672 L 140 672 L 386 194 L 632 672 L 715 672 L 715 0 L 634 0 L 634 506 L 425 103 L 394 103 C 374 103 360 107 350 115 C 340 123 330 136 321 154 L 138 506 L 138 0 L 57 0 L 57 672 Z" />
<glyph unicode="N" horiz-adv-x="649" d="M 57 672 L 139 672 L 457 120 C 462 110 469 101 477 94 C 485 86 495 82 509 81 L 509 672 L 592 672 L 592 0 L 517 0 C 487 0 461 7 440 22 C 419 37 403 54 392 74 L 139 513 L 139 0 L 57 0 L 57 672 Z" />
<glyph unicode="O" horiz-adv-x="762" d="M 381 -13 C 333 -13 287 -3 245 14 C 203 32 166 57 134 89 C 102 121 77 158 59 200 C 41 242 32 288 32 336 C 32 384 41 429 59 471 C 77 513 102 550 134 582 C 166 614 203 639 245 657 C 287 675 333 685 381 685 C 429 685 474 675 516 657 C 558 639 595 614 627 582 C 659 550 684 513 702 471 C 720 429 730 384 730 336 C 730 288 720 242 702 200 C 684 158 659 121 627 89 C 595 57 558 32 516 14 C 474 -3 429 -13 381 -13 Z M 381 64 C 418 64 453 71 486 85 C 518 99 547 119 571 144 C 595 169 614 198 628 231 C 642 263 649 298 649 336 C 649 372 642 407 628 440 C 614 473 595 502 571 527 C 547 552 518 572 486 586 C 453 600 418 608 381 608 C 343 608 308 600 276 586 C 243 572 215 552 191 527 C 167 502 148 473 134 440 C 120 407 113 372 113 336 C 113 298 120 263 134 231 C 148 198 167 169 191 144 C 215 119 243 99 276 85 C 308 71 343 64 381 64 Z" />
<glyph unicode="P" horiz-adv-x="592" d="M 57 672 L 347 672 C 378 672 407 666 434 654 C 460 642 483 626 503 606 C 522 585 537 561 548 534 C 559 506 565 477 565 447 C 565 417 559 388 548 362 C 536 335 521 312 501 293 C 481 273 457 258 431 247 C 405 235 377 230 347 230 L 229 230 C 200 230 178 222 162 208 C 146 193 139 170 139 138 L 139 0 L 57 0 L 57 672 Z M 139 279 C 153 290 167 298 181 302 C 195 306 211 308 229 308 L 347 308 C 365 308 383 311 400 319 C 416 327 431 337 444 350 C 456 363 466 378 473 395 C 480 412 484 430 484 450 C 484 470 480 489 473 507 C 465 524 455 539 443 552 C 431 565 416 575 400 583 C 383 590 365 594 347 594 L 139 594 L 139 279 Z" />
<glyph unicode="Q" horiz-adv-x="762" d="M 381 -13 C 333 -13 287 -3 245 14 C 203 32 166 57 134 89 C 102 121 77 158 59 200 C 41 242 32 288 32 336 C 32 384 41 429 59 471 C 77 513 102 550 134 582 C 166 614 203 639 245 657 C 287 675 333 685 381 685 C 429 685 474 675 516 657 C 558 639 595 614 627 582 C 659 550 684 513 702 471 C 720 429 730 384 730 336 C 730 290 721 247 705 207 C 689 167 666 132 638 101 L 725 0 L 625 0 L 581 51 C 552 31 521 15 487 4 C 453 -7 418 -13 381 -13 Z M 381 64 C 409 64 435 68 460 76 C 485 84 508 95 530 110 L 489 159 C 477 171 465 181 451 188 C 437 195 418 199 394 199 L 343 199 L 343 276 L 394 276 C 432 276 463 269 486 257 C 508 245 530 227 550 204 L 586 161 C 606 185 621 211 632 241 C 643 271 649 302 649 336 C 649 372 642 407 628 440 C 614 473 595 502 571 527 C 547 552 518 572 486 586 C 453 600 418 608 381 608 C 343 608 308 600 276 586 C 243 572 215 552 191 527 C 167 502 148 473 134 440 C 120 407 113 372 113 336 C 113 298 120 263 134 231 C 148 198 167 169 191 144 C 215 119 243 99 276 85 C 308 71 343 64 381 64 Z" />
<glyph unicode="R" horiz-adv-x="603" d="M 57 672 L 347 672 C 378 672 407 666 434 654 C 460 642 483 626 503 606 C 522 585 537 561 548 534 C 559 506 565 477 565 447 C 565 420 560 394 551 370 C 541 346 528 324 511 305 C 493 286 473 270 449 258 C 425 246 398 238 370 234 L 576 0 L 472 0 L 323 172 C 305 192 288 206 272 216 C 256 226 237 231 217 231 C 188 231 168 224 156 211 C 144 197 138 176 138 148 L 138 0 L 57 0 L 57 672 Z M 138 285 C 149 294 161 300 173 303 C 185 306 198 308 212 308 L 347 308 C 365 308 383 312 400 320 C 416 328 431 338 443 351 C 455 364 465 379 472 396 C 479 413 483 431 483 450 C 483 470 479 489 472 507 C 465 525 455 540 443 553 C 431 565 416 575 400 583 C 383 590 365 594 347 594 L 138 594 L 138 285 Z" />
<glyph unicode="S" horiz-adv-x="541" d="M 276 -13 C 244 -13 213 -8 183 0 C 153 7 127 20 104 36 C 81 52 63 73 49 99 C 35 124 27 154 27 188 L 109 188 C 109 166 114 147 124 131 C 134 115 146 102 162 92 C 178 82 195 74 215 70 C 235 65 256 63 278 63 C 295 63 313 65 331 70 C 349 74 366 81 381 91 C 396 101 408 113 418 129 C 427 145 432 164 432 186 C 432 206 426 223 416 237 C 405 251 391 262 373 272 C 355 281 335 289 313 296 C 291 302 268 309 244 316 C 220 323 197 331 175 340 C 153 349 133 361 115 375 C 97 389 83 406 73 427 C 62 447 57 473 57 504 C 57 532 63 558 75 580 C 87 602 102 621 122 637 C 142 653 164 665 189 673 C 214 681 240 685 266 685 C 294 685 320 681 346 674 C 371 666 393 656 413 642 C 433 628 448 610 460 590 C 472 569 478 545 479 519 L 398 519 C 394 549 381 571 357 586 C 333 600 303 608 266 608 C 228 608 197 598 174 580 C 150 561 139 536 139 505 C 139 476 148 454 167 439 C 185 423 208 411 236 401 C 264 391 294 383 326 375 C 358 367 388 356 416 342 C 444 328 467 309 486 285 C 504 261 514 228 514 186 C 514 154 507 125 493 100 C 479 75 461 54 439 38 C 417 21 391 8 363 0 C 334 -8 305 -13 276 -13 Z" />
<glyph unicode="T" horiz-adv-x="581" d="M 250 501 C 250 522 252 540 257 555 C 261 569 269 582 281 594 L 20 594 L 20 672 L 561 672 L 561 594 L 423 594 C 393 594 371 585 355 568 C 339 550 331 528 331 501 L 331 0 L 250 0 L 250 501 Z" />
<glyph unicode="U" horiz-adv-x="624" d="M 312 -13 C 274 -13 240 -6 208 7 C 176 20 148 38 125 62 C 102 85 84 112 71 144 C 58 176 52 210 52 248 L 52 672 L 133 672 L 133 248 C 133 222 137 197 145 175 C 153 153 165 133 181 117 C 196 101 215 88 237 79 C 259 69 284 65 312 65 C 339 65 364 69 386 78 C 408 87 426 100 442 116 C 458 132 470 152 478 174 C 486 196 491 221 491 248 L 491 672 L 572 672 L 572 248 C 572 210 565 176 552 144 C 539 112 521 84 498 61 C 475 37 448 19 416 6 C 384 -6 349 -13 312 -13 Z" />
<glyph unicode="V" horiz-adv-x="628" d="M 335 0 C 297 0 269 9 250 29 C 230 48 215 75 204 109 L 12 672 L 100 672 L 287 111 C 290 101 295 93 303 87 C 310 81 319 78 330 78 L 529 672 L 616 672 L 388 0 L 335 0 Z" />
<glyph unicode="W" horiz-adv-x="968" d="M 288 0 C 253 0 225 10 205 31 C 184 52 170 79 163 111 L 27 672 L 111 672 L 243 125 C 247 108 252 96 260 90 C 267 84 276 81 287 81 L 441 672 L 526 672 L 657 126 C 661 109 666 97 673 91 C 680 84 690 81 703 81 L 857 672 L 941 672 L 766 0 L 703 0 C 668 0 640 10 620 31 C 599 52 585 79 578 111 L 483 511 L 350 0 L 288 0 Z" />
<glyph unicode="X" horiz-adv-x="548" d="M 274 267 L 113 0 L 14 0 L 226 334 L 12 672 L 110 672 L 274 400 L 438 672 L 536 672 L 322 334 L 534 0 L 435 0 L 274 267 Z" />
<glyph unicode="Y" horiz-adv-x="597" d="M 329 205 C 259 207 210 239 181 303 L 12 672 L 100 672 L 242 351 C 253 325 267 308 283 298 C 299 288 324 283 357 283 L 499 672 L 585 672 L 339 0 L 254 0 L 329 205 Z" />
<glyph unicode="Z" horiz-adv-x="549" d="M 37 70 L 407 594 L 54 594 L 54 672 L 506 672 L 506 599 L 139 78 L 517 78 L 517 0 L 37 0 L 37 70 Z" />
<glyph unicode="[" horiz-adv-x="276" d="M 62 740 L 244 740 L 244 672 L 136 672 L 136 -46 L 244 -46 L 244 -115 L 62 -115 L 62 740 Z" />
<glyph unicode="\" horiz-adv-x="370" d="M 10 702 L 88 702 L 360 -30 L 281 -30 L 10 702 Z" />
<glyph unicode="]" horiz-adv-x="276" d="M 214 -115 L 32 -115 L 32 -46 L 140 -46 L 140 672 L 32 672 L 32 740 L 214 740 L 214 -115 Z" />
<glyph unicode="^" horiz-adv-x="424" d="M 172 672 L 252 672 L 392 405 L 315 405 L 212 605 L 110 405 L 32 405 L 172 672 Z" />
<glyph unicode="_" horiz-adv-x="516" d="M 42 74 L 474 74 L 474 0 L 42 0 L 42 74 Z" />
<glyph unicode="`" horiz-adv-x="253" d="M 221 517 L 150 517 L 32 639 L 130 639 L 221 517 Z" />
<glyph unicode="a" horiz-adv-x="565" d="M 29 233 C 29 267 35 300 47 330 C 59 360 77 386 99 408 C 121 430 146 447 176 460 C 206 472 238 479 273 479 C 295 479 315 476 331 472 C 347 467 362 462 375 457 C 387 451 398 446 408 442 C 418 437 427 435 437 435 L 437 466 L 514 466 L 514 127 C 514 113 516 101 522 89 C 528 77 538 64 554 50 L 499 -4 C 491 4 483 11 474 17 C 465 23 455 27 443 27 C 431 27 420 24 410 20 C 400 16 389 11 377 6 C 365 1 350 -3 334 -7 C 318 -11 297 -13 273 -13 C 238 -13 206 -6 176 6 C 146 18 121 36 99 58 C 77 80 59 106 47 136 C 35 166 29 198 29 233 Z M 107 233 C 107 208 111 185 119 164 C 127 143 139 125 154 110 C 168 95 186 83 207 75 C 227 66 250 62 275 62 C 293 62 309 64 323 68 C 336 72 349 76 361 81 C 373 86 385 91 397 95 C 409 99 423 101 439 101 C 438 105 437 110 437 114 C 437 118 437 122 437 127 L 437 362 C 421 362 407 365 395 369 C 383 373 371 378 359 383 C 347 388 334 393 321 397 C 308 401 293 404 275 404 C 250 404 227 399 207 391 C 186 383 168 371 154 356 C 139 340 127 322 119 301 C 111 280 107 257 107 233 Z" />
<glyph unicode="b" horiz-adv-x="564" d="M 127 107 C 143 106 157 103 169 99 C 181 94 193 89 205 84 C 217 78 229 73 242 69 C 255 65 271 63 289 63 C 313 63 336 67 357 75 C 377 83 395 95 410 110 C 424 125 436 143 444 164 C 452 184 457 207 457 233 C 457 257 452 280 444 301 C 436 322 424 340 410 355 C 395 369 377 381 357 389 C 336 397 313 402 289 402 C 271 402 255 399 242 395 C 229 391 217 386 205 381 C 193 375 181 370 169 366 C 157 362 143 359 127 359 L 127 107 Z M 127 0 L 50 0 L 50 672 L 127 672 L 127 435 C 136 435 145 437 155 442 C 165 446 176 451 188 457 C 200 462 215 467 231 472 C 247 476 267 479 290 479 C 324 479 356 472 386 460 C 416 447 442 430 464 408 C 486 386 503 360 516 330 C 528 300 535 267 535 233 C 535 198 528 166 516 136 C 503 106 486 80 464 58 C 442 36 416 18 386 6 C 356 -6 324 -13 290 -13 C 267 -13 247 -10 231 -6 C 215 -1 200 3 188 9 C 176 15 165 20 155 25 C 145 29 136 32 127 32 L 127 0 Z" />
<glyph unicode="c" horiz-adv-x="531" d="M 275 -13 C 239 -13 207 -6 177 5 C 147 17 120 35 98 57 C 76 79 58 105 46 135 C 33 165 27 197 27 233 C 27 267 33 300 46 330 C 58 360 76 386 98 408 C 120 430 147 447 177 460 C 207 472 239 479 275 479 C 299 479 323 475 347 468 C 371 461 393 451 413 438 C 433 424 450 408 466 389 C 482 370 495 349 505 326 L 417 326 C 400 350 379 369 355 383 C 331 396 304 403 275 403 C 251 403 228 398 208 390 C 187 381 169 369 154 354 C 138 338 126 320 118 300 C 109 279 105 257 105 233 C 105 209 109 186 118 166 C 126 145 138 127 154 112 C 169 96 187 84 208 76 C 228 67 251 63 275 63 C 305 63 332 69 356 82 C 380 95 401 114 417 140 L 505 140 C 495 116 482 94 466 76 C 450 57 433 41 413 28 C 393 14 371 4 348 -2 C 324 -9 300 -13 275 -13 Z" />
<glyph unicode="d" horiz-adv-x="566" d="M 29 233 C 29 267 35 300 47 330 C 59 360 77 386 99 408 C 121 430 146 447 176 460 C 206 472 238 479 273 479 C 295 479 315 476 331 472 C 347 467 362 462 375 457 C 387 451 398 446 408 442 C 418 437 427 435 437 435 L 437 672 L 514 672 L 514 127 C 514 113 516 101 522 89 C 528 77 538 63 554 49 L 499 -4 C 491 4 483 11 474 17 C 465 23 455 27 443 27 C 431 27 420 24 410 20 C 400 16 389 11 377 6 C 365 1 350 -3 334 -7 C 318 -11 297 -13 273 -13 C 238 -13 206 -6 176 6 C 146 18 121 36 99 58 C 77 80 59 106 47 136 C 35 166 29 198 29 233 Z M 107 233 C 107 208 111 185 119 164 C 127 143 139 125 154 110 C 168 95 186 83 207 75 C 227 66 250 62 275 62 C 293 62 309 64 323 68 C 336 72 349 76 361 81 C 373 86 385 91 397 95 C 409 99 423 102 439 102 C 438 106 437 111 437 115 C 437 119 437 123 437 128 L 437 361 C 421 361 407 364 395 368 C 383 372 371 377 359 383 C 347 388 334 393 321 397 C 308 401 293 404 275 404 C 250 404 227 399 207 391 C 186 383 168 371 154 356 C 139 340 127 322 119 301 C 111 280 107 257 107 233 Z" />
<glyph unicode="e" horiz-adv-x="545" d="M 273 -13 C 239 -13 208 -7 178 5 C 148 17 122 34 100 56 C 77 78 59 104 46 134 C 32 164 26 197 26 233 C 26 267 32 300 45 330 C 58 360 76 386 98 408 C 120 430 147 447 177 460 C 207 472 239 479 273 479 C 307 479 340 472 370 460 C 400 447 426 430 448 408 C 470 386 487 359 500 329 C 512 299 519 266 519 232 C 519 222 518 211 516 201 L 161 201 C 132 201 118 190 118 168 C 118 156 122 143 131 131 C 139 118 151 106 166 96 C 180 85 197 76 216 69 C 234 62 254 59 274 59 C 304 59 331 65 356 79 C 380 92 401 112 418 138 L 501 138 C 481 90 451 52 411 26 C 371 0 325 -13 273 -13 Z M 102 244 C 119 259 141 267 168 267 L 439 267 C 435 287 428 306 418 323 C 408 340 395 355 380 367 C 365 379 348 389 330 396 C 312 403 293 407 273 407 C 250 407 228 403 208 395 C 188 387 170 375 155 361 C 139 347 127 330 117 310 C 107 290 102 268 102 244 Z" />
<glyph unicode="f" horiz-adv-x="309" d="M 50 323 C 50 343 54 362 62 380 C 70 398 82 413 99 427 C 83 440 70 456 62 474 C 53 492 49 511 49 531 C 49 550 52 568 60 586 C 68 603 78 618 91 631 C 104 643 119 653 137 661 C 155 668 174 672 194 672 L 282 672 L 282 595 L 194 595 C 175 595 159 589 147 577 C 134 565 128 549 128 531 C 128 511 134 495 146 483 C 158 471 174 466 194 466 L 282 466 L 282 389 L 194 389 C 174 389 158 383 146 371 C 134 359 128 343 128 323 L 128 0 L 50 0 L 50 323 Z" />
<glyph unicode="g" horiz-adv-x="564" d="M 436 359 C 420 359 406 362 394 366 C 382 370 370 375 358 381 C 346 386 333 391 320 395 C 307 399 292 402 274 402 C 249 402 226 397 206 389 C 185 381 167 369 152 355 C 137 340 125 322 117 301 C 109 280 105 257 105 233 C 105 207 109 184 117 164 C 125 143 137 125 152 110 C 167 95 185 83 206 75 C 226 67 249 63 274 63 C 292 63 307 65 320 69 C 333 73 346 78 358 84 C 370 89 382 94 394 99 C 406 103 420 106 436 107 L 436 359 Z M 436 32 C 426 32 417 29 407 25 C 397 21 386 16 374 10 C 362 4 347 0 331 -4 C 315 -8 295 -11 273 -11 C 238 -11 206 -4 176 7 C 146 19 121 37 99 59 C 77 81 59 106 47 136 C 34 166 28 198 28 233 C 28 267 34 300 47 330 C 59 360 77 386 99 408 C 121 430 146 447 176 460 C 206 472 238 479 273 479 C 295 479 315 476 331 472 C 347 467 362 462 374 457 C 386 451 397 446 407 442 C 417 437 426 435 436 435 L 436 466 L 513 466 L 513 -1 C 513 -37 507 -69 496 -97 C 485 -124 469 -147 449 -165 C 429 -183 405 -196 377 -205 C 349 -213 318 -218 284 -218 C 230 -218 183 -205 143 -179 C 103 -153 76 -117 61 -69 L 148 -69 C 160 -95 177 -115 201 -127 C 224 -139 252 -146 284 -146 C 331 -146 368 -133 395 -109 C 422 -85 436 -49 436 -1 L 436 32 Z" />
<glyph unicode="h" horiz-adv-x="537" d="M 49 672 L 127 672 L 127 427 C 138 429 149 433 161 439 C 173 445 185 450 199 456 C 213 462 228 467 244 471 C 260 475 279 478 301 478 C 360 478 405 461 437 427 C 469 393 485 347 485 289 L 485 0 L 407 0 L 407 287 C 407 325 397 353 379 373 C 361 393 332 403 294 403 C 278 403 262 401 248 397 C 234 393 220 388 207 383 C 193 377 180 372 167 367 C 154 361 141 358 127 356 L 127 0 L 49 0 L 49 672 Z" />
<glyph unicode="i" horiz-adv-x="182" d="M 52 672 L 130 672 L 130 568 L 52 568 L 52 672 Z M 52 466 L 130 466 L 130 0 L 52 0 L 52 466 Z" />
<glyph unicode="j" horiz-adv-x="187" d="M -5 -129 L 12 -129 C 27 -129 39 -124 47 -114 C 55 -104 60 -91 60 -74 L 60 466 L 138 466 L 138 -74 C 138 -118 126 -151 104 -173 C 81 -195 45 -206 -5 -206 L -5 -129 Z M 60 672 L 138 672 L 138 569 L 60 569 L 60 672 Z" />
<glyph unicode="k" horiz-adv-x="495" d="M 51 672 L 129 672 L 129 270 L 135 270 C 145 270 154 270 162 271 C 170 272 177 274 184 277 C 190 280 197 284 203 289 C 209 294 216 300 224 308 L 381 466 L 483 466 L 277 259 C 273 255 267 250 259 244 C 251 238 244 234 239 232 C 245 230 251 226 259 220 C 267 214 273 209 278 205 L 483 0 L 379 0 L 223 156 C 215 164 207 170 201 176 C 194 181 187 185 181 188 C 174 190 167 192 160 193 C 152 194 144 195 135 195 L 129 195 L 129 0 L 51 0 L 51 672 Z" />
<glyph unicode="l" horiz-adv-x="182" d="M 52 672 L 130 672 L 130 0 L 52 0 L 52 672 Z" />
<glyph unicode="m" horiz-adv-x="796" d="M 127 424 C 141 428 153 434 165 440 C 176 446 188 452 200 458 C 212 464 224 469 238 473 C 252 477 267 479 285 479 C 314 479 339 474 360 464 C 381 454 398 439 411 421 C 429 425 445 431 459 438 C 473 444 486 451 500 457 C 514 463 528 468 542 472 C 556 476 573 479 592 479 C 640 479 678 465 704 438 C 730 410 744 373 744 326 L 744 0 L 666 0 L 666 326 C 666 350 658 370 642 384 C 626 398 605 405 580 405 C 565 405 551 403 539 399 C 527 395 515 390 504 385 C 492 380 481 375 470 369 C 459 363 447 359 435 357 C 435 351 436 346 436 341 C 436 336 437 331 437 326 L 437 0 L 359 0 L 359 326 C 359 350 351 370 335 384 C 319 398 298 405 273 405 C 257 405 244 403 232 399 C 220 395 209 390 198 384 C 187 378 176 373 165 367 C 153 361 141 357 127 355 L 127 0 L 49 0 L 49 466 L 127 466 L 127 424 Z" />
<glyph unicode="n" horiz-adv-x="540" d="M 52 466 L 130 466 L 130 425 C 141 427 153 432 165 438 C 177 444 189 450 203 456 C 217 462 232 467 248 472 C 264 476 283 479 305 479 C 364 479 409 462 441 428 C 472 394 488 347 488 289 L 488 0 L 410 0 L 410 289 C 410 327 401 355 383 375 C 365 394 336 404 298 404 C 282 404 266 402 252 398 C 238 394 224 389 210 384 C 196 378 183 373 170 368 C 157 362 144 359 130 357 L 130 0 L 52 0 L 52 466 Z" />
<glyph unicode="o" horiz-adv-x="548" d="M 274 -13 C 238 -13 205 -6 175 6 C 145 18 119 36 97 58 C 75 80 57 106 45 136 C 32 166 26 198 26 233 C 26 267 32 300 45 330 C 57 360 75 386 97 408 C 119 430 145 447 175 460 C 205 472 238 479 274 479 C 309 479 342 472 372 460 C 402 447 429 430 451 408 C 473 386 490 360 503 330 C 515 300 522 267 522 233 C 522 198 515 166 503 136 C 490 106 473 80 451 58 C 429 36 402 18 372 6 C 342 -6 309 -13 274 -13 Z M 274 61 C 298 61 320 65 341 74 C 362 82 380 94 396 110 C 411 126 423 144 432 165 C 440 186 445 209 445 233 C 445 257 440 280 432 301 C 423 322 411 340 396 356 C 380 371 362 383 341 392 C 320 400 298 405 274 405 C 250 405 227 400 206 392 C 185 383 167 371 152 356 C 136 340 124 322 116 301 C 107 280 103 257 103 233 C 103 209 107 186 116 165 C 124 144 136 126 152 110 C 167 94 185 82 206 74 C 227 65 250 61 274 61 Z" />
<glyph unicode="p" horiz-adv-x="566" d="M 127 107 C 143 106 157 103 169 99 C 181 94 193 89 205 84 C 217 78 229 73 242 69 C 255 65 271 63 289 63 C 313 63 336 67 357 75 C 377 83 395 95 410 110 C 425 125 437 143 445 164 C 453 184 458 207 458 233 C 458 257 453 280 445 301 C 437 322 425 340 410 355 C 395 369 377 381 357 389 C 336 397 313 402 289 402 C 271 402 255 399 242 395 C 229 391 217 386 205 381 C 193 375 181 370 169 366 C 157 362 143 359 127 359 L 127 107 Z M 127 -206 L 50 -206 L 50 466 L 127 466 L 127 435 C 136 435 145 437 155 442 C 165 446 176 451 188 457 C 200 462 215 467 231 472 C 247 476 267 479 290 479 C 324 479 356 472 386 460 C 416 447 442 430 464 408 C 486 386 503 360 516 330 C 528 300 535 267 535 233 C 535 198 528 166 516 136 C 503 106 486 80 464 58 C 442 36 416 18 386 6 C 356 -6 324 -13 290 -13 C 267 -13 247 -10 231 -6 C 215 -1 200 3 188 9 C 176 15 165 20 155 25 C 145 29 136 32 127 32 L 127 -206 Z" />
<glyph unicode="q" horiz-adv-x="569" d="M 29 233 C 29 267 35 300 47 330 C 59 360 77 386 99 408 C 121 430 146 447 176 460 C 206 472 238 479 273 479 C 297 479 318 476 334 472 C 350 468 365 463 377 458 C 389 453 400 449 410 445 C 420 441 431 439 443 439 C 455 439 465 442 474 448 C 483 454 491 462 499 470 L 554 417 C 538 402 528 389 522 377 C 516 365 514 352 514 339 L 514 -206 L 437 -206 L 437 31 C 427 31 418 28 408 24 C 398 19 387 14 375 9 C 362 3 347 -1 331 -6 C 315 -10 295 -13 273 -13 C 238 -13 206 -6 176 6 C 146 18 121 36 99 58 C 77 80 59 106 47 136 C 35 166 29 198 29 233 Z M 106 233 C 106 207 110 184 118 164 C 126 143 138 125 153 110 C 168 94 186 82 207 74 C 227 66 250 62 275 62 C 293 62 308 64 321 68 C 334 72 347 77 359 83 C 371 88 383 93 395 97 C 407 101 421 104 437 105 L 437 338 C 437 342 437 347 437 351 C 437 355 438 359 439 364 C 423 364 409 366 397 370 C 385 374 373 378 361 383 C 349 388 336 393 323 397 C 309 401 293 404 275 404 C 250 404 227 399 207 391 C 186 382 168 370 153 355 C 138 340 126 322 118 301 C 110 280 106 257 106 233 Z" />
<glyph unicode="r" horiz-adv-x="315" d="M 57 338 C 57 353 55 365 51 374 C 47 382 40 392 30 404 L 16 417 L 71 472 C 81 461 90 453 98 447 C 106 441 116 438 130 438 C 142 438 153 440 163 445 C 172 449 182 454 194 460 C 205 465 218 470 234 475 C 249 479 269 482 293 482 L 293 406 C 274 406 258 403 246 399 C 234 395 222 390 211 385 C 199 380 187 376 175 372 C 163 368 147 366 129 366 C 133 358 135 349 135 337 L 135 0 L 57 0 L 57 338 Z" />
<glyph unicode="s" horiz-adv-x="428" d="M 212 -13 C 188 -13 164 -10 142 -4 C 119 2 99 11 81 24 C 63 36 49 52 38 71 C 27 89 22 112 22 138 L 100 138 C 100 122 103 109 109 99 C 115 88 124 79 134 73 C 144 67 156 62 170 59 C 184 56 198 55 212 55 C 226 55 240 56 254 60 C 268 63 280 68 291 74 C 301 80 310 89 316 99 C 322 109 326 122 326 136 C 326 153 319 166 305 176 C 291 185 274 192 254 198 C 233 204 211 209 187 215 C 163 220 141 228 121 238 C 100 248 83 261 69 278 C 55 295 49 318 49 348 C 49 367 53 385 61 401 C 69 417 80 430 94 442 C 108 454 124 463 144 469 C 164 475 185 479 209 479 C 229 479 248 476 268 471 C 287 466 304 458 320 448 C 336 438 349 425 359 409 C 369 393 374 374 376 353 L 298 353 C 294 373 284 387 268 397 C 252 406 232 411 209 411 C 186 411 166 405 150 395 C 133 385 125 369 125 348 C 125 330 131 317 145 309 C 159 300 176 293 196 287 C 216 281 239 276 263 271 C 287 265 309 258 329 248 C 349 238 366 225 380 207 C 394 189 401 166 401 136 C 401 110 395 87 384 69 C 373 50 359 35 341 23 C 323 11 302 2 280 -4 C 257 -10 234 -13 212 -13 Z" />
<glyph unicode="t" horiz-adv-x="313" d="M 188 0 C 168 0 150 3 133 10 C 115 17 100 27 87 39 C 73 51 63 66 55 83 C 47 100 44 119 44 139 L 44 327 C 44 350 47 370 54 386 C 60 402 71 416 87 428 C 71 441 60 455 54 470 C 47 484 44 503 44 527 L 44 624 L 122 624 L 122 528 C 122 510 126 495 136 483 C 146 471 162 466 186 466 L 276 466 L 276 390 L 186 390 C 164 390 147 384 137 372 C 127 360 122 345 122 326 L 122 142 C 122 122 128 106 141 94 C 154 82 170 76 188 76 L 276 76 L 276 0 L 188 0 Z" />
<glyph unicode="u" horiz-adv-x="543" d="M 237 -13 C 177 -13 131 3 98 37 C 65 70 49 116 49 175 L 49 466 L 127 466 L 127 175 C 127 100 166 63 244 63 C 264 63 281 65 295 69 C 309 73 321 78 332 83 C 343 88 354 93 366 97 C 377 101 391 104 409 104 C 407 108 405 113 405 118 C 404 123 404 128 404 134 L 404 466 L 481 466 L 481 132 C 481 112 485 96 494 85 C 502 74 513 62 526 50 L 472 -5 C 462 4 453 12 445 18 C 437 24 426 28 410 28 C 398 28 386 25 376 21 C 366 17 354 12 342 7 C 329 2 314 -2 298 -6 C 281 -10 261 -13 237 -13 Z" />
<glyph unicode="v" horiz-adv-x="524" d="M 277 0 C 245 0 220 7 201 23 C 182 39 167 61 157 89 L 13 466 L 96 466 L 227 117 C 233 99 241 88 249 84 C 257 80 268 78 283 78 L 428 466 L 511 466 L 333 0 L 277 0 Z" />
<glyph unicode="w" horiz-adv-x="828" d="M 245 0 C 215 0 191 8 174 25 C 157 41 144 63 136 90 L 12 466 L 95 466 L 209 115 C 212 103 216 94 221 87 C 226 80 234 77 246 77 L 373 466 L 455 466 L 569 115 C 572 103 576 94 581 87 C 586 80 594 77 606 77 L 733 466 L 816 466 L 661 0 L 607 0 C 576 0 552 8 536 25 C 519 41 506 63 498 90 L 414 352 L 301 0 L 245 0 Z" />
<glyph unicode="x" horiz-adv-x="464" d="M 183 232 L 12 466 L 108 466 L 232 290 L 356 466 L 452 466 L 281 232 L 450 0 L 354 0 L 232 174 L 110 0 L 14 0 L 183 232 Z" />
<glyph unicode="y" horiz-adv-x="519" d="M 110 -131 L 132 -131 C 153 -131 170 -127 184 -121 C 198 -115 209 -101 219 -80 L 252 0 C 231 2 212 11 195 26 C 178 40 164 62 154 90 L 10 466 L 95 466 L 226 116 C 231 102 238 91 248 85 C 257 79 268 76 281 76 L 426 466 L 509 466 L 286 -114 C 261 -175 210 -206 134 -206 L 110 -206 L 110 -131 Z" />
<glyph unicode="z" horiz-adv-x="475" d="M 32 67 L 332 392 L 43 392 L 43 466 L 437 466 L 437 395 L 141 74 L 450 74 L 450 0 L 32 0 L 32 67 Z" />
<glyph unicode="{" horiz-adv-x="328" d="M 251 672 C 209 672 189 651 189 609 L 189 412 C 189 368 173 335 143 313 C 159 301 170 287 178 271 C 185 255 189 236 189 214 L 189 16 C 189 -25 209 -46 251 -46 L 296 -46 L 296 -115 L 251 -115 C 209 -115 175 -103 151 -81 C 126 -58 114 -26 114 16 L 114 212 C 114 233 109 249 99 261 C 89 273 73 279 50 279 L 32 279 L 32 347 L 50 347 C 73 347 89 352 99 364 C 109 376 114 392 114 414 L 114 609 C 114 651 126 683 151 706 C 175 728 209 740 251 740 L 296 740 L 296 672 L 251 672 Z" />
<glyph unicode="|" horiz-adv-x="239" d="M 82 745 L 157 745 L 157 -120 L 82 -120 L 82 745 Z" />
<glyph unicode="}" horiz-adv-x="328" d="M 32 672 L 32 740 L 77 740 C 119 740 152 728 177 706 C 201 683 214 651 214 609 L 214 414 C 214 392 218 376 228 364 C 238 352 254 347 278 347 L 296 347 L 296 279 L 278 279 C 254 279 238 273 228 261 C 218 249 214 233 214 212 L 214 16 C 214 -26 201 -58 177 -81 C 152 -103 119 -115 77 -115 L 32 -115 L 32 -46 L 77 -46 C 118 -46 139 -25 139 16 L 139 214 C 139 236 142 255 150 271 C 157 287 169 301 185 313 C 154 335 139 368 139 412 L 139 609 C 139 651 118 672 77 672 L 32 672 Z" />
<glyph unicode="~" horiz-adv-x="535" d="M 370 521 C 344 521 323 525 305 534 C 287 543 270 553 255 564 C 240 575 226 585 212 594 C 198 603 182 608 166 608 C 142 608 126 601 117 587 C 107 573 103 554 103 528 L 32 528 C 32 580 43 618 65 642 C 87 666 121 679 165 679 C 189 679 211 674 229 665 C 247 656 264 646 279 635 C 294 624 309 614 323 605 C 337 596 352 592 369 592 C 392 592 408 598 418 612 C 427 626 432 646 432 672 L 503 672 C 503 620 491 581 469 557 C 447 533 414 521 370 521 Z" />
<glyph unicode=" " horiz-adv-x="230" d="" />
<glyph unicode="¡" horiz-adv-x="209" d="M 67 498 L 142 498 L 142 0 L 67 0 L 67 498 Z M 67 672 L 142 672 L 142 568 L 67 568 L 67 672 Z" />
<glyph unicode="¢" horiz-adv-x="539" d="M 507 243 C 489 201 463 167 429 141 C 394 115 355 99 311 94 L 311 0 L 243 0 L 243 94 C 212 98 184 107 158 121 C 132 135 110 152 92 174 C 73 195 58 219 48 247 C 37 275 32 305 32 337 C 32 369 37 398 48 426 C 58 454 73 478 92 500 C 110 521 132 538 158 552 C 184 566 212 575 243 579 L 243 672 L 311 672 L 311 580 C 354 574 393 558 428 532 C 463 506 489 472 507 431 L 421 431 C 404 455 383 474 359 488 C 335 501 308 508 278 508 C 254 508 231 503 210 495 C 189 486 171 474 156 459 C 140 443 128 425 119 404 C 110 383 106 361 106 337 C 106 313 110 290 119 270 C 128 249 140 231 156 215 C 171 199 189 187 210 179 C 231 170 254 166 278 166 C 308 166 335 172 360 185 C 384 198 405 217 421 243 L 507 243 L 507 243 Z" />
<glyph unicode="£" horiz-adv-x="487" d="M 227 672 L 267 672 L 330 531 C 332 526 335 524 340 524 L 405 672 L 445 672 L 445 448 L 407 448 L 407 590 L 360 484 L 346 484 C 324 484 308 494 298 516 L 265 590 L 265 448 L 227 448 L 227 672 Z M 114 445 C 93 445 74 450 57 462 C 40 474 32 490 32 512 L 71 512 C 71 502 75 494 84 489 C 93 483 103 481 113 481 C 122 481 131 483 141 488 C 151 492 156 500 156 512 C 156 520 153 526 147 531 C 141 535 134 539 126 542 C 118 545 109 548 99 551 C 89 553 79 557 71 562 C 63 567 56 574 50 582 C 44 590 42 600 42 614 C 42 632 49 647 63 658 C 77 669 93 675 113 675 C 131 675 147 670 162 660 C 177 650 185 636 187 617 L 146 617 C 145 623 142 629 137 633 C 131 637 123 640 113 640 C 101 640 93 637 88 632 C 83 626 81 621 81 615 C 81 603 87 594 99 590 C 111 585 124 580 138 576 C 152 572 166 565 178 556 C 190 547 196 532 196 512 C 196 500 193 490 188 482 C 183 474 177 467 169 462 C 161 456 152 452 142 449 C 132 446 123 445 114 445 Z" />
<glyph unicode="¨" horiz-adv-x="301" d="M 178 622 L 269 622 L 269 528 L 178 528 L 178 622 Z M 32 622 L 123 622 L 123 528 L 32 528 L 32 622 Z" />
<glyph unicode="©" horiz-adv-x="746" d="M 374 140 C 346 140 321 145 297 155 C 273 165 252 178 234 196 C 216 214 202 235 192 259 C 182 283 177 308 177 336 C 177 363 182 388 192 412 C 202 436 216 456 234 474 C 252 492 273 506 297 516 C 321 526 346 532 374 532 C 413 532 449 520 482 498 C 514 475 538 445 554 408 L 484 408 C 470 426 454 441 435 452 C 415 462 395 468 374 468 C 355 468 337 464 321 457 C 305 450 291 441 279 429 C 267 417 257 403 251 387 C 244 371 241 354 241 336 C 241 318 244 301 251 285 C 258 269 268 255 280 243 C 292 231 306 221 322 214 C 338 207 355 204 374 204 C 396 204 416 209 435 220 C 454 230 470 245 484 264 L 554 264 C 539 226 515 196 482 174 C 449 151 413 140 374 140 Z M 373 -8 C 325 -8 281 1 239 19 C 197 37 161 61 130 92 C 99 123 74 160 56 202 C 38 244 29 288 29 336 C 29 382 38 427 56 469 C 74 511 99 547 130 578 C 161 609 197 634 239 652 C 281 670 325 680 373 680 C 420 680 465 670 507 652 C 549 634 585 609 616 578 C 647 547 672 511 690 469 C 708 427 717 382 717 336 C 717 288 708 244 690 202 C 672 160 647 123 616 92 C 585 61 549 37 507 19 C 465 1 420 -8 373 -8 Z M 373 55 C 411 55 448 62 482 77 C 516 91 545 111 571 137 C 597 163 617 193 632 227 C 646 261 654 297 654 336 C 654 374 646 410 632 444 C 617 478 597 508 571 534 C 545 559 516 579 482 594 C 448 609 411 617 373 617 C 335 617 298 609 264 594 C 230 579 200 559 175 534 C 149 508 129 478 114 444 C 99 410 92 374 92 336 C 92 297 99 261 114 227 C 129 193 149 163 175 137 C 200 111 230 91 264 77 C 298 62 335 55 373 55 Z" />
<glyph unicode="«" horiz-adv-x="422" d="M 230 43 L 153 43 L 32 233 L 153 423 L 230 423 L 109 233 L 230 43 Z M 385 43 L 308 43 L 187 233 L 308 423 L 385 423 L 264 233 L 385 43 Z" />
<glyph unicode="¬" horiz-adv-x="586" d="M 544 379 L 544 91 L 470 91 L 470 305 L 42 305 L 42 379 L 544 379 Z" />
<glyph unicode="­" horiz-adv-x="337" d="M 47 294 L 290 294 L 290 220 L 47 220 L 47 294 Z" />
<glyph unicode="®" horiz-adv-x="290" d="M 145 443 C 129 443 113 446 99 452 C 85 458 72 467 62 477 C 52 487 43 500 37 514 C 31 528 28 544 28 560 C 28 576 31 591 37 605 C 43 619 52 632 62 642 C 72 652 85 661 99 667 C 113 673 129 677 145 677 C 161 677 176 673 190 667 C 204 661 217 652 227 642 C 237 632 246 619 252 605 C 258 591 262 576 262 560 C 262 544 258 528 252 514 C 246 500 237 487 227 477 C 217 467 204 458 190 452 C 176 446 161 443 145 443 Z M 145 464 C 171 464 194 473 213 492 C 231 510 241 533 241 560 C 241 572 238 584 233 596 C 228 608 221 618 213 627 C 204 636 194 643 182 648 C 170 653 158 656 145 656 C 131 656 119 653 108 648 C 96 643 86 636 77 627 C 68 618 61 608 56 596 C 51 584 49 572 49 560 C 49 546 51 534 56 522 C 61 510 68 500 77 492 C 86 483 96 476 108 471 C 119 466 131 464 145 464 Z M 98 628 L 156 628 C 168 628 179 623 188 615 C 196 606 201 595 201 583 C 201 573 198 564 192 558 C 186 551 178 546 169 543 C 168 543 167 542 167 542 C 167 542 166 542 166 542 L 168 539 L 206 495 L 179 495 L 150 530 C 148 532 145 535 142 537 C 139 539 136 540 133 540 C 127 540 124 538 122 535 C 120 532 119 529 119 525 L 119 495 L 98 495 L 98 628 Z M 119 555 C 122 557 127 559 133 559 L 156 559 C 162 559 168 561 172 566 C 176 570 179 576 179 583 C 179 590 176 596 172 601 C 168 605 162 608 156 608 L 119 608 L 119 555 Z" />
<glyph unicode="°" horiz-adv-x="369" d="M 32 531 C 32 552 36 572 44 591 C 52 609 62 625 76 639 C 90 653 106 664 124 672 C 142 680 162 684 184 684 C 205 684 225 680 244 672 C 262 664 278 653 292 639 C 306 625 317 609 325 591 C 333 572 337 552 337 531 C 337 509 333 489 325 471 C 317 453 306 437 292 423 C 278 409 262 399 244 391 C 225 383 205 379 184 379 C 162 379 142 383 124 391 C 106 399 90 409 76 423 C 62 437 52 453 44 471 C 36 489 32 509 32 531 Z M 98 531 C 98 507 106 486 123 470 C 139 453 160 445 184 445 C 208 445 228 453 245 470 C 262 486 271 507 271 531 C 271 555 262 575 245 592 C 228 609 208 618 184 618 C 160 618 139 609 123 592 C 106 575 98 555 98 531 Z" />
<glyph unicode="±" horiz-adv-x="586" d="M 256 384 L 42 384 L 42 458 L 256 458 L 256 672 L 330 672 L 330 458 L 544 458 L 544 384 L 330 384 L 330 170 L 256 170 L 256 384 Z M 544 0 L 42 0 L 42 74 L 544 74 L 544 0 Z" />
<glyph unicode="²" horiz-adv-x="323" d="M 56 270 C 47 270 39 273 33 280 C 26 286 23 294 23 304 C 23 309 24 314 26 319 C 28 324 31 328 35 331 L 208 494 C 216 501 223 510 229 521 C 235 531 238 542 238 554 C 238 575 230 593 214 607 C 198 621 180 628 159 628 C 137 628 118 620 103 605 C 87 590 80 571 80 547 L 22 547 C 22 567 25 586 32 603 C 38 619 48 634 60 646 C 72 658 87 667 104 673 C 120 679 139 683 159 683 C 179 683 197 679 214 673 C 231 667 246 658 258 647 C 270 635 280 622 287 606 C 294 590 298 572 298 553 C 298 532 294 514 286 498 C 278 482 267 468 254 456 L 112 327 L 305 327 L 305 270 L 56 270 Z" />
<glyph unicode="³" horiz-adv-x="338" d="M 175 260 C 155 260 136 263 118 269 C 100 275 85 284 72 296 C 59 308 49 322 41 339 C 33 355 30 374 30 396 L 90 396 C 90 370 98 351 114 337 C 130 323 150 317 174 317 C 197 317 217 324 233 338 C 249 352 257 371 257 394 C 257 409 252 422 244 434 C 235 446 223 456 208 464 C 198 469 194 477 194 489 C 194 500 198 508 207 514 C 217 520 225 528 230 538 C 235 547 238 557 238 567 C 238 584 231 598 217 610 C 203 621 187 627 170 627 C 149 627 132 620 119 608 C 106 596 100 579 100 558 L 39 558 C 39 596 51 626 75 649 C 99 671 130 683 170 683 C 208 683 239 672 263 650 C 287 628 299 601 299 568 C 299 552 295 538 289 525 C 283 512 274 501 264 492 C 278 480 291 467 301 451 C 311 435 317 416 317 394 C 317 354 304 321 278 297 C 252 272 217 260 175 260 Z" />
<glyph unicode="´" horiz-adv-x="253" d="M 123 639 L 221 639 L 103 517 L 32 517 L 123 639 Z" />
<glyph unicode="¶" horiz-adv-x="547" d="M 235 295 C 209 295 184 299 161 309 C 138 319 118 332 101 349 C 84 366 71 386 61 409 C 51 432 47 457 47 483 C 47 509 51 533 61 556 C 71 579 84 599 101 616 C 118 633 138 647 161 657 C 184 667 209 672 235 672 L 515 672 L 515 604 L 445 604 L 445 0 L 371 0 L 371 604 L 310 604 L 310 0 L 235 0 L 235 295 Z" />
<glyph unicode="·" horiz-adv-x="184" d="M 42 307 L 142 307 L 142 207 L 42 207 L 42 307 Z" />
<glyph unicode="¹" horiz-adv-x="230" d="M 90 616 L 30 616 L 30 672 L 122 672 C 130 672 136 669 142 663 C 147 657 150 651 150 643 L 150 270 L 90 270 L 90 616 Z" />
<glyph unicode="»" horiz-adv-x="422" d="M 323 233 L 202 423 L 279 423 L 400 233 L 279 43 L 202 43 L 323 233 Z M 168 233 L 47 423 L 124 423 L 245 233 L 124 43 L 47 43 L 168 233 Z" />
<glyph unicode="¿" horiz-adv-x="498" d="M 222 672 L 297 672 L 297 568 L 222 568 L 222 672 Z M 249 -15 C 221 -15 195 -10 171 0 C 146 9 124 22 106 40 C 88 58 73 78 63 102 C 52 126 47 152 47 180 C 47 207 51 231 60 251 C 68 271 79 288 92 303 C 105 317 119 330 134 342 C 149 353 163 364 176 375 C 189 386 200 397 209 409 C 217 421 222 434 222 450 L 222 498 L 297 498 L 297 457 C 297 431 292 410 284 392 C 275 374 264 359 251 345 C 238 331 224 319 209 308 C 193 296 179 284 166 272 C 153 260 142 246 134 232 C 125 217 121 200 121 180 C 121 162 124 145 130 129 C 136 113 145 100 157 89 C 169 77 182 68 198 62 C 214 56 231 53 249 53 C 286 53 316 64 340 88 C 364 112 376 142 376 180 L 376 181 L 451 181 L 451 180 C 451 152 445 126 435 102 C 424 78 409 57 391 40 C 373 22 351 9 327 0 C 303 -10 277 -15 249 -15 Z" />
<glyph unicode="À" horiz-adv-x="609" d="M 261 672 L 348 672 L 602 0 L 517 0 L 453 171 L 247 171 C 213 171 187 165 170 154 C 152 142 139 124 129 98 L 92 0 L 7 0 L 261 672 Z M 179 231 C 190 237 201 242 212 245 C 223 247 235 249 249 249 L 423 249 L 305 568 L 179 231 Z M 339 703 L 268 703 L 150 825 L 248 825 L 339 703 Z" />
<glyph unicode="Á" horiz-adv-x="609" d="M 261 672 L 348 672 L 602 0 L 517 0 L 453 171 L 247 171 C 213 171 187 165 170 154 C 152 142 139 124 129 98 L 92 0 L 7 0 L 261 672 Z M 179 231 C 190 237 201 242 212 245 C 223 247 235 249 249 249 L 423 249 L 305 568 L 179 231 Z M 361 825 L 459 825 L 341 703 L 270 703 L 361 825 Z" />
<glyph unicode="Ã" horiz-adv-x="609" d="M 261 672 L 348 672 L 602 0 L 517 0 L 453 171 L 247 171 C 213 171 187 165 170 154 C 152 142 139 124 129 98 L 92 0 L 7 0 L 261 672 Z M 179 231 C 190 237 201 242 212 245 C 223 247 235 249 249 249 L 423 249 L 305 568 L 179 231 Z M 460 800 C 460 772 451 748 435 728 C 418 708 395 699 367 699 C 353 699 340 701 329 705 C 317 709 307 714 297 720 C 287 726 277 731 268 735 C 259 739 250 742 242 742 C 230 742 221 738 215 730 C 209 722 206 714 206 705 L 149 705 C 149 732 157 756 174 776 C 190 796 213 806 242 806 C 256 806 268 803 280 799 C 291 795 302 790 312 784 C 322 778 331 773 340 769 C 349 765 358 763 367 763 C 378 763 387 766 393 774 C 399 782 403 790 403 800 L 460 800 Z" />
<glyph unicode="È" horiz-adv-x="558" d="M 57 672 L 506 672 L 506 594 L 138 594 L 138 345 C 150 356 164 364 180 368 C 195 372 211 374 227 374 L 504 374 L 504 298 L 227 298 C 198 298 176 290 161 274 C 145 258 138 237 138 209 L 138 78 L 506 78 L 506 0 L 57 0 L 57 672 Z M 357 703 L 286 703 L 168 825 L 266 825 L 357 703 Z" />
<glyph unicode="É" horiz-adv-x="558" d="M 57 672 L 506 672 L 506 594 L 138 594 L 138 345 C 150 356 164 364 180 368 C 195 372 211 374 227 374 L 504 374 L 504 298 L 227 298 C 198 298 176 290 161 274 C 145 258 138 237 138 209 L 138 78 L 506 78 L 506 0 L 57 0 L 57 672 Z M 334 825 L 432 825 L 314 703 L 243 703 L 334 825 Z" />
<glyph unicode="Ì" horiz-adv-x="205" d="M 62 672 L 143 672 L 143 0 L 62 0 L 62 672 Z M 137 703 L 66 703 L -52 825 L 46 825 L 137 703 Z" />
<glyph unicode="Í" horiz-adv-x="205" d="M 62 672 L 143 672 L 143 0 L 62 0 L 62 672 Z M 158 825 L 256 825 L 138 703 L 67 703 L 158 825 Z" />
<glyph unicode="Ñ" horiz-adv-x="649" d="M 57 672 L 139 672 L 457 120 C 462 110 469 101 477 94 C 485 86 495 82 509 81 L 509 672 L 592 672 L 592 0 L 517 0 C 487 0 461 7 440 22 C 419 37 403 54 392 74 L 139 513 L 139 0 L 57 0 L 57 672 Z M 480 800 C 480 772 471 748 455 728 C 438 708 415 699 387 699 C 373 699 360 701 349 705 C 337 709 327 714 317 720 C 307 726 297 731 288 735 C 279 739 270 742 262 742 C 250 742 241 738 235 730 C 229 722 226 714 226 705 L 169 705 C 169 732 177 756 194 776 C 210 796 233 806 262 806 C 276 806 288 803 300 799 C 311 795 322 790 332 784 C 342 778 351 773 360 769 C 369 765 378 763 387 763 C 398 763 407 766 413 774 C 419 782 423 790 423 800 L 480 800 Z" />
<glyph unicode="Ò" horiz-adv-x="762" d="M 381 -13 C 333 -13 287 -3 245 14 C 203 32 166 57 134 89 C 102 121 77 158 59 200 C 41 242 32 288 32 336 C 32 384 41 429 59 471 C 77 513 102 550 134 582 C 166 614 203 639 245 657 C 287 675 333 685 381 685 C 429 685 474 675 516 657 C 558 639 595 614 627 582 C 659 550 684 513 702 471 C 720 429 730 384 730 336 C 730 288 720 242 702 200 C 684 158 659 121 627 89 C 595 57 558 32 516 14 C 474 -3 429 -13 381 -13 Z M 381 64 C 418 64 453 71 486 85 C 518 99 547 119 571 144 C 595 169 614 198 628 231 C 642 263 649 298 649 336 C 649 372 642 407 628 440 C 614 473 595 502 571 527 C 547 552 518 572 486 586 C 453 600 418 608 381 608 C 343 608 308 600 276 586 C 243 572 215 552 191 527 C 167 502 148 473 134 440 C 120 407 113 372 113 336 C 113 298 120 263 134 231 C 148 198 167 169 191 144 C 215 119 243 99 276 85 C 308 71 343 64 381 64 Z M 415 703 L 344 703 L 226 825 L 324 825 L 415 703 Z" />
<glyph unicode="Ó" horiz-adv-x="762" d="M 381 -13 C 333 -13 287 -3 245 14 C 203 32 166 57 134 89 C 102 121 77 158 59 200 C 41 242 32 288 32 336 C 32 384 41 429 59 471 C 77 513 102 550 134 582 C 166 614 203 639 245 657 C 287 675 333 685 381 685 C 429 685 474 675 516 657 C 558 639 595 614 627 582 C 659 550 684 513 702 471 C 720 429 730 384 730 336 C 730 288 720 242 702 200 C 684 158 659 121 627 89 C 595 57 558 32 516 14 C 474 -3 429 -13 381 -13 Z M 381 64 C 418 64 453 71 486 85 C 518 99 547 119 571 144 C 595 169 614 198 628 231 C 642 263 649 298 649 336 C 649 372 642 407 628 440 C 614 473 595 502 571 527 C 547 552 518 572 486 586 C 453 600 418 608 381 608 C 343 608 308 600 276 586 C 243 572 215 552 191 527 C 167 502 148 473 134 440 C 120 407 113 372 113 336 C 113 298 120 263 134 231 C 148 198 167 169 191 144 C 215 119 243 99 276 85 C 308 71 343 64 381 64 Z M 437 825 L 535 825 L 417 703 L 346 703 L 437 825 Z" />
<glyph unicode="Õ" horiz-adv-x="762" d="M 381 -13 C 333 -13 287 -3 245 14 C 203 32 166 57 134 89 C 102 121 77 158 59 200 C 41 242 32 288 32 336 C 32 384 41 429 59 471 C 77 513 102 550 134 582 C 166 614 203 639 245 657 C 287 675 333 685 381 685 C 429 685 474 675 516 657 C 558 639 595 614 627 582 C 659 550 684 513 702 471 C 720 429 730 384 730 336 C 730 288 720 242 702 200 C 684 158 659 121 627 89 C 595 57 558 32 516 14 C 474 -3 429 -13 381 -13 Z M 381 64 C 418 64 453 71 486 85 C 518 99 547 119 571 144 C 595 169 614 198 628 231 C 642 263 649 298 649 336 C 649 372 642 407 628 440 C 614 473 595 502 571 527 C 547 552 518 572 486 586 C 453 600 418 608 381 608 C 343 608 308 600 276 586 C 243 572 215 552 191 527 C 167 502 148 473 134 440 C 120 407 113 372 113 336 C 113 298 120 263 134 231 C 148 198 167 169 191 144 C 215 119 243 99 276 85 C 308 71 343 64 381 64 Z M 536 807 C 536 779 527 755 511 735 C 494 715 471 706 443 706 C 429 706 416 708 405 712 C 393 716 383 721 373 727 C 363 733 353 738 344 742 C 335 746 326 749 318 749 C 306 749 297 745 291 737 C 285 729 282 721 282 712 L 225 712 C 225 739 233 763 250 783 C 266 803 289 813 318 813 C 332 813 344 810 356 806 C 367 802 378 797 388 791 C 398 785 407 780 416 776 C 425 772 434 770 443 770 C 454 770 463 773 469 781 C 475 789 479 797 479 807 L 536 807 Z" />
<glyph unicode="×" horiz-adv-x="512" d="M 256 199 L 85 27 L 32 80 L 204 251 L 32 422 L 85 475 L 256 303 L 427 475 L 480 422 L 308 251 L 480 80 L 427 27 L 256 199 Z" />
<glyph unicode="Ø" horiz-adv-x="762" d="M 646 562 C 672 531 692 496 707 458 C 722 420 730 379 730 336 C 730 288 720 242 702 200 C 684 158 659 121 627 89 C 595 57 558 32 516 14 C 474 -3 429 -13 381 -13 C 337 -13 296 -5 258 9 C 220 24 185 45 155 71 L 84 0 L 44 40 L 115 111 C 89 141 68 176 54 214 C 39 252 32 292 32 336 C 32 384 41 429 59 471 C 77 513 102 550 134 582 C 166 614 203 639 245 657 C 287 675 333 685 381 685 C 423 685 464 677 502 662 C 540 647 575 627 606 602 L 676 672 L 716 632 L 646 562 Z M 381 64 C 418 64 453 71 486 85 C 518 99 547 119 571 144 C 595 169 614 198 628 231 C 642 263 649 298 649 336 C 649 368 643 398 633 427 C 623 456 608 482 590 506 L 210 126 C 233 106 259 91 288 80 C 317 69 348 64 381 64 Z M 113 336 C 113 304 118 273 128 245 C 138 216 152 190 171 167 L 550 546 C 526 565 500 580 472 591 C 444 602 413 608 381 608 C 343 608 308 600 276 586 C 243 572 215 552 191 527 C 167 502 148 473 134 440 C 120 407 113 372 113 336 Z" />
<glyph unicode="Ù" horiz-adv-x="624" d="M 312 -13 C 274 -13 240 -6 208 7 C 176 20 148 38 125 62 C 102 85 84 112 71 144 C 58 176 52 210 52 248 L 52 672 L 133 672 L 133 248 C 133 222 137 197 145 175 C 153 153 165 133 181 117 C 196 101 215 88 237 79 C 259 69 284 65 312 65 C 339 65 364 69 386 78 C 408 87 426 100 442 116 C 458 132 470 152 478 174 C 486 196 491 221 491 248 L 491 672 L 572 672 L 572 248 C 572 210 565 176 552 144 C 539 112 521 84 498 61 C 475 37 448 19 416 6 C 384 -6 349 -13 312 -13 Z M 352 703 L 281 703 L 163 825 L 261 825 L 352 703 Z" />
<glyph unicode="Ú" horiz-adv-x="624" d="M 312 -13 C 274 -13 240 -6 208 7 C 176 20 148 38 125 62 C 102 85 84 112 71 144 C 58 176 52 210 52 248 L 52 672 L 133 672 L 133 248 C 133 222 137 197 145 175 C 153 153 165 133 181 117 C 196 101 215 88 237 79 C 259 69 284 65 312 65 C 339 65 364 69 386 78 C 408 87 426 100 442 116 C 458 132 470 152 478 174 C 486 196 491 221 491 248 L 491 672 L 572 672 L 572 248 C 572 210 565 176 552 144 C 539 112 521 84 498 61 C 475 37 448 19 416 6 C 384 -6 349 -13 312 -13 Z M 363 825 L 461 825 L 343 703 L 272 703 L 363 825 Z" />
<glyph unicode="Ý" horiz-adv-x="597" d="M 329 205 C 259 207 210 239 181 303 L 12 672 L 100 672 L 242 351 C 253 325 267 308 283 298 C 299 288 324 283 357 283 L 499 672 L 585 672 L 339 0 L 254 0 L 329 205 Z M 355 825 L 453 825 L 335 703 L 264 703 L 355 825 Z" />
<glyph unicode="à" horiz-adv-x="564" d="M 29 233 C 29 267 35 300 47 330 C 59 360 77 386 99 408 C 121 430 146 447 176 460 C 206 472 238 479 273 479 C 295 479 315 476 331 472 C 347 467 362 462 375 457 C 387 451 398 446 408 442 C 418 437 427 435 437 435 L 437 466 L 514 466 L 514 127 C 514 113 516 101 522 89 C 528 77 538 64 554 50 L 499 -4 C 491 4 483 11 474 17 C 465 23 455 27 443 27 C 431 27 420 24 410 20 C 400 16 389 11 377 6 C 365 1 350 -3 334 -7 C 318 -11 297 -13 273 -13 C 238 -13 206 -6 176 6 C 146 18 121 36 99 58 C 77 80 59 106 47 136 C 35 166 29 198 29 233 Z M 107 233 C 107 208 111 185 119 164 C 127 143 139 125 154 110 C 168 95 186 83 207 75 C 227 66 250 62 275 62 C 293 62 309 64 323 68 C 336 72 349 76 361 81 C 373 86 385 91 397 95 C 409 99 423 101 439 101 C 438 105 437 110 437 114 C 437 118 437 122 437 127 L 437 362 C 421 362 407 365 395 369 C 383 373 371 378 359 383 C 347 388 334 393 321 397 C 308 401 293 404 275 404 C 250 404 227 399 207 391 C 186 383 168 371 154 356 C 139 340 127 322 119 301 C 111 280 107 257 107 233 Z M 346 517 L 275 517 L 157 639 L 255 639 L 346 517 Z" />
<glyph unicode="á" horiz-adv-x="564" d="M 29 233 C 29 267 35 300 47 330 C 59 360 77 386 99 408 C 121 430 146 447 176 460 C 206 472 238 479 273 479 C 295 479 315 476 331 472 C 347 467 362 462 375 457 C 387 451 398 446 408 442 C 418 437 427 435 437 435 L 437 466 L 514 466 L 514 127 C 514 113 516 101 522 89 C 528 77 538 64 554 50 L 499 -4 C 491 4 483 11 474 17 C 465 23 455 27 443 27 C 431 27 420 24 410 20 C 400 16 389 11 377 6 C 365 1 350 -3 334 -7 C 318 -11 297 -13 273 -13 C 238 -13 206 -6 176 6 C 146 18 121 36 99 58 C 77 80 59 106 47 136 C 35 166 29 198 29 233 Z M 107 233 C 107 208 111 185 119 164 C 127 143 139 125 154 110 C 168 95 186 83 207 75 C 227 66 250 62 275 62 C 293 62 309 64 323 68 C 336 72 349 76 361 81 C 373 86 385 91 397 95 C 409 99 423 101 439 101 C 438 105 437 110 437 114 C 437 118 437 122 437 127 L 437 362 C 421 362 407 365 395 369 C 383 373 371 378 359 383 C 347 388 334 393 321 397 C 308 401 293 404 275 404 C 250 404 227 399 207 391 C 186 383 168 371 154 356 C 139 340 127 322 119 301 C 111 280 107 257 107 233 Z M 335 639 L 433 639 L 315 517 L 244 517 L 335 639 Z" />
<glyph unicode="ã" horiz-adv-x="564" d="M 29 233 C 29 267 35 300 47 330 C 59 360 77 386 99 408 C 121 430 146 447 176 460 C 206 472 238 479 273 479 C 295 479 315 476 331 472 C 347 467 362 462 375 457 C 387 451 398 446 408 442 C 418 437 427 435 437 435 L 437 466 L 514 466 L 514 127 C 514 113 516 101 522 89 C 528 77 538 64 554 50 L 499 -4 C 491 4 483 11 474 17 C 465 23 455 27 443 27 C 431 27 420 24 410 20 C 400 16 389 11 377 6 C 365 1 350 -3 334 -7 C 318 -11 297 -13 273 -13 C 238 -13 206 -6 176 6 C 146 18 121 36 99 58 C 77 80 59 106 47 136 C 35 166 29 198 29 233 Z M 107 233 C 107 208 111 185 119 164 C 127 143 139 125 154 110 C 168 95 186 83 207 75 C 227 66 250 62 275 62 C 293 62 309 64 323 68 C 336 72 349 76 361 81 C 373 86 385 91 397 95 C 409 99 423 101 439 101 C 438 105 437 110 437 114 C 437 118 437 122 437 127 L 437 362 C 421 362 407 365 395 369 C 383 373 371 378 359 383 C 347 388 334 393 321 397 C 308 401 293 404 275 404 C 250 404 227 399 207 391 C 186 383 168 371 154 356 C 139 340 127 322 119 301 C 111 280 107 257 107 233 Z M 443 621 C 443 593 434 569 418 549 C 401 529 378 520 350 520 C 336 520 323 522 312 526 C 300 530 290 535 280 541 C 270 547 260 552 251 556 C 242 560 233 563 225 563 C 213 563 204 559 198 551 C 192 543 189 535 189 526 L 132 526 C 132 553 140 577 157 597 C 173 617 196 627 225 627 C 239 627 251 624 263 620 C 274 616 285 611 295 605 C 305 599 314 594 323 590 C 332 586 341 584 350 584 C 361 584 370 587 376 595 C 382 603 386 611 386 621 L 443 621 Z" />
<glyph unicode="è" horiz-adv-x="545" d="M 273 -13 C 239 -13 208 -7 178 5 C 148 17 122 34 100 56 C 77 78 59 104 46 134 C 32 164 26 197 26 233 C 26 267 32 300 45 330 C 58 360 76 386 98 408 C 120 430 147 447 177 460 C 207 472 239 479 273 479 C 307 479 340 472 370 460 C 400 447 426 430 448 408 C 470 386 487 359 500 329 C 512 299 519 266 519 232 C 519 222 518 211 516 201 L 161 201 C 132 201 118 190 118 168 C 118 156 122 143 131 131 C 139 118 151 106 166 96 C 180 85 197 76 216 69 C 234 62 254 59 274 59 C 304 59 331 65 356 79 C 380 92 401 112 418 138 L 501 138 C 481 90 451 52 411 26 C 371 0 325 -13 273 -13 Z M 102 244 C 119 259 141 267 168 267 L 439 267 C 435 287 428 306 418 323 C 408 340 395 355 380 367 C 365 379 348 389 330 396 C 312 403 293 407 273 407 C 250 407 228 403 208 395 C 188 387 170 375 155 361 C 139 347 127 330 117 310 C 107 290 102 268 102 244 Z M 319 517 L 248 517 L 130 639 L 228 639 L 319 517 Z" />
<glyph unicode="é" horiz-adv-x="545" d="M 273 -13 C 239 -13 208 -7 178 5 C 148 17 122 34 100 56 C 77 78 59 104 46 134 C 32 164 26 197 26 233 C 26 267 32 300 45 330 C 58 360 76 386 98 408 C 120 430 147 447 177 460 C 207 472 239 479 273 479 C 307 479 340 472 370 460 C 400 447 426 430 448 408 C 470 386 487 359 500 329 C 512 299 519 266 519 232 C 519 222 518 211 516 201 L 161 201 C 132 201 118 190 118 168 C 118 156 122 143 131 131 C 139 118 151 106 166 96 C 180 85 197 76 216 69 C 234 62 254 59 274 59 C 304 59 331 65 356 79 C 380 92 401 112 418 138 L 501 138 C 481 90 451 52 411 26 C 371 0 325 -13 273 -13 Z M 102 244 C 119 259 141 267 168 267 L 439 267 C 435 287 428 306 418 323 C 408 340 395 355 380 367 C 365 379 348 389 330 396 C 312 403 293 407 273 407 C 250 407 228 403 208 395 C 188 387 170 375 155 361 C 139 347 127 330 117 310 C 107 290 102 268 102 244 Z M 331 639 L 429 639 L 311 517 L 240 517 L 331 639 Z" />
<glyph unicode="ì" horiz-adv-x="179" d="M 52 466 L 127 466 L 127 0 L 52 0 L 52 466 Z M 124 517 L 53 517 L -65 639 L 33 639 L 124 517 Z" />
<glyph unicode="í" horiz-adv-x="179" d="M 52 466 L 127 466 L 127 0 L 52 0 L 52 466 Z M 146 639 L 244 639 L 126 517 L 55 517 L 146 639 Z" />
<glyph unicode="ñ" horiz-adv-x="537" d="M 49 466 L 127 466 L 127 425 C 138 427 150 432 162 438 C 174 444 186 450 200 456 C 214 462 229 467 245 472 C 261 476 280 479 302 479 C 361 479 406 462 438 428 C 469 394 485 347 485 289 L 485 0 L 407 0 L 407 289 C 407 327 398 355 380 375 C 362 394 333 404 295 404 C 279 404 263 402 249 398 C 235 394 221 389 207 384 C 193 378 180 373 167 368 C 154 362 141 359 127 357 L 127 0 L 49 0 L 49 466 Z M 431 621 C 431 593 422 569 406 549 C 389 529 366 520 338 520 C 324 520 311 522 300 526 C 288 530 278 535 268 541 C 258 547 248 552 239 556 C 230 560 221 563 213 563 C 201 563 192 559 186 551 C 180 543 177 535 177 526 L 120 526 C 120 553 128 577 145 597 C 161 617 184 627 213 627 C 227 627 239 624 251 620 C 262 616 273 611 283 605 C 293 599 302 594 311 590 C 320 586 329 584 338 584 C 349 584 358 587 364 595 C 370 603 374 611 374 621 L 431 621 Z" />
<glyph unicode="ò" horiz-adv-x="548" d="M 274 -13 C 238 -13 205 -6 175 6 C 145 18 119 36 97 58 C 75 80 57 106 45 136 C 32 166 26 198 26 233 C 26 267 32 300 45 330 C 57 360 75 386 97 408 C 119 430 145 447 175 460 C 205 472 238 479 274 479 C 309 479 342 472 372 460 C 402 447 429 430 451 408 C 473 386 490 360 503 330 C 515 300 522 267 522 233 C 522 198 515 166 503 136 C 490 106 473 80 451 58 C 429 36 402 18 372 6 C 342 -6 309 -13 274 -13 Z M 274 61 C 298 61 320 65 341 74 C 362 82 380 94 396 110 C 411 126 423 144 432 165 C 440 186 445 209 445 233 C 445 257 440 280 432 301 C 423 322 411 340 396 356 C 380 371 362 383 341 392 C 320 400 298 405 274 405 C 250 405 227 400 206 392 C 185 383 167 371 152 356 C 136 340 124 322 116 301 C 107 280 103 257 103 233 C 103 209 107 186 116 165 C 124 144 136 126 152 110 C 167 94 185 82 206 74 C 227 65 250 61 274 61 Z M 314 517 L 243 517 L 125 639 L 223 639 L 314 517 Z" />
<glyph unicode="ó" horiz-adv-x="548" d="M 274 -13 C 238 -13 205 -6 175 6 C 145 18 119 36 97 58 C 75 80 57 106 45 136 C 32 166 26 198 26 233 C 26 267 32 300 45 330 C 57 360 75 386 97 408 C 119 430 145 447 175 460 C 205 472 238 479 274 479 C 309 479 342 472 372 460 C 402 447 429 430 451 408 C 473 386 490 360 503 330 C 515 300 522 267 522 233 C 522 198 515 166 503 136 C 490 106 473 80 451 58 C 429 36 402 18 372 6 C 342 -6 309 -13 274 -13 Z M 274 61 C 298 61 320 65 341 74 C 362 82 380 94 396 110 C 411 126 423 144 432 165 C 440 186 445 209 445 233 C 445 257 440 280 432 301 C 423 322 411 340 396 356 C 380 371 362 383 341 392 C 320 400 298 405 274 405 C 250 405 227 400 206 392 C 185 383 167 371 152 356 C 136 340 124 322 116 301 C 107 280 103 257 103 233 C 103 209 107 186 116 165 C 124 144 136 126 152 110 C 167 94 185 82 206 74 C 227 65 250 61 274 61 Z M 330 639 L 428 639 L 310 517 L 239 517 L 330 639 Z" />
<glyph unicode="õ" horiz-adv-x="548" d="M 274 -13 C 238 -13 205 -6 175 6 C 145 18 119 36 97 58 C 75 80 57 106 45 136 C 32 166 26 198 26 233 C 26 267 32 300 45 330 C 57 360 75 386 97 408 C 119 430 145 447 175 460 C 205 472 238 479 274 479 C 309 479 342 472 372 460 C 402 447 429 430 451 408 C 473 386 490 360 503 330 C 515 300 522 267 522 233 C 522 198 515 166 503 136 C 490 106 473 80 451 58 C 429 36 402 18 372 6 C 342 -6 309 -13 274 -13 Z M 274 61 C 298 61 320 65 341 74 C 362 82 380 94 396 110 C 411 126 423 144 432 165 C 440 186 445 209 445 233 C 445 257 440 280 432 301 C 423 322 411 340 396 356 C 380 371 362 383 341 392 C 320 400 298 405 274 405 C 250 405 227 400 206 392 C 185 383 167 371 152 356 C 136 340 124 322 116 301 C 107 280 103 257 103 233 C 103 209 107 186 116 165 C 124 144 136 126 152 110 C 167 94 185 82 206 74 C 227 65 250 61 274 61 Z M 430 621 C 430 593 421 569 405 549 C 388 529 365 520 337 520 C 323 520 310 522 299 526 C 287 530 277 535 267 541 C 257 547 247 552 238 556 C 229 560 220 563 212 563 C 200 563 191 559 185 551 C 179 543 176 535 176 526 L 119 526 C 119 553 127 577 144 597 C 160 617 183 627 212 627 C 226 627 238 624 250 620 C 261 616 272 611 282 605 C 292 599 301 594 310 590 C 319 586 328 584 337 584 C 348 584 357 587 363 595 C 369 603 373 611 373 621 L 430 621 Z" />
<glyph unicode="÷" horiz-adv-x="586" d="M 244 104 L 345 104 L 345 0 L 244 0 L 244 104 Z M 244 502 L 345 502 L 345 398 L 244 398 L 244 502 Z M 42 214 L 42 288 L 544 288 L 544 214 L 42 214 Z" />
<glyph unicode="ù" horiz-adv-x="543" d="M 237 -13 C 177 -13 131 3 98 37 C 65 70 49 116 49 175 L 49 466 L 127 466 L 127 175 C 127 100 166 63 244 63 C 264 63 281 65 295 69 C 309 73 321 78 332 83 C 343 88 354 93 366 97 C 377 101 391 104 409 104 C 407 108 405 113 405 118 C 404 123 404 128 404 134 L 404 466 L 481 466 L 481 132 C 481 112 485 96 494 85 C 502 74 513 62 526 50 L 472 -5 C 462 4 453 12 445 18 C 437 24 426 28 410 28 C 398 28 386 25 376 21 C 366 17 354 12 342 7 C 329 2 314 -2 298 -6 C 281 -10 261 -13 237 -13 Z M 311 517 L 240 517 L 122 639 L 220 639 L 311 517 Z" />
<glyph unicode="ú" horiz-adv-x="543" d="M 237 -13 C 177 -13 131 3 98 37 C 65 70 49 116 49 175 L 49 466 L 127 466 L 127 175 C 127 100 166 63 244 63 C 264 63 281 65 295 69 C 309 73 321 78 332 83 C 343 88 354 93 366 97 C 377 101 391 104 409 104 C 407 108 405 113 405 118 C 404 123 404 128 404 134 L 404 466 L 481 466 L 481 132 C 481 112 485 96 494 85 C 502 74 513 62 526 50 L 472 -5 C 462 4 453 12 445 18 C 437 24 426 28 410 28 C 398 28 386 25 376 21 C 366 17 354 12 342 7 C 329 2 314 -2 298 -6 C 281 -10 261 -13 237 -13 Z M 322 639 L 420 639 L 302 517 L 231 517 L 322 639 Z" />
<glyph unicode="ý" horiz-adv-x="527" d="M 112 -131 L 134 -131 C 155 -131 172 -127 186 -121 C 200 -115 211 -101 221 -80 L 254 0 C 233 2 214 11 197 26 C 180 40 166 62 156 90 L 12 466 L 97 466 L 228 116 C 233 102 240 91 250 85 C 259 79 270 76 283 76 L 428 466 L 511 466 L 288 -114 C 263 -175 212 -206 136 -206 L 112 -206 L 112 -131 Z M 318 639 L 416 639 L 298 517 L 227 517 L 318 639 Z" />
<glyph unicode="ı" horiz-adv-x="179" d="M 52 466 L 127 466 L 127 0 L 52 0 L 52 466 Z" />
<glyph unicode="ƒ" horiz-adv-x="356" d="M 22 -132 C 64 -132 85 -111 85 -69 L 85 324 C 85 344 89 363 97 381 C 105 399 117 414 131 428 C 117 441 105 456 97 474 C 89 492 85 511 85 531 C 85 550 88 568 96 586 C 103 603 113 618 126 631 C 138 643 153 653 171 661 C 188 668 206 672 226 672 L 314 672 L 314 597 L 226 597 C 207 597 191 590 179 578 C 166 565 160 549 160 531 C 160 512 166 496 179 484 C 192 472 208 466 226 466 L 314 466 L 314 391 L 226 391 C 207 391 191 384 179 371 C 166 358 160 342 160 324 L 160 -69 C 160 -111 147 -144 123 -168 C 99 -192 66 -205 25 -206 L 22 -206 L 22 -132 Z" />
<glyph unicode="ˆ" horiz-adv-x="344" d="M 312 517 L 241 517 L 172 588 L 103 517 L 32 517 L 123 639 L 221 639 L 312 517 Z" />
<glyph unicode="ˇ" horiz-adv-x="344" d="M 221 517 L 123 517 L 32 639 L 103 639 L 172 568 L 241 639 L 312 639 L 221 517 Z" />
<glyph unicode="˜" horiz-adv-x="375" d="M 343 621 C 343 593 334 569 318 549 C 301 529 278 520 250 520 C 236 520 223 522 212 526 C 200 530 190 535 180 541 C 170 547 160 552 151 556 C 142 560 133 563 125 563 C 113 563 104 559 98 551 C 92 543 89 535 89 526 L 32 526 C 32 553 40 577 57 597 C 73 617 96 627 125 627 C 139 627 151 624 163 620 C 174 616 185 611 195 605 C 205 599 214 594 223 590 C 232 586 241 584 250 584 C 261 584 270 587 276 595 C 282 603 286 611 286 621 L 343 621 Z" />
<glyph unicode="–" horiz-adv-x="608" d="M 47 294 L 561 294 L 561 220 L 47 220 L 47 294 Z" />
<glyph unicode="—" horiz-adv-x="876" d="M 32 294 L 844 294 L 844 220 L 32 220 L 32 294 Z" />
<glyph unicode="‘" horiz-adv-x="180" d="M 140 617 C 123 617 111 613 104 606 C 97 599 94 588 94 573 L 140 573 L 140 473 L 40 473 L 40 573 C 40 605 48 630 66 647 C 84 663 108 672 140 672 L 140 617 Z" />
<glyph unicode="’" horiz-adv-x="180" d="M 40 528 C 56 528 68 531 75 538 C 82 545 86 556 86 572 L 40 572 L 40 672 L 140 672 L 140 572 C 140 539 131 514 113 498 C 95 481 71 473 40 473 L 40 528 Z" />
<glyph unicode="‚" horiz-adv-x="181" d="M 141 0 C 141 -33 132 -57 114 -72 C 96 -87 72 -96 40 -100 L 40 -45 C 52 -43 63 -40 72 -34 C 80 -28 85 -17 85 0 L 40 0 L 40 104 L 141 104 L 141 0 Z" />
<glyph unicode="“" horiz-adv-x="322" d="M 140 617 C 123 617 111 613 104 606 C 97 599 94 588 94 573 L 140 573 L 140 473 L 40 473 L 40 573 C 40 605 48 630 66 647 C 84 663 108 672 140 672 L 140 617 Z M 282 617 C 265 617 253 613 246 606 C 239 599 236 588 236 573 L 282 573 L 282 473 L 182 473 L 182 573 C 182 605 190 630 208 647 C 226 663 250 672 282 672 L 282 617 Z" />
<glyph unicode="”" horiz-adv-x="322" d="M 182 528 C 198 528 210 531 217 538 C 224 545 228 556 228 572 L 182 572 L 182 672 L 282 672 L 282 572 C 282 539 273 514 255 498 C 237 481 213 473 182 473 L 182 528 Z M 40 528 C 56 528 68 531 75 538 C 82 545 86 556 86 572 L 40 572 L 40 672 L 140 672 L 140 572 C 140 539 131 514 113 498 C 95 481 71 473 40 473 L 40 528 Z" />
<glyph unicode="„" horiz-adv-x="322" d="M 182 -44 C 198 -44 210 -40 217 -33 C 224 -26 228 -15 228 0 L 182 0 L 182 100 L 282 100 L 282 0 C 282 -32 273 -57 255 -74 C 237 -90 213 -99 182 -99 L 182 -44 Z M 40 -44 C 56 -44 68 -40 75 -33 C 82 -26 86 -15 86 0 L 40 0 L 40 100 L 140 100 L 140 0 C 140 -32 131 -57 113 -74 C 95 -90 71 -99 40 -99 L 40 -44 Z" />
<glyph unicode="†" horiz-adv-x="449" d="M 187 449 L 32 449 L 32 519 L 187 519 L 187 722 L 262 722 L 262 519 L 417 519 L 417 449 L 262 449 L 262 -50 L 187 -50 L 187 449 Z" />
<glyph unicode="•" horiz-adv-x="350" d="M 175 120 C 156 120 139 123 123 130 C 107 137 93 147 81 159 C 69 171 59 185 52 201 C 45 217 42 234 42 253 C 42 271 45 289 52 305 C 59 321 69 335 81 347 C 93 359 107 368 123 375 C 139 382 156 386 175 386 C 193 386 211 382 227 375 C 243 368 257 359 269 347 C 281 335 290 321 297 305 C 304 289 308 271 308 253 C 308 234 304 217 297 201 C 290 185 281 171 269 159 C 257 147 243 137 227 130 C 211 123 193 120 175 120 Z" />
<glyph unicode="…" horiz-adv-x="529" d="M 42 100 L 142 100 L 142 0 L 42 0 L 42 100 Z M 214 100 L 314 100 L 314 0 L 214 0 L 214 100 Z M 386 100 L 486 100 L 486 0 L 386 0 L 386 100 Z" />
<glyph unicode="‹" horiz-adv-x="262" d="M 230 43 L 153 43 L 32 233 L 153 423 L 230 423 L 109 233 L 230 43 Z" />
<glyph unicode="›" horiz-adv-x="262" d="M 163 233 L 42 423 L 119 423 L 240 233 L 119 43 L 42 43 L 163 233 Z" />
<glyph unicode="⁰" horiz-adv-x="343" d="M 172 261 C 153 261 135 264 119 271 C 102 277 87 286 75 298 C 63 310 53 324 46 340 C 38 356 35 373 35 392 L 35 552 C 35 570 38 588 46 604 C 53 620 63 634 75 646 C 87 658 102 667 119 674 C 135 680 153 684 172 684 C 190 684 208 680 224 674 C 240 667 255 658 267 646 C 279 634 289 620 297 604 C 304 588 308 570 308 552 L 308 392 C 308 372 304 355 297 339 C 289 323 279 309 267 298 C 255 286 240 277 224 271 C 208 264 190 261 172 261 Z M 172 316 C 193 316 211 323 226 337 C 241 351 249 369 249 391 L 249 553 C 249 574 241 592 226 606 C 211 620 193 628 172 628 C 150 628 132 620 117 606 C 101 592 94 574 94 553 L 94 391 C 94 369 101 351 117 337 C 132 323 150 316 172 316 Z" />
<glyph unicode="⁴" horiz-adv-x="353" d="M 223 344 L 53 344 C 43 344 35 347 29 353 C 23 359 20 367 20 377 C 20 382 21 387 25 393 L 214 672 L 286 672 L 98 400 L 223 400 L 223 497 L 282 497 L 282 400 L 336 400 L 336 344 L 282 344 L 282 270 L 223 270 L 223 344 Z" />
<glyph unicode="⁵" horiz-adv-x="333" d="M 93 449 C 87 445 81 444 73 444 C 63 444 56 447 50 453 C 44 459 42 467 44 478 L 74 672 L 286 672 L 286 616 L 120 616 L 104 508 C 116 513 128 517 140 521 C 152 524 165 526 177 526 C 197 526 216 522 232 515 C 248 507 262 497 274 485 C 285 473 293 458 299 442 C 305 426 308 408 308 390 C 308 370 304 353 297 337 C 289 321 279 308 267 296 C 255 284 240 275 224 269 C 207 263 189 260 171 260 C 151 260 133 263 116 269 C 99 275 84 283 72 295 C 59 306 49 320 41 336 C 33 352 30 370 30 390 L 88 390 C 88 364 96 345 112 333 C 128 321 147 315 171 315 C 194 315 213 321 227 335 C 241 349 249 367 249 390 C 249 412 242 431 229 447 C 215 463 196 472 172 472 C 158 472 143 469 129 465 C 115 461 103 455 93 449 Z" />
<glyph unicode="⁶" horiz-adv-x="345" d="M 173 261 C 153 261 134 264 117 271 C 100 277 85 286 73 298 C 61 310 51 324 45 340 C 38 356 35 373 35 392 L 35 553 C 35 571 38 589 45 605 C 52 621 62 634 74 646 C 86 658 100 667 117 674 C 133 680 151 684 171 684 C 210 684 242 672 268 649 C 293 626 306 595 306 555 L 248 555 C 248 579 240 598 226 610 C 212 622 193 628 171 628 C 148 628 129 621 115 607 C 101 593 94 575 94 553 L 94 501 C 105 505 117 509 131 514 C 144 519 160 522 178 522 C 219 522 251 510 275 486 C 298 462 310 430 310 392 C 310 373 306 356 299 340 C 292 324 282 310 270 298 C 258 286 243 277 227 271 C 210 264 192 261 173 261 Z M 173 317 C 195 317 214 324 229 338 C 243 352 251 370 251 392 C 251 414 244 433 230 447 C 216 461 197 468 174 468 C 164 468 156 467 150 466 C 144 465 138 464 132 462 C 126 460 121 457 115 455 C 109 452 102 449 94 446 L 94 392 C 94 370 101 352 116 338 C 130 324 149 317 173 317 Z" />
<glyph unicode="⁷" horiz-adv-x="307" d="M 219 614 L 15 614 L 15 672 L 265 672 C 274 672 281 669 286 663 C 290 657 293 650 293 643 C 293 638 291 632 289 626 L 126 270 L 59 270 L 219 614 Z" />
<glyph unicode="⁸" horiz-adv-x="334" d="M 167 315 C 190 315 210 322 226 337 C 242 352 251 371 251 394 C 251 410 246 424 237 437 C 228 449 217 460 204 470 C 196 475 193 482 193 492 C 193 500 197 508 205 514 C 214 521 221 529 226 537 C 231 545 234 556 234 568 C 234 586 227 601 215 613 C 203 625 187 631 167 631 C 147 631 130 625 118 613 C 106 601 100 586 100 568 C 100 556 102 545 107 537 C 112 529 119 521 129 514 C 137 508 141 500 141 492 C 141 482 137 475 130 470 C 116 460 105 449 96 437 C 87 424 83 410 83 394 C 83 371 91 352 107 337 C 123 322 143 315 167 315 Z M 167 261 C 147 261 128 264 110 270 C 92 276 77 284 65 295 C 52 306 42 320 35 336 C 27 352 24 369 24 389 C 24 411 29 431 40 449 C 51 467 64 481 80 493 C 70 502 61 514 53 528 C 45 542 42 558 42 574 C 42 607 54 634 78 654 C 102 674 131 684 167 684 C 202 684 232 674 256 654 C 280 634 292 607 292 574 C 292 558 288 542 280 528 C 272 514 264 502 254 493 C 269 481 282 467 293 449 C 304 431 310 411 310 389 C 310 369 306 352 299 336 C 291 320 281 306 269 295 C 256 284 241 276 223 270 C 205 264 187 261 167 261 Z" />
<glyph unicode="⁹" horiz-adv-x="330" d="M 162 684 C 182 684 200 680 217 674 C 234 667 249 658 261 646 C 273 634 283 621 290 605 C 296 589 300 571 300 553 L 300 392 C 300 373 296 356 290 340 C 283 324 274 310 262 299 C 250 287 235 278 219 272 C 203 265 185 262 166 262 C 146 262 128 265 111 271 C 94 277 79 285 67 297 C 55 308 45 321 38 337 C 31 353 28 371 28 391 L 86 391 C 86 366 93 347 109 335 C 124 323 143 317 166 317 C 188 317 206 323 220 337 C 234 351 241 369 241 392 L 241 445 C 229 441 217 436 205 431 C 192 425 177 423 159 423 C 117 423 85 435 61 459 C 37 483 25 514 25 553 C 25 571 28 589 35 605 C 42 621 52 634 64 646 C 76 658 91 667 108 674 C 124 680 142 684 162 684 Z M 162 628 C 139 628 120 621 106 607 C 91 593 84 575 84 553 C 84 530 91 512 105 498 C 119 484 137 477 161 477 C 169 477 177 477 184 478 C 190 479 196 481 202 483 C 208 485 214 487 220 490 C 226 492 233 495 241 499 L 241 553 C 241 575 233 593 219 607 C 204 621 185 628 162 628 Z" />
<glyph unicode="℠" horiz-adv-x="690" d="M 319 672 L 380 672 L 474 460 C 477 453 482 450 489 450 L 587 672 L 648 672 L 648 335 L 591 335 L 591 549 L 520 390 L 499 390 C 481 390 466 393 455 401 C 443 409 434 421 426 437 L 376 549 L 376 335 L 319 335 L 319 672 Z M 155 331 C 139 331 124 333 109 337 C 94 341 81 348 70 357 C 58 365 49 376 42 389 C 35 401 32 416 32 432 L 90 432 C 90 416 96 405 110 397 C 124 389 138 385 154 385 C 160 385 167 385 175 387 C 183 389 190 392 197 396 C 203 400 209 405 213 411 C 217 417 219 424 219 432 C 219 444 214 453 206 460 C 197 467 186 473 174 477 C 161 481 147 486 132 490 C 117 494 103 500 91 507 C 78 514 67 524 59 536 C 50 548 46 564 46 585 C 46 599 48 611 54 623 C 60 634 67 644 77 652 C 87 660 98 666 111 670 C 124 674 138 677 153 677 C 166 677 179 675 192 671 C 205 667 217 662 228 655 C 238 647 247 638 254 628 C 260 617 264 604 265 590 L 203 590 C 201 599 197 607 189 614 C 181 620 169 624 154 624 C 136 624 124 620 116 612 C 108 604 104 595 104 586 C 104 574 108 564 117 558 C 125 551 136 545 149 541 C 161 537 175 533 191 529 C 206 525 220 519 233 512 C 245 504 256 494 265 482 C 273 469 278 452 278 432 C 278 415 274 400 266 388 C 258 375 249 364 237 356 C 225 348 212 341 198 337 C 183 333 169 331 155 331 Z" />
<glyph unicode="™" horiz-adv-x="498" d="M 105 611 C 105 615 105 619 106 623 C 106 627 108 631 111 635 L 32 635 L 32 672 L 215 672 L 215 635 L 165 635 C 157 635 152 632 148 627 C 144 622 143 616 143 609 L 143 448 L 105 448 L 105 611 Z M 238 672 L 278 672 L 341 531 C 343 526 346 524 351 524 L 416 672 L 456 672 L 456 448 L 418 448 L 418 590 L 371 484 L 357 484 C 335 484 319 494 309 516 L 276 590 L 276 448 L 238 448 L 238 672 Z" />
<glyph unicode="−" horiz-adv-x="586" d="M 42 214 L 42 288 L 544 288 L 544 214 L 42 214 Z" />
<glyph unicode="≈" horiz-adv-x="586" d="M 156 329 C 134 329 115 325 97 319 C 79 312 60 303 42 293 L 42 372 C 60 383 78 391 98 397 C 117 402 136 405 156 405 C 182 405 206 402 228 397 C 250 391 272 385 294 379 C 315 373 337 367 359 362 C 381 356 404 354 430 354 C 452 354 471 356 489 362 C 506 368 524 377 544 390 L 544 311 C 508 289 470 278 430 278 C 404 278 380 280 358 286 C 335 291 313 297 291 303 C 269 309 247 315 225 321 C 203 326 180 329 156 329 Z M 156 147 C 134 147 115 143 97 137 C 79 130 60 121 42 111 L 42 190 C 60 201 78 209 98 215 C 117 220 136 223 156 223 C 182 223 206 220 228 215 C 250 209 272 203 294 197 C 315 191 337 185 359 180 C 381 174 404 172 430 172 C 452 172 471 174 489 180 C 506 186 524 195 544 208 L 544 129 C 508 107 470 96 430 96 C 404 96 380 98 358 104 C 335 109 313 115 291 121 C 269 127 247 133 225 139 C 203 144 180 147 156 147 Z" />
<glyph unicode="◊" horiz-adv-x="530" d="M 302 0 C 276 0 255 5 237 16 C 219 27 203 45 188 70 L 39 301 L 101 343 L 252 110 C 259 99 268 91 280 87 L 438 672 L 517 672 L 337 0 L 302 0 Z" />
<glyph unicode="﹩" horiz-adv-x="382" d="M 221 665 C 234 663 247 659 260 654 C 272 649 283 642 293 634 C 303 625 311 615 317 603 C 323 591 326 577 327 561 L 265 561 C 263 578 254 590 240 598 C 226 606 208 610 187 610 C 162 610 143 605 131 596 C 119 586 113 575 113 561 C 113 546 118 535 130 528 C 141 520 155 514 172 510 C 189 505 207 501 227 497 C 247 493 265 487 282 479 C 299 471 313 460 325 446 C 336 432 342 412 342 388 C 342 352 331 325 309 309 C 287 293 258 282 221 277 L 221 220 L 160 220 L 160 277 C 126 280 97 290 73 308 C 49 326 37 353 35 391 L 98 391 C 99 371 107 357 121 347 C 135 337 158 333 189 333 C 217 333 239 337 255 346 C 271 355 279 369 279 389 C 279 403 273 414 262 421 C 250 428 236 434 220 438 C 203 442 185 447 165 451 C 145 455 127 461 111 469 C 94 477 80 488 69 502 C 57 516 52 535 52 560 C 52 574 54 588 60 600 C 66 612 74 622 84 631 C 94 640 105 647 118 653 C 131 659 145 663 160 665 L 160 722 L 221 722 L 221 665 Z" />
<glyph unicode="＄" horiz-adv-x="382" d="M 221 615 C 234 613 247 609 260 604 C 272 599 283 592 293 584 C 303 575 311 565 317 553 C 323 541 326 527 327 511 L 265 511 C 263 528 254 540 240 548 C 226 556 208 560 187 560 C 162 560 143 555 131 546 C 119 536 113 525 113 511 C 113 496 118 485 130 478 C 141 470 155 464 172 460 C 189 455 207 451 227 447 C 247 443 265 437 282 429 C 299 421 313 410 325 396 C 336 382 342 362 342 338 C 342 302 331 275 309 259 C 287 243 258 232 221 227 L 221 170 L 160 170 L 160 227 C 126 230 97 240 73 258 C 49 276 37 303 35 341 L 98 341 C 99 321 107 307 121 297 C 135 287 158 283 189 283 C 217 283 239 287 255 296 C 271 305 279 319 279 339 C 279 353 273 364 262 371 C 250 378 236 384 220 388 C 203 392 185 397 165 401 C 145 405 127 411 111 419 C 94 427 80 438 69 452 C 57 466 52 485 52 510 C 52 524 54 538 60 550 C 66 562 74 572 84 581 C 94 590 105 597 118 603 C 131 609 145 613 160 615 L 160 672 L 221 672 L 221 615 Z" />
</font>
</defs>
</svg>
