<?xml version="1.0" encoding="utf-8" ?><svg version="1.1" xmlns='http://www.w3.org/2000/svg'><defs><font id='font' horiz-adv-x="1000">
<font-face font-family="font" bbox="-54,-218,3572,825" units-per-em="1000" ascent="760" x-height="466" cap-height="672" descent="-240" />
<missing-glyph horiz-adv-x="230" d="" /><glyph unicode=" " horiz-adv-x="220" d="" />
<glyph unicode="!" horiz-adv-x="174" d="M 75 672 L 99 672 L 99 147 L 75 147 L 75 672 Z M 75 77 L 99 77 L 99 0 L 75 0 L 75 77 Z" />
<glyph unicode="&#x22;" horiz-adv-x="218" d="M 60 485 L 55 565 L 55 672 L 81 672 L 81 565 L 76 485 L 60 485 Z M 142 485 L 137 565 L 137 672 L 163 672 L 163 565 L 158 485 L 142 485 Z" />
<glyph unicode="#" horiz-adv-x="601" d="M 66 459 L 213 459 L 241 672 L 264 672 L 236 459 L 397 459 L 425 672 L 448 672 L 420 459 L 566 459 L 566 437 L 417 437 L 391 235 L 535 235 L 535 213 L 388 213 L 360 0 L 337 0 L 365 213 L 204 213 L 176 0 L 153 0 L 181 213 L 35 213 L 35 235 L 184 235 L 210 437 L 66 437 L 66 459 Z M 207 235 L 368 235 L 394 437 L 233 437 L 207 235 Z" />
<glyph unicode="$" horiz-adv-x="462" d="M 242 672 L 242 617 C 282 615 316 602 343 580 C 370 557 385 524 388 482 L 364 482 C 362 501 357 518 349 532 C 341 546 331 558 319 568 C 307 577 293 584 278 589 C 262 593 246 596 230 596 C 212 596 195 593 179 589 C 163 584 149 577 137 568 C 125 558 115 547 108 533 C 101 519 98 504 98 486 C 98 458 106 437 122 422 C 138 406 157 393 181 383 C 205 373 230 364 258 356 C 286 348 311 339 335 328 C 359 316 379 302 395 284 C 411 266 419 241 419 211 C 419 185 414 162 405 143 C 395 124 383 108 367 96 C 351 84 332 75 311 69 C 289 63 266 59 242 59 L 242 0 L 218 0 L 218 59 C 168 61 126 75 94 101 C 62 127 46 164 46 212 L 70 212 C 70 188 75 168 85 152 C 94 135 106 121 121 111 C 136 100 153 92 173 88 C 192 83 212 81 233 81 C 255 81 275 83 295 89 C 315 94 332 102 347 113 C 361 124 373 138 382 154 C 390 170 395 189 395 211 C 395 237 387 258 371 274 C 355 289 335 302 311 312 C 287 322 262 330 234 338 C 206 346 181 355 157 367 C 133 379 114 394 98 412 C 82 430 74 454 74 486 C 74 524 87 555 114 579 C 140 602 175 615 218 617 L 218 672 L 242 672 Z" />
<glyph unicode="%" horiz-adv-x="644" d="M 132 0 L 487 672 L 513 672 L 158 0 L 132 0 Z M 308 133 C 308 153 311 172 319 190 C 327 208 337 223 350 236 C 363 249 378 259 396 267 C 414 275 433 279 453 279 C 473 279 492 275 510 267 C 528 259 543 249 556 236 C 569 223 579 208 587 190 C 595 172 599 153 599 133 C 599 113 595 94 587 76 C 579 58 569 43 556 30 C 543 17 528 7 510 0 C 492 -8 473 -12 453 -12 C 433 -12 414 -8 396 0 C 378 7 363 17 350 30 C 337 43 327 58 319 76 C 311 94 308 113 308 133 Z M 332 133 C 332 115 335 99 341 84 C 347 69 356 56 367 45 C 377 34 390 25 405 19 C 419 13 435 10 453 10 C 469 10 485 13 500 19 C 515 25 528 34 539 45 C 550 56 559 69 565 84 C 571 99 575 115 575 133 C 575 150 571 166 565 181 C 559 196 550 209 539 221 C 528 232 515 241 500 247 C 485 253 469 257 453 257 C 435 257 419 253 405 247 C 390 241 377 232 367 221 C 356 209 347 196 341 181 C 335 166 332 150 332 133 Z M 45 538 C 45 558 48 577 56 595 C 64 613 74 628 87 641 C 100 654 115 664 133 672 C 151 680 170 684 190 684 C 210 684 229 680 247 672 C 265 664 280 654 293 641 C 306 628 316 613 324 595 C 332 577 336 558 336 538 C 336 518 332 499 324 481 C 316 463 306 448 293 435 C 280 422 265 412 247 404 C 229 396 210 393 190 393 C 170 393 151 396 133 404 C 115 412 100 422 87 435 C 74 448 64 463 56 481 C 48 499 45 518 45 538 Z M 69 538 C 69 520 72 504 78 489 C 84 474 93 461 104 450 C 114 439 127 430 142 424 C 156 418 172 415 190 415 C 206 415 222 418 237 424 C 252 430 265 439 276 450 C 287 461 296 474 302 489 C 308 504 312 520 312 538 C 312 555 308 571 302 586 C 296 601 287 614 276 626 C 265 637 252 646 237 652 C 222 658 206 662 190 662 C 172 662 156 658 142 652 C 127 646 114 637 104 626 C 93 614 84 601 78 586 C 72 571 69 555 69 538 Z" />
<glyph unicode="&#x26;" horiz-adv-x="672" d="M 462 151 L 421 106 C 405 89 390 74 375 60 C 360 46 345 34 329 24 C 313 14 296 6 278 0 C 260 -5 240 -8 219 -8 C 191 -8 166 -4 143 4 C 120 12 100 23 84 37 C 67 51 54 69 44 89 C 34 109 30 132 30 158 C 30 185 35 208 45 228 C 55 248 68 265 84 280 C 100 295 118 308 139 319 C 160 330 182 341 204 352 L 237 368 C 224 380 212 392 200 406 C 188 420 177 434 168 449 C 158 463 151 478 145 494 C 139 510 137 526 137 544 C 137 566 141 585 150 602 C 159 618 171 632 185 644 C 199 655 215 663 233 669 C 251 675 268 678 286 678 C 307 678 327 674 345 668 C 363 661 378 652 391 640 C 404 628 414 613 422 596 C 429 579 433 560 433 540 C 433 513 424 486 407 459 C 389 432 365 410 334 393 C 324 387 315 382 305 377 C 295 372 285 367 275 362 L 460 184 C 481 208 504 236 529 267 C 554 298 581 332 609 370 L 629 355 C 599 317 571 283 546 252 C 521 221 498 193 477 168 L 652 0 L 618 0 L 462 151 Z M 445 167 L 254 351 C 247 347 240 344 234 341 C 227 337 220 334 213 331 C 197 323 179 314 161 305 C 142 295 125 284 109 271 C 93 258 79 242 69 224 C 58 206 53 184 53 159 C 53 139 56 121 64 104 C 72 86 83 71 97 58 C 111 44 129 34 150 26 C 170 18 194 15 220 15 C 256 15 288 24 316 44 C 344 63 375 90 407 125 L 445 167 Z M 160 545 C 160 527 163 509 170 493 C 176 477 185 462 195 448 C 205 434 215 421 227 409 C 238 397 248 387 258 378 C 269 384 280 389 291 395 C 302 400 312 406 322 412 C 352 430 375 450 389 472 C 403 494 410 516 410 540 C 410 574 399 601 377 623 C 355 645 324 656 286 656 C 268 656 252 653 237 648 C 221 642 208 635 197 625 C 185 615 176 604 170 590 C 163 576 160 561 160 545 Z" />
<glyph unicode="'" horiz-adv-x="136" d="M 60 485 L 55 565 L 55 672 L 81 672 L 81 565 L 76 485 L 60 485 Z" />
<glyph unicode="(" horiz-adv-x="266" d="M 69 313 C 69 275 72 236 80 198 C 88 160 99 122 113 86 C 127 50 144 15 164 -18 C 184 -52 206 -84 231 -114 L 201 -114 C 153 -53 115 12 87 83 C 59 153 45 230 45 313 C 45 395 59 472 87 543 C 115 613 153 679 201 740 L 231 740 C 206 710 184 678 164 644 C 144 610 127 575 113 539 C 99 503 88 465 80 427 C 72 389 69 351 69 313 Z" />
<glyph unicode=")" horiz-adv-x="266" d="M 197 313 C 197 351 193 389 185 427 C 177 465 167 503 153 539 C 139 575 122 610 102 644 C 82 678 59 710 35 740 L 65 740 C 111 679 149 613 178 543 C 206 472 221 395 221 313 C 221 230 206 153 178 83 C 149 12 111 -53 65 -114 L 35 -114 C 59 -84 82 -52 102 -18 C 122 15 139 50 153 86 C 167 122 177 160 185 198 C 193 236 197 275 197 313 Z" />
<glyph unicode="*" horiz-adv-x="393" d="M 189 491 L 62 397 L 45 417 L 184 503 L 45 589 L 62 609 L 190 514 L 184 672 L 209 672 L 203 514 L 331 609 L 348 589 L 209 503 L 348 417 L 331 397 L 204 491 L 209 335 L 184 335 L 189 491 Z" />
<glyph unicode="+" horiz-adv-x="592" d="M 285 240 L 45 240 L 45 262 L 285 262 L 285 502 L 307 502 L 307 262 L 547 262 L 547 240 L 307 240 L 307 0 L 285 0 L 285 240 Z" />
<glyph unicode="," horiz-adv-x="141" d="M 25 -86 C 43 -86 55 -80 63 -70 C 70 -59 74 -45 74 -27 L 74 0 L 48 0 L 48 50 L 96 50 L 96 -27 C 96 -52 90 -72 78 -86 C 66 -100 48 -108 25 -108 L 25 -86 Z" />
<glyph unicode="-" horiz-adv-x="309" d="M 45 272 L 264 272 L 264 250 L 45 250 L 45 272 Z" />
<glyph unicode="." horiz-adv-x="138" d="M 45 50 L 93 50 L 93 0 L 45 0 L 45 50 Z" />
<glyph unicode="/" horiz-adv-x="346" d="M 297 702 L 321 702 L 49 -30 L 25 -30 L 297 702 Z" />
<glyph unicode="0" horiz-adv-x="530" d="M 264 -12 C 236 -12 209 -6 185 3 C 160 13 138 28 120 46 C 102 64 87 85 76 109 C 65 133 60 160 60 188 L 60 485 C 60 513 65 539 76 563 C 87 587 102 608 120 626 C 138 644 160 658 185 668 C 209 678 236 684 264 684 C 292 684 318 679 343 669 C 367 659 389 645 408 627 C 427 609 442 587 453 563 C 464 539 470 513 470 485 L 470 188 C 470 160 464 133 453 109 C 442 85 427 64 408 46 C 389 28 367 13 343 3 C 318 -6 292 -12 264 -12 Z M 264 10 C 288 10 311 14 333 24 C 355 33 374 46 391 62 C 407 78 421 96 431 118 C 441 140 446 163 446 188 L 446 485 C 446 509 441 532 431 554 C 421 576 408 595 392 611 C 375 627 356 639 334 648 C 312 657 288 662 264 662 C 240 662 217 657 195 648 C 173 638 153 626 137 610 C 121 594 108 575 98 553 C 88 531 84 508 84 484 L 84 188 C 84 164 88 141 98 119 C 108 97 121 78 138 62 C 154 46 173 33 195 24 C 217 14 240 10 264 10 Z" />
<glyph unicode="1" horiz-adv-x="305" d="M 181 650 L 60 650 L 60 672 L 193 672 C 197 672 200 670 202 667 C 204 664 205 661 205 658 L 205 0 L 181 0 L 181 650 Z" />
<glyph unicode="2" horiz-adv-x="504" d="M 55 0 C 51 0 47 1 45 3 C 43 5 42 8 42 12 C 42 16 43 19 46 22 L 370 361 C 379 371 387 380 395 390 C 402 399 408 409 413 420 C 418 430 422 442 424 454 C 426 466 428 480 428 496 C 428 519 423 541 414 561 C 405 581 393 598 377 613 C 361 628 341 640 319 649 C 297 657 273 662 247 662 C 219 662 195 657 173 649 C 151 640 132 628 116 613 C 100 598 87 580 78 560 C 69 540 64 518 64 496 L 40 496 C 40 521 45 545 55 568 C 65 591 79 611 97 628 C 115 645 136 659 162 669 C 187 679 215 684 247 684 C 277 684 304 679 329 670 C 354 660 376 647 394 631 C 412 614 426 594 436 571 C 446 548 452 523 452 496 C 452 462 446 433 435 411 C 423 388 407 366 387 345 L 78 22 L 464 22 L 464 0 L 55 0 L 55 0 Z" />
<glyph unicode="3" horiz-adv-x="508" d="M 258 -12 C 220 -12 187 -6 159 5 C 131 16 108 31 90 51 C 71 71 57 94 48 120 C 39 146 35 175 35 205 L 59 205 C 59 177 63 151 71 127 C 79 103 91 83 108 66 C 124 48 145 35 170 25 C 195 15 224 10 258 10 C 285 10 310 14 334 24 C 357 34 377 47 394 64 C 411 81 424 102 434 126 C 444 150 449 176 449 204 C 449 222 446 239 441 255 C 435 270 428 284 420 296 C 411 308 401 319 390 329 C 379 338 368 346 356 354 C 350 357 347 362 347 368 C 347 370 347 372 349 375 C 351 378 353 380 356 382 C 361 386 367 391 375 397 C 382 403 389 411 396 421 C 402 431 408 442 413 455 C 417 467 420 482 420 499 C 420 521 415 543 407 563 C 399 583 387 600 372 615 C 356 629 338 641 317 650 C 296 658 273 663 249 663 C 223 663 200 658 179 650 C 157 642 139 630 124 616 C 109 601 97 584 89 564 C 81 544 77 522 77 500 L 53 500 C 53 526 57 550 67 572 C 76 594 89 614 107 630 C 124 646 145 659 169 669 C 193 679 219 684 249 684 C 277 684 304 679 328 670 C 352 660 372 647 390 631 C 407 614 420 594 430 572 C 439 550 444 525 444 499 C 444 471 437 446 423 423 C 409 400 394 382 376 369 C 403 351 426 328 445 300 C 463 271 473 239 473 203 C 473 172 467 144 457 118 C 447 92 432 69 413 50 C 394 30 371 15 345 4 C 319 -6 290 -12 258 -12 Z" />
<glyph unicode="4" horiz-adv-x="535" d="M 391 141 L 49 141 C 39 141 35 145 35 155 C 35 159 36 163 39 166 L 385 672 L 414 672 L 65 163 L 391 163 L 391 371 L 415 371 L 415 163 L 500 163 L 500 141 L 415 141 L 415 0 L 391 0 L 391 141 Z" />
<glyph unicode="5" horiz-adv-x="509" d="M 254 -12 C 223 -12 195 -6 170 5 C 145 16 124 31 106 50 C 88 69 74 91 64 116 C 54 141 50 167 50 195 L 74 195 C 74 169 78 144 87 122 C 95 99 108 79 124 63 C 140 47 159 34 181 24 C 203 14 227 10 254 10 C 280 10 304 14 326 24 C 348 34 367 47 383 64 C 399 80 412 100 422 123 C 431 145 436 169 436 195 C 436 220 431 244 422 266 C 412 288 400 307 384 324 C 368 340 349 353 327 363 C 305 372 282 377 258 377 C 225 377 196 371 171 361 C 145 350 121 335 99 316 C 96 313 93 311 91 311 C 88 310 86 310 84 310 C 76 310 72 314 74 324 L 122 672 L 421 672 L 421 650 L 142 650 L 99 341 C 118 357 141 370 169 382 C 196 393 226 399 258 399 C 286 399 312 393 337 383 C 361 373 383 358 401 340 C 419 322 433 300 444 275 C 454 250 460 223 460 195 C 460 167 454 141 444 116 C 434 91 419 69 401 50 C 382 31 360 16 335 5 C 310 -6 283 -12 254 -12 Z" />
<glyph unicode="6" horiz-adv-x="534" d="M 266 -12 C 238 -12 212 -7 188 2 C 163 12 141 26 122 44 C 103 62 88 83 77 109 C 65 134 60 162 60 194 L 60 487 C 60 512 64 536 74 560 C 84 584 98 605 116 623 C 134 641 155 656 181 667 C 207 678 236 684 268 684 C 296 684 322 679 347 669 C 372 659 394 645 413 627 C 432 609 447 589 459 565 C 470 541 476 514 476 486 L 452 486 C 452 510 447 533 437 555 C 427 576 414 595 398 611 C 381 627 361 639 339 648 C 317 657 293 662 268 662 C 239 662 213 656 191 646 C 168 636 149 622 133 606 C 117 589 104 570 96 549 C 88 528 84 507 84 487 L 84 349 C 96 349 108 352 120 358 C 132 364 145 370 159 377 C 173 384 189 391 207 397 C 225 403 246 406 272 406 C 306 406 336 400 362 389 C 388 377 409 362 427 342 C 444 322 457 300 466 274 C 474 248 479 222 479 194 C 479 162 473 134 462 109 C 451 83 436 62 417 44 C 397 26 375 12 349 2 C 323 -7 296 -12 266 -12 Z M 266 10 C 292 10 317 14 340 24 C 363 33 383 46 400 62 C 417 78 430 98 440 120 C 450 142 455 167 455 194 C 455 220 451 244 443 268 C 435 291 423 311 407 328 C 391 345 372 359 350 369 C 327 379 301 384 272 384 C 248 384 227 381 210 375 C 193 369 178 362 164 355 C 150 348 137 342 125 336 C 113 330 99 328 84 328 L 84 194 C 84 167 88 142 98 120 C 108 98 121 78 138 62 C 154 46 174 33 196 24 C 218 14 241 10 266 10 Z" />
<glyph unicode="7" horiz-adv-x="492" d="M 436 650 L 25 650 L 25 672 L 457 672 C 463 672 467 668 467 661 C 467 658 466 655 465 653 L 171 0 L 143 0 L 436 650 Z" />
<glyph unicode="8" horiz-adv-x="538" d="M 269 -12 C 237 -12 207 -6 180 4 C 152 15 129 30 109 49 C 89 68 73 90 62 116 C 50 142 45 170 45 200 C 45 238 54 271 73 300 C 92 328 115 352 141 370 C 123 384 108 402 95 425 C 82 447 76 473 76 503 C 76 530 81 555 91 577 C 101 599 115 618 133 634 C 150 650 170 662 194 671 C 218 679 243 684 269 684 C 295 684 319 679 343 671 C 367 662 387 650 405 634 C 422 618 436 599 446 577 C 456 555 462 530 462 503 C 462 473 455 446 442 424 C 428 402 413 384 396 371 C 408 361 420 351 432 339 C 444 327 454 314 463 300 C 472 286 479 270 485 253 C 490 236 493 218 493 200 C 493 170 487 142 475 116 C 463 90 447 68 427 49 C 407 30 383 15 356 4 C 328 -6 299 -12 269 -12 Z M 269 10 C 295 10 320 14 344 24 C 368 33 389 46 407 63 C 425 79 440 99 452 123 C 463 146 469 172 469 200 C 469 218 466 236 461 252 C 455 268 448 282 440 295 C 432 308 422 320 411 330 C 400 340 389 349 378 356 C 372 359 369 363 369 369 C 369 371 369 373 370 375 C 371 377 374 380 378 383 C 382 386 388 391 395 398 C 402 404 409 413 415 423 C 421 433 427 444 431 457 C 435 470 438 485 438 502 C 438 524 433 545 425 565 C 417 585 405 602 391 616 C 376 630 358 642 337 650 C 316 658 293 662 269 662 C 243 662 220 658 200 650 C 179 642 161 630 147 616 C 132 602 120 585 112 565 C 104 545 100 524 100 502 C 100 485 102 470 106 457 C 110 443 116 432 122 422 C 128 412 135 403 142 397 C 148 390 154 385 159 383 C 165 379 168 375 168 370 C 168 364 164 359 158 356 C 146 349 135 341 125 331 C 115 321 105 309 97 296 C 88 282 81 268 76 252 C 71 236 69 218 69 200 C 69 172 74 147 85 124 C 95 100 110 80 128 63 C 146 46 167 33 191 24 C 215 14 241 10 269 10 Z" />
<glyph unicode="9" horiz-adv-x="534" d="M 268 684 C 295 684 321 679 346 669 C 370 659 392 646 411 628 C 430 610 445 588 457 563 C 468 537 474 509 474 478 L 474 185 C 474 159 469 135 459 111 C 449 87 436 66 418 48 C 400 30 378 15 352 4 C 326 -6 298 -12 266 -12 C 238 -12 211 -7 186 3 C 160 13 138 26 119 44 C 100 62 85 83 74 107 C 63 131 58 157 58 186 L 82 186 C 82 161 86 138 96 117 C 106 95 119 77 136 61 C 152 45 172 32 194 23 C 216 14 240 10 266 10 C 294 10 320 15 343 25 C 365 35 385 49 401 66 C 417 82 429 101 437 122 C 445 143 450 164 450 185 L 450 327 C 437 327 425 324 413 318 C 401 312 389 305 375 298 C 361 291 345 285 327 279 C 309 273 287 270 262 270 C 228 270 198 275 172 286 C 146 297 125 312 108 331 C 90 349 77 371 68 396 C 59 421 55 447 55 475 C 55 506 60 534 71 560 C 82 586 97 608 117 626 C 136 644 158 659 184 669 C 210 679 238 684 268 684 Z M 268 662 C 241 662 216 657 193 647 C 170 637 150 624 133 608 C 116 591 103 571 93 549 C 83 526 79 501 79 475 C 79 449 83 425 91 403 C 99 381 111 361 127 345 C 143 328 162 315 185 306 C 207 296 233 292 262 292 C 286 292 306 294 323 300 C 340 306 355 312 369 319 C 383 326 396 333 408 339 C 420 345 434 348 450 348 L 450 478 C 450 504 445 529 435 551 C 425 573 412 593 396 609 C 379 625 360 638 338 648 C 316 657 292 662 268 662 Z" />
<glyph unicode=":" horiz-adv-x="158" d="M 55 50 L 103 50 L 103 0 L 55 0 L 55 50 Z M 55 466 L 103 466 L 103 416 L 55 416 L 55 466 Z" />
<glyph unicode=";" horiz-adv-x="161" d="M 58 466 L 106 466 L 106 416 L 58 416 L 58 466 Z M 35 -86 C 53 -86 65 -80 73 -70 C 80 -59 84 -45 84 -27 L 84 0 L 58 0 L 58 50 L 106 50 L 106 -27 C 106 -52 100 -72 88 -86 C 76 -100 58 -108 35 -108 L 35 -86 Z" />
<glyph unicode="&#x3C;" horiz-adv-x="546" d="M 45 258 L 501 491 L 501 467 L 67 246 L 501 24 L 501 1 L 45 234 L 45 258 L 45 258 Z" />
<glyph unicode="=" horiz-adv-x="592" d="M 45 316 L 45 338 L 547 338 L 547 316 L 45 316 Z M 45 164 L 45 186 L 547 186 L 547 164 L 45 164 Z" />
<glyph unicode="&#x3E;" horiz-adv-x="546" d="M 501 258 L 501 234 L 45 1 L 45 24 L 479 246 L 45 467 L 45 491 L 501 258 Z" />
<glyph unicode="?" horiz-adv-x="415" d="M 183 82 L 207 82 L 207 0 L 183 0 L 183 82 Z M 183 247 C 183 267 187 285 196 301 C 204 317 215 331 228 344 C 240 356 254 369 269 381 C 284 393 298 405 311 419 C 323 432 334 447 343 463 C 351 479 356 498 356 520 C 356 541 352 560 344 578 C 336 595 326 610 313 623 C 299 635 284 645 266 652 C 248 658 228 662 207 662 C 163 662 127 649 100 623 C 72 597 59 563 59 519 L 59 514 L 35 514 L 35 519 C 35 544 39 567 48 587 C 56 607 68 625 83 639 C 98 653 116 664 137 672 C 158 680 181 684 207 684 C 231 684 253 680 275 672 C 296 664 314 653 330 639 C 345 625 357 607 366 587 C 375 567 380 544 380 520 C 380 496 375 475 367 457 C 358 439 347 423 335 409 C 322 395 308 382 293 370 C 278 358 264 346 252 334 C 239 322 228 309 220 295 C 211 281 207 265 207 247 L 207 176 L 183 176 L 183 247 Z" />
<glyph unicode="@" horiz-adv-x="758" d="M 372 70 C 388 70 403 72 417 76 C 431 80 443 85 455 90 C 467 95 478 100 488 104 C 498 108 509 111 519 111 C 524 111 528 110 531 110 C 529 114 527 118 526 122 C 524 126 524 130 524 136 L 524 353 C 509 353 496 355 485 360 C 473 364 462 369 451 375 C 439 380 427 385 415 390 C 403 394 389 397 373 397 C 347 397 324 392 304 384 C 283 376 265 364 251 350 C 236 336 225 319 217 299 C 209 279 206 257 206 234 C 206 211 209 190 217 170 C 225 150 236 132 251 118 C 265 103 283 91 303 83 C 323 74 346 70 372 70 Z M 381 -110 C 333 -110 289 -101 247 -85 C 205 -68 168 -44 137 -14 C 105 15 80 52 62 94 C 44 136 35 182 35 234 C 35 282 44 326 62 368 C 80 410 105 446 137 477 C 168 508 205 532 247 550 C 289 568 333 577 381 577 C 429 577 473 568 515 551 C 557 533 593 509 624 479 C 654 448 678 412 696 371 C 714 330 723 286 723 240 C 723 217 720 195 716 174 C 712 153 705 135 696 119 C 686 103 675 90 661 80 C 647 70 630 66 610 66 C 597 66 586 67 578 69 C 569 71 561 74 555 77 C 549 79 543 82 538 84 C 532 86 527 88 521 88 C 511 88 501 85 491 81 C 481 77 471 72 460 67 C 449 62 436 58 422 54 C 408 50 391 48 372 48 C 343 48 317 52 294 62 C 270 71 250 84 234 101 C 217 117 204 137 195 160 C 186 182 182 207 182 234 C 182 260 186 284 195 307 C 204 329 217 349 234 366 C 250 382 270 395 294 405 C 318 414 344 419 373 419 C 389 419 404 416 418 412 C 431 407 443 402 455 396 C 467 390 478 385 489 381 C 500 376 512 374 524 374 L 524 406 L 548 406 L 548 143 C 548 125 552 111 562 101 C 572 91 588 87 612 87 C 627 87 640 91 651 100 C 662 109 671 121 678 135 C 685 149 690 166 694 184 C 697 202 699 221 699 240 C 699 284 691 326 675 364 C 659 402 637 436 609 464 C 581 492 547 515 508 531 C 469 547 427 555 381 555 C 337 555 295 546 256 530 C 217 514 183 491 154 463 C 124 435 101 401 84 362 C 67 322 59 280 59 234 C 59 186 67 142 84 103 C 100 63 123 30 152 2 C 181 -26 215 -47 254 -63 C 293 -78 335 -86 381 -86 C 391 -86 404 -85 418 -83 C 432 -81 446 -78 461 -75 C 475 -71 490 -67 504 -63 C 518 -59 530 -54 541 -49 L 552 -72 C 540 -77 527 -82 513 -87 C 498 -91 483 -95 467 -99 C 451 -102 436 -105 421 -107 C 406 -109 393 -110 381 -110 Z" />
<glyph unicode="A" horiz-adv-x="578" d="M 274 672 L 304 672 L 558 0 L 532 0 L 452 210 L 221 210 C 187 210 160 204 141 193 C 122 182 107 163 97 135 L 46 0 L 20 0 L 274 672 Z M 121 201 C 133 212 148 220 164 225 C 180 229 199 232 221 232 L 445 232 L 289 642 L 121 201 Z" />
<glyph unicode="B" horiz-adv-x="557" d="M 65 672 L 315 672 C 342 672 367 667 389 657 C 411 647 429 634 445 618 C 460 601 472 582 480 560 C 488 538 493 516 493 492 C 493 474 490 458 485 442 C 479 426 472 412 462 399 C 452 385 441 374 429 364 C 416 354 402 346 388 341 C 433 329 467 309 489 280 C 511 250 522 218 522 183 C 522 157 517 133 508 111 C 498 89 486 69 470 53 C 454 36 434 23 412 14 C 390 4 366 0 340 0 L 65 0 L 65 672 Z M 340 22 C 364 22 386 26 406 35 C 425 44 441 56 455 71 C 469 86 479 103 487 123 C 494 142 498 162 498 183 C 498 203 494 222 486 240 C 478 257 467 272 453 285 C 439 297 422 307 403 314 C 383 321 362 325 340 325 L 204 325 C 188 325 173 322 159 316 C 145 310 133 302 123 292 C 112 281 104 268 98 254 C 92 239 89 223 89 205 L 89 22 L 340 22 Z M 89 282 C 100 301 115 317 134 329 C 152 341 175 347 203 347 L 317 347 C 339 347 360 351 379 359 C 397 367 413 378 427 392 C 440 406 450 421 458 438 C 465 455 469 472 469 490 C 469 512 465 533 457 553 C 449 573 439 590 425 604 C 411 618 395 630 376 638 C 357 646 336 650 314 650 L 89 650 L 89 282 Z" />
<glyph unicode="C" horiz-adv-x="716" d="M 371 -12 C 325 -12 282 -2 242 15 C 202 33 166 58 135 90 C 104 121 80 158 62 200 C 44 242 35 287 35 335 C 35 385 44 431 63 473 C 81 515 106 552 138 584 C 170 615 206 639 248 657 C 290 675 334 684 381 684 C 415 684 447 678 478 667 C 509 655 538 640 564 620 C 590 600 613 577 633 551 C 653 525 669 497 681 467 L 656 467 C 644 493 629 518 611 542 C 592 566 571 586 547 604 C 523 622 496 636 468 646 C 440 656 411 662 381 662 C 337 662 296 653 257 636 C 218 619 184 596 155 567 C 125 537 102 503 85 463 C 67 423 59 381 59 335 C 59 289 67 247 85 208 C 102 168 125 134 154 105 C 183 75 216 52 254 35 C 292 18 331 10 371 10 C 401 10 431 14 461 24 C 490 34 517 47 542 64 C 567 81 589 101 609 125 C 628 148 644 173 656 200 L 681 200 C 668 168 651 140 630 114 C 609 88 585 65 558 47 C 531 28 502 13 470 3 C 438 -6 405 -12 371 -12 Z" />
<glyph unicode="D" horiz-adv-x="624" d="M 65 672 L 277 672 C 325 672 368 663 406 645 C 444 627 477 603 504 573 C 531 543 552 507 567 467 C 581 426 589 382 589 336 C 589 289 581 245 567 205 C 552 164 531 128 504 98 C 477 68 444 44 406 26 C 368 8 325 0 277 0 L 65 0 L 65 672 Z M 277 22 C 323 22 364 30 400 47 C 436 64 466 87 490 116 C 514 145 533 178 546 216 C 558 254 565 294 565 336 C 565 378 558 417 546 455 C 533 493 514 526 490 555 C 466 584 436 607 400 624 C 364 641 323 650 277 650 L 89 650 L 89 22 L 277 22 Z" />
<glyph unicode="E" horiz-adv-x="545" d="M 65 672 L 485 672 L 485 650 L 89 650 L 89 290 C 91 295 96 301 102 308 C 108 315 115 322 123 328 C 131 334 141 339 153 343 C 165 347 178 349 193 349 L 481 349 L 481 327 L 193 327 C 179 327 165 324 153 318 C 140 312 129 305 120 295 C 110 285 103 274 97 261 C 91 247 89 233 89 217 L 89 22 L 485 22 L 485 0 L 65 0 L 65 672 Z" />
<glyph unicode="F" horiz-adv-x="550" d="M 65 0 L 65 672 L 485 672 L 485 650 L 89 650 L 89 290 C 91 295 96 301 102 308 C 108 315 115 322 123 328 C 131 334 141 339 153 343 C 165 347 178 349 193 349 L 481 349 L 481 327 L 193 327 C 179 327 165 324 153 318 C 140 312 129 305 120 295 C 110 285 103 274 97 261 C 91 247 89 233 89 217 L 89 0 L 65 0 Z" />
<glyph unicode="G" horiz-adv-x="740" d="M 374 -12 C 326 -12 281 -2 240 15 C 198 33 162 58 132 90 C 102 121 78 158 61 200 C 43 242 35 287 35 335 C 35 385 44 431 62 473 C 80 515 105 552 137 584 C 168 615 204 639 246 657 C 287 675 331 684 378 684 C 412 684 444 678 475 667 C 506 655 535 640 561 620 C 587 600 611 578 632 552 C 652 526 669 498 681 468 L 655 468 C 643 494 628 518 610 542 C 591 565 569 586 545 604 C 521 622 494 636 466 646 C 438 656 408 662 378 662 C 334 662 292 653 254 636 C 215 619 181 596 152 567 C 123 537 100 503 84 463 C 67 423 59 381 59 335 C 59 289 67 247 84 208 C 100 168 123 134 151 105 C 179 75 213 52 251 35 C 289 18 330 10 374 10 C 415 10 454 18 490 34 C 526 50 557 72 585 100 C 612 127 634 158 651 194 C 668 230 678 267 682 306 L 370 306 L 370 328 L 705 328 C 705 288 697 248 682 208 C 667 168 645 131 617 99 C 588 66 553 39 513 19 C 472 -1 426 -12 374 -12 Z" />
<glyph unicode="H" horiz-adv-x="605" d="M 516 0 L 516 327 L 195 327 C 181 327 167 324 155 319 C 142 313 131 306 121 296 C 111 286 103 275 97 262 C 91 248 89 233 89 217 L 89 0 L 65 0 L 65 672 L 89 672 L 89 289 C 91 294 96 300 102 307 C 108 314 115 321 124 327 C 132 333 142 338 154 342 C 166 346 179 349 194 349 L 516 349 L 516 672 L 540 672 L 540 0 L 516 0 Z" />
<glyph unicode="I" horiz-adv-x="184" d="M 80 672 L 104 672 L 104 0 L 80 0 L 80 672 Z" />
<glyph unicode="J" horiz-adv-x="568" d="M 270 -12 C 237 -12 207 -6 179 5 C 151 17 126 33 106 53 C 85 73 69 98 57 127 C 45 155 40 187 40 221 L 64 221 C 64 189 69 161 79 135 C 89 109 104 87 122 69 C 140 50 162 35 187 25 C 212 15 240 10 270 10 C 299 10 326 15 352 26 C 378 36 400 51 419 70 C 437 89 452 111 463 137 C 473 163 479 191 479 221 L 479 672 L 503 672 L 503 222 C 503 186 496 154 484 126 C 472 97 455 72 434 52 C 412 31 387 15 359 4 C 331 -6 301 -12 270 -12 Z" />
<glyph unicode="K" horiz-adv-x="544" d="M 65 672 L 89 672 L 89 347 L 128 347 C 145 347 159 347 171 349 C 183 350 193 353 203 358 C 213 363 222 370 232 380 C 242 389 253 401 267 417 L 488 672 L 519 672 L 270 385 C 256 369 244 358 232 350 C 220 342 210 338 203 336 C 210 334 219 328 231 320 C 243 312 255 300 269 285 L 516 0 L 483 0 L 268 250 C 254 266 243 278 233 288 C 223 298 214 305 204 311 C 194 316 183 320 171 322 C 159 324 145 325 128 325 L 89 325 L 89 0 L 65 0 L 65 672 Z" />
<glyph unicode="L" horiz-adv-x="523" d="M 65 672 L 89 672 L 89 22 L 488 22 L 488 0 L 65 0 L 65 672 Z" />
<glyph unicode="M" horiz-adv-x="754" d="M 65 672 L 90 672 L 377 192 L 664 672 L 689 672 L 689 0 L 665 0 L 665 628 L 385 160 L 384 160 C 374 160 367 164 362 173 L 89 628 L 89 0 L 65 0 L 65 672 Z" />
<glyph unicode="N" horiz-adv-x="637" d="M 65 672 L 89 672 L 485 64 C 496 46 506 35 514 30 C 522 24 533 22 548 22 L 548 672 L 572 672 L 572 0 L 548 0 C 536 0 527 0 519 2 C 511 3 505 5 500 9 C 494 13 489 17 485 23 C 480 29 475 36 470 44 L 89 628 L 89 0 L 65 0 L 65 672 Z" />
<glyph unicode="O" horiz-adv-x="765" d="M 382 -12 C 334 -12 289 -3 247 15 C 205 33 168 57 136 89 C 104 121 80 158 62 200 C 44 242 35 287 35 335 C 35 383 44 428 62 470 C 80 512 104 549 136 581 C 168 613 205 638 247 656 C 289 674 334 684 382 684 C 430 684 475 674 517 656 C 559 638 596 613 628 581 C 659 549 684 512 702 470 C 720 428 730 383 730 335 C 730 287 720 242 702 200 C 684 158 659 121 628 89 C 596 57 559 33 517 15 C 475 -3 430 -12 382 -12 Z M 382 10 C 426 10 468 18 508 35 C 547 52 581 75 611 105 C 640 135 663 169 680 209 C 697 248 706 290 706 335 C 706 379 697 421 680 461 C 663 501 640 535 611 565 C 581 595 547 618 508 636 C 468 653 426 662 382 662 C 337 662 295 653 256 636 C 216 618 182 595 153 565 C 124 535 101 501 84 461 C 67 421 59 379 59 335 C 59 290 67 248 84 209 C 101 169 124 135 153 105 C 182 75 216 52 256 35 C 295 18 337 10 382 10 Z" />
<glyph unicode="P" horiz-adv-x="565" d="M 65 672 L 335 672 C 363 672 390 666 414 656 C 438 646 458 632 475 614 C 492 596 505 575 515 551 C 525 527 530 501 530 473 C 530 446 525 421 515 398 C 505 374 491 354 474 337 C 456 320 436 307 412 297 C 388 287 363 282 335 282 L 196 282 C 182 282 168 279 155 273 C 142 267 131 260 121 250 C 111 240 104 229 98 216 C 92 202 89 188 89 172 L 89 0 L 65 0 L 65 672 Z M 89 244 C 102 268 118 284 136 292 C 154 300 173 304 191 304 L 335 304 C 359 304 381 308 402 317 C 422 325 440 337 456 352 C 471 367 483 385 492 406 C 501 426 506 449 506 473 C 506 497 501 519 493 541 C 485 562 473 581 458 597 C 443 613 425 626 404 636 C 383 645 360 650 335 650 L 89 650 L 89 244 Z" />
<glyph unicode="Q" horiz-adv-x="765" d="M 382 -12 C 334 -12 289 -3 247 15 C 205 33 168 57 136 89 C 104 121 80 158 62 200 C 44 242 35 287 35 335 C 35 383 44 428 62 470 C 80 512 104 549 136 581 C 168 613 205 638 247 656 C 289 674 334 684 382 684 C 430 684 475 674 517 656 C 559 638 596 613 628 581 C 659 549 684 512 702 470 C 720 428 730 383 730 335 C 730 287 721 242 703 200 C 685 158 660 122 629 91 L 706 0 L 677 0 L 613 75 C 581 47 546 26 507 11 C 467 -4 426 -12 382 -12 Z M 382 10 C 424 10 463 17 499 32 C 535 46 568 67 598 93 L 541 160 C 533 169 524 178 516 186 C 508 194 498 200 487 206 C 476 212 464 216 450 220 C 436 223 419 225 401 225 L 366 225 L 366 248 L 401 248 C 421 248 439 246 455 242 C 471 238 485 233 497 227 C 509 220 520 212 530 203 C 540 194 549 184 559 174 L 614 109 C 642 138 664 172 681 211 C 697 249 706 291 706 335 C 706 379 697 421 680 461 C 663 501 640 535 611 565 C 581 595 547 618 508 636 C 468 653 426 662 382 662 C 337 662 295 653 256 636 C 216 618 182 595 153 565 C 124 535 101 501 84 461 C 67 421 59 379 59 335 C 59 290 67 248 84 209 C 101 169 124 135 153 105 C 182 75 216 52 256 35 C 295 18 337 10 382 10 Z" />
<glyph unicode="R" horiz-adv-x="567" d="M 65 672 L 336 672 C 364 672 391 666 415 656 C 439 646 459 632 476 614 C 493 596 506 575 516 551 C 526 527 531 501 531 473 C 531 446 526 421 516 398 C 506 374 492 354 475 337 C 457 320 437 307 413 297 C 389 287 364 283 336 283 L 272 283 C 277 281 283 278 290 274 C 297 270 304 264 311 258 C 318 251 325 244 332 236 C 339 228 346 221 352 215 L 532 0 L 501 0 L 335 199 C 319 217 306 231 295 242 C 283 253 273 262 263 268 C 253 274 242 278 232 280 C 221 282 209 283 196 283 C 162 283 135 272 117 250 C 98 228 89 202 89 172 L 89 0 L 65 0 L 65 672 Z M 89 246 C 99 266 113 280 132 290 C 150 300 170 305 192 305 L 336 305 C 360 305 382 309 403 317 C 423 325 441 337 457 352 C 472 367 484 385 493 406 C 502 426 507 449 507 473 C 507 497 502 519 494 541 C 486 562 474 581 459 597 C 444 613 426 626 405 636 C 384 645 361 650 336 650 L 89 650 L 89 246 Z" />
<glyph unicode="S" horiz-adv-x="512" d="M 253 -12 C 219 -12 189 -7 163 2 C 136 11 113 24 94 42 C 75 59 60 80 50 106 C 40 132 35 161 35 193 L 59 193 C 59 134 76 89 110 57 C 144 25 192 10 253 10 C 314 10 362 25 396 57 C 430 88 448 131 448 186 C 448 212 442 234 431 251 C 420 268 406 282 388 293 C 370 304 349 313 326 320 C 303 327 280 334 256 340 C 232 346 209 353 186 361 C 163 369 143 379 125 392 C 107 404 92 420 81 440 C 70 459 65 483 65 513 C 65 540 70 564 80 586 C 90 607 104 625 122 639 C 140 653 160 664 183 672 C 205 680 229 684 254 684 C 277 684 300 680 322 673 C 344 665 364 655 382 641 C 399 627 413 611 424 591 C 434 571 440 548 440 523 L 416 523 C 416 545 411 564 403 581 C 394 598 382 613 367 625 C 352 637 335 646 316 652 C 296 658 276 662 254 662 C 230 662 209 658 189 651 C 169 644 151 634 137 622 C 122 609 110 593 102 575 C 93 556 89 535 89 513 C 89 486 94 464 105 447 C 116 430 131 416 149 405 C 167 393 187 384 210 378 C 233 371 256 364 280 358 C 304 352 327 345 350 337 C 373 329 394 319 412 307 C 430 294 444 278 455 259 C 466 239 472 215 472 186 C 472 155 466 127 456 103 C 446 79 431 58 412 41 C 393 24 370 11 343 2 C 316 -7 286 -12 253 -12 Z" />
<glyph unicode="T" horiz-adv-x="580" d="M 278 537 C 278 571 284 597 296 614 C 308 630 324 642 342 650 L 20 650 L 20 672 L 560 672 L 560 650 L 422 650 C 378 650 347 640 329 620 C 311 600 302 572 302 537 L 302 0 L 278 0 L 278 537 Z" />
<glyph unicode="U" horiz-adv-x="585" d="M 292 -12 C 254 -12 220 -5 192 7 C 163 20 139 38 119 60 C 99 82 85 108 75 138 C 65 167 60 198 60 231 L 60 672 L 85 672 L 85 231 C 85 203 89 175 98 149 C 106 122 119 98 137 78 C 154 57 175 40 201 28 C 227 16 257 10 292 10 C 326 10 357 16 383 28 C 409 40 430 57 448 78 C 465 98 478 122 487 149 C 495 175 500 203 500 231 L 500 672 L 525 672 L 525 231 C 525 198 520 167 510 138 C 500 108 485 82 465 60 C 445 38 421 20 392 7 C 363 -5 330 -12 292 -12 Z" />
<glyph unicode="V" horiz-adv-x="586" d="M 310 0 C 282 0 263 8 251 24 C 239 40 229 62 221 89 L 25 672 L 50 672 L 246 89 C 250 75 255 64 259 56 C 263 47 267 40 273 35 C 278 30 284 27 292 25 C 299 23 308 22 318 22 L 536 672 L 561 672 L 335 0 L 310 0 Z" />
<glyph unicode="W" horiz-adv-x="941" d="M 470 631 L 300 0 L 274 0 C 260 0 249 1 240 5 C 230 8 222 13 216 20 C 209 27 203 36 199 46 C 195 56 191 69 187 83 L 25 672 L 50 672 L 210 88 C 214 74 217 63 221 55 C 225 46 229 39 235 34 C 240 29 246 26 254 24 C 261 22 270 22 281 22 L 457 672 L 484 672 L 643 88 C 647 74 650 63 654 55 C 658 46 662 39 668 34 C 673 29 679 26 687 24 C 694 22 703 22 714 22 L 891 672 L 916 672 L 732 0 L 706 0 C 692 0 681 1 672 5 C 662 8 654 13 648 20 C 641 27 635 36 631 46 C 627 56 623 69 619 83 L 470 631 Z" />
<glyph unicode="X" horiz-adv-x="491" d="M 245 317 L 53 0 L 25 0 L 230 336 L 25 672 L 53 672 L 245 355 L 438 672 L 466 672 L 260 336 L 466 0 L 438 0 L 245 317 Z" />
<glyph unicode="Y" horiz-adv-x="548" d="M 329 227 C 311 227 295 228 282 230 C 268 232 257 237 247 243 C 237 249 228 258 220 269 C 212 279 204 293 196 310 L 25 672 L 53 672 L 218 319 C 224 303 231 291 238 283 C 244 274 252 267 261 262 C 270 257 281 254 293 253 C 305 251 320 251 338 251 L 497 672 L 523 672 L 269 0 L 243 0 L 329 227 Z" />
<glyph unicode="Z" horiz-adv-x="533" d="M 40 22 L 450 650 L 56 650 L 56 672 L 477 672 L 477 650 L 68 22 L 498 22 L 498 0 L 40 0 L 40 22 Z" />
<glyph unicode="[" horiz-adv-x="243" d="M 65 740 L 208 740 L 208 718 L 89 718 L 89 -93 L 208 -93 L 208 -115 L 65 -115 L 65 740 Z" />
<glyph unicode="\" horiz-adv-x="346" d="M 321 -30 L 297 -30 L 25 702 L 49 702 L 321 -30 Z" />
<glyph unicode="]" horiz-adv-x="243" d="M 178 -115 L 35 -115 L 35 -93 L 154 -93 L 154 718 L 35 718 L 35 740 L 178 740 L 178 -115 Z" />
<glyph unicode="^" horiz-adv-x="390" d="M 181 672 L 209 672 L 355 405 L 329 405 L 195 651 L 61 405 L 35 405 L 181 672 Z" />
<glyph unicode="_" horiz-adv-x="504" d="M 35 22 L 469 22 L 469 0 L 35 0 L 35 22 Z" />
<glyph unicode="`" horiz-adv-x="212" d="M 177 517 L 154 517 L 35 639 L 77 639 L 177 517 Z" />
<glyph unicode="a" horiz-adv-x="567" d="M 279 -12 C 247 -12 216 -6 187 5 C 157 17 131 33 109 55 C 86 77 68 103 55 133 C 41 163 35 196 35 233 C 35 267 41 299 54 329 C 66 359 84 385 106 407 C 128 429 153 446 183 459 C 213 471 245 478 279 478 C 303 478 324 475 341 470 C 358 464 374 458 388 452 C 402 445 416 439 430 434 C 443 428 458 426 476 426 L 476 466 L 500 466 L 500 127 C 500 113 500 101 501 91 C 502 81 504 73 508 65 C 511 57 516 49 523 42 C 530 34 540 26 552 18 L 537 0 C 523 11 511 20 501 27 C 490 33 478 37 464 37 C 448 37 433 34 421 29 C 409 24 396 18 383 12 C 370 6 355 0 339 -4 C 323 -9 303 -12 279 -12 Z M 280 10 C 304 10 325 13 342 19 C 358 25 374 31 389 38 C 403 45 418 51 433 55 C 447 59 465 60 486 58 C 479 66 476 87 476 121 L 476 406 C 456 405 439 407 425 412 C 411 417 397 423 383 430 C 369 436 354 442 338 448 C 322 453 302 456 280 456 C 249 456 220 450 194 439 C 167 428 144 413 124 393 C 104 373 88 349 76 322 C 64 294 59 265 59 233 C 59 198 65 167 77 140 C 89 112 106 89 126 70 C 146 50 170 35 197 25 C 223 15 251 10 280 10 Z" />
<glyph unicode="b" horiz-adv-x="560" d="M 84 60 C 103 59 120 56 134 51 C 148 45 163 40 177 34 C 191 28 206 22 222 17 C 238 12 257 10 280 10 C 310 10 339 15 366 26 C 392 37 416 53 436 73 C 456 93 471 116 483 144 C 495 171 501 201 501 233 C 501 265 495 294 483 322 C 471 349 456 373 436 393 C 416 413 392 428 366 439 C 339 450 310 456 280 456 C 257 456 238 453 222 448 C 206 443 191 437 177 431 C 163 425 148 419 134 414 C 120 408 103 406 84 406 L 84 60 Z M 84 0 L 60 0 L 60 672 L 84 672 L 84 426 C 100 426 115 428 129 434 C 143 439 157 445 171 452 C 185 458 201 464 218 470 C 235 475 256 478 281 478 C 315 478 346 471 376 459 C 406 446 432 429 454 407 C 476 385 493 359 506 329 C 518 299 525 267 525 233 C 525 198 518 166 506 136 C 493 106 476 81 454 59 C 432 37 406 19 376 7 C 346 -5 315 -12 281 -12 C 256 -12 235 -9 218 -4 C 201 1 185 7 171 14 C 157 20 143 26 129 32 C 115 37 100 40 84 40 L 84 0 Z" />
<glyph unicode="c" horiz-adv-x="533" d="M 280 -12 C 246 -12 214 -5 184 7 C 154 19 129 37 107 59 C 85 81 67 107 54 137 C 41 167 35 199 35 233 C 35 266 41 297 54 327 C 66 357 84 383 106 405 C 128 427 153 445 183 458 C 213 471 245 478 280 478 C 302 478 325 475 347 469 C 369 463 389 454 408 443 C 427 431 444 418 460 402 C 475 386 488 368 498 349 L 471 349 C 451 381 425 406 391 426 C 357 446 320 456 280 456 C 250 456 221 450 194 438 C 167 426 144 411 124 391 C 104 371 88 347 76 320 C 64 292 59 263 59 233 C 59 201 64 172 76 145 C 88 118 104 95 124 75 C 144 55 167 39 194 27 C 221 15 250 10 280 10 C 320 10 357 19 390 39 C 422 58 449 84 469 116 L 498 116 C 475 77 445 46 407 23 C 369 0 326 -12 280 -12 Z" />
<glyph unicode="d" horiz-adv-x="567" d="M 279 -12 C 247 -12 216 -6 187 5 C 157 17 131 33 109 55 C 86 77 68 103 55 133 C 41 163 35 196 35 233 C 35 267 41 299 54 329 C 66 359 84 385 106 407 C 128 429 153 446 183 459 C 213 471 245 478 279 478 C 303 478 324 475 341 470 C 358 464 374 458 388 452 C 402 445 416 439 430 434 C 443 428 458 426 476 426 L 476 672 L 500 672 L 500 127 C 500 113 500 101 501 91 C 502 81 504 73 508 65 C 511 57 516 49 523 42 C 530 34 540 26 552 18 L 538 0 C 524 11 512 20 501 27 C 490 34 478 38 464 38 C 448 38 433 35 421 30 C 409 24 396 19 383 13 C 370 7 355 1 339 -4 C 323 -9 303 -12 279 -12 Z M 280 10 C 304 10 325 13 342 19 C 359 25 375 32 390 39 C 404 46 419 52 434 56 C 448 60 466 61 486 58 C 479 66 476 87 476 121 L 476 406 C 456 405 439 407 425 412 C 411 417 397 423 383 430 C 369 436 354 442 338 448 C 322 453 302 456 280 456 C 249 456 220 450 194 439 C 167 428 144 413 124 393 C 104 373 88 349 76 322 C 64 294 59 265 59 233 C 59 198 65 167 77 140 C 89 112 106 89 126 70 C 146 50 170 35 197 25 C 223 15 251 10 280 10 Z" />
<glyph unicode="e" horiz-adv-x="551" d="M 277 -12 C 239 -12 206 -5 176 7 C 146 20 121 38 100 61 C 79 83 63 109 52 139 C 40 168 35 199 35 233 C 35 267 41 298 54 328 C 66 358 83 384 105 406 C 127 428 152 445 182 458 C 211 471 242 478 276 478 C 310 478 341 472 371 461 C 400 449 425 433 447 413 C 469 392 486 367 498 338 C 510 309 516 277 516 243 L 516 228 L 141 228 C 119 228 103 223 91 213 C 79 203 73 190 73 172 C 73 155 77 138 85 122 C 93 105 103 90 117 77 C 137 56 160 40 188 28 C 215 16 245 10 277 10 C 322 10 362 21 396 45 C 430 68 456 99 474 137 L 498 137 C 478 91 449 55 410 28 C 371 1 327 -12 277 -12 Z M 61 195 C 62 210 70 223 84 234 C 98 244 115 250 137 250 L 493 250 C 493 280 487 307 476 332 C 464 357 449 379 430 397 C 410 415 387 430 361 440 C 335 450 306 456 276 456 C 248 456 222 450 196 440 C 170 429 146 414 126 394 C 106 374 89 351 77 324 C 65 296 58 266 58 233 C 58 221 59 209 61 195 Z" />
<glyph unicode="f" horiz-adv-x="299" d="M 66 354 C 66 377 71 398 82 417 C 92 436 109 449 131 455 C 107 461 88 474 75 492 C 61 510 55 531 55 557 C 55 577 58 595 65 609 C 71 623 80 635 91 645 C 102 654 115 661 130 665 C 144 669 160 672 176 672 L 264 672 L 264 650 L 176 650 C 149 650 126 643 107 629 C 88 615 79 591 79 557 C 79 525 88 502 108 488 C 127 473 150 466 176 466 L 264 466 L 264 444 L 176 444 C 118 444 90 410 90 344 L 90 0 L 66 0 L 66 354 Z" />
<glyph unicode="g" horiz-adv-x="560" d="M 476 41 C 458 41 442 38 428 33 C 414 28 400 22 386 16 C 372 10 356 4 340 0 C 323 -5 303 -8 279 -8 C 245 -8 213 -2 183 10 C 153 22 128 38 106 60 C 84 82 66 107 54 137 C 41 166 35 198 35 233 C 35 267 41 299 54 329 C 66 359 84 385 106 407 C 128 429 153 446 183 459 C 213 471 245 478 279 478 C 303 478 323 475 340 470 C 356 464 372 458 386 452 C 400 445 414 439 428 434 C 442 428 458 426 476 426 L 476 466 L 500 466 L 500 1 C 500 -72 481 -127 443 -163 C 405 -199 354 -218 288 -218 C 236 -218 192 -206 156 -182 C 120 -158 93 -125 77 -82 L 103 -82 C 118 -120 142 -148 174 -167 C 206 -186 244 -196 288 -196 C 346 -196 392 -179 426 -147 C 459 -115 476 -65 476 1 L 476 41 Z M 476 405 C 456 405 438 407 424 413 C 409 418 395 424 381 430 C 367 436 352 442 336 448 C 320 453 302 456 280 456 C 249 456 220 450 194 439 C 167 428 144 413 124 393 C 104 373 88 349 76 322 C 64 294 59 265 59 233 C 59 201 64 171 76 144 C 88 117 104 94 124 75 C 144 55 167 40 194 30 C 220 19 249 14 280 14 C 302 14 320 16 336 21 C 352 26 367 32 381 38 C 395 44 409 49 424 54 C 438 59 456 62 476 62 L 476 405 Z" />
<glyph unicode="h" horiz-adv-x="519" d="M 60 672 L 84 672 L 84 426 C 100 426 116 428 130 434 C 144 439 159 445 174 452 C 189 458 205 464 223 470 C 240 475 260 478 283 478 C 309 478 332 474 354 467 C 375 459 393 448 409 433 C 425 418 437 399 446 376 C 454 352 459 325 459 294 L 459 0 L 435 0 L 435 294 C 435 344 422 383 398 412 C 373 441 335 456 283 456 C 261 456 241 453 225 448 C 208 442 192 437 178 431 C 164 425 149 419 134 414 C 119 408 102 406 84 406 L 84 0 L 60 0 L 60 672 Z" />
<glyph unicode="i" horiz-adv-x="144" d="M 60 672 L 84 672 L 84 594 L 60 594 L 60 672 Z M 60 466 L 84 466 L 84 0 L 60 0 L 60 466 Z" />
<glyph unicode="j" horiz-adv-x="147" d="M 63 672 L 87 672 L 87 596 L 63 596 L 63 672 Z M 0 -184 C 23 -184 39 -177 49 -163 C 58 -149 63 -126 63 -95 L 63 466 L 87 466 L 87 -95 C 87 -131 80 -159 68 -178 C 56 -196 33 -206 0 -206 L 0 -184 Z" />
<glyph unicode="k" horiz-adv-x="439" d="M 171 233 C 182 231 194 226 208 220 C 221 214 235 203 250 188 L 424 0 L 391 0 L 230 175 C 213 192 196 204 180 211 C 163 218 143 222 119 222 L 84 222 L 84 0 L 60 0 L 60 672 L 84 672 L 84 244 L 118 244 C 142 244 162 247 178 254 C 194 261 210 273 227 291 L 388 466 L 421 466 L 247 278 C 232 262 218 251 206 245 C 193 239 181 235 171 233 Z" />
<glyph unicode="l" horiz-adv-x="144" d="M 60 672 L 84 672 L 84 0 L 60 0 L 60 672 Z" />
<glyph unicode="m" horiz-adv-x="806" d="M 257 478 C 321 478 365 457 390 417 C 407 420 423 425 438 432 C 453 439 468 446 483 453 C 498 459 514 465 530 470 C 546 475 563 478 583 478 C 637 478 678 464 705 438 C 732 412 746 370 746 314 L 746 0 L 722 0 L 722 314 C 722 360 711 395 690 419 C 669 443 633 456 583 456 C 565 456 550 453 536 449 C 522 445 508 439 495 433 C 481 427 467 420 452 414 C 437 407 420 402 401 398 C 410 374 415 346 415 314 L 415 0 L 391 0 L 391 314 C 391 360 380 395 360 419 C 339 443 305 456 257 456 C 241 456 227 453 213 448 C 199 442 186 437 172 431 C 158 425 143 419 129 414 C 115 408 100 406 84 406 L 84 0 L 60 0 L 60 466 L 84 466 L 84 426 C 98 426 111 428 124 434 C 137 439 150 445 164 452 C 178 458 192 464 207 470 C 222 475 239 478 257 478 Z" />
<glyph unicode="n" horiz-adv-x="519" d="M 60 466 L 84 466 L 84 426 C 100 426 116 428 130 434 C 144 439 159 445 174 452 C 189 458 205 464 223 470 C 240 475 260 478 283 478 C 309 478 332 474 354 467 C 375 459 393 448 409 433 C 425 418 437 399 446 376 C 454 352 459 325 459 294 L 459 0 L 435 0 L 435 294 C 435 344 422 383 398 412 C 373 441 335 456 283 456 C 261 456 241 453 225 448 C 209 443 193 437 179 431 C 164 425 149 419 135 414 C 120 408 103 405 84 405 L 84 0 L 60 0 L 60 466 Z" />
<glyph unicode="o" horiz-adv-x="550" d="M 30 233 C 30 267 36 299 49 329 C 61 359 79 385 101 407 C 123 429 148 446 178 459 C 208 471 240 478 275 478 C 309 478 341 471 371 459 C 401 446 427 429 449 407 C 471 385 488 359 501 329 C 513 299 520 267 520 233 C 520 198 513 166 501 136 C 488 106 471 81 449 59 C 427 37 401 19 371 7 C 341 -5 309 -12 275 -12 C 240 -12 208 -5 178 7 C 148 19 123 37 101 59 C 79 81 61 106 49 136 C 36 166 30 198 30 233 Z M 54 233 C 54 201 59 172 71 145 C 82 117 97 94 117 74 C 137 54 160 38 187 27 C 214 15 243 10 275 10 C 306 10 335 15 362 27 C 389 38 412 54 432 74 C 452 94 467 117 479 145 C 490 172 496 201 496 233 C 496 264 490 293 479 321 C 467 348 452 372 432 392 C 412 412 389 427 362 439 C 335 450 306 456 275 456 C 243 456 214 450 187 439 C 160 427 137 412 117 392 C 97 372 82 348 71 321 C 59 293 54 264 54 233 Z" />
<glyph unicode="p" horiz-adv-x="560" d="M 84 60 C 103 59 120 56 134 51 C 148 45 163 40 177 34 C 191 28 206 22 222 17 C 238 12 257 10 280 10 C 310 10 339 15 366 26 C 392 37 416 53 436 73 C 456 93 471 116 483 144 C 495 171 501 201 501 233 C 501 265 495 294 483 322 C 471 349 456 373 436 393 C 416 413 392 428 366 439 C 339 450 310 456 280 456 C 257 456 238 453 222 448 C 206 443 191 437 177 431 C 163 425 148 419 134 414 C 120 408 103 406 84 406 L 84 60 Z M 84 -206 L 60 -206 L 60 466 L 84 466 L 84 426 C 100 426 115 428 129 434 C 143 439 157 445 171 452 C 185 458 201 464 218 470 C 235 475 256 478 281 478 C 315 478 346 471 376 459 C 406 446 432 429 454 407 C 476 385 493 359 506 329 C 518 299 525 267 525 233 C 525 198 518 166 506 136 C 493 106 476 81 454 59 C 432 37 406 19 376 7 C 346 -5 315 -12 281 -12 C 256 -12 235 -9 218 -4 C 201 1 185 7 171 14 C 157 20 143 26 129 32 C 115 37 100 40 84 40 L 84 -206 Z" />
<glyph unicode="q" horiz-adv-x="572" d="M 279 478 C 303 478 323 475 339 470 C 355 465 370 459 383 453 C 396 447 409 441 421 436 C 433 431 448 429 464 429 C 478 429 490 432 501 439 C 512 445 524 454 538 466 L 552 448 C 540 439 530 431 523 424 C 516 416 511 409 508 401 C 504 393 502 384 501 374 C 500 364 500 353 500 339 L 500 -206 L 476 -206 L 476 40 C 458 40 443 37 430 32 C 416 26 402 20 388 14 C 374 7 358 1 341 -4 C 324 -9 303 -12 279 -12 C 245 -12 213 -5 183 7 C 153 19 128 37 106 59 C 84 81 66 106 54 136 C 41 166 35 198 35 233 C 35 269 41 303 55 333 C 68 363 86 388 109 410 C 131 432 157 448 187 460 C 216 472 247 478 279 478 Z M 280 456 C 251 456 223 450 197 440 C 170 430 146 415 126 396 C 106 376 89 353 77 326 C 65 298 59 267 59 233 C 59 201 64 171 76 144 C 88 116 104 93 124 73 C 144 53 167 37 194 26 C 220 15 249 10 280 10 C 302 10 322 12 338 18 C 354 23 369 29 383 35 C 397 41 411 46 425 52 C 439 57 456 60 476 60 L 476 345 C 476 378 479 399 486 408 C 482 407 478 406 475 406 C 471 406 468 406 465 406 C 448 406 433 408 420 414 C 407 419 394 425 381 431 C 367 437 353 442 337 448 C 321 453 302 456 280 456 Z" />
<glyph unicode="r" horiz-adv-x="312" d="M 292 457 C 268 457 249 454 233 449 C 217 443 202 437 189 431 C 175 425 162 419 150 414 C 137 408 123 406 107 406 C 103 406 100 406 97 406 C 93 406 90 407 86 408 C 92 399 96 378 96 345 L 96 0 L 72 0 L 72 340 C 72 354 71 365 70 375 C 69 385 67 394 64 402 C 60 410 55 417 48 425 C 41 432 32 440 20 449 L 34 466 C 47 454 59 445 70 438 C 80 430 93 427 107 427 C 123 427 137 429 149 435 C 161 440 174 446 188 453 C 201 459 216 465 232 471 C 248 476 268 479 292 479 L 292 457 Z" />
<glyph unicode="s" horiz-adv-x="405" d="M 202 -12 C 143 -12 100 1 73 29 C 46 56 33 92 33 136 L 57 136 C 57 118 59 101 64 85 C 69 69 77 56 89 45 C 101 34 116 25 134 19 C 152 13 175 10 202 10 C 220 10 237 12 254 17 C 271 22 286 29 300 39 C 313 49 324 61 332 75 C 340 89 344 106 344 126 C 344 152 336 173 322 187 C 308 201 290 213 269 221 C 247 229 224 235 199 241 C 173 246 150 253 129 262 C 107 270 89 282 75 297 C 61 312 54 334 54 362 C 54 376 56 391 62 405 C 68 419 77 431 89 442 C 101 452 116 461 134 468 C 152 474 174 478 200 478 C 219 478 237 475 254 471 C 271 466 286 459 299 449 C 312 439 322 427 330 413 C 338 399 342 382 342 364 L 318 364 C 318 396 306 419 283 434 C 260 448 232 456 200 456 C 163 456 133 447 111 431 C 89 415 78 392 78 362 C 78 338 85 319 99 307 C 113 294 131 284 153 277 C 174 269 197 263 223 258 C 248 252 271 245 293 236 C 314 226 332 213 346 197 C 360 180 368 156 368 126 C 368 104 363 85 354 68 C 344 51 332 37 317 25 C 301 13 284 3 264 -2 C 244 -8 223 -12 202 -12 Z" />
<glyph unicode="t" horiz-adv-x="301" d="M 171 0 C 135 0 108 9 89 29 C 69 48 60 76 60 113 L 60 341 C 60 367 65 390 76 412 C 87 433 104 447 128 454 C 104 458 87 470 76 490 C 65 510 60 531 60 553 L 60 639 L 84 639 L 84 556 C 84 524 92 501 108 487 C 124 473 147 466 179 466 L 261 466 L 261 444 L 179 444 C 145 444 121 435 106 417 C 91 399 84 374 84 341 L 84 113 C 84 83 91 60 107 45 C 122 29 143 22 171 22 L 261 22 L 261 0 L 171 0 Z" />
<glyph unicode="u" horiz-adv-x="521" d="M 231 10 C 256 10 277 13 295 19 C 312 25 328 31 342 38 C 356 45 371 51 386 55 C 401 59 419 60 440 58 C 433 66 430 88 430 122 L 430 466 L 454 466 L 454 127 C 454 113 454 101 455 91 C 456 81 458 73 462 65 C 465 57 470 49 477 42 C 484 34 494 26 506 18 L 491 0 C 477 11 465 20 455 27 C 444 33 432 37 418 37 C 402 37 388 34 376 29 C 364 24 351 18 338 12 C 324 6 309 0 293 -4 C 276 -9 255 -12 231 -12 C 205 -12 181 -8 160 -1 C 138 6 120 17 104 32 C 88 47 76 66 68 90 C 59 113 55 140 55 172 L 55 466 L 79 466 L 79 172 C 79 122 91 82 116 53 C 140 24 179 10 231 10 Z" />
<glyph unicode="v" horiz-adv-x="483" d="M 267 0 C 249 0 235 2 224 6 C 212 10 203 15 195 22 C 187 29 180 37 176 47 C 171 56 167 66 163 76 L 20 466 L 47 466 L 184 88 C 192 62 203 45 216 36 C 228 26 248 22 275 22 L 436 466 L 463 466 L 292 0 L 267 0 Z" />
<glyph unicode="w" horiz-adv-x="801" d="M 246 0 C 228 0 214 1 204 4 C 193 7 184 12 177 18 C 170 24 164 32 160 42 C 156 51 152 62 148 75 L 25 466 L 51 466 L 172 81 C 176 67 180 57 184 49 C 188 41 193 34 199 30 C 205 26 212 23 220 22 C 228 20 239 20 252 20 L 388 466 L 413 466 L 532 81 C 536 67 540 57 544 49 C 548 41 553 34 559 30 C 565 26 572 23 580 22 C 588 20 598 20 610 20 L 751 466 L 776 466 L 629 0 L 605 0 C 587 0 573 1 563 4 C 553 7 544 12 537 18 C 530 24 525 31 521 41 C 517 50 513 61 509 74 L 400 426 L 272 0 L 246 0 Z" />
<glyph unicode="x" horiz-adv-x="426" d="M 199 236 L 30 466 L 59 466 L 213 254 L 367 466 L 396 466 L 226 236 L 401 0 L 371 0 L 213 218 L 55 0 L 25 0 L 199 236 Z" />
<glyph unicode="y" horiz-adv-x="473" d="M 107 -184 C 137 -184 160 -180 174 -174 C 188 -167 199 -154 207 -136 L 259 0 C 227 0 204 6 190 18 C 176 30 164 49 156 77 L 15 466 L 42 466 L 179 82 C 183 69 188 59 193 51 C 198 43 204 37 211 33 C 218 29 226 26 235 24 C 244 22 255 22 268 22 L 431 466 L 458 466 L 230 -141 C 220 -166 207 -183 191 -192 C 175 -201 150 -206 116 -206 L 107 -206 L 107 -184 Z" />
<glyph unicode="z" horiz-adv-x="473" d="M 30 22 L 400 444 L 45 444 L 45 466 L 432 466 L 432 444 L 61 22 L 448 22 L 448 0 L 30 0 L 30 22 Z" />
<glyph unicode="{" horiz-adv-x="296" d="M 204 718 C 182 718 166 713 156 704 C 146 694 141 677 141 653 L 141 409 C 141 392 139 378 136 367 C 133 356 129 347 124 340 C 119 332 113 327 105 323 C 97 319 89 315 81 313 C 89 311 97 308 105 304 C 113 300 119 294 124 287 C 129 279 133 270 136 258 C 139 246 141 232 141 214 L 141 -28 C 141 -52 146 -69 156 -79 C 166 -88 182 -93 204 -93 L 261 -93 L 261 -115 L 204 -115 C 174 -115 152 -107 138 -92 C 124 -77 117 -56 117 -28 L 117 216 C 117 230 116 243 114 254 C 112 265 108 274 102 281 C 96 288 87 293 77 297 C 66 300 52 302 35 302 L 35 324 C 52 324 66 325 77 329 C 87 332 96 337 102 344 C 108 351 112 360 114 371 C 116 381 117 394 117 409 L 117 653 C 117 681 124 702 138 717 C 152 732 174 740 204 740 L 261 740 L 261 718 L 204 718 Z" />
<glyph unicode="|" horiz-adv-x="194" d="M 85 740 L 109 740 L 109 -114 L 85 -114 L 85 740 Z" />
<glyph unicode="}" horiz-adv-x="296" d="M 35 718 L 35 740 L 92 740 C 122 740 144 732 158 717 C 172 702 179 681 179 653 L 179 409 C 179 394 180 381 182 371 C 184 360 188 351 194 344 C 200 337 208 332 219 329 C 229 325 243 324 261 324 L 261 302 C 243 302 229 300 219 297 C 208 293 200 288 194 281 C 188 274 184 265 182 254 C 180 243 179 230 179 216 L 179 -28 C 179 -56 172 -77 158 -92 C 144 -107 122 -115 92 -115 L 35 -115 L 35 -93 L 92 -93 C 113 -93 129 -88 139 -79 C 149 -69 155 -52 155 -28 L 155 214 C 155 232 156 246 159 258 C 162 270 166 279 171 287 C 176 294 182 300 190 304 C 197 308 205 311 215 313 C 205 315 197 319 190 323 C 182 327 176 332 171 340 C 166 347 162 356 159 367 C 156 378 155 392 155 409 L 155 653 C 155 677 149 694 139 704 C 129 713 113 718 92 718 L 35 718 Z" />
<glyph unicode="~" horiz-adv-x="548" d="M 393 540 C 372 540 354 543 340 549 C 325 555 312 562 300 571 C 288 580 277 590 267 600 C 257 610 246 620 235 629 C 224 638 212 646 199 652 C 185 658 170 661 153 661 C 123 661 99 651 83 632 C 67 613 59 586 59 551 L 35 551 C 35 591 45 623 66 647 C 87 671 116 683 154 683 C 184 683 208 676 227 664 C 245 651 262 637 278 622 C 293 607 309 593 326 581 C 343 568 365 562 393 562 C 426 562 450 571 466 590 C 481 609 489 636 489 672 L 513 672 C 513 632 502 600 482 576 C 462 552 432 540 393 540 Z" />
<glyph unicode="" horiz-adv-x="230" d="" />
<glyph unicode="" horiz-adv-x="174" d="M 75 525 L 99 525 L 99 0 L 75 0 L 75 525 Z M 75 672 L 99 672 L 99 595 L 75 595 L 75 672 Z" />
<glyph unicode="" horiz-adv-x="553" d="M 279 90 C 246 91 215 98 187 112 C 159 125 134 143 113 165 C 92 187 75 212 63 241 C 51 270 45 301 45 335 C 45 367 51 397 63 426 C 75 455 91 481 112 503 C 133 525 158 543 186 557 C 214 571 245 578 279 580 L 279 672 L 303 672 L 303 579 C 347 577 387 564 424 541 C 460 518 488 488 508 451 L 481 451 C 461 483 435 508 401 528 C 367 548 330 558 290 558 C 260 558 231 552 204 540 C 177 528 154 513 134 493 C 114 473 98 449 86 422 C 74 394 69 365 69 335 C 69 303 74 274 86 247 C 98 220 114 197 134 177 C 154 157 177 141 204 129 C 231 117 260 112 290 112 C 330 112 367 121 400 141 C 432 160 459 186 479 218 L 508 218 C 486 180 458 150 422 128 C 386 105 347 92 303 90 L 303 0 L 279 0 L 279 90 Z" />
<glyph unicode="" horiz-adv-x="502" d="M 123 445 C 97 445 77 451 64 463 C 51 475 45 492 45 514 L 63 514 C 63 479 83 462 123 462 C 138 462 151 465 163 473 C 175 481 181 492 181 508 C 181 520 177 529 171 535 C 165 541 157 547 148 551 C 138 555 128 558 118 561 C 107 563 97 567 88 571 C 78 575 70 581 64 588 C 58 595 55 605 55 619 C 55 634 60 647 72 658 C 84 669 100 675 122 675 C 142 675 158 670 170 660 C 182 650 189 636 189 618 L 172 618 C 170 632 165 642 157 648 C 148 654 136 658 122 658 C 106 658 94 654 86 647 C 78 639 74 630 74 619 C 74 604 80 594 93 589 C 106 583 121 578 137 573 C 153 568 167 561 180 553 C 193 544 200 529 200 508 C 200 488 192 473 177 462 C 161 450 143 445 123 445 Z M 233 672 L 252 672 L 345 514 L 438 672 L 457 672 L 457 448 L 439 448 L 439 640 L 349 489 C 343 489 338 492 335 498 L 251 640 L 251 448 L 233 448 L 233 672 Z" />
<glyph unicode="" horiz-adv-x="240" d="M 159 602 L 205 602 L 205 554 L 159 554 L 159 602 Z M 35 602 L 81 602 L 81 554 L 35 554 L 35 602 Z" />
<glyph unicode="" horiz-adv-x="752" d="M 378 122 C 349 122 322 127 297 138 C 271 149 249 164 230 184 C 210 203 195 225 184 251 C 172 277 167 305 167 335 C 167 367 172 396 183 422 C 194 448 209 471 229 490 C 248 509 270 524 296 534 C 322 544 350 550 380 550 C 401 550 421 546 441 539 C 461 532 479 523 495 511 C 511 499 526 485 539 469 C 551 453 561 436 569 418 L 542 418 C 527 450 506 476 478 496 C 450 516 418 527 380 527 C 352 527 327 522 304 513 C 281 504 261 491 245 474 C 228 457 215 437 206 413 C 196 389 192 363 192 335 C 192 307 197 281 207 258 C 217 235 230 215 247 198 C 264 181 284 168 306 159 C 328 149 352 145 378 145 C 416 145 449 154 477 174 C 505 193 527 219 542 252 L 569 252 C 553 213 528 182 494 158 C 460 134 422 122 378 122 Z M 376 679 C 423 679 467 670 509 652 C 551 634 587 609 618 578 C 648 547 672 511 690 469 C 708 427 717 383 717 336 C 717 288 708 243 690 201 C 672 159 648 122 618 91 C 587 60 551 36 509 18 C 467 0 423 -8 376 -8 C 328 -8 284 0 242 18 C 200 36 164 60 134 91 C 103 122 79 159 61 201 C 43 243 35 288 35 336 C 35 383 43 427 61 469 C 79 511 103 547 134 578 C 164 609 200 634 242 652 C 284 670 328 679 376 679 Z M 376 657 C 332 657 290 648 252 631 C 214 614 180 591 152 562 C 123 532 100 498 84 460 C 67 421 59 380 59 336 C 59 292 67 250 84 211 C 100 171 123 137 152 108 C 180 79 214 56 252 39 C 290 22 332 14 376 14 C 420 14 461 22 500 39 C 538 56 572 79 601 108 C 629 137 652 171 668 211 C 684 250 693 292 693 336 C 693 380 684 421 668 460 C 652 498 629 532 601 562 C 572 591 538 614 500 631 C 461 648 420 657 376 657 Z" />
<glyph unicode="" horiz-adv-x="343" d="M 180 43 L 153 43 L 35 233 L 153 423 L 180 423 L 61 233 L 180 43 Z M 308 43 L 282 43 L 163 233 L 282 423 L 308 423 L 190 233 L 308 43 Z" />
<glyph unicode="" horiz-adv-x="592" d="M 547 363 L 547 101 L 525 101 L 525 341 L 45 341 L 45 363 L 547 363 Z" />
<glyph unicode="" horiz-adv-x="309" d="M 45 272 L 264 272 L 264 250 L 45 250 L 45 272 Z" />
<glyph unicode="" horiz-adv-x="305" d="M 152 443 C 136 443 120 446 106 452 C 92 458 79 467 69 477 C 59 487 50 500 44 514 C 38 528 35 544 35 560 C 35 576 38 591 44 605 C 50 619 59 632 69 643 C 79 653 92 662 106 668 C 120 674 136 678 152 678 C 168 678 183 674 197 668 C 211 662 224 653 235 643 C 245 632 254 619 260 605 C 266 591 270 576 270 560 C 270 544 266 528 260 514 C 254 500 245 487 235 477 C 224 467 211 458 197 452 C 183 446 168 443 152 443 Z M 152 455 C 166 455 180 457 193 463 C 205 469 216 476 226 486 C 235 495 242 506 248 519 C 253 532 256 546 256 560 C 256 574 253 588 248 601 C 242 613 235 624 226 634 C 216 644 205 651 193 657 C 180 663 166 666 152 666 C 138 666 124 663 112 657 C 99 651 88 644 79 634 C 69 624 62 613 57 601 C 51 588 49 574 49 560 C 49 546 51 532 57 519 C 62 506 69 495 79 486 C 88 476 99 469 112 463 C 124 457 138 455 152 455 Z M 106 633 L 165 633 C 179 633 190 628 198 620 C 205 611 209 601 209 589 C 209 577 205 568 199 560 C 192 552 181 549 165 549 L 160 549 C 164 547 170 543 177 535 L 215 491 L 197 491 L 163 530 C 155 538 150 543 148 545 C 146 547 141 548 135 548 C 127 548 123 545 121 541 C 119 537 119 531 119 525 L 119 491 L 106 491 L 106 633 Z M 119 554 C 121 558 127 560 136 560 L 164 560 C 172 560 180 562 186 567 C 192 571 195 579 195 589 C 195 598 192 606 186 612 C 180 618 173 622 164 622 L 119 622 L 119 554 Z" />
<glyph unicode="" horiz-adv-x="279" d="M 139 475 C 124 475 110 477 98 483 C 85 488 74 495 65 505 C 55 515 48 526 43 539 C 37 551 35 565 35 580 C 35 594 37 607 43 620 C 48 632 55 643 65 653 C 75 663 86 670 99 676 C 111 681 125 684 139 684 C 153 684 166 681 179 676 C 192 670 203 663 213 654 C 222 644 229 633 235 621 C 241 608 244 594 244 580 C 244 565 241 551 235 539 C 229 526 222 515 213 505 C 203 495 192 488 180 483 C 167 477 153 475 139 475 Z M 139 497 C 162 497 182 505 198 521 C 214 537 222 557 222 580 C 222 591 219 602 215 612 C 210 622 204 630 197 638 C 189 645 180 651 170 655 C 160 659 149 662 139 662 C 117 662 97 654 81 638 C 65 622 57 602 57 580 C 57 568 59 558 63 548 C 67 538 73 529 81 522 C 88 514 97 508 107 504 C 117 499 127 497 139 497 Z" />
<glyph unicode="" horiz-adv-x="592" d="M 547 0 L 45 0 L 45 22 L 547 22 L 547 0 Z M 285 410 L 45 410 L 45 432 L 285 432 L 285 672 L 307 672 L 307 432 L 547 432 L 547 410 L 307 410 L 307 170 L 285 170 L 285 410 Z" />
<glyph unicode="" horiz-adv-x="307" d="M 44 270 C 34 270 30 274 30 284 C 30 286 30 289 32 291 C 33 293 34 294 36 296 L 220 479 C 231 490 240 502 246 515 C 252 528 256 543 256 560 C 256 574 253 587 247 599 C 241 611 234 622 225 631 C 215 639 204 646 191 651 C 178 656 165 659 151 659 C 137 659 125 656 113 651 C 101 645 90 638 81 629 C 72 619 65 608 60 596 C 55 584 53 571 53 557 L 30 557 C 30 573 33 589 39 604 C 45 619 53 632 63 643 C 73 654 86 663 101 670 C 116 676 133 680 151 680 C 169 680 185 676 201 670 C 217 664 230 655 242 644 C 253 633 262 620 268 606 C 274 592 278 576 278 560 C 278 522 264 489 236 463 L 60 291 L 282 291 L 282 270 L 44 270 Z" />
<glyph unicode="" horiz-adv-x="318" d="M 163 262 C 121 262 89 274 66 299 C 43 324 31 355 30 391 L 53 391 C 54 360 64 334 83 314 C 102 294 129 284 163 284 C 193 284 219 293 240 312 C 260 331 271 357 271 389 C 271 409 265 426 253 441 C 241 455 228 468 214 478 C 210 480 208 484 208 489 C 208 492 209 495 213 499 C 223 507 232 516 240 528 C 248 540 252 553 252 569 C 252 581 249 593 245 604 C 240 615 233 625 225 633 C 217 641 207 647 196 652 C 184 656 172 659 160 659 C 132 659 109 650 91 634 C 73 618 65 596 65 568 L 42 568 C 42 602 53 629 75 649 C 97 669 125 680 160 680 C 176 680 192 677 206 671 C 220 665 232 658 242 648 C 252 638 259 626 265 612 C 270 598 273 584 273 569 C 273 554 269 540 262 526 C 254 512 245 500 233 489 C 248 477 262 463 274 447 C 286 430 293 410 293 388 C 293 350 280 320 256 297 C 232 273 201 262 163 262 Z" />
<glyph unicode="" horiz-adv-x="212" d="M 135 639 L 177 639 L 58 517 L 35 517 L 135 639 Z" />
<glyph unicode="" horiz-adv-x="518" d="M 225 295 C 199 295 174 299 151 309 C 128 319 108 332 91 349 C 73 366 60 386 50 409 C 40 432 35 457 35 483 C 35 509 39 533 49 556 C 59 579 72 599 89 616 C 106 633 126 647 149 657 C 172 667 197 672 223 672 L 473 672 L 473 648 L 383 648 L 383 0 L 359 0 L 359 648 L 249 648 L 249 0 L 225 0 L 225 295 Z" />
<glyph unicode="" horiz-adv-x="138" d="M 45 286 L 93 286 L 93 236 L 45 236 L 45 286 Z" />
<glyph unicode="" horiz-adv-x="215" d="M 123 652 L 50 652 L 50 672 L 134 672 C 137 672 140 670 142 668 C 144 666 145 663 145 660 L 145 270 L 123 270 L 123 652 Z" />
<glyph unicode="" horiz-adv-x="343" d="M 282 233 L 163 423 L 190 423 L 308 233 L 190 43 L 163 43 L 282 233 Z M 153 233 L 35 423 L 61 423 L 180 233 L 61 43 L 35 43 L 153 233 Z" />
<glyph unicode="" horiz-adv-x="415" d="M 232 590 L 208 590 L 208 672 L 232 672 L 232 590 Z M 232 425 C 232 404 227 386 219 370 C 210 354 199 340 187 327 C 174 314 160 302 145 290 C 130 278 116 266 104 253 C 91 239 80 224 72 208 C 63 192 59 173 59 152 C 59 130 62 111 70 94 C 78 76 88 61 102 49 C 115 36 131 26 149 20 C 167 13 186 10 208 10 C 252 10 287 22 315 48 C 342 74 356 109 356 153 L 356 158 L 380 158 L 380 153 C 380 127 375 104 367 84 C 358 64 346 46 331 32 C 316 18 298 7 277 0 C 255 -8 232 -12 208 -12 C 184 -12 161 -8 140 0 C 118 7 100 18 85 32 C 69 46 57 64 48 84 C 39 104 35 126 35 152 C 35 176 39 196 48 214 C 56 232 67 248 80 262 C 92 276 106 290 121 302 C 136 314 150 326 163 338 C 175 350 186 363 195 377 C 203 391 208 407 208 425 L 208 496 L 232 496 L 232 425 Z" />
<glyph unicode="" horiz-adv-x="578" d="M 274 672 L 304 672 L 558 0 L 532 0 L 452 210 L 221 210 C 187 210 160 204 141 193 C 122 182 107 163 97 135 L 46 0 L 20 0 L 274 672 Z M 121 201 C 133 212 148 220 164 225 C 180 229 199 232 221 232 L 445 232 L 289 642 L 121 201 Z M 302 703 L 279 703 L 160 825 L 202 825 L 302 703 Z" />
<glyph unicode="" horiz-adv-x="578" d="M 274 672 L 304 672 L 558 0 L 532 0 L 452 210 L 221 210 C 187 210 160 204 141 193 C 122 182 107 163 97 135 L 46 0 L 20 0 L 274 672 Z M 121 201 C 133 212 148 220 164 225 C 180 229 199 232 221 232 L 445 232 L 289 642 L 121 201 Z M 378 825 L 420 825 L 301 703 L 278 703 L 378 825 Z" />
<glyph unicode="" horiz-adv-x="578" d="M 274 672 L 304 672 L 558 0 L 532 0 L 452 210 L 221 210 C 187 210 160 204 141 193 C 122 182 107 163 97 135 L 46 0 L 20 0 L 274 672 Z M 121 201 C 133 212 148 220 164 225 C 180 229 199 232 221 232 L 445 232 L 289 642 L 121 201 Z M 214 773 C 192 773 176 766 167 754 C 157 741 153 725 153 705 L 129 705 C 129 735 136 757 152 772 C 167 787 188 795 214 795 C 231 795 246 791 260 783 C 273 775 286 766 298 756 C 310 746 321 737 333 729 C 344 721 356 717 370 717 C 392 717 407 723 417 736 C 426 748 431 765 431 785 L 455 785 C 455 755 447 732 432 717 C 416 702 396 695 370 695 C 354 695 339 699 326 707 C 313 715 301 724 289 734 C 277 744 265 753 253 761 C 241 769 228 773 214 773 Z" />
<glyph unicode="" horiz-adv-x="540" d="M 60 672 L 480 672 L 480 650 L 84 650 L 84 290 C 86 295 91 301 97 308 C 103 315 110 322 118 328 C 126 334 136 339 148 343 C 160 347 173 349 188 349 L 476 349 L 476 327 L 188 327 C 174 327 160 324 148 318 C 135 312 124 305 115 295 C 105 285 98 274 92 261 C 86 247 84 233 84 217 L 84 22 L 480 22 L 480 0 L 60 0 L 60 672 Z M 324 703 L 301 703 L 182 825 L 224 825 L 324 703 Z" />
<glyph unicode="" horiz-adv-x="540" d="M 60 672 L 480 672 L 480 650 L 84 650 L 84 290 C 86 295 91 301 97 308 C 103 315 110 322 118 328 C 126 334 136 339 148 343 C 160 347 173 349 188 349 L 476 349 L 476 327 L 188 327 C 174 327 160 324 148 318 C 135 312 124 305 115 295 C 105 285 98 274 92 261 C 86 247 84 233 84 217 L 84 22 L 480 22 L 480 0 L 60 0 L 60 672 Z M 362 825 L 404 825 L 285 703 L 262 703 L 362 825 Z" />
<glyph unicode="" horiz-adv-x="194" d="M 85 672 L 109 672 L 109 0 L 85 0 L 85 672 Z M 109 703 L 86 703 L -33 825 L 9 825 L 109 703 Z" />
<glyph unicode="" horiz-adv-x="194" d="M 85 672 L 109 672 L 109 0 L 85 0 L 85 672 Z M 185 825 L 227 825 L 108 703 L 85 703 L 185 825 Z" />
<glyph unicode="" horiz-adv-x="637" d="M 65 672 L 89 672 L 485 64 C 496 46 506 35 514 30 C 522 24 533 22 548 22 L 548 672 L 572 672 L 572 0 L 548 0 C 536 0 527 0 519 2 C 511 3 505 5 500 9 C 494 13 489 17 485 23 C 480 29 475 36 470 44 L 89 628 L 89 0 L 65 0 L 65 672 Z M 240 780 C 218 780 202 773 193 761 C 183 748 179 732 179 712 L 155 712 C 155 742 162 764 178 779 C 193 794 214 802 240 802 C 257 802 272 798 286 790 C 299 782 312 773 324 763 C 336 753 347 744 359 736 C 370 728 382 724 396 724 C 418 724 433 730 443 743 C 452 755 457 772 457 792 L 481 792 C 481 762 473 739 458 724 C 442 709 422 702 396 702 C 380 702 365 706 352 714 C 339 722 327 731 315 741 C 303 751 291 760 279 768 C 267 776 254 780 240 780 Z" />
<glyph unicode="" horiz-adv-x="765" d="M 382 -12 C 334 -12 289 -3 247 15 C 205 33 168 57 136 89 C 104 121 80 158 62 200 C 44 242 35 287 35 335 C 35 383 44 428 62 470 C 80 512 104 549 136 581 C 168 613 205 638 247 656 C 289 674 334 684 382 684 C 430 684 475 674 517 656 C 559 638 596 613 628 581 C 659 549 684 512 702 470 C 720 428 730 383 730 335 C 730 287 720 242 702 200 C 684 158 659 121 628 89 C 596 57 559 33 517 15 C 475 -3 430 -12 382 -12 Z M 382 10 C 426 10 468 18 508 35 C 547 52 581 75 611 105 C 640 135 663 169 680 209 C 697 248 706 290 706 335 C 706 379 697 421 680 461 C 663 501 640 535 611 565 C 581 595 547 618 508 636 C 468 653 426 662 382 662 C 337 662 295 653 256 636 C 216 618 182 595 153 565 C 124 535 101 501 84 461 C 67 421 59 379 59 335 C 59 290 67 248 84 209 C 101 169 124 135 153 105 C 182 75 216 52 256 35 C 295 18 337 10 382 10 Z M 402 703 L 379 703 L 260 825 L 302 825 L 402 703 Z" />
<glyph unicode="" horiz-adv-x="765" d="M 382 -12 C 334 -12 289 -3 247 15 C 205 33 168 57 136 89 C 104 121 80 158 62 200 C 44 242 35 287 35 335 C 35 383 44 428 62 470 C 80 512 104 549 136 581 C 168 613 205 638 247 656 C 289 674 334 684 382 684 C 430 684 475 674 517 656 C 559 638 596 613 628 581 C 659 549 684 512 702 470 C 720 428 730 383 730 335 C 730 287 720 242 702 200 C 684 158 659 121 628 89 C 596 57 559 33 517 15 C 475 -3 430 -12 382 -12 Z M 382 10 C 426 10 468 18 508 35 C 547 52 581 75 611 105 C 640 135 663 169 680 209 C 697 248 706 290 706 335 C 706 379 697 421 680 461 C 663 501 640 535 611 565 C 581 595 547 618 508 636 C 468 653 426 662 382 662 C 337 662 295 653 256 636 C 216 618 182 595 153 565 C 124 535 101 501 84 461 C 67 421 59 379 59 335 C 59 290 67 248 84 209 C 101 169 124 135 153 105 C 182 75 216 52 256 35 C 295 18 337 10 382 10 Z M 472 825 L 514 825 L 395 703 L 372 703 L 472 825 Z" />
<glyph unicode="" horiz-adv-x="765" d="M 382 -12 C 334 -12 289 -3 247 15 C 205 33 168 57 136 89 C 104 121 80 158 62 200 C 44 242 35 287 35 335 C 35 383 44 428 62 470 C 80 512 104 549 136 581 C 168 613 205 638 247 656 C 289 674 334 684 382 684 C 430 684 475 674 517 656 C 559 638 596 613 628 581 C 659 549 684 512 702 470 C 720 428 730 383 730 335 C 730 287 720 242 702 200 C 684 158 659 121 628 89 C 596 57 559 33 517 15 C 475 -3 430 -12 382 -12 Z M 382 10 C 426 10 468 18 508 35 C 547 52 581 75 611 105 C 640 135 663 169 680 209 C 697 248 706 290 706 335 C 706 379 697 421 680 461 C 663 501 640 535 611 565 C 581 595 547 618 508 636 C 468 653 426 662 382 662 C 337 662 295 653 256 636 C 216 618 182 595 153 565 C 124 535 101 501 84 461 C 67 421 59 379 59 335 C 59 290 67 248 84 209 C 101 169 124 135 153 105 C 182 75 216 52 256 35 C 295 18 337 10 382 10 Z M 310 780 C 288 780 272 773 263 761 C 253 748 249 732 249 712 L 225 712 C 225 742 232 764 248 779 C 263 794 284 802 310 802 C 327 802 342 798 356 790 C 369 782 382 773 394 763 C 406 753 417 744 429 736 C 440 728 452 724 466 724 C 488 724 503 730 513 743 C 522 755 527 772 527 792 L 551 792 C 551 762 543 739 528 724 C 512 709 492 702 466 702 C 450 702 435 706 422 714 C 409 722 397 731 385 741 C 373 751 361 760 349 768 C 337 776 324 780 310 780 Z" />
<glyph unicode="" horiz-adv-x="500" d="M 250 235 L 60 46 L 45 61 L 234 251 L 45 441 L 60 456 L 250 267 L 440 456 L 455 441 L 266 251 L 455 61 L 440 46 L 250 235 Z" />
<glyph unicode="" horiz-adv-x="752" d="M 48 18 L 129 99 C 99 129 76 165 60 205 C 43 245 35 289 35 335 C 35 381 43 425 61 467 C 79 509 103 545 134 576 C 165 606 201 631 242 649 C 283 667 327 676 375 676 C 421 676 464 667 504 651 C 544 634 579 611 611 581 L 697 667 L 714 650 L 627 563 C 655 533 676 498 692 459 C 708 420 716 379 716 335 C 716 287 707 243 689 202 C 671 161 646 125 616 94 C 585 63 549 39 507 21 C 465 3 421 -5 375 -5 C 331 -5 289 2 250 18 C 211 33 177 55 147 83 L 65 1 L 48 18 Z M 60 335 C 60 292 67 252 82 215 C 97 177 118 144 146 116 L 594 564 C 565 592 532 614 495 630 C 457 646 417 654 375 654 C 331 654 290 645 252 629 C 214 612 180 589 152 560 C 123 531 100 497 84 459 C 68 420 60 379 60 335 Z M 375 17 C 419 17 460 25 498 42 C 536 58 570 81 598 110 C 626 139 649 173 666 211 C 682 249 691 291 691 335 C 691 375 684 414 670 450 C 656 486 636 518 611 547 L 163 99 C 191 73 223 53 259 39 C 295 24 333 17 375 17 Z" />
<glyph unicode="" horiz-adv-x="583" d="M 291 -12 C 253 -12 219 -5 191 7 C 162 20 138 38 118 60 C 98 82 84 108 74 138 C 64 167 59 198 59 231 L 59 672 L 84 672 L 84 231 C 84 203 88 175 97 149 C 105 122 118 98 136 78 C 153 57 174 40 200 28 C 226 16 256 10 291 10 C 325 10 356 16 382 28 C 408 40 429 57 447 78 C 464 98 477 122 486 149 C 494 175 499 203 499 231 L 499 672 L 524 672 L 524 231 C 524 198 519 167 509 138 C 499 108 484 82 464 60 C 444 38 420 20 391 7 C 362 -5 329 -12 291 -12 Z M 319 703 L 296 703 L 177 825 L 219 825 L 319 703 Z" />
<glyph unicode="" horiz-adv-x="583" d="M 291 -12 C 253 -12 219 -5 191 7 C 162 20 138 38 118 60 C 98 82 84 108 74 138 C 64 167 59 198 59 231 L 59 672 L 84 672 L 84 231 C 84 203 88 175 97 149 C 105 122 118 98 136 78 C 153 57 174 40 200 28 C 226 16 256 10 291 10 C 325 10 356 16 382 28 C 408 40 429 57 447 78 C 464 98 477 122 486 149 C 494 175 499 203 499 231 L 499 672 L 524 672 L 524 231 C 524 198 519 167 509 138 C 499 108 484 82 464 60 C 444 38 420 20 391 7 C 362 -5 329 -12 291 -12 Z M 377 825 L 419 825 L 300 703 L 277 703 L 377 825 Z" />
<glyph unicode="" horiz-adv-x="578" d="M 344 227 C 326 227 310 228 297 230 C 283 232 272 237 262 243 C 252 249 243 258 235 269 C 227 279 219 293 211 310 L 40 672 L 68 672 L 233 319 C 239 303 246 291 253 283 C 259 274 267 267 276 262 C 285 257 296 254 308 253 C 320 251 335 251 353 251 L 512 672 L 538 672 L 284 0 L 258 0 L 344 227 Z M 381 825 L 423 825 L 304 703 L 281 703 L 381 825 Z" />
<glyph unicode="" horiz-adv-x="572" d="M 279 -12 C 247 -12 216 -6 187 5 C 157 17 131 33 109 55 C 86 77 68 103 55 133 C 41 163 35 196 35 233 C 35 267 41 299 54 329 C 66 359 84 385 106 407 C 128 429 153 446 183 459 C 213 471 245 478 279 478 C 303 478 324 475 341 470 C 358 464 374 458 388 452 C 402 445 416 439 430 434 C 443 428 458 426 476 426 L 476 466 L 500 466 L 500 127 C 500 113 500 101 501 91 C 502 81 504 73 508 65 C 511 57 516 49 523 42 C 530 34 540 26 552 18 L 537 0 C 523 11 511 20 501 27 C 490 33 478 37 464 37 C 448 37 433 34 421 29 C 409 24 396 18 383 12 C 370 6 355 0 339 -4 C 323 -9 303 -12 279 -12 Z M 280 10 C 304 10 325 13 342 19 C 358 25 374 31 389 38 C 403 45 418 51 433 55 C 447 59 465 60 486 58 C 479 66 476 87 476 121 L 476 406 C 456 405 439 407 425 412 C 411 417 397 423 383 430 C 369 436 354 442 338 448 C 322 453 302 456 280 456 C 249 456 220 450 194 439 C 167 428 144 413 124 393 C 104 373 88 349 76 322 C 64 294 59 265 59 233 C 59 198 65 167 77 140 C 89 112 106 89 126 70 C 146 50 170 35 197 25 C 223 15 251 10 280 10 Z M 315 517 L 292 517 L 173 639 L 215 639 L 315 517 Z" />
<glyph unicode="" horiz-adv-x="572" d="M 279 -12 C 247 -12 216 -6 187 5 C 157 17 131 33 109 55 C 86 77 68 103 55 133 C 41 163 35 196 35 233 C 35 267 41 299 54 329 C 66 359 84 385 106 407 C 128 429 153 446 183 459 C 213 471 245 478 279 478 C 303 478 324 475 341 470 C 358 464 374 458 388 452 C 402 445 416 439 430 434 C 443 428 458 426 476 426 L 476 466 L 500 466 L 500 127 C 500 113 500 101 501 91 C 502 81 504 73 508 65 C 511 57 516 49 523 42 C 530 34 540 26 552 18 L 537 0 C 523 11 511 20 501 27 C 490 33 478 37 464 37 C 448 37 433 34 421 29 C 409 24 396 18 383 12 C 370 6 355 0 339 -4 C 323 -9 303 -12 279 -12 Z M 280 10 C 304 10 325 13 342 19 C 358 25 374 31 389 38 C 403 45 418 51 433 55 C 447 59 465 60 486 58 C 479 66 476 87 476 121 L 476 406 C 456 405 439 407 425 412 C 411 417 397 423 383 430 C 369 436 354 442 338 448 C 322 453 302 456 280 456 C 249 456 220 450 194 439 C 167 428 144 413 124 393 C 104 373 88 349 76 322 C 64 294 59 265 59 233 C 59 198 65 167 77 140 C 89 112 106 89 126 70 C 146 50 170 35 197 25 C 223 15 251 10 280 10 Z M 372 639 L 414 639 L 295 517 L 272 517 L 372 639 Z" />
<glyph unicode="" horiz-adv-x="572" d="M 279 -12 C 247 -12 216 -6 187 5 C 157 17 131 33 109 55 C 86 77 68 103 55 133 C 41 163 35 196 35 233 C 35 267 41 299 54 329 C 66 359 84 385 106 407 C 128 429 153 446 183 459 C 213 471 245 478 279 478 C 303 478 324 475 341 470 C 358 464 374 458 388 452 C 402 445 416 439 430 434 C 443 428 458 426 476 426 L 476 466 L 500 466 L 500 127 C 500 113 500 101 501 91 C 502 81 504 73 508 65 C 511 57 516 49 523 42 C 530 34 540 26 552 18 L 537 0 C 523 11 511 20 501 27 C 490 33 478 37 464 37 C 448 37 433 34 421 29 C 409 24 396 18 383 12 C 370 6 355 0 339 -4 C 323 -9 303 -12 279 -12 Z M 280 10 C 304 10 325 13 342 19 C 358 25 374 31 389 38 C 403 45 418 51 433 55 C 447 59 465 60 486 58 C 479 66 476 87 476 121 L 476 406 C 456 405 439 407 425 412 C 411 417 397 423 383 430 C 369 436 354 442 338 448 C 322 453 302 456 280 456 C 249 456 220 450 194 439 C 167 428 144 413 124 393 C 104 373 88 349 76 322 C 64 294 59 265 59 233 C 59 198 65 167 77 140 C 89 112 106 89 126 70 C 146 50 170 35 197 25 C 223 15 251 10 280 10 Z M 208 604 C 186 604 170 597 161 585 C 151 572 147 556 147 536 L 123 536 C 123 566 130 588 146 603 C 161 618 182 626 208 626 C 225 626 240 622 254 614 C 267 606 280 597 292 587 C 304 577 315 568 327 560 C 338 552 350 548 364 548 C 386 548 401 554 411 567 C 420 579 425 596 425 616 L 449 616 C 449 586 441 563 426 548 C 410 533 390 526 364 526 C 348 526 333 530 320 538 C 307 546 295 555 283 565 C 271 575 259 584 247 592 C 235 600 222 604 208 604 Z" />
<glyph unicode="" horiz-adv-x="551" d="M 277 -12 C 239 -12 206 -5 176 7 C 146 20 121 38 100 61 C 79 83 63 109 52 139 C 40 168 35 199 35 233 C 35 267 41 298 54 328 C 66 358 83 384 105 406 C 127 428 152 445 182 458 C 211 471 242 478 276 478 C 310 478 341 472 371 461 C 400 449 425 433 447 413 C 469 392 486 367 498 338 C 510 309 516 277 516 243 L 516 228 L 141 228 C 119 228 103 223 91 213 C 79 203 73 190 73 172 C 73 155 77 138 85 122 C 93 105 103 90 117 77 C 137 56 160 40 188 28 C 215 16 245 10 277 10 C 322 10 362 21 396 45 C 430 68 456 99 474 137 L 498 137 C 478 91 449 55 410 28 C 371 1 327 -12 277 -12 Z M 61 195 C 62 210 70 223 84 234 C 98 244 115 250 137 250 L 493 250 C 493 280 487 307 476 332 C 464 357 449 379 430 397 C 410 415 387 430 361 440 C 335 450 306 456 276 456 C 248 456 222 450 196 440 C 170 429 146 414 126 394 C 106 374 89 351 77 324 C 65 296 58 266 58 233 C 58 221 59 209 61 195 Z M 309 517 L 286 517 L 167 639 L 209 639 L 309 517 Z" />
<glyph unicode="" horiz-adv-x="551" d="M 277 -12 C 239 -12 206 -5 176 7 C 146 20 121 38 100 61 C 79 83 63 109 52 139 C 40 168 35 199 35 233 C 35 267 41 298 54 328 C 66 358 83 384 105 406 C 127 428 152 445 182 458 C 211 471 242 478 276 478 C 310 478 341 472 371 461 C 400 449 425 433 447 413 C 469 392 486 367 498 338 C 510 309 516 277 516 243 L 516 228 L 141 228 C 119 228 103 223 91 213 C 79 203 73 190 73 172 C 73 155 77 138 85 122 C 93 105 103 90 117 77 C 137 56 160 40 188 28 C 215 16 245 10 277 10 C 322 10 362 21 396 45 C 430 68 456 99 474 137 L 498 137 C 478 91 449 55 410 28 C 371 1 327 -12 277 -12 Z M 61 195 C 62 210 70 223 84 234 C 98 244 115 250 137 250 L 493 250 C 493 280 487 307 476 332 C 464 357 449 379 430 397 C 410 415 387 430 361 440 C 335 450 306 456 276 456 C 248 456 222 450 196 440 C 170 429 146 414 126 394 C 106 374 89 351 77 324 C 65 296 58 266 58 233 C 58 221 59 209 61 195 Z M 368 639 L 410 639 L 291 517 L 268 517 L 368 639 Z" />
<glyph unicode="" horiz-adv-x="154" d="M 65 466 L 89 466 L 89 0 L 65 0 L 65 466 Z M 88 517 L 65 517 L -54 639 L -12 639 L 88 517 Z" />
<glyph unicode="" horiz-adv-x="154" d="M 65 466 L 89 466 L 89 0 L 65 0 L 65 466 Z M 166 639 L 208 639 L 89 517 L 66 517 L 166 639 Z" />
<glyph unicode="" horiz-adv-x="519" d="M 60 466 L 84 466 L 84 426 C 100 426 116 428 130 434 C 144 439 159 445 174 452 C 189 458 205 464 223 470 C 240 475 260 478 283 478 C 309 478 332 474 354 467 C 375 459 393 448 409 433 C 425 418 437 399 446 376 C 454 352 459 325 459 294 L 459 0 L 435 0 L 435 294 C 435 344 422 383 398 412 C 373 441 335 456 283 456 C 261 456 241 453 225 448 C 209 443 193 437 179 431 C 164 425 149 419 135 414 C 120 408 103 405 84 405 L 84 0 L 60 0 L 60 466 Z M 181 604 C 159 604 143 597 134 585 C 124 572 120 556 120 536 L 96 536 C 96 566 103 588 119 603 C 134 618 155 626 181 626 C 198 626 213 622 227 614 C 240 606 253 597 265 587 C 277 577 288 568 300 560 C 311 552 323 548 337 548 C 359 548 374 554 384 567 C 393 579 398 596 398 616 L 422 616 C 422 586 414 563 399 548 C 383 533 363 526 337 526 C 321 526 306 530 293 538 C 280 546 268 555 256 565 C 244 575 232 584 220 592 C 208 600 195 604 181 604 Z" />
<glyph unicode="" horiz-adv-x="560" d="M 35 233 C 35 267 41 299 54 329 C 66 359 84 385 106 407 C 128 429 153 446 183 459 C 213 471 245 478 280 478 C 314 478 346 471 376 459 C 406 446 432 429 454 407 C 476 385 493 359 506 329 C 518 299 525 267 525 233 C 525 198 518 166 506 136 C 493 106 476 81 454 59 C 432 37 406 19 376 7 C 346 -5 314 -12 280 -12 C 245 -12 213 -5 183 7 C 153 19 128 37 106 59 C 84 81 66 106 54 136 C 41 166 35 198 35 233 Z M 59 233 C 59 201 64 172 76 145 C 87 117 102 94 122 74 C 142 54 165 38 192 27 C 219 15 248 10 280 10 C 311 10 340 15 367 27 C 394 38 417 54 437 74 C 457 94 472 117 484 145 C 495 172 501 201 501 233 C 501 264 495 293 484 321 C 472 348 457 372 437 392 C 417 412 394 427 367 439 C 340 450 311 456 280 456 C 248 456 219 450 192 439 C 165 427 142 412 122 392 C 102 372 87 348 76 321 C 64 293 59 264 59 233 Z M 295 517 L 272 517 L 153 639 L 195 639 L 295 517 Z" />
<glyph unicode="" horiz-adv-x="560" d="M 35 233 C 35 267 41 299 54 329 C 66 359 84 385 106 407 C 128 429 153 446 183 459 C 213 471 245 478 280 478 C 314 478 346 471 376 459 C 406 446 432 429 454 407 C 476 385 493 359 506 329 C 518 299 525 267 525 233 C 525 198 518 166 506 136 C 493 106 476 81 454 59 C 432 37 406 19 376 7 C 346 -5 314 -12 280 -12 C 245 -12 213 -5 183 7 C 153 19 128 37 106 59 C 84 81 66 106 54 136 C 41 166 35 198 35 233 Z M 59 233 C 59 201 64 172 76 145 C 87 117 102 94 122 74 C 142 54 165 38 192 27 C 219 15 248 10 280 10 C 311 10 340 15 367 27 C 394 38 417 54 437 74 C 457 94 472 117 484 145 C 495 172 501 201 501 233 C 501 264 495 293 484 321 C 472 348 457 372 437 392 C 417 412 394 427 367 439 C 340 450 311 456 280 456 C 248 456 219 450 192 439 C 165 427 142 412 122 392 C 102 372 87 348 76 321 C 64 293 59 264 59 233 Z M 368 639 L 410 639 L 291 517 L 268 517 L 368 639 Z" />
<glyph unicode="" horiz-adv-x="560" d="M 35 233 C 35 267 41 299 54 329 C 66 359 84 385 106 407 C 128 429 153 446 183 459 C 213 471 245 478 280 478 C 314 478 346 471 376 459 C 406 446 432 429 454 407 C 476 385 493 359 506 329 C 518 299 525 267 525 233 C 525 198 518 166 506 136 C 493 106 476 81 454 59 C 432 37 406 19 376 7 C 346 -5 314 -12 280 -12 C 245 -12 213 -5 183 7 C 153 19 128 37 106 59 C 84 81 66 106 54 136 C 41 166 35 198 35 233 Z M 59 233 C 59 201 64 172 76 145 C 87 117 102 94 122 74 C 142 54 165 38 192 27 C 219 15 248 10 280 10 C 311 10 340 15 367 27 C 394 38 417 54 437 74 C 457 94 472 117 484 145 C 495 172 501 201 501 233 C 501 264 495 293 484 321 C 472 348 457 372 437 392 C 417 412 394 427 367 439 C 340 450 311 456 280 456 C 248 456 219 450 192 439 C 165 427 142 412 122 392 C 102 372 87 348 76 321 C 64 293 59 264 59 233 Z M 202 604 C 180 604 164 597 155 585 C 145 572 141 556 141 536 L 117 536 C 117 566 124 588 140 603 C 155 618 176 626 202 626 C 219 626 234 622 248 614 C 261 606 274 597 286 587 C 298 577 309 568 321 560 C 332 552 344 548 358 548 C 380 548 395 554 405 567 C 414 579 419 596 419 616 L 443 616 C 443 586 435 563 420 548 C 404 533 384 526 358 526 C 342 526 327 530 314 538 C 301 546 289 555 277 565 C 265 575 253 584 241 592 C 229 600 216 604 202 604 Z" />
<glyph unicode="" horiz-adv-x="592" d="M 273 48 L 316 48 L 316 0 L 273 0 L 273 48 Z M 273 502 L 316 502 L 316 454 L 273 454 L 273 502 Z M 45 240 L 45 262 L 547 262 L 547 240 L 45 240 Z" />
<glyph unicode="" horiz-adv-x="526" d="M 236 10 C 261 10 282 13 300 19 C 317 25 333 31 347 38 C 361 45 376 51 391 55 C 406 59 424 60 445 58 C 438 66 435 88 435 122 L 435 466 L 459 466 L 459 127 C 459 113 459 101 460 91 C 461 81 463 73 467 65 C 470 57 475 49 482 42 C 489 34 499 26 511 18 L 496 0 C 482 11 470 20 460 27 C 449 33 437 37 423 37 C 407 37 393 34 381 29 C 369 24 356 18 343 12 C 329 6 314 0 298 -4 C 281 -9 260 -12 236 -12 C 210 -12 186 -8 165 -1 C 143 6 125 17 109 32 C 93 47 81 66 73 90 C 64 113 60 140 60 172 L 60 466 L 84 466 L 84 172 C 84 122 96 82 121 53 C 145 24 184 10 236 10 Z M 305 517 L 282 517 L 163 639 L 205 639 L 305 517 Z" />
<glyph unicode="" horiz-adv-x="526" d="M 236 10 C 261 10 282 13 300 19 C 317 25 333 31 347 38 C 361 45 376 51 391 55 C 406 59 424 60 445 58 C 438 66 435 88 435 122 L 435 466 L 459 466 L 459 127 C 459 113 459 101 460 91 C 461 81 463 73 467 65 C 470 57 475 49 482 42 C 489 34 499 26 511 18 L 496 0 C 482 11 470 20 460 27 C 449 33 437 37 423 37 C 407 37 393 34 381 29 C 369 24 356 18 343 12 C 329 6 314 0 298 -4 C 281 -9 260 -12 236 -12 C 210 -12 186 -8 165 -1 C 143 6 125 17 109 32 C 93 47 81 66 73 90 C 64 113 60 140 60 172 L 60 466 L 84 466 L 84 172 C 84 122 96 82 121 53 C 145 24 184 10 236 10 Z M 343 639 L 385 639 L 266 517 L 243 517 L 343 639 Z" />
<glyph unicode="" horiz-adv-x="526" d="M 132 -184 C 162 -184 185 -180 199 -174 C 213 -167 224 -154 232 -136 L 284 0 C 252 0 229 6 215 18 C 201 30 189 49 181 77 L 40 466 L 67 466 L 204 82 C 208 69 213 59 218 51 C 223 43 229 37 236 33 C 243 29 251 26 260 24 C 269 22 280 22 293 22 L 456 466 L 483 466 L 255 -141 C 245 -166 232 -183 216 -192 C 200 -201 175 -206 141 -206 L 132 -206 L 132 -184 Z M 349 639 L 391 639 L 272 517 L 249 517 L 349 639 Z" />
<glyph unicode="" horiz-adv-x="154" d="M 65 466 L 89 466 L 89 0 L 65 0 L 65 466 Z" />
<glyph unicode="" horiz-adv-x="316" d="M -25 -95 C 7 -95 30 -88 46 -74 C 62 -60 70 -35 70 0 L 70 357 C 70 373 71 386 75 398 C 79 409 84 418 90 426 C 96 433 103 439 111 443 C 119 447 127 451 137 455 C 113 461 94 474 81 492 C 68 510 62 532 62 558 C 62 578 65 596 72 610 C 79 624 88 636 100 645 C 112 654 125 661 141 665 C 156 669 172 672 188 672 L 271 672 L 271 650 L 188 650 C 174 650 161 648 149 645 C 137 641 126 636 117 629 C 107 622 100 613 94 601 C 88 589 86 574 86 558 C 86 526 95 503 115 488 C 134 473 157 466 183 466 L 271 466 L 271 444 L 183 444 C 155 444 133 437 117 424 C 101 411 94 389 94 357 L 94 0 C 94 -42 83 -72 61 -90 C 39 -108 10 -117 -25 -117 L -25 -95 Z" />
<glyph unicode="" horiz-adv-x="300" d="M 265 517 L 236 517 L 150 614 L 64 517 L 35 517 L 139 639 L 161 639 L 265 517 Z" />
<glyph unicode="" horiz-adv-x="300" d="M 161 517 L 139 517 L 35 639 L 64 639 L 150 542 L 236 639 L 265 639 L 161 517 Z" />
<glyph unicode="" horiz-adv-x="396" d="M 120 604 C 98 604 82 597 73 585 C 63 572 59 556 59 536 L 35 536 C 35 566 42 588 58 603 C 73 618 94 626 120 626 C 137 626 152 622 166 614 C 179 606 192 597 204 587 C 216 577 227 568 239 560 C 250 552 262 548 276 548 C 298 548 313 554 323 567 C 332 579 337 596 337 616 L 361 616 C 361 586 353 563 338 548 C 322 533 302 526 276 526 C 260 526 245 530 232 538 C 219 546 207 555 195 565 C 183 575 171 584 159 592 C 147 600 134 604 120 604 Z" />
<glyph unicode="" horiz-adv-x="480" d="M 45 271 L 435 271 L 435 249 L 45 249 L 45 271 Z" />
<glyph unicode="" horiz-adv-x="700" d="M 45 270 L 655 270 L 655 250 L 45 250 L 45 270 Z" />
<glyph unicode="" horiz-adv-x="141" d="M 116 650 C 98 650 85 644 78 634 C 70 623 67 609 67 591 L 67 564 L 93 564 L 93 514 L 45 514 L 45 591 C 45 616 51 636 63 650 C 75 664 92 672 116 672 L 116 650 Z" />
<glyph unicode="" horiz-adv-x="141" d="M 25 536 C 43 536 55 541 63 552 C 70 562 74 577 74 595 L 74 622 L 48 622 L 48 672 L 96 672 L 96 595 C 96 569 90 549 78 535 C 66 521 48 514 25 514 L 25 536 Z" />
<glyph unicode="" horiz-adv-x="141" d="M 25 -86 C 43 -86 55 -80 63 -70 C 70 -59 74 -45 74 -27 L 74 0 L 48 0 L 48 50 L 96 50 L 96 -27 C 96 -52 90 -72 78 -86 C 66 -100 48 -108 25 -108 L 25 -86 Z" />
<glyph unicode="" horiz-adv-x="239" d="M 116 650 C 98 650 85 644 78 634 C 70 623 67 609 67 591 L 67 564 L 93 564 L 93 514 L 45 514 L 45 591 C 45 616 51 636 63 650 C 75 664 92 672 116 672 L 116 650 Z M 214 650 C 196 650 183 644 176 634 C 168 623 165 609 165 591 L 165 564 L 191 564 L 191 514 L 143 514 L 143 591 C 143 616 149 636 161 650 C 173 664 190 672 214 672 L 214 650 Z" />
<glyph unicode="" horiz-adv-x="239" d="M 25 536 C 43 536 55 541 63 552 C 70 562 74 577 74 595 L 74 622 L 48 622 L 48 672 L 96 672 L 96 595 C 96 569 90 549 78 535 C 66 521 48 514 25 514 L 25 536 Z M 123 536 C 141 536 153 541 161 552 C 168 562 172 577 172 595 L 172 622 L 146 622 L 146 672 L 194 672 L 194 595 C 194 569 188 549 176 535 C 164 521 146 514 123 514 L 123 536 Z" />
<glyph unicode="" horiz-adv-x="239" d="M 25 -86 C 43 -86 55 -80 63 -70 C 70 -59 74 -45 74 -27 L 74 0 L 48 0 L 48 50 L 96 50 L 96 -27 C 96 -52 90 -72 78 -86 C 66 -100 48 -108 25 -108 L 25 -86 Z M 123 -86 C 141 -86 153 -80 161 -70 C 168 -59 172 -45 172 -27 L 172 0 L 146 0 L 146 50 L 194 50 L 194 -27 C 194 -52 188 -72 176 -86 C 164 -100 146 -108 123 -108 L 123 -86 Z" />
<glyph unicode="" horiz-adv-x="451" d="M 214 473 L 35 473 L 35 495 L 214 495 L 214 722 L 238 722 L 238 495 L 416 495 L 416 473 L 238 473 L 238 -50 L 214 -50 L 214 473 Z" />
<glyph unicode="" horiz-adv-x="234" d="M 117 208 C 103 208 90 213 80 223 C 70 233 65 246 65 260 C 65 274 70 286 80 296 C 90 306 103 312 117 312 C 131 312 143 306 153 296 C 163 286 169 274 169 260 C 169 246 163 233 153 223 C 143 213 131 208 117 208 Z" />
<glyph unicode="" horiz-adv-x="328" d="M 45 0 L 45 50 L 93 50 L 93 0 L 45 0 Z M 140 0 L 140 50 L 188 50 L 188 0 L 140 0 Z M 235 0 L 235 50 L 283 50 L 283 0 L 235 0 Z" />
<glyph unicode="" horiz-adv-x="215" d="M 180 43 L 153 43 L 35 233 L 153 423 L 180 423 L 61 233 L 180 43 Z" />
<glyph unicode="" horiz-adv-x="215" d="M 153 233 L 35 423 L 61 423 L 180 233 L 61 43 L 35 43 L 153 233 Z" />
<glyph unicode="" horiz-adv-x="329" d="M 165 264 C 147 264 131 267 116 273 C 101 279 88 287 77 298 C 65 308 56 321 50 335 C 43 349 40 365 40 382 L 40 559 C 40 575 43 591 49 605 C 55 619 64 632 76 643 C 87 653 100 662 116 668 C 131 674 147 677 165 677 C 182 677 198 674 213 668 C 228 662 241 653 253 643 C 264 633 273 620 279 606 C 285 591 289 575 289 559 L 289 382 C 289 364 285 348 279 334 C 273 320 264 307 253 297 C 242 287 229 279 214 273 C 198 267 182 264 165 264 Z M 165 283 C 178 283 191 285 203 290 C 215 295 226 302 236 311 C 246 320 253 331 259 343 C 265 355 268 368 268 382 L 268 559 C 268 573 265 586 259 598 C 253 610 246 620 237 629 C 227 638 216 645 204 650 C 192 655 179 658 165 658 C 151 658 137 655 125 650 C 113 645 102 638 92 629 C 82 620 75 610 69 598 C 63 586 61 573 61 559 L 61 382 C 61 368 63 355 69 343 C 75 331 82 320 92 311 C 102 302 113 295 125 290 C 137 285 151 283 165 283 Z" />
<glyph unicode="" horiz-adv-x="331" d="M 231 356 L 38 356 C 29 356 25 360 25 368 C 25 369 25 370 26 372 C 26 373 27 374 27 375 L 226 672 L 253 672 L 54 376 L 231 376 L 231 491 L 253 491 L 253 376 L 311 376 L 311 356 L 253 356 L 253 270 L 231 270 L 231 356 Z" />
<glyph unicode="" horiz-adv-x="318" d="M 70 484 C 81 493 94 501 108 508 C 122 515 139 519 160 519 C 178 519 195 515 210 509 C 225 502 238 493 249 481 C 259 469 268 456 274 441 C 280 425 283 409 283 391 C 283 373 279 357 273 341 C 267 325 258 312 247 301 C 235 289 222 280 207 274 C 191 267 174 264 156 264 C 138 264 121 267 106 274 C 90 280 77 289 66 301 C 54 312 45 325 39 340 C 33 354 30 370 30 387 L 52 387 C 52 373 54 359 60 347 C 65 335 72 324 81 315 C 90 305 101 298 114 293 C 126 287 140 285 156 285 C 187 285 212 295 232 315 C 251 335 261 360 261 391 C 261 421 251 447 233 468 C 214 488 189 499 158 499 C 139 499 122 495 107 488 C 92 480 78 470 65 458 C 61 454 57 453 53 453 C 51 453 50 453 48 455 C 46 457 45 459 46 463 L 75 672 L 255 672 L 255 651 L 94 651 L 70 484 Z" />
<glyph unicode="" horiz-adv-x="322" d="M 161 680 C 195 680 224 669 247 647 C 270 625 282 596 282 560 L 259 560 C 259 589 249 613 231 631 C 213 649 189 659 161 659 C 145 659 132 656 120 651 C 108 645 97 638 89 629 C 80 620 73 610 69 598 C 64 586 62 574 62 562 L 62 473 C 68 474 75 477 82 481 C 88 485 96 489 104 493 C 112 497 120 501 130 505 C 140 508 151 510 164 510 C 203 510 233 498 255 475 C 276 452 287 423 287 387 C 287 369 283 353 277 338 C 271 323 262 310 251 299 C 240 288 227 279 212 273 C 196 267 180 264 163 264 C 146 264 130 267 116 273 C 101 279 88 287 77 298 C 65 309 56 322 50 337 C 43 352 40 369 40 387 L 40 562 C 40 578 43 594 49 608 C 55 622 64 635 75 646 C 85 656 98 665 113 671 C 127 677 143 680 161 680 Z M 164 489 C 152 489 142 487 133 484 C 124 480 116 477 108 473 C 100 469 92 465 85 461 C 77 457 70 454 62 453 L 62 387 C 62 358 71 334 91 314 C 110 294 134 285 163 285 C 193 285 217 294 236 313 C 255 332 265 357 265 387 C 265 418 256 443 238 461 C 220 479 196 489 164 489 Z" />
<glyph unicode="" horiz-adv-x="304" d="M 257 652 L 20 652 L 20 672 L 272 672 C 279 672 283 668 283 662 C 283 658 281 654 279 649 L 106 270 L 80 270 L 257 652 Z" />
<glyph unicode="" horiz-adv-x="324" d="M 162 263 C 143 263 126 266 110 272 C 94 278 80 286 68 297 C 56 308 46 321 40 336 C 33 351 30 367 30 385 C 30 406 35 426 45 444 C 55 462 70 477 89 490 C 77 500 67 511 59 525 C 51 538 47 554 47 572 C 47 602 57 627 78 648 C 99 669 127 680 162 680 C 196 680 224 669 245 648 C 266 627 277 602 277 572 C 277 554 272 538 264 525 C 256 511 246 500 235 490 C 253 477 268 462 278 444 C 288 426 294 406 294 385 C 294 367 290 350 284 336 C 277 321 268 308 256 297 C 244 286 230 278 214 272 C 198 266 180 263 162 263 Z M 162 659 C 134 659 111 650 94 633 C 77 615 69 595 69 571 C 69 553 73 539 82 528 C 90 517 99 508 108 501 C 112 497 115 493 115 490 C 115 486 112 483 107 480 C 91 469 78 455 68 439 C 57 423 52 405 52 385 C 52 371 54 358 60 346 C 66 334 74 323 84 314 C 94 304 105 297 119 292 C 132 286 146 284 162 284 C 176 284 190 286 204 292 C 217 297 229 304 239 314 C 249 323 257 334 263 346 C 269 358 272 371 272 385 C 272 405 266 423 256 439 C 245 455 232 469 217 480 C 211 483 209 486 209 490 C 209 493 211 497 216 501 C 224 508 233 517 242 528 C 250 539 255 553 255 571 C 255 595 246 615 229 633 C 212 650 190 659 162 659 Z" />
<glyph unicode="" horiz-adv-x="322" d="M 161 263 C 126 263 97 274 74 296 C 51 318 40 347 40 383 L 63 383 C 63 353 72 329 90 311 C 108 293 132 284 161 284 C 175 284 189 286 201 292 C 213 297 224 304 233 313 C 241 322 248 332 253 344 C 257 356 260 368 260 381 L 260 471 C 253 468 246 464 240 460 C 233 456 226 452 218 448 C 210 444 201 440 191 437 C 181 434 170 433 158 433 C 118 433 88 444 67 467 C 45 490 35 520 35 556 C 35 573 38 589 44 604 C 50 619 59 632 70 643 C 81 654 94 663 110 669 C 125 675 141 679 159 679 C 175 679 191 676 206 670 C 220 664 233 655 245 644 C 256 633 265 620 272 605 C 278 590 282 574 282 556 L 282 381 C 282 364 278 348 272 334 C 266 320 257 307 247 297 C 236 286 223 278 208 272 C 193 266 177 263 161 263 Z M 158 454 C 171 454 182 455 192 459 C 201 462 209 466 217 470 C 225 474 232 479 239 483 C 245 487 252 490 260 492 L 260 556 C 260 584 250 608 231 628 C 211 648 187 658 159 658 C 129 658 104 648 85 629 C 66 610 57 586 57 556 C 57 524 65 499 83 481 C 101 463 126 454 158 454 Z" />
<glyph unicode="" horiz-adv-x="691" d="M 322 672 L 343 672 L 484 431 L 625 672 L 646 672 L 646 334 L 626 334 L 626 635 L 491 406 C 485 406 480 406 478 408 C 475 410 472 414 469 420 L 342 634 L 342 334 L 322 334 L 322 672 Z M 164 329 C 122 329 91 339 73 359 C 54 379 45 406 45 438 L 65 438 C 65 410 72 388 88 372 C 104 355 129 347 164 347 C 175 347 186 348 198 352 C 209 355 219 360 228 366 C 236 372 243 380 249 390 C 254 400 257 411 257 425 C 257 443 252 458 242 468 C 232 478 220 487 206 493 C 192 499 176 503 160 507 C 143 511 127 516 113 522 C 99 528 87 537 77 548 C 67 558 63 573 63 593 C 63 617 71 636 89 652 C 107 668 131 676 161 676 C 187 676 209 669 229 655 C 249 641 259 621 259 594 L 239 594 C 239 615 231 631 216 642 C 200 652 182 658 161 658 C 135 658 116 652 103 640 C 89 628 83 612 83 593 C 83 577 87 564 97 556 C 107 547 119 540 133 535 C 147 529 163 525 180 521 C 196 517 212 511 226 504 C 240 497 252 487 262 475 C 272 463 277 446 277 425 C 277 409 274 396 268 384 C 262 372 253 362 243 354 C 232 346 220 339 206 335 C 192 331 178 329 164 329 Z" />
<glyph unicode="" horiz-adv-x="507" d="M 117 632 C 117 637 118 642 120 646 C 122 650 125 654 129 656 L 35 656 L 35 672 L 218 672 L 218 656 L 162 656 C 144 656 135 647 135 630 L 135 448 L 117 448 L 117 632 Z M 238 672 L 257 672 L 350 514 L 443 672 L 462 672 L 462 448 L 444 448 L 444 640 L 354 489 C 348 489 343 492 340 498 L 256 640 L 256 448 L 238 448 L 238 672 Z" />
<glyph unicode="" horiz-adv-x="592" d="M 45 240 L 45 262 L 547 262 L 547 240 L 45 240 Z" />
<glyph unicode="" horiz-adv-x="592" d="M 159 341 C 137 341 118 337 100 331 C 82 324 63 315 45 305 L 45 332 C 63 343 81 351 101 357 C 120 362 139 365 159 365 C 185 365 209 362 231 357 C 253 351 275 345 297 339 C 318 333 340 327 362 322 C 384 316 407 314 433 314 C 455 314 474 316 492 322 C 509 328 527 337 547 350 L 547 323 C 511 301 473 290 433 290 C 407 290 383 292 361 298 C 338 303 316 309 294 315 C 272 321 250 327 228 333 C 206 338 183 341 159 341 Z M 159 189 C 137 189 118 185 100 179 C 82 172 63 163 45 153 L 45 180 C 63 191 81 199 101 205 C 120 210 139 213 159 213 C 185 213 209 210 231 205 C 253 199 275 193 297 187 C 318 181 340 175 362 170 C 384 164 407 162 433 162 C 455 162 474 164 492 170 C 509 176 527 185 547 198 L 547 171 C 511 149 473 138 433 138 C 407 138 383 140 361 146 C 338 151 316 157 294 163 C 272 169 250 175 228 181 C 206 186 183 189 159 189 Z" />
<glyph unicode="" horiz-adv-x="512" d="M 270 0 C 246 0 228 5 215 17 C 201 29 187 46 173 69 L 45 270 L 65 282 L 195 80 C 205 63 216 50 226 40 C 236 30 250 24 270 23 L 443 672 L 467 672 C 437 562 407 449 377 335 C 346 220 316 108 287 0 L 270 0 Z" />
<glyph unicode="" horiz-adv-x="352" d="M 187 663 C 199 662 212 660 224 656 C 236 652 246 646 255 638 C 264 630 271 620 277 608 C 282 596 285 583 285 567 L 262 567 C 260 593 252 613 236 625 C 220 637 199 643 174 643 C 145 643 124 635 110 621 C 96 606 89 589 89 569 C 89 550 94 535 105 525 C 115 515 129 506 145 500 C 161 493 179 487 198 483 C 216 478 234 472 250 464 C 266 456 280 446 291 434 C 301 421 307 403 307 381 C 307 365 303 350 297 338 C 291 326 282 315 271 307 C 260 298 247 291 233 287 C 219 282 203 279 187 279 L 187 220 L 163 220 L 163 279 C 147 279 132 282 118 287 C 104 292 91 299 80 309 C 69 319 60 330 54 344 C 48 358 45 374 45 392 L 68 392 C 69 361 79 338 99 323 C 118 307 143 300 174 300 C 206 300 232 307 252 321 C 272 335 283 355 283 381 C 283 399 277 414 267 424 C 256 434 243 443 227 449 C 211 455 193 461 174 466 C 155 471 138 477 122 485 C 106 493 92 503 82 516 C 71 529 66 547 66 569 C 66 597 75 619 94 636 C 113 652 136 661 163 663 L 163 722 L 187 722 L 187 663 Z" />
<glyph unicode="" horiz-adv-x="352" d="M 187 613 C 199 612 212 610 224 606 C 236 602 246 596 255 588 C 264 580 271 570 277 558 C 282 546 285 533 285 517 L 262 517 C 260 543 252 563 236 575 C 220 587 199 593 174 593 C 145 593 124 585 110 571 C 96 556 89 539 89 519 C 89 500 94 485 105 475 C 115 465 129 456 145 450 C 161 443 179 437 198 433 C 216 428 234 422 250 414 C 266 406 280 396 291 384 C 301 371 307 353 307 331 C 307 315 303 300 297 288 C 291 276 282 265 271 257 C 260 248 247 241 233 237 C 219 232 203 229 187 229 L 187 170 L 163 170 L 163 229 C 147 229 132 232 118 237 C 104 242 91 249 80 259 C 69 269 60 280 54 294 C 48 308 45 324 45 342 L 68 342 C 69 311 79 288 99 273 C 118 257 143 250 174 250 C 206 250 232 257 252 271 C 272 285 283 305 283 331 C 283 349 277 364 267 374 C 256 384 243 393 227 399 C 211 405 193 411 174 416 C 155 421 138 427 122 435 C 106 443 92 453 82 466 C 71 479 66 497 66 519 C 66 547 75 569 94 586 C 113 602 136 611 163 613 L 163 672 L 187 672 L 187 613 Z" />
</font>
</defs>
</svg>
