<?xml version="1.0" encoding="utf-8" ?><svg version="1.1" xmlns='http://www.w3.org/2000/svg'><defs><font id='font' horiz-adv-x="1000">
<font-face font-family="font" bbox="-83,-218,3572,838" cap-height="672" units-per-em="1000" ascent="760" x-height="466" descent="-240" />
<missing-glyph horiz-adv-x="230" d="" /><glyph d="" horiz-adv-x="200" unicode=" " />
<glyph d="M 40 422 L 40 672 L 195 672 L 195 422 L 177 206 L 58 206 L 40 422 Z M 40 155 L 195 155 L 195 0 L 40 0 L 40 155 Z" horiz-adv-x="235" unicode="!" />
<glyph d="M 225 385 L 196 528 L 196 672 L 341 672 L 341 528 L 312 385 L 225 385 Z M 54 385 L 25 528 L 25 672 L 170 672 L 170 528 L 141 385 L 54 385 Z" horiz-adv-x="366" unicode="&#x22;" />
<glyph d="M 470 507 L 559 507 L 559 400 L 456 400 L 439 272 L 530 272 L 530 165 L 425 165 L 404 0 L 295 0 L 316 165 L 227 165 L 206 0 L 97 0 L 118 165 L 30 165 L 30 272 L 132 272 L 149 400 L 59 400 L 59 507 L 163 507 L 185 672 L 294 672 L 272 507 L 361 507 L 383 672 L 492 672 L 470 507 Z M 241 272 L 330 272 L 347 400 L 258 400 L 241 272 Z" horiz-adv-x="589" unicode="#" />
<glyph d="M 486 221 C 486 197 481 175 473 157 C 465 139 453 123 439 110 C 424 97 407 86 387 78 C 367 70 345 64 323 60 L 323 0 L 184 0 L 184 61 C 162 65 141 72 121 81 C 101 90 84 101 70 115 C 55 128 43 144 35 163 C 26 181 22 202 22 226 L 169 226 C 170 209 178 196 194 186 C 210 176 229 172 252 172 C 280 172 302 176 316 185 C 330 194 337 206 337 221 C 337 235 329 246 315 254 C 300 261 282 268 260 274 C 238 280 215 286 190 293 C 164 300 141 310 119 323 C 97 335 79 352 65 373 C 50 394 43 422 43 457 C 43 493 55 526 79 556 C 103 585 138 605 184 616 L 184 672 L 323 672 L 323 615 C 369 605 404 585 429 557 C 454 529 467 495 467 457 L 330 457 C 328 472 320 484 306 493 C 292 502 274 507 252 507 C 228 507 210 502 198 494 C 186 485 180 473 180 458 C 180 442 187 430 202 422 C 217 414 236 407 259 401 C 281 395 306 388 333 382 C 359 375 384 365 407 353 C 429 340 448 323 463 303 C 478 282 486 255 486 221 Z" horiz-adv-x="512" unicode="$" />
<glyph d="M 517 672 L 643 672 L 258 0 L 132 0 L 517 672 Z M 194 336 C 168 336 145 340 124 349 C 102 358 84 370 69 386 C 53 401 41 419 33 440 C 24 460 20 483 20 507 C 20 531 24 553 33 574 C 41 594 53 612 69 628 C 84 644 102 656 124 665 C 145 674 168 679 194 679 C 219 679 242 674 264 665 C 285 656 303 644 319 628 C 335 612 347 594 356 574 C 364 553 369 531 369 507 C 369 483 364 460 356 440 C 347 419 335 401 319 386 C 303 370 285 358 264 349 C 242 340 219 336 194 336 Z M 582 -7 C 556 -7 533 -2 512 6 C 490 15 472 27 457 43 C 441 58 429 76 421 97 C 412 117 408 140 408 164 C 408 188 412 210 421 231 C 429 251 441 269 457 285 C 472 301 490 313 512 322 C 533 331 556 336 582 336 C 607 336 630 331 652 322 C 673 313 691 301 707 285 C 723 269 735 251 744 231 C 752 210 757 188 757 164 C 757 140 752 117 744 97 C 735 76 723 58 707 43 C 691 27 673 15 652 6 C 630 -2 607 -7 582 -7 Z M 131 507 C 131 489 137 474 149 462 C 161 450 176 444 195 444 C 213 444 228 450 240 462 C 252 474 258 489 258 507 C 258 524 252 539 240 552 C 228 564 213 571 195 571 C 175 571 160 564 148 552 C 136 540 131 525 131 507 Z M 519 164 C 519 146 525 131 537 119 C 549 107 564 101 583 101 C 601 101 616 107 628 119 C 640 131 646 146 646 164 C 646 181 640 196 628 209 C 616 221 601 228 583 228 C 563 228 548 221 536 209 C 524 197 519 182 519 164 Z" horiz-adv-x="777" unicode="%" />
<glyph d="M 27 168 C 27 194 31 217 40 238 C 48 258 60 277 74 293 C 88 309 105 323 125 336 C 144 348 165 360 187 372 L 184 376 C 164 399 148 422 138 444 C 128 466 123 491 123 519 C 123 542 127 564 136 584 C 145 604 158 621 174 636 C 190 651 209 663 232 671 C 255 679 281 684 309 684 C 337 684 363 679 386 670 C 409 661 428 649 444 634 C 459 619 471 602 479 582 C 487 562 492 541 492 519 C 492 497 488 477 482 460 C 476 442 467 426 456 412 C 445 397 432 384 418 372 C 404 360 389 350 373 340 L 445 258 L 568 395 C 581 379 595 364 609 350 C 623 336 637 321 651 306 L 524 168 L 671 0 L 507 0 L 440 78 C 424 62 409 49 395 38 C 380 26 365 17 349 10 C 333 2 315 -2 296 -6 C 277 -10 256 -12 232 -12 C 200 -12 172 -7 147 2 C 121 12 100 25 82 41 C 64 57 51 76 41 98 C 31 120 27 143 27 168 Z M 243 106 C 267 106 287 110 305 119 C 323 128 341 143 359 163 L 363 167 L 265 281 C 247 271 232 263 220 255 C 208 247 198 239 190 231 C 182 223 176 214 172 205 C 168 196 166 186 166 175 C 166 155 173 139 187 126 C 201 112 219 106 243 106 Z M 253 512 C 253 498 255 486 261 475 C 266 464 274 452 286 440 L 297 427 C 316 438 332 450 344 463 C 356 476 362 493 362 513 C 362 528 357 541 347 551 C 337 561 324 566 308 566 C 292 566 279 561 269 551 C 258 541 253 528 253 512 Z" horiz-adv-x="681" unicode="&#x26;" />
<glyph d="M 54 385 L 25 528 L 25 672 L 170 672 L 170 528 L 141 385 L 54 385 Z" horiz-adv-x="195" unicode="'" />
<glyph d="M 171 -111 C 125 -49 90 17 66 89 C 42 161 30 236 30 313 C 30 390 42 464 66 536 C 90 607 125 674 171 737 L 313 737 C 265 674 228 607 202 537 C 176 467 163 392 163 313 C 163 236 175 161 201 87 C 227 13 264 -52 313 -111 L 171 -111 L 171 -111 Z" horiz-adv-x="313" unicode="(" />
<glyph d="M 0 -111 C 48 -51 84 14 110 88 C 136 161 149 236 149 313 C 149 392 135 467 109 537 C 83 607 46 674 0 737 L 141 737 C 187 675 222 608 246 536 C 270 464 282 389 282 313 C 282 235 270 161 246 89 C 222 17 187 -49 141 -111 L 0 -111 L 0 -111 Z" horiz-adv-x="312" unicode=")" />
<glyph d="M 162 420 L 92 360 L 30 459 L 124 499 L 30 542 L 92 639 L 162 580 L 153 672 L 272 672 L 263 580 L 334 639 L 396 542 L 302 499 L 396 457 L 334 360 L 263 420 L 272 327 L 153 327 L 162 420 Z" horiz-adv-x="426" unicode="*" />
<glyph d="M 210 180 L 30 180 L 30 322 L 210 322 L 210 502 L 352 502 L 352 322 L 532 322 L 532 180 L 352 180 L 352 0 L 210 0 L 210 180 Z" horiz-adv-x="562" unicode="+" />
<glyph d="M 60 -55 C 74 -55 85 -50 93 -40 C 101 -30 105 -17 105 0 L 30 0 L 30 155 L 185 155 L 185 0 C 185 -40 174 -72 152 -96 C 130 -120 99 -132 60 -132 L 30 -132 L 30 -55 L 60 -55 Z" horiz-adv-x="215" unicode="," />
<glyph d="M 20 321 L 303 321 L 303 192 L 20 192 L 20 321 Z" horiz-adv-x="323" unicode="-" />
<glyph d="M 30 155 L 185 155 L 185 0 L 30 0 L 30 155 Z" horiz-adv-x="215" unicode="." />
<glyph d="M 240 702 L 382 702 L 151 -30 L 10 -30 L 240 702 Z" horiz-adv-x="392" unicode="/" />
<glyph d="M 273 -13 C 239 -13 207 -7 178 2 C 149 12 124 27 103 46 C 82 65 66 88 54 115 C 42 142 37 172 37 206 L 37 465 C 37 498 42 528 54 555 C 66 582 82 605 103 625 C 124 644 149 659 178 669 C 207 679 239 685 273 685 C 307 685 338 679 367 669 C 395 658 420 643 441 624 C 462 605 479 582 491 555 C 503 527 509 497 509 465 L 509 206 C 509 172 503 142 491 116 C 479 89 462 66 441 47 C 420 27 395 12 367 2 C 338 -7 307 -13 273 -13 Z M 273 119 C 301 119 323 127 341 144 C 358 161 367 182 367 208 L 367 466 C 367 491 358 512 340 528 C 322 544 300 553 273 553 C 245 553 222 545 205 529 C 187 513 179 492 179 466 L 179 208 C 179 182 187 160 204 144 C 221 127 244 119 273 119 Z" horiz-adv-x="546" unicode="0" />
<glyph d="M 105 536 L 15 536 L 15 672 L 179 672 C 198 672 215 665 229 651 C 243 637 250 620 250 601 L 250 0 L 105 0 L 105 536 Z" horiz-adv-x="310" unicode="1" />
<glyph d="M 100 0 C 78 0 60 7 46 21 C 31 35 24 52 24 74 C 24 90 28 105 38 118 C 48 131 58 143 70 155 L 318 388 C 339 408 350 432 350 460 C 350 486 341 508 324 525 C 306 541 284 550 256 550 C 230 550 209 542 191 527 C 173 512 165 491 165 463 L 20 463 C 20 495 25 525 37 553 C 49 580 65 603 86 623 C 107 642 132 657 161 668 C 190 679 222 685 256 685 C 292 685 324 679 354 668 C 383 657 408 642 429 622 C 450 602 466 577 478 549 C 490 521 496 489 496 455 C 496 423 488 394 473 366 C 457 338 438 313 415 292 L 250 141 L 494 141 L 494 0 L 100 0 Z" horiz-adv-x="519" unicode="2" />
<glyph d="M 286 287 C 273 293 262 301 254 312 C 245 323 241 336 241 352 C 241 369 246 382 256 391 C 266 400 277 408 289 416 C 301 423 312 431 322 440 C 332 449 337 462 337 480 C 337 490 334 499 330 508 C 326 516 320 524 313 531 C 305 537 297 543 287 547 C 277 551 267 553 256 553 C 228 553 206 545 190 529 C 173 513 165 492 165 467 L 22 467 C 22 499 27 528 38 555 C 49 581 65 604 86 624 C 106 643 131 658 160 669 C 188 679 220 685 256 685 C 289 685 320 680 348 670 C 376 660 400 647 420 629 C 440 611 455 589 467 564 C 478 538 484 510 484 480 C 484 452 477 427 464 405 C 451 383 435 366 415 352 C 438 336 458 316 475 291 C 492 265 501 235 501 199 C 501 169 494 141 482 115 C 470 89 453 66 431 47 C 409 28 384 13 355 3 C 325 -7 293 -13 259 -13 C 221 -13 188 -7 158 4 C 128 15 103 30 83 50 C 62 70 46 93 36 120 C 25 146 20 175 20 207 L 164 207 C 164 179 173 157 191 142 C 209 127 232 120 259 120 C 285 120 306 127 324 143 C 342 158 351 179 351 205 C 351 216 349 226 345 235 C 341 243 336 251 330 257 C 324 263 317 269 309 274 C 301 278 294 283 286 287 Z" horiz-adv-x="521" unicode="3" />
<glyph d="M 321 114 L 93 114 C 71 114 51 120 33 134 C 15 147 7 168 7 196 C 7 210 10 224 18 238 C 26 251 34 265 44 281 C 86 347 127 412 167 476 C 207 540 248 606 290 672 L 459 672 L 190 246 L 321 246 L 321 373 L 466 373 L 466 246 L 550 246 L 550 114 L 466 114 L 466 0 L 321 0 L 321 114 Z" horiz-adv-x="565" unicode="4" />
<glyph d="M 260 -13 C 227 -13 196 -7 167 2 C 138 12 113 27 91 47 C 69 66 51 89 39 117 C 26 145 20 176 20 210 L 163 210 C 163 182 172 160 190 143 C 208 125 232 117 260 117 C 290 117 313 126 331 144 C 348 162 357 185 357 214 C 357 244 348 267 332 285 C 315 303 291 312 261 312 C 243 312 227 310 214 307 C 200 303 188 300 176 296 C 164 292 153 288 142 285 C 130 281 118 280 104 280 C 86 280 70 285 57 296 C 44 306 38 322 38 344 C 38 348 38 352 38 357 C 38 362 39 368 41 376 L 91 672 L 463 672 L 463 541 L 201 541 L 182 414 C 198 420 215 424 232 428 C 249 431 267 433 287 433 C 319 433 349 427 375 417 C 401 407 424 392 443 373 C 461 354 475 331 485 304 C 495 277 500 247 500 215 C 500 179 493 148 481 120 C 468 92 451 68 429 48 C 407 28 382 13 353 3 C 323 -7 292 -13 260 -13 Z" horiz-adv-x="525" unicode="5" />
<glyph d="M 271 -13 C 237 -13 206 -7 178 3 C 149 13 124 28 103 47 C 82 66 66 89 54 116 C 42 143 37 173 37 207 L 37 471 C 37 503 43 533 55 559 C 67 585 84 608 105 627 C 126 645 151 660 179 670 C 207 680 238 685 271 685 C 303 685 332 680 360 670 C 388 660 412 646 433 628 C 453 609 469 586 481 560 C 493 534 499 504 499 471 L 362 471 C 361 493 353 512 339 528 C 324 544 301 552 271 552 C 241 552 217 543 201 527 C 185 510 177 489 177 464 L 177 401 C 187 401 196 403 204 406 C 212 408 220 411 228 414 C 236 416 246 419 256 421 C 266 423 278 424 292 424 C 361 424 414 404 450 366 C 486 328 504 276 504 212 C 504 178 498 148 487 121 C 475 93 459 70 439 50 C 419 30 394 14 366 3 C 337 -7 305 -13 271 -13 Z M 271 122 C 300 122 323 130 340 146 C 356 162 365 186 365 216 C 365 245 358 267 344 282 C 330 297 307 305 275 305 C 263 305 253 304 245 302 C 237 300 230 298 224 296 C 217 293 210 290 203 288 C 195 286 187 284 177 283 L 177 217 C 177 187 185 164 201 147 C 217 130 241 122 271 122 Z" horiz-adv-x="534" unicode="6" />
<glyph d="M 401 672 C 422 672 440 665 454 652 C 468 638 475 620 475 597 C 475 584 472 572 468 562 L 222 0 L 63 0 L 304 536 L 15 536 L 15 672 L 401 672 Z" horiz-adv-x="490" unicode="7" />
<glyph d="M 276 117 C 307 117 333 125 355 142 C 377 158 388 182 388 213 C 388 233 383 250 374 262 C 364 274 354 286 343 296 C 331 306 321 315 312 325 C 302 335 298 348 298 364 C 298 378 301 388 308 396 C 315 404 323 411 332 418 C 340 425 348 433 355 443 C 362 452 366 465 366 483 C 366 506 357 525 341 539 C 325 553 303 561 276 561 C 249 561 227 553 211 539 C 194 525 186 506 186 483 C 186 465 189 452 197 443 C 204 433 212 425 220 418 C 228 411 236 404 244 396 C 251 388 255 378 255 364 C 255 348 250 335 241 325 C 231 315 221 305 209 295 C 197 285 187 274 178 262 C 168 250 164 233 164 213 C 164 182 175 158 197 142 C 219 125 245 117 276 117 Z M 277 -13 C 235 -13 198 -7 166 3 C 134 14 107 29 85 49 C 63 68 47 91 36 117 C 25 143 20 171 20 201 C 20 237 29 269 48 297 C 66 325 90 348 119 366 C 97 380 80 400 68 424 C 56 448 50 473 50 499 C 50 529 56 555 68 578 C 80 601 97 621 118 637 C 139 653 163 665 191 673 C 218 681 247 685 277 685 C 307 685 335 681 362 673 C 389 665 413 653 434 637 C 454 621 471 601 483 578 C 495 555 502 529 502 499 C 502 473 496 448 484 424 C 472 400 455 380 433 366 C 462 348 486 325 504 297 C 522 269 532 237 532 201 C 532 171 526 143 515 117 C 504 91 488 68 466 49 C 444 29 418 14 386 3 C 354 -7 318 -13 277 -13 Z" horiz-adv-x="552" unicode="8" />
<glyph d="M 263 685 C 296 685 327 679 356 669 C 384 658 409 643 430 624 C 451 605 467 582 479 555 C 491 527 497 497 497 465 L 497 201 C 497 168 490 138 478 112 C 466 86 449 63 428 45 C 407 26 382 12 354 2 C 326 -8 295 -13 263 -13 C 231 -13 201 -8 173 1 C 145 11 121 25 101 44 C 80 62 64 85 52 111 C 40 137 35 167 35 201 L 172 201 C 172 179 180 160 195 144 C 209 128 232 120 263 120 C 293 120 316 128 332 145 C 348 161 357 182 357 208 L 357 271 C 347 270 338 268 330 266 C 322 263 313 260 305 258 C 297 255 288 253 278 251 C 268 249 256 248 242 248 C 172 248 120 267 84 305 C 48 343 30 395 30 460 C 30 492 35 522 47 550 C 58 578 74 602 94 622 C 114 642 139 657 168 668 C 196 679 228 685 263 685 Z M 263 550 C 233 550 210 541 194 525 C 177 509 169 486 169 456 C 169 426 176 404 190 389 C 204 374 227 367 259 367 C 271 367 280 367 288 369 C 296 371 303 373 310 376 C 316 378 323 381 331 383 C 338 385 347 387 357 389 L 357 455 C 357 484 348 507 332 524 C 316 541 293 550 263 550 Z" horiz-adv-x="534" unicode="9" />
<glyph d="M 30 155 L 185 155 L 185 0 L 30 0 L 30 155 Z M 30 466 L 185 466 L 185 311 L 30 311 L 30 466 Z" horiz-adv-x="215" unicode=":" />
<glyph d="M 60 -55 C 74 -55 85 -50 93 -40 C 101 -30 105 -17 105 0 L 30 0 L 30 155 L 185 155 L 185 0 C 185 -40 174 -72 152 -96 C 130 -120 99 -132 60 -132 L 30 -132 L 30 -55 L 60 -55 Z M 30 466 L 185 466 L 185 311 L 30 311 L 30 466 Z" horiz-adv-x="215" unicode=";" />
<glyph d="M 565 514 L 565 364 L 187 257 L 565 151 L 565 0 L 30 175 L 30 339 L 565 514 Z" horiz-adv-x="595" unicode="&#x3C;" />
<glyph d="M 532 436 L 532 294 L 30 294 L 30 436 L 532 436 Z M 532 220 L 532 78 L 30 78 L 30 220 L 532 220 Z" horiz-adv-x="562" unicode="=" />
<glyph d="M 565 339 L 565 175 L 30 0 L 30 151 L 408 257 L 30 364 L 30 514 L 565 339 Z" horiz-adv-x="595" unicode="&#x3E;" />
<glyph d="M 174 204 C 174 234 178 259 187 279 C 195 299 206 315 219 328 C 232 341 246 352 262 361 C 277 369 291 378 304 387 C 317 396 328 406 337 417 C 345 427 350 442 350 460 C 350 488 341 510 324 526 C 306 542 284 551 256 551 C 228 551 206 542 189 526 C 171 510 163 488 163 461 L 163 445 L 20 445 L 20 461 C 20 493 25 522 37 550 C 49 577 65 601 86 621 C 107 641 132 656 161 668 C 190 679 222 685 256 685 C 290 685 321 679 350 668 C 379 656 404 641 425 621 C 446 601 463 577 475 550 C 487 522 493 492 493 460 C 493 430 488 404 480 384 C 471 363 460 345 447 330 C 433 315 419 302 404 292 C 389 282 375 272 362 263 C 348 254 337 245 329 236 C 320 226 316 216 316 204 L 174 204 Z M 167 155 L 322 155 L 322 0 L 167 0 L 167 155 Z" horiz-adv-x="513" unicode="?" />
<glyph d="M 371 155 C 384 155 396 157 406 162 C 416 166 427 170 441 174 L 441 289 C 427 291 416 295 407 300 C 397 305 385 308 371 308 C 347 308 328 301 316 287 C 303 273 297 255 297 231 C 297 207 303 188 316 175 C 328 161 347 155 371 155 Z M 638 231 C 638 309 616 371 572 415 C 528 459 465 481 383 481 C 341 481 305 474 273 461 C 241 448 215 430 193 408 C 171 386 155 359 144 329 C 132 299 127 266 127 232 C 127 194 133 159 145 129 C 157 99 175 73 197 52 C 219 30 246 14 278 2 C 310 -9 345 -15 384 -15 C 434 -15 480 -4 524 18 L 566 -72 C 539 -84 510 -94 480 -101 C 450 -108 417 -112 383 -112 C 328 -112 279 -103 235 -85 C 191 -67 153 -43 122 -12 C 91 18 67 55 50 97 C 33 139 25 184 25 232 C 25 280 33 326 51 368 C 69 410 93 447 125 478 C 157 509 194 533 238 551 C 282 569 330 578 383 578 C 435 578 482 569 525 552 C 568 534 605 510 636 480 C 667 450 691 414 708 373 C 725 331 734 286 734 238 C 734 186 721 144 696 113 C 671 82 635 67 587 67 C 574 67 563 68 555 70 C 547 72 539 74 533 76 C 526 78 519 81 513 83 C 506 85 498 86 489 86 C 479 86 470 84 462 81 C 454 78 446 75 438 71 C 430 67 420 64 409 61 C 398 58 384 57 367 57 C 341 57 318 61 297 69 C 275 77 257 89 241 105 C 225 120 213 138 205 160 C 196 181 192 205 192 232 C 192 256 195 278 203 300 C 211 321 222 339 236 355 C 250 370 266 382 286 391 C 306 400 328 405 352 405 C 364 405 374 404 382 402 C 390 400 397 397 403 395 C 409 393 415 390 421 388 C 427 385 433 383 441 382 L 441 395 L 542 395 L 542 192 C 542 178 545 168 553 161 C 561 153 571 150 585 150 C 604 150 618 157 626 173 C 634 188 638 207 638 231 Z" horiz-adv-x="760" unicode="@" />
<glyph d="M 255 672 L 405 672 L 662 0 L 512 0 L 461 132 L 282 132 C 266 132 252 131 240 129 C 228 127 219 123 211 118 C 203 113 196 107 190 99 C 184 91 179 82 175 70 L 148 0 L -3 0 L 255 672 Z M 242 249 C 250 254 258 257 266 259 C 274 260 284 261 294 261 L 414 261 L 330 486 L 242 249 Z" horiz-adv-x="659" unicode="A" />
<glyph d="M 47 672 L 376 672 C 405 672 432 667 457 657 C 482 647 504 633 522 615 C 540 597 555 575 565 551 C 575 526 581 499 581 470 C 581 460 579 449 577 437 C 574 425 570 414 565 403 C 560 391 554 381 548 371 C 542 361 535 352 527 346 C 549 328 567 306 581 278 C 595 250 602 223 602 195 C 602 167 596 141 586 117 C 575 93 560 73 542 56 C 524 38 502 25 478 15 C 454 5 428 0 401 0 L 47 0 L 47 672 Z M 191 386 C 197 391 204 395 214 398 C 223 401 232 403 241 403 L 373 403 C 393 403 408 409 419 422 C 430 435 436 451 436 471 C 436 489 430 504 418 516 C 406 528 391 535 373 535 L 191 535 L 191 386 Z M 392 137 C 412 137 427 143 439 157 C 451 170 457 186 457 204 C 457 221 451 237 439 251 C 427 265 412 272 392 272 L 248 272 C 230 272 216 267 206 258 C 196 248 191 235 191 218 L 191 137 L 392 137 Z" horiz-adv-x="622" unicode="B" />
<glyph d="M 372 685 C 410 685 445 679 479 669 C 512 658 542 643 570 623 C 598 603 622 580 644 553 C 665 525 682 495 696 461 L 538 461 C 519 491 496 512 468 526 C 440 539 409 546 373 546 C 342 546 314 540 289 530 C 264 520 243 505 225 487 C 207 468 193 446 183 420 C 173 394 169 366 169 336 C 169 305 173 277 183 251 C 193 225 207 203 225 185 C 243 166 264 151 289 141 C 314 130 342 125 373 125 C 409 125 440 131 468 145 C 496 159 519 181 538 211 L 696 211 C 682 177 665 146 644 118 C 622 90 598 67 570 48 C 542 28 512 13 479 3 C 445 -7 410 -13 372 -13 C 323 -13 277 -4 235 14 C 193 32 156 56 124 88 C 92 120 68 157 50 199 C 32 241 23 287 23 336 C 23 384 32 430 50 472 C 68 514 92 551 124 583 C 156 615 193 640 235 658 C 277 676 323 685 372 685 Z" horiz-adv-x="716" unicode="C" />
<glyph d="M 47 672 L 301 672 C 353 672 400 664 442 649 C 484 634 520 612 550 584 C 580 555 603 520 619 479 C 635 438 644 391 644 339 C 644 289 635 243 619 202 C 603 160 580 125 550 95 C 520 65 484 41 442 25 C 400 8 353 0 301 0 L 47 0 L 47 672 Z M 299 138 C 363 138 412 156 446 193 C 480 229 498 278 498 339 C 498 403 481 452 447 485 C 413 517 363 534 299 534 L 193 534 L 193 138 L 299 138 Z" horiz-adv-x="667" unicode="D" />
<glyph d="M 47 672 L 530 672 L 530 534 L 193 534 L 193 375 C 203 385 215 393 230 397 C 244 401 260 404 277 404 L 526 404 L 526 270 L 277 270 C 251 270 231 262 216 248 C 200 233 193 213 193 188 L 193 138 L 530 138 L 530 0 L 47 0 L 47 672 Z" horiz-adv-x="575" unicode="E" />
<glyph d="M 47 672 L 530 672 L 530 534 L 193 534 L 193 378 C 203 388 216 395 232 399 C 248 403 263 405 277 405 L 531 405 L 531 267 L 277 267 C 252 267 232 259 216 244 C 200 228 193 208 193 183 L 193 0 L 47 0 L 47 672 Z" horiz-adv-x="556" unicode="F" />
<glyph d="M 374 125 C 420 125 460 137 494 161 C 528 185 553 218 567 260 L 325 260 L 325 389 L 718 389 C 722 371 724 353 724 336 C 724 286 715 240 697 198 C 679 156 654 119 623 88 C 591 56 554 32 512 14 C 469 -4 423 -13 374 -13 C 325 -13 279 -4 237 14 C 194 32 157 56 125 88 C 93 120 68 157 50 199 C 32 241 23 287 23 336 C 23 384 32 429 50 472 C 68 514 93 551 125 583 C 157 614 194 639 236 657 C 278 675 324 685 373 685 C 411 685 447 679 481 669 C 515 658 546 643 574 623 C 602 603 626 580 648 552 C 669 524 686 494 700 461 L 540 461 C 521 491 498 512 470 526 C 442 540 410 547 374 547 C 343 547 315 541 290 531 C 265 520 244 505 226 486 C 208 467 194 445 184 419 C 174 393 170 366 170 336 C 170 306 174 278 184 252 C 194 226 208 203 226 185 C 244 166 265 151 290 141 C 315 130 343 125 374 125 Z" horiz-adv-x="747" unicode="G" />
<glyph d="M 47 672 L 193 672 L 193 380 C 204 389 217 395 231 399 C 245 403 259 405 275 405 L 492 405 L 492 672 L 639 672 L 639 0 L 492 0 L 492 267 L 265 267 C 242 267 224 260 212 248 C 199 236 193 218 193 196 L 193 0 L 47 0 L 47 672 Z" horiz-adv-x="686" unicode="H" />
<glyph d="M 47 672 L 192 672 L 192 0 L 47 0 L 47 672 Z" horiz-adv-x="239" unicode="I" />
<glyph d="M 300 -13 C 258 -13 220 -6 186 6 C 151 19 121 38 96 62 C 70 86 50 115 36 149 C 22 183 15 222 15 264 L 162 264 C 162 221 174 187 199 162 C 223 136 257 124 300 124 C 343 124 377 136 401 162 C 425 187 438 221 438 264 L 438 672 L 583 672 L 583 261 C 583 220 575 183 561 149 C 547 115 527 87 502 63 C 477 39 447 20 413 7 C 378 -6 340 -13 300 -13 Z" horiz-adv-x="630" unicode="J" />
<glyph d="M 47 672 L 193 672 L 193 413 C 201 413 209 414 216 416 C 222 418 228 420 234 424 C 239 427 244 431 250 437 C 255 442 261 449 268 457 L 449 672 L 633 672 L 387 387 C 378 377 369 367 360 359 C 350 351 340 344 329 339 C 339 334 349 327 361 317 C 372 307 381 298 389 290 L 638 0 L 456 0 L 265 229 C 252 243 241 254 232 261 C 223 268 210 272 193 272 L 193 0 L 47 0 L 47 672 Z" horiz-adv-x="633" unicode="K" />
<glyph d="M 47 672 L 193 672 L 193 136 L 533 136 L 533 0 L 47 0 L 47 672 Z" horiz-adv-x="556" unicode="L" />
<glyph d="M 47 672 L 234 672 L 404 259 L 574 672 L 761 672 L 761 0 L 617 0 L 617 432 L 476 93 L 412 93 C 384 93 361 98 344 110 C 327 121 313 139 303 164 L 192 433 L 192 0 L 47 0 L 47 672 Z" horiz-adv-x="808" unicode="M" />
<glyph d="M 47 672 L 207 672 L 470 190 L 470 672 L 614 672 L 614 0 L 526 0 C 506 0 489 2 474 6 C 459 10 446 16 434 24 C 422 32 411 42 401 54 C 391 66 381 81 372 98 L 191 428 L 191 0 L 47 0 L 47 672 Z" horiz-adv-x="661" unicode="N" />
<glyph d="M 374 -13 C 324 -13 277 -3 235 14 C 192 32 155 57 124 89 C 92 120 68 157 50 199 C 32 241 23 287 23 335 C 23 383 32 428 50 471 C 68 513 92 550 124 582 C 155 614 192 639 235 657 C 277 675 324 685 374 685 C 423 685 469 675 512 657 C 554 639 591 614 623 582 C 654 550 679 513 697 471 C 715 428 724 383 724 335 C 724 287 715 241 697 199 C 679 157 654 120 623 89 C 591 57 554 32 512 14 C 469 -3 423 -13 374 -13 Z M 374 125 C 404 125 432 130 457 141 C 482 151 504 166 522 185 C 540 203 553 225 563 251 C 573 277 578 305 578 335 C 578 365 573 392 563 418 C 553 444 540 466 522 485 C 504 504 482 519 457 530 C 432 541 404 547 374 547 C 343 547 315 541 290 530 C 265 519 244 504 226 485 C 208 466 194 444 184 418 C 174 392 169 365 169 335 C 169 305 173 277 183 251 C 193 225 207 203 225 185 C 243 166 264 151 290 141 C 315 130 343 125 374 125 Z" horiz-adv-x="747" unicode="O" />
<glyph d="M 47 672 L 360 672 C 395 672 428 665 458 652 C 488 639 513 621 535 599 C 557 576 574 549 586 519 C 598 488 605 455 605 421 C 605 387 598 355 586 325 C 573 295 555 269 533 247 C 511 225 485 207 455 195 C 425 182 394 176 360 176 L 256 176 C 236 176 220 170 209 160 C 197 150 192 134 192 114 L 192 0 L 47 0 L 47 672 Z M 192 299 C 204 305 214 309 223 311 C 231 313 242 314 256 314 L 360 314 C 375 314 389 317 401 323 C 413 329 423 338 432 348 C 440 358 447 369 451 383 C 455 396 458 410 458 424 C 458 458 449 484 432 504 C 414 524 390 534 360 534 L 192 534 L 192 299 Z" horiz-adv-x="625" unicode="P" />
<glyph d="M 374 -12 C 324 -12 277 -3 235 15 C 192 33 155 57 124 89 C 92 121 68 158 50 200 C 32 242 23 287 23 335 C 23 383 32 428 50 471 C 68 513 92 550 124 582 C 155 613 192 638 235 656 C 277 674 324 684 374 684 C 423 684 469 674 512 656 C 554 638 591 613 623 582 C 654 550 678 513 696 471 C 714 428 723 383 723 335 C 723 291 715 251 701 213 C 687 175 667 141 642 111 L 740 0 L 569 0 L 543 30 C 518 16 491 6 463 -1 C 435 -8 405 -12 374 -12 Z M 374 126 C 400 126 425 130 450 139 C 441 149 433 156 426 162 C 419 168 412 172 404 175 C 396 178 388 180 379 181 C 369 182 358 183 344 183 L 324 183 L 324 312 L 365 312 C 387 312 407 310 424 306 C 440 302 455 296 469 289 C 483 281 496 272 508 260 C 520 248 534 235 548 221 C 557 237 564 254 570 274 C 575 293 578 313 578 335 C 578 365 573 392 563 418 C 553 444 540 466 522 485 C 504 504 482 519 457 530 C 432 540 404 546 374 546 C 343 546 315 540 290 530 C 265 519 244 504 226 485 C 208 466 194 444 184 418 C 174 392 169 365 169 335 C 169 305 173 277 183 251 C 193 225 207 203 225 185 C 243 167 264 152 290 142 C 315 131 343 126 374 126 Z" horiz-adv-x="747" unicode="Q" />
<glyph d="M 47 672 L 361 672 C 398 672 432 665 463 652 C 494 639 521 621 543 599 C 565 577 582 550 594 520 C 606 490 612 457 612 423 C 612 397 608 373 600 350 C 592 327 582 306 568 286 C 554 266 536 248 516 232 C 496 216 473 204 449 195 L 631 0 L 441 0 L 314 144 C 302 156 292 165 283 171 C 273 176 261 179 246 179 C 228 179 214 173 206 163 C 198 153 194 141 194 128 L 194 0 L 47 0 L 47 672 Z M 194 295 C 204 303 215 308 227 310 C 238 312 250 314 264 314 L 361 314 C 393 314 418 324 437 345 C 456 366 466 392 466 424 C 466 457 456 484 436 504 C 416 524 391 534 361 534 L 194 534 L 194 295 Z" horiz-adv-x="642" unicode="R" />
<glyph d="M 290 -13 C 252 -13 217 -8 184 1 C 150 10 121 24 96 42 C 70 60 50 82 35 110 C 19 137 12 169 12 205 L 163 205 C 163 176 176 154 201 140 C 225 126 255 119 290 119 C 306 119 321 120 337 122 C 352 124 365 129 377 135 C 389 141 398 148 405 158 C 412 168 416 180 416 195 C 416 215 406 230 388 241 C 369 251 346 260 318 268 C 290 275 260 282 228 290 C 195 298 165 309 137 324 C 109 338 86 358 68 383 C 49 407 40 441 40 483 C 40 515 46 544 59 569 C 72 594 90 615 112 632 C 134 649 161 662 191 671 C 221 680 253 685 288 685 C 320 685 352 681 382 673 C 412 665 439 652 462 636 C 485 620 503 599 517 575 C 531 550 538 521 538 489 L 388 489 C 386 509 376 524 358 536 C 339 547 316 553 288 553 C 256 553 231 546 214 534 C 196 521 188 505 188 486 C 188 466 197 451 216 441 C 234 431 258 423 286 416 C 314 409 344 402 377 395 C 409 387 440 376 468 362 C 496 347 519 327 538 302 C 556 276 566 242 566 199 C 566 162 558 130 543 104 C 528 77 508 55 483 38 C 457 20 428 7 395 0 C 361 -8 326 -13 290 -13 Z" horiz-adv-x="583" unicode="S" />
<glyph d="M 212 462 C 212 473 212 485 214 499 C 216 512 220 524 228 534 L 13 534 L 13 672 L 559 672 L 559 534 L 418 534 C 396 534 381 527 371 515 C 361 503 357 487 357 468 L 357 0 L 212 0 L 212 462 Z" horiz-adv-x="572" unicode="T" />
<glyph d="M 338 -13 C 296 -13 258 -6 223 8 C 187 22 156 41 130 66 C 103 91 82 121 67 155 C 52 189 45 227 45 269 L 45 672 L 190 672 L 190 265 C 190 244 193 225 201 208 C 208 191 218 176 231 164 C 244 152 260 142 278 135 C 296 128 316 125 338 125 C 360 125 380 128 398 135 C 416 142 431 152 444 164 C 457 176 467 191 474 209 C 481 226 485 245 485 265 L 485 672 L 630 672 L 630 269 C 630 228 622 190 607 156 C 592 121 571 91 545 66 C 519 41 488 22 452 8 C 416 -6 378 -13 338 -13 Z" horiz-adv-x="675" unicode="U" />
<glyph d="M 363 0 C 319 0 281 11 251 35 C 221 58 199 90 186 131 L 0 672 L 154 672 L 315 198 C 318 186 322 178 326 173 C 330 167 335 164 343 162 L 514 672 L 669 672 L 438 0 L 363 0 Z" horiz-adv-x="669" unicode="V" />
<glyph d="M 299 0 C 257 0 224 12 200 38 C 176 63 159 95 150 133 L 10 672 L 162 672 L 286 172 L 410 672 L 556 672 L 680 172 L 804 672 L 956 672 L 782 0 L 702 0 C 658 0 625 12 601 37 C 577 62 561 94 553 133 L 483 423 L 381 0 L 299 0 Z" horiz-adv-x="966" unicode="W" />
<glyph d="M 310 456 C 333 492 356 528 378 564 C 400 600 423 636 446 672 L 622 672 L 395 333 L 618 0 L 444 0 C 421 35 399 70 377 105 C 355 139 333 174 311 210 C 288 174 266 139 244 105 C 222 70 200 35 178 0 L 4 0 L 226 332 C 188 388 150 445 113 502 C 75 558 38 615 0 672 L 175 672 L 310 456 L 310 456 Z" horiz-adv-x="622" unicode="X" />
<glyph d="M 306 178 C 269 182 238 192 214 208 C 190 224 170 251 156 289 L 0 672 L 158 672 L 282 357 C 293 327 318 312 357 312 L 494 672 L 650 672 L 396 0 L 239 0 L 306 178 Z" horiz-adv-x="650" unicode="Y" />
<glyph d="M 25 126 L 346 534 L 34 534 L 34 672 L 531 672 L 531 544 L 212 138 L 536 138 L 536 0 L 25 0 L 25 126 Z" horiz-adv-x="556" unicode="Z" />
<glyph d="M 50 745 L 322 745 L 322 617 L 188 617 L 188 9 L 322 9 L 322 -120 L 50 -120 L 50 745 Z" horiz-adv-x="352" unicode="[" />
<glyph d="M 382 -30 L 241 -30 L 10 702 L 152 702 L 382 -30 Z" horiz-adv-x="392" unicode="\" />
<glyph d="M 30 7 L 164 7 L 164 615 L 30 615 L 30 745 L 302 745 L 302 -120 L 30 -120 L 30 7 Z" horiz-adv-x="352" unicode="]" />
<glyph d="M 165 672 L 300 672 L 441 405 L 308 405 L 233 555 L 158 405 L 25 405 L 165 672 Z" horiz-adv-x="466" unicode="^" />
<glyph d="M 25 129 L 463 129 L 463 0 L 25 0 L 25 129 Z" horiz-adv-x="488" unicode="_" />
<glyph d="M 268 511 L 159 511 L 20 652 L 170 652 L 268 511 Z" horiz-adv-x="288" unicode="`" />
<glyph d="M 528 146 C 528 131 530 120 535 112 C 540 104 549 94 561 84 L 465 -13 C 454 -2 445 5 437 10 C 429 15 420 18 410 18 C 401 18 392 16 384 13 C 376 9 366 6 356 2 C 346 -1 333 -4 319 -8 C 304 -11 286 -13 265 -13 C 230 -13 198 -7 168 5 C 138 17 113 33 91 55 C 69 77 51 103 39 133 C 26 163 20 197 20 234 C 20 270 26 303 38 333 C 50 363 67 388 89 410 C 110 432 135 449 165 461 C 194 473 226 479 260 479 C 277 479 291 477 303 475 C 315 472 325 469 335 465 C 344 461 353 458 361 454 C 369 450 377 447 387 445 L 387 466 L 528 466 L 528 146 Z M 277 116 C 293 116 306 117 316 120 C 326 123 335 126 343 130 C 351 133 358 136 366 139 C 373 142 382 144 394 144 C 390 150 388 157 388 164 C 387 171 387 178 387 185 L 387 322 C 376 324 367 326 359 329 C 351 332 344 335 336 339 C 328 342 320 345 311 347 C 302 349 291 351 277 351 C 239 351 211 340 191 319 C 171 297 161 269 161 234 C 161 198 171 169 191 148 C 211 126 240 116 277 116 Z" horiz-adv-x="569" unicode="a" />
<glyph d="M 40 0 L 40 672 L 183 672 L 183 445 C 192 447 201 450 209 454 C 217 458 226 461 236 465 C 245 469 256 472 268 475 C 280 477 294 479 312 479 C 345 479 376 473 405 461 C 434 449 459 432 481 410 C 502 388 519 363 531 333 C 543 303 550 270 550 234 C 550 197 543 163 531 133 C 519 103 502 77 480 55 C 458 33 433 17 403 5 C 373 -7 342 -13 308 -13 C 290 -13 276 -11 264 -9 C 252 -6 242 -3 233 0 C 224 3 216 6 208 10 C 200 14 192 17 183 19 L 183 0 L 40 0 Z M 183 146 C 194 144 204 141 212 138 C 220 135 227 132 235 129 C 243 125 251 122 260 120 C 269 118 280 117 294 117 C 330 117 358 127 378 149 C 398 171 408 199 408 233 C 408 267 398 294 378 316 C 358 338 330 349 294 349 C 280 349 269 347 260 345 C 251 343 243 340 235 337 C 227 333 220 330 212 327 C 204 323 194 321 183 319 L 183 146 Z" horiz-adv-x="570" unicode="b" />
<glyph d="M 272 -13 C 236 -13 203 -6 173 6 C 143 18 116 36 94 58 C 71 80 53 107 41 137 C 28 167 22 199 22 233 C 22 267 28 299 41 329 C 53 359 71 385 94 407 C 116 429 143 446 173 459 C 203 472 236 479 272 479 C 302 479 330 474 356 466 C 382 457 406 445 427 429 C 448 413 466 393 481 371 C 495 349 506 324 514 298 L 368 298 C 358 314 345 327 329 336 C 312 345 293 350 272 350 C 238 350 210 339 189 318 C 167 296 157 268 157 233 C 157 197 167 169 189 148 C 210 126 238 116 272 116 C 292 116 311 120 329 129 C 346 137 359 150 369 168 L 514 168 C 506 140 495 116 481 94 C 466 72 448 53 427 37 C 406 21 382 8 356 0 C 330 -8 302 -13 272 -13 Z" horiz-adv-x="531" unicode="c" />
<glyph d="M 527 146 C 527 131 529 120 534 112 C 539 104 548 94 561 84 L 465 -13 C 454 -2 444 5 436 10 C 428 15 419 18 410 18 C 401 18 392 16 384 13 C 376 9 366 6 356 2 C 345 -1 332 -4 318 -8 C 304 -11 286 -13 265 -13 C 230 -13 198 -7 168 5 C 138 17 112 33 90 55 C 68 77 50 103 38 133 C 26 163 20 197 20 234 C 20 270 26 303 38 333 C 50 363 67 388 89 410 C 110 432 135 449 164 461 C 193 473 225 479 259 479 C 276 479 291 477 303 475 C 315 472 325 469 334 465 C 343 461 352 458 360 454 C 368 450 377 447 387 445 L 387 672 L 527 672 L 527 146 Z M 276 116 C 292 116 305 117 315 120 C 325 123 334 126 342 130 C 350 133 357 136 365 139 C 373 142 382 144 394 144 C 390 150 388 157 388 164 C 387 171 387 178 387 185 L 387 322 C 375 324 365 326 357 329 C 349 332 342 335 334 339 C 326 342 318 345 310 347 C 301 349 290 351 276 351 C 239 351 210 340 190 319 C 170 297 160 269 160 234 C 160 198 170 169 190 148 C 210 126 239 116 276 116 Z" horiz-adv-x="566" unicode="d" />
<glyph d="M 157 267 C 166 273 176 278 186 280 C 196 282 206 284 217 284 L 378 284 C 372 305 360 322 342 336 C 324 350 300 357 270 357 C 240 357 215 349 195 333 C 175 317 162 295 157 267 Z M 523 238 C 523 219 521 200 518 182 L 189 182 C 175 182 169 176 169 165 C 169 157 172 150 178 143 C 184 136 193 130 203 124 C 213 118 224 114 236 111 C 248 107 260 106 272 106 C 292 106 309 109 324 115 C 338 121 351 131 363 143 L 507 143 C 485 91 454 52 414 26 C 374 0 327 -13 271 -13 C 235 -13 202 -6 172 6 C 141 18 114 36 92 58 C 69 80 51 106 39 136 C 26 166 20 198 20 233 C 20 268 26 301 39 331 C 52 361 70 387 93 409 C 115 431 142 448 173 460 C 203 472 236 479 271 479 C 305 479 338 473 368 461 C 398 449 425 432 448 410 C 471 388 489 363 503 334 C 516 304 523 272 523 238 Z" horiz-adv-x="543" unicode="e" />
<glyph d="M 38 314 C 38 330 40 346 46 364 C 52 382 62 396 78 406 C 64 418 53 434 45 454 C 37 474 34 493 34 513 C 34 538 38 560 47 580 C 56 600 68 616 84 630 C 100 644 118 654 140 661 C 162 668 185 672 211 672 L 299 672 L 299 540 L 216 540 C 204 540 195 536 189 529 C 182 522 179 513 179 502 C 179 492 182 483 189 476 C 195 469 204 466 216 466 L 299 466 L 299 332 L 211 332 C 190 332 180 321 180 300 L 180 0 L 38 0 L 38 314 Z" horiz-adv-x="319" unicode="f" />
<glyph d="M 389 322 C 377 323 367 325 359 329 C 351 332 343 335 336 339 C 328 342 320 345 311 347 C 302 349 291 351 277 351 C 240 351 211 340 191 318 C 171 296 161 268 161 234 C 161 200 171 172 191 150 C 211 128 240 118 277 118 C 291 118 302 119 311 121 C 319 123 327 125 335 128 C 343 131 351 134 359 137 C 367 140 377 143 389 145 L 389 322 Z M 389 20 C 380 18 372 15 364 12 C 356 9 347 6 338 3 C 328 0 318 -2 306 -4 C 294 -6 280 -7 264 -7 C 230 -7 198 -1 168 10 C 138 21 113 37 91 58 C 69 79 52 104 40 134 C 28 164 22 197 22 234 C 22 270 28 303 40 333 C 52 363 68 388 90 410 C 111 432 136 449 165 461 C 194 473 225 479 259 479 C 276 479 291 477 303 475 C 315 472 325 469 335 465 C 345 461 354 458 362 454 C 370 450 379 447 389 445 L 389 466 L 529 466 L 529 -2 C 529 -35 523 -65 512 -91 C 500 -117 484 -140 464 -159 C 443 -178 418 -193 388 -203 C 358 -213 325 -218 289 -218 C 222 -218 167 -202 123 -172 C 79 -142 52 -99 43 -44 L 196 -44 C 201 -63 212 -76 229 -84 C 245 -92 265 -96 289 -96 C 321 -96 345 -88 363 -72 C 380 -56 389 -33 389 -3 L 389 20 Z" horiz-adv-x="569" unicode="g" />
<glyph d="M 182 672 L 182 443 C 192 445 202 449 212 453 C 222 457 232 461 243 465 C 253 469 265 472 278 475 C 290 477 305 479 322 479 C 354 479 382 474 406 464 C 430 454 449 439 465 421 C 481 403 492 381 500 355 C 508 329 512 301 512 271 L 512 0 L 370 0 L 370 272 C 370 296 363 315 351 329 C 339 343 319 350 293 350 C 281 350 271 348 262 346 C 253 344 244 341 236 338 C 228 335 219 332 211 329 C 202 325 192 323 182 322 L 182 0 L 40 0 L 40 672 L 182 672 Z" horiz-adv-x="552" unicode="h" />
<glyph d="M 40 672 L 183 672 L 183 539 L 40 539 L 40 672 Z M 40 466 L 183 466 L 183 0 L 40 0 L 40 466 Z" horiz-adv-x="223" unicode="i" />
<glyph d="M 45 672 L 186 672 L 186 539 L 45 539 L 45 672 Z M -13 -65 L 16 -65 C 24 -65 30 -62 36 -58 C 42 -54 45 -45 45 -31 L 45 466 L 186 466 L 186 -49 C 186 -97 174 -136 150 -164 C 126 -192 91 -206 45 -206 L -13 -206 L -13 -65 Z" horiz-adv-x="226" unicode="j" />
<glyph d="M 40 672 L 181 672 L 181 305 C 188 305 195 306 201 309 C 207 312 215 318 223 328 L 338 466 L 516 466 L 345 274 C 333 260 320 246 307 233 C 313 227 319 220 325 214 C 331 208 337 201 343 194 L 515 0 L 337 0 L 223 138 C 215 146 208 152 202 156 C 196 159 189 161 181 162 L 181 0 L 40 0 L 40 672 Z" horiz-adv-x="511" unicode="k" />
<glyph d="M 40 672 L 181 672 L 181 0 L 40 0 L 40 672 Z" horiz-adv-x="221" unicode="l" />
<glyph d="M 328 0 L 328 294 C 328 311 323 325 315 336 C 307 346 293 352 274 352 C 263 352 254 350 246 348 C 238 346 231 343 225 340 C 218 337 211 334 205 332 C 198 329 191 327 183 326 L 183 0 L 40 0 L 40 466 L 183 466 L 183 441 C 193 443 203 446 213 450 C 223 454 233 459 243 463 C 253 467 265 470 278 474 C 290 477 305 479 322 479 C 348 479 370 474 388 466 C 406 458 421 448 433 436 C 442 438 451 442 461 447 C 471 451 481 456 493 461 C 505 465 518 469 532 473 C 546 477 561 479 579 479 C 637 479 679 462 707 429 C 734 396 748 352 748 298 L 748 0 L 611 0 L 611 294 C 611 311 606 325 598 336 C 589 346 575 352 556 352 C 546 352 537 350 529 348 C 521 346 513 343 506 340 C 499 337 492 334 486 332 C 479 329 472 327 465 326 L 465 0 L 328 0 Z" horiz-adv-x="785" unicode="m" />
<glyph d="M 182 466 L 182 443 C 192 445 202 449 212 453 C 222 457 232 461 243 465 C 253 469 265 472 278 475 C 290 477 305 479 322 479 C 354 479 382 474 406 464 C 430 454 449 439 465 421 C 481 403 492 381 500 355 C 508 329 512 301 512 271 L 512 0 L 370 0 L 370 272 C 370 296 363 315 351 329 C 339 343 319 350 293 350 C 281 350 271 348 262 346 C 253 344 244 341 236 338 C 228 335 219 332 211 329 C 202 325 192 323 182 322 L 182 0 L 40 0 L 40 466 L 182 466 Z" horiz-adv-x="549" unicode="n" />
<glyph d="M 273 -13 C 237 -13 203 -6 173 5 C 142 17 115 35 93 57 C 70 79 52 105 39 135 C 26 165 20 197 20 233 C 20 267 26 300 39 330 C 52 360 70 386 93 408 C 115 430 142 447 173 460 C 204 472 237 479 273 479 C 308 479 341 472 372 460 C 403 447 430 429 453 407 C 476 385 494 359 507 329 C 520 299 527 267 527 233 C 527 197 520 165 507 135 C 493 105 475 79 452 57 C 429 35 402 17 372 5 C 341 -6 308 -13 273 -13 Z M 273 115 C 309 115 337 126 358 149 C 378 171 389 199 389 233 C 389 266 378 294 358 317 C 337 339 309 351 273 351 C 237 351 208 339 188 317 C 168 294 158 266 158 233 C 158 199 168 171 188 149 C 208 126 237 115 273 115 Z" horiz-adv-x="547" unicode="o" />
<glyph d="M 408 233 C 408 267 398 295 378 317 C 358 339 330 350 294 350 C 280 350 269 348 260 346 C 251 344 243 341 235 338 C 227 334 220 331 212 328 C 204 324 194 322 183 320 L 183 145 C 194 143 204 140 212 137 C 220 134 227 131 235 128 C 243 124 251 121 260 119 C 269 117 280 116 294 116 C 330 116 358 127 378 149 C 398 171 408 199 408 233 Z M 550 233 C 550 197 543 164 531 134 C 519 104 502 78 481 56 C 459 34 434 17 405 5 C 376 -7 345 -13 312 -13 C 294 -13 280 -11 268 -9 C 256 -6 245 -3 236 0 C 226 4 217 7 209 11 C 201 15 192 18 183 20 L 183 -206 L 40 -206 L 40 466 L 183 466 L 183 445 C 192 447 201 450 209 454 C 217 458 226 461 236 465 C 245 469 256 472 268 475 C 280 477 294 479 312 479 C 345 479 376 473 405 461 C 434 449 459 432 481 410 C 502 388 519 362 531 332 C 543 302 550 269 550 233 Z" horiz-adv-x="570" unicode="p" />
<glyph d="M 531 -206 L 389 -206 L 389 17 C 379 15 370 12 362 9 C 354 5 345 2 335 -1 C 325 -4 315 -7 303 -9 C 291 -11 276 -13 259 -13 C 225 -13 194 -7 165 5 C 136 17 111 33 90 55 C 68 77 52 103 40 133 C 28 163 22 196 22 232 C 22 268 28 302 40 332 C 52 362 69 388 91 410 C 113 432 138 449 168 461 C 198 473 230 479 264 479 C 284 479 302 477 317 474 C 331 470 344 467 355 463 C 366 459 376 456 385 453 C 394 449 403 448 413 448 C 423 448 433 450 442 455 C 451 460 461 468 472 479 L 565 382 C 553 371 544 362 539 354 C 533 346 531 334 531 320 L 531 -206 Z M 277 348 C 241 348 213 337 193 317 C 173 296 163 268 163 232 C 163 196 172 168 192 147 C 212 126 240 116 277 116 C 290 116 301 117 310 119 C 319 121 328 124 336 127 C 344 130 352 133 360 136 C 368 139 377 142 389 144 L 389 281 C 389 287 389 293 390 300 C 390 307 392 314 395 321 C 384 321 375 322 367 325 C 359 327 352 330 344 334 C 336 338 326 341 316 344 C 306 346 293 348 277 348 Z" horiz-adv-x="570" unicode="q" />
<glyph d="M 162 448 C 173 448 183 449 192 453 C 201 456 211 460 222 464 C 233 468 246 472 262 476 C 278 479 298 481 322 481 L 322 350 L 307 350 C 291 350 278 348 267 345 C 255 342 245 339 236 336 C 227 332 218 329 210 326 C 201 323 191 322 181 322 C 183 314 185 307 186 300 C 186 292 187 285 187 279 L 187 0 L 44 0 L 44 320 C 44 334 41 346 36 354 C 31 362 22 371 10 382 L 103 479 C 113 468 123 460 132 455 C 141 450 151 448 162 448 Z" horiz-adv-x="339" unicode="r" />
<glyph d="M 226 -13 C 200 -13 174 -10 150 -4 C 125 2 103 11 83 24 C 63 37 47 54 35 75 C 23 95 16 120 15 149 L 153 149 C 153 139 155 131 160 125 C 164 119 170 114 178 110 C 185 106 193 103 202 101 C 211 99 220 98 229 98 C 253 98 273 102 287 110 C 301 118 309 127 309 139 C 309 151 302 160 288 166 C 274 172 258 177 238 181 C 218 185 196 189 172 194 C 148 199 126 207 106 217 C 86 227 69 241 55 259 C 41 277 35 301 35 332 C 35 356 40 377 50 395 C 60 413 75 429 93 441 C 111 453 131 463 155 469 C 179 475 204 479 231 479 C 257 479 281 476 305 470 C 329 464 350 455 368 443 C 386 431 400 415 411 397 C 422 378 428 356 430 331 L 293 331 C 291 342 286 351 276 358 C 266 364 251 368 232 368 C 212 368 197 364 187 358 C 177 352 173 344 173 335 C 173 323 179 315 193 310 C 207 304 224 300 244 296 C 264 292 286 288 310 283 C 334 278 356 270 376 259 C 396 248 413 233 427 215 C 441 196 448 171 448 139 C 448 110 441 86 428 67 C 414 47 397 32 376 20 C 355 8 331 0 305 -5 C 278 -10 252 -13 226 -13 Z" horiz-adv-x="462" unicode="s" />
<glyph d="M 209 0 C 183 0 159 3 138 11 C 116 19 98 30 83 45 C 67 59 55 77 47 98 C 39 119 35 143 35 169 L 35 318 C 35 337 37 354 43 368 C 49 382 59 394 74 404 C 59 414 49 425 43 439 C 37 452 35 468 35 488 L 35 609 L 178 609 L 178 498 C 178 476 188 466 208 466 L 297 466 L 297 334 L 208 334 C 196 334 188 331 184 327 C 180 322 178 315 178 306 L 178 174 C 178 146 192 132 220 132 L 297 132 L 297 0 L 209 0 Z" horiz-adv-x="325" unicode="t" />
<glyph d="M 245 -13 C 180 -13 130 5 94 41 C 58 77 40 126 40 190 L 40 466 L 182 466 L 182 191 C 182 164 189 144 204 132 C 218 120 237 114 261 114 C 274 114 285 115 294 118 C 303 120 312 123 320 127 C 328 130 335 133 343 136 C 351 139 360 141 371 142 C 369 150 368 158 368 167 C 368 176 368 185 368 193 L 368 466 L 510 466 L 510 146 C 510 131 512 120 517 112 C 522 104 531 94 544 84 L 448 -13 C 437 -2 427 5 419 10 C 411 15 402 18 393 18 C 383 18 373 16 365 13 C 356 9 346 6 335 2 C 324 -1 311 -4 297 -8 C 283 -11 265 -13 245 -13 Z" horiz-adv-x="552" unicode="u" />
<glyph d="M 281 0 C 261 0 244 2 230 7 C 216 11 203 18 193 27 C 182 36 173 47 165 60 C 157 73 150 88 144 105 L 0 466 L 150 466 L 269 149 L 387 466 L 538 466 L 350 0 L 281 0 Z" horiz-adv-x="538" unicode="v" />
<glyph d="M 254 0 C 216 0 186 8 164 26 C 142 44 126 68 117 99 L 0 466 L 150 466 L 240 162 L 333 466 L 480 466 L 574 162 L 663 466 L 813 466 L 663 0 L 601 0 C 561 0 530 8 510 25 C 489 41 474 65 465 96 L 407 282 L 322 0 L 254 0 Z" horiz-adv-x="813" unicode="w" />
<glyph d="M 175 230 L 0 466 L 171 466 L 258 336 L 346 466 L 516 466 L 342 230 L 512 0 L 341 0 L 258 125 L 175 0 L 5 0 L 175 230 Z" horiz-adv-x="516" unicode="x" />
<glyph d="M 110 -63 L 164 -63 C 179 -63 191 -60 200 -54 C 208 -48 216 -38 222 -23 L 232 1 C 215 5 200 15 186 30 C 172 44 160 63 151 86 L 0 466 L 158 466 L 269 169 C 271 163 273 158 276 153 C 279 148 283 145 288 143 L 409 466 L 567 466 L 339 -98 C 331 -118 321 -135 310 -149 C 299 -163 287 -174 273 -182 C 259 -190 242 -196 224 -200 C 206 -204 185 -206 163 -206 L 110 -206 L 110 -63 Z" horiz-adv-x="567" unicode="y" />
<glyph d="M 25 121 L 255 340 L 29 340 L 29 466 L 444 466 L 444 342 L 214 126 L 450 126 L 450 0 L 25 0 L 25 121 Z" horiz-adv-x="470" unicode="z" />
<glyph d="M 254 -159 C 211 -159 177 -146 153 -121 C 128 -96 116 -63 116 -21 L 116 163 C 116 181 109 196 97 210 C 84 223 68 230 50 230 L 30 230 L 30 364 L 50 364 C 68 364 83 370 96 384 C 109 397 116 413 116 431 L 116 615 C 116 657 128 690 153 715 C 177 739 211 752 254 752 L 313 752 L 313 618 C 287 618 271 613 263 605 C 255 596 251 579 251 555 L 251 401 C 251 380 247 361 239 344 C 231 326 219 311 205 297 C 219 283 231 267 239 250 C 247 232 251 213 251 193 L 251 39 C 251 25 251 14 253 6 C 254 -1 257 -8 261 -13 C 265 -17 272 -20 280 -22 C 288 -23 299 -24 313 -24 L 314 -159 L 254 -159 Z" horiz-adv-x="344" unicode="{" />
<glyph d="M 75 702 L 210 702 L 210 -30 L 75 -30 L 75 702 Z" horiz-adv-x="290" unicode="|" />
<glyph d="M 31 -24 C 56 -24 73 -19 81 -11 C 89 -2 93 14 93 39 L 93 193 C 93 213 97 232 105 250 C 113 267 124 283 139 297 C 124 311 113 326 105 344 C 97 361 93 380 93 401 L 93 555 C 93 568 92 579 91 587 C 89 595 86 602 82 606 C 78 610 71 613 63 615 C 55 617 44 618 31 618 L 30 752 L 88 752 C 131 752 165 740 190 716 C 215 692 228 658 228 615 L 228 431 C 228 413 234 397 247 384 C 259 370 275 364 294 364 L 314 364 L 314 230 L 294 230 C 276 230 260 223 247 210 C 234 196 228 181 228 163 L 228 -21 C 228 -63 215 -96 191 -121 C 166 -146 133 -159 91 -159 L 31 -159 L 31 -24 Z" horiz-adv-x="344" unicode="}" />
<glyph d="M 366 501 C 346 501 329 503 313 509 C 297 515 282 521 268 528 C 254 534 241 540 229 546 C 216 552 203 555 191 555 C 179 555 169 551 161 544 C 153 537 149 526 149 510 L 30 510 C 30 566 42 608 66 638 C 90 667 125 682 171 682 C 190 682 208 679 224 673 C 240 667 255 660 269 653 C 283 646 296 640 308 634 C 320 628 333 626 347 626 C 358 626 368 629 376 636 C 384 643 388 655 388 672 L 507 672 C 507 616 494 573 470 544 C 446 515 411 501 366 501 Z" horiz-adv-x="537" unicode="~" />
<glyph d="" horiz-adv-x="230" unicode=" " />
<glyph d="M 58 466 L 177 466 L 195 250 L 195 0 L 40 0 L 40 250 L 58 466 Z M 40 672 L 195 672 L 195 517 L 40 517 L 40 672 Z" horiz-adv-x="235" unicode="¡" />
<glyph d="M 351 573 C 393 561 429 541 459 511 C 489 481 510 444 522 402 L 376 402 C 366 419 353 432 337 441 C 320 449 301 454 280 454 C 246 454 218 443 197 422 C 175 400 165 372 165 337 C 165 301 175 273 197 252 C 218 230 246 220 280 220 C 300 220 319 224 337 233 C 354 241 367 254 377 272 L 522 272 C 510 228 489 192 459 162 C 429 132 393 112 351 101 L 351 0 L 212 0 L 212 101 C 185 107 160 118 138 133 C 116 148 97 166 81 187 C 65 207 52 230 43 256 C 34 281 30 308 30 337 C 30 365 34 392 43 418 C 52 443 65 466 81 487 C 97 507 116 525 138 540 C 160 554 185 565 212 573 L 212 672 L 351 672 L 351 573 Z" horiz-adv-x="552" unicode="¢" />
<glyph d="M 240 672 L 306 672 L 359 546 L 412 672 L 479 672 L 479 448 L 422 448 L 422 563 L 385 473 L 363 473 C 344 473 331 481 325 497 L 296 565 L 296 448 L 240 448 L 240 672 Z M 128 445 C 116 445 104 446 93 449 C 82 452 72 457 63 463 C 54 469 47 476 42 485 C 36 494 34 505 34 517 L 94 517 C 94 510 97 505 103 501 C 109 497 118 495 128 495 C 148 495 159 501 159 514 C 159 522 152 527 140 531 C 128 534 114 538 100 542 C 85 546 71 553 59 563 C 47 572 41 587 41 608 C 41 628 49 644 67 656 C 84 668 104 674 127 674 C 137 674 148 672 158 669 C 168 666 178 662 186 657 C 194 651 200 644 205 636 C 209 628 212 618 212 608 L 154 608 C 154 613 151 617 146 620 C 140 623 134 625 127 625 C 109 625 101 619 101 609 C 101 601 107 595 119 592 C 131 589 145 585 160 581 C 175 576 189 569 201 560 C 213 550 220 535 220 515 C 220 503 217 492 212 484 C 206 475 199 468 191 462 C 182 456 172 451 161 449 C 150 446 139 445 128 445 Z" horiz-adv-x="525" unicode="£" />
<glyph d="M 185 639 L 310 639 L 310 510 L 185 510 L 185 639 Z M 20 639 L 145 639 L 145 510 L 20 510 L 20 639 Z" horiz-adv-x="330" unicode="¨" />
<glyph d="M 375 159 C 350 159 327 163 305 172 C 283 181 263 193 247 209 C 231 225 218 243 208 265 C 198 287 194 310 194 336 C 194 361 198 384 208 406 C 218 428 231 447 247 463 C 263 479 283 491 305 500 C 327 509 350 514 375 514 C 417 514 453 502 485 480 C 516 457 538 426 551 387 L 446 387 C 439 399 429 409 416 415 C 402 421 389 424 376 424 C 350 424 329 415 313 398 C 297 381 290 360 290 336 C 290 312 297 292 313 275 C 329 257 350 249 376 249 C 389 249 402 252 416 258 C 430 264 440 274 446 287 L 551 287 C 538 247 516 215 485 193 C 453 170 417 159 375 159 Z M 377 -12 C 329 -12 283 -2 241 15 C 199 33 162 58 131 90 C 99 121 75 158 57 200 C 39 242 30 288 30 336 C 30 384 39 430 57 472 C 75 514 99 551 131 583 C 162 614 199 639 241 657 C 283 675 329 684 377 684 C 425 684 471 675 513 657 C 555 639 592 614 624 583 C 655 551 680 514 698 472 C 716 430 726 384 726 336 C 726 288 716 242 698 200 C 680 158 655 121 624 90 C 592 58 555 33 513 15 C 471 -2 425 -12 377 -12 Z M 377 77 C 413 77 446 83 478 97 C 510 110 537 128 561 152 C 585 175 603 202 617 234 C 630 266 637 300 637 336 C 637 372 630 405 617 437 C 603 469 585 496 561 520 C 537 544 510 562 478 576 C 446 589 413 596 377 596 C 341 596 307 589 275 576 C 243 562 216 544 193 520 C 170 496 152 469 139 437 C 125 405 119 372 119 336 C 119 300 125 266 139 234 C 152 202 170 175 193 152 C 216 128 243 110 275 97 C 307 83 341 77 377 77 Z" horiz-adv-x="756" unicode="©" />
<glyph d="M 262 43 L 127 43 L 17 233 L 127 423 L 262 423 L 151 233 L 262 43 Z M 445 43 L 310 43 L 200 233 L 310 423 L 445 423 L 334 233 L 445 43 Z" horiz-adv-x="462" unicode="«" />
<glyph d="M 532 390 L 532 68 L 390 68 L 390 248 L 30 248 L 30 390 L 532 390 Z" horiz-adv-x="562" unicode="¬" />
<glyph d="M 20 321 L 303 321 L 303 192 L 20 192 L 20 321 Z" horiz-adv-x="323" unicode="­" />
<glyph d="M 158 437 C 140 437 124 440 109 446 C 93 452 80 461 69 472 C 58 483 49 496 43 511 C 37 526 34 542 34 560 C 34 577 37 593 43 609 C 49 624 58 637 69 648 C 80 659 93 668 109 674 C 124 680 140 684 158 684 C 175 684 191 680 206 674 C 221 668 234 659 246 648 C 257 637 266 624 272 609 C 278 593 282 577 282 560 C 282 542 278 526 272 511 C 266 496 257 483 246 472 C 234 461 221 452 206 446 C 191 440 175 437 158 437 Z M 108 619 L 165 619 C 180 619 192 615 201 607 C 209 599 214 589 214 576 C 214 566 211 557 207 551 C 202 545 196 540 188 536 L 217 502 L 180 502 L 159 527 C 155 531 151 534 147 534 C 142 534 140 531 140 527 L 140 502 L 108 502 L 108 619 Z M 140 558 C 142 560 144 561 147 561 L 167 561 C 177 561 182 566 182 576 C 182 580 180 584 177 586 C 174 588 171 590 167 590 L 140 590 L 140 558 Z M 158 468 C 170 468 182 470 194 475 C 205 479 215 486 223 494 C 231 502 238 512 243 523 C 247 534 250 546 250 560 C 250 572 247 584 243 596 C 238 607 231 617 223 625 C 215 633 205 640 194 645 C 182 649 170 652 158 652 C 131 652 109 643 91 625 C 73 607 65 586 65 560 C 65 534 73 512 91 494 C 109 476 131 468 158 468 Z" horiz-adv-x="324" unicode="®" />
<glyph d="M 20 531 C 20 552 24 572 32 591 C 40 609 50 625 64 639 C 78 653 94 664 112 672 C 130 680 150 684 172 684 C 193 684 213 680 232 672 C 250 664 266 653 280 639 C 294 625 305 609 313 591 C 321 572 325 552 325 531 C 325 509 321 489 313 471 C 305 453 294 437 280 423 C 266 409 250 399 232 391 C 213 383 193 379 172 379 C 150 379 130 383 112 391 C 94 399 78 409 64 423 C 50 437 40 453 32 471 C 24 489 20 509 20 531 Z M 116 531 C 116 515 121 502 132 491 C 143 480 156 475 172 475 C 187 475 200 480 212 491 C 223 502 229 515 229 531 C 229 546 223 559 212 571 C 200 582 187 588 172 588 C 156 588 143 582 132 571 C 121 559 116 546 116 531 Z" horiz-adv-x="345" unicode="°" />
<glyph d="M 210 350 L 30 350 L 30 492 L 210 492 L 210 672 L 352 672 L 352 492 L 532 492 L 532 350 L 352 350 L 352 170 L 210 170 L 210 350 Z M 30 0 L 30 142 L 532 142 L 532 0 L 30 0 Z" horiz-adv-x="562" unicode="±" />
<glyph d="M 73 270 C 60 270 49 274 39 284 C 29 294 24 306 24 320 C 24 335 29 348 41 360 L 186 501 C 191 506 196 512 202 520 C 208 528 211 537 211 548 C 211 564 206 576 197 585 C 188 594 176 599 160 599 C 146 599 135 594 126 586 C 116 577 112 565 112 551 L 20 551 C 20 593 32 625 58 649 C 83 673 117 685 159 685 C 204 685 240 673 268 650 C 295 626 309 593 309 549 C 309 527 304 508 295 491 C 286 473 274 458 259 444 L 169 359 L 313 359 L 313 270 L 73 270 Z" horiz-adv-x="333" unicode="²" />
<glyph d="M 165 261 C 121 261 85 273 59 298 C 33 322 20 356 20 399 L 114 399 C 114 381 118 367 128 359 C 138 351 150 347 166 347 C 181 347 194 351 204 359 C 214 367 219 378 219 394 C 219 403 216 411 210 418 C 204 424 198 430 191 435 C 180 441 172 448 168 455 C 164 462 162 469 162 477 C 162 485 163 493 167 499 C 170 505 176 512 186 518 C 190 521 195 526 201 532 C 206 538 209 545 209 555 C 209 567 204 577 196 585 C 188 593 177 597 163 597 C 147 597 135 592 127 584 C 119 576 115 565 115 551 L 23 551 C 23 591 35 624 61 648 C 86 672 119 685 160 685 C 204 685 239 673 265 649 C 291 625 305 595 305 559 C 305 542 301 527 293 515 C 285 502 276 491 265 483 C 280 471 292 459 302 445 C 311 431 316 413 316 392 C 316 370 311 352 303 336 C 295 320 284 306 270 295 C 256 283 240 275 222 269 C 204 263 185 261 165 261 Z" horiz-adv-x="336" unicode="³" />
<glyph d="M 118 652 L 268 652 L 129 511 L 20 511 L 118 652 Z" horiz-adv-x="288" unicode="´" />
<glyph d="M 208 295 C 182 295 157 299 134 309 C 111 319 91 332 74 349 C 57 366 44 386 34 409 C 24 432 20 457 20 483 C 20 509 24 533 34 556 C 44 579 57 599 74 616 C 91 633 111 647 134 657 C 157 667 182 672 208 672 L 488 672 L 488 604 L 418 604 L 418 0 L 344 0 L 344 604 L 283 604 L 283 0 L 208 0 L 208 295 Z" horiz-adv-x="508" unicode="¶" />
<glyph d="M 25 337 L 185 337 L 185 177 L 25 177 L 25 337 Z" horiz-adv-x="210" unicode="·" />
<glyph d="M 86 571 L 19 571 L 19 672 L 137 672 C 151 672 164 666 174 656 C 184 646 190 633 190 619 L 190 270 L 86 270 L 86 571 Z" horiz-adv-x="240" unicode="¹" />
<glyph d="M 311 233 L 200 423 L 335 423 L 445 233 L 335 43 L 200 43 L 311 233 Z M 128 233 L 17 423 L 152 423 L 262 233 L 152 43 L 17 43 L 128 233 Z" horiz-adv-x="462" unicode="»" />
<glyph d="M 339 468 C 339 437 334 412 326 392 C 317 372 306 356 293 343 C 280 330 266 319 251 311 C 235 302 221 293 208 284 C 195 275 184 265 176 254 C 167 243 163 229 163 212 C 163 184 171 161 189 145 C 206 129 229 121 257 121 C 284 121 306 129 324 145 C 341 161 350 183 350 211 L 350 227 L 493 227 L 493 211 C 493 179 487 149 475 122 C 463 94 447 71 426 51 C 405 31 380 15 351 4 C 322 -7 291 -13 257 -13 C 223 -13 191 -7 162 4 C 133 15 108 31 87 51 C 66 71 50 94 38 122 C 26 149 20 179 20 212 C 20 241 24 266 33 287 C 41 308 52 326 66 341 C 79 356 93 369 108 379 C 123 389 137 399 151 408 C 164 417 175 426 184 436 C 192 445 197 456 197 468 L 339 468 Z M 346 517 L 191 517 L 191 672 L 346 672 L 346 517 Z" horiz-adv-x="513" unicode="¿" />
<glyph d="M 255 672 L 405 672 L 662 0 L 512 0 L 461 132 L 282 132 C 266 132 252 131 240 129 C 228 127 219 123 211 118 C 203 113 196 107 190 99 C 184 91 179 82 175 70 L 148 0 L -3 0 L 255 672 Z M 242 249 C 250 254 258 257 266 259 C 274 260 284 261 294 261 L 414 261 L 330 486 L 242 249 Z M 385 697 L 276 697 L 137 838 L 287 838 L 385 697 Z" horiz-adv-x="659" unicode="À" />
<glyph d="M 255 672 L 405 672 L 662 0 L 512 0 L 461 132 L 282 132 C 266 132 252 131 240 129 C 228 127 219 123 211 118 C 203 113 196 107 190 99 C 184 91 179 82 175 70 L 148 0 L -3 0 L 255 672 Z M 242 249 C 250 254 258 257 266 259 C 274 260 284 261 294 261 L 414 261 L 330 486 L 242 249 Z M 375 838 L 525 838 L 386 697 L 277 697 L 375 838 Z" horiz-adv-x="659" unicode="Á" />
<glyph d="M 265 672 L 415 672 L 672 0 L 522 0 L 471 132 L 292 132 C 276 132 262 131 250 129 C 238 127 229 123 221 118 C 213 113 206 107 200 99 C 194 91 189 82 185 70 L 158 0 L 7 0 L 265 672 Z M 252 249 C 260 254 268 257 276 259 C 284 260 294 261 304 261 L 424 261 L 340 486 L 252 249 Z M 413 689 C 399 689 386 691 374 695 C 362 699 351 703 341 707 C 331 711 321 716 311 720 C 301 724 291 726 281 726 C 263 726 254 716 254 697 L 161 697 C 161 738 170 769 189 789 C 208 809 235 820 269 820 C 283 820 295 818 307 814 C 319 810 330 805 340 801 C 350 797 360 793 370 789 C 380 785 390 783 401 783 C 419 783 428 792 428 812 L 521 812 C 521 770 511 739 492 719 C 473 699 447 689 413 689 Z" horiz-adv-x="680" unicode="Ã" />
<glyph d="M 47 672 L 530 672 L 530 534 L 193 534 L 193 375 C 203 385 215 393 230 397 C 244 401 260 404 277 404 L 526 404 L 526 270 L 277 270 C 251 270 231 262 216 248 C 200 233 193 213 193 188 L 193 138 L 530 138 L 530 0 L 47 0 L 47 672 Z M 391 697 L 282 697 L 143 838 L 293 838 L 391 697 Z" horiz-adv-x="575" unicode="È" />
<glyph d="M 47 672 L 530 672 L 530 534 L 193 534 L 193 375 C 203 385 215 393 230 397 C 244 401 260 404 277 404 L 526 404 L 526 270 L 277 270 C 251 270 231 262 216 248 C 200 233 193 213 193 188 L 193 138 L 530 138 L 530 0 L 47 0 L 47 672 Z M 339 838 L 489 838 L 350 697 L 241 697 L 339 838 Z" horiz-adv-x="575" unicode="É" />
<glyph d="M 47 672 L 192 672 L 192 0 L 47 0 L 47 672 Z M 176 697 L 67 697 L -72 838 L 78 838 L 176 697 Z" horiz-adv-x="239" unicode="Ì" />
<glyph d="M 47 672 L 192 672 L 192 0 L 47 0 L 47 672 Z M 163 838 L 313 838 L 174 697 L 65 697 L 163 838 Z" horiz-adv-x="239" unicode="Í" />
<glyph d="M 47 672 L 207 672 L 470 190 L 470 672 L 614 672 L 614 0 L 526 0 C 506 0 489 2 474 6 C 459 10 446 16 434 24 C 422 32 411 42 401 54 C 391 66 381 81 372 98 L 191 428 L 191 0 L 47 0 L 47 672 Z M 402 689 C 388 689 375 691 363 695 C 351 699 340 703 330 707 C 320 711 310 716 300 720 C 290 724 280 726 270 726 C 252 726 243 716 243 697 L 150 697 C 150 738 159 769 178 789 C 197 809 224 820 258 820 C 272 820 284 818 296 814 C 308 810 319 805 329 801 C 339 797 349 793 359 789 C 369 785 379 783 390 783 C 408 783 417 792 417 812 L 510 812 C 510 770 500 739 481 719 C 462 699 436 689 402 689 Z" horiz-adv-x="661" unicode="Ñ" />
<glyph d="M 378 -13 C 328 -13 281 -3 239 14 C 196 32 159 57 128 89 C 96 120 72 157 54 199 C 36 241 27 287 27 335 C 27 383 36 428 54 471 C 72 513 96 550 128 582 C 159 614 196 639 239 657 C 281 675 328 685 378 685 C 427 685 473 675 516 657 C 558 639 595 614 627 582 C 658 550 683 513 701 471 C 719 428 728 383 728 335 C 728 287 719 241 701 199 C 683 157 658 120 627 89 C 595 57 558 32 516 14 C 473 -3 427 -13 378 -13 Z M 378 125 C 408 125 436 130 461 141 C 486 151 508 166 526 185 C 544 203 557 225 567 251 C 577 277 582 305 582 335 C 582 365 577 392 567 418 C 557 444 544 466 526 485 C 508 504 486 519 461 530 C 436 541 408 547 378 547 C 347 547 319 541 294 530 C 269 519 248 504 230 485 C 212 466 198 444 188 418 C 178 392 173 365 173 335 C 173 305 177 277 187 251 C 197 225 211 203 229 185 C 247 166 268 151 294 141 C 319 130 347 125 378 125 Z M 427 697 L 318 697 L 179 838 L 329 838 L 427 697 Z" horiz-adv-x="755" unicode="Ò" />
<glyph d="M 378 -13 C 328 -13 281 -3 239 14 C 196 32 159 57 128 89 C 96 120 72 157 54 199 C 36 241 27 287 27 335 C 27 383 36 428 54 471 C 72 513 96 550 128 582 C 159 614 196 639 239 657 C 281 675 328 685 378 685 C 427 685 473 675 516 657 C 558 639 595 614 627 582 C 658 550 683 513 701 471 C 719 428 728 383 728 335 C 728 287 719 241 701 199 C 683 157 658 120 627 89 C 595 57 558 32 516 14 C 473 -3 427 -13 378 -13 Z M 378 125 C 408 125 436 130 461 141 C 486 151 508 166 526 185 C 544 203 557 225 567 251 C 577 277 582 305 582 335 C 582 365 577 392 567 418 C 557 444 544 466 526 485 C 508 504 486 519 461 530 C 436 541 408 547 378 547 C 347 547 319 541 294 530 C 269 519 248 504 230 485 C 212 466 198 444 188 418 C 178 392 173 365 173 335 C 173 305 177 277 187 251 C 197 225 211 203 229 185 C 247 166 268 151 294 141 C 319 130 347 125 378 125 Z M 420 838 L 570 838 L 431 697 L 322 697 L 420 838 Z" horiz-adv-x="755" unicode="Ó" />
<glyph d="M 378 -13 C 328 -13 281 -3 239 14 C 196 32 159 57 128 89 C 96 120 72 157 54 199 C 36 241 27 287 27 335 C 27 383 36 428 54 471 C 72 513 96 550 128 582 C 159 614 196 639 239 657 C 281 675 328 685 378 685 C 427 685 473 675 516 657 C 558 639 595 614 627 582 C 658 550 683 513 701 471 C 719 428 728 383 728 335 C 728 287 719 241 701 199 C 683 157 658 120 627 89 C 595 57 558 32 516 14 C 473 -3 427 -13 378 -13 Z M 378 125 C 408 125 436 130 461 141 C 486 151 508 166 526 185 C 544 203 557 225 567 251 C 577 277 582 305 582 335 C 582 365 577 392 567 418 C 557 444 544 466 526 485 C 508 504 486 519 461 530 C 436 541 408 547 378 547 C 347 547 319 541 294 530 C 269 519 248 504 230 485 C 212 466 198 444 188 418 C 178 392 173 365 173 335 C 173 305 177 277 187 251 C 197 225 211 203 229 185 C 247 166 268 151 294 141 C 319 130 347 125 378 125 Z M 448 693 C 434 693 421 695 409 699 C 397 703 386 707 376 711 C 366 715 356 720 346 724 C 336 728 326 730 316 730 C 298 730 289 720 289 701 L 196 701 C 196 742 205 773 224 793 C 243 813 270 824 304 824 C 318 824 330 822 342 818 C 354 814 365 809 375 805 C 385 801 395 797 405 793 C 415 789 425 787 436 787 C 454 787 463 796 463 816 L 556 816 C 556 774 546 743 527 723 C 508 703 482 693 448 693 Z" horiz-adv-x="755" unicode="Õ" />
<glyph d="M 268 151 L 121 3 L 20 104 L 168 251 L 20 398 L 121 499 L 268 351 L 415 499 L 516 398 L 368 251 L 516 104 L 415 3 L 268 151 Z" horiz-adv-x="536" unicode="×" />
<glyph d="M 101 121 C 77 151 59 184 46 220 C 33 256 27 294 27 335 C 27 383 36 428 54 471 C 72 513 96 550 128 582 C 159 613 196 638 239 656 C 281 674 328 684 378 684 C 417 684 454 678 489 666 C 523 654 555 638 584 617 L 647 681 L 713 617 L 651 553 C 675 523 693 489 707 453 C 720 416 727 377 727 335 C 727 287 718 242 700 200 C 682 158 658 121 627 89 C 595 57 558 33 516 15 C 473 -3 427 -12 378 -12 C 338 -12 300 -6 264 6 C 228 18 196 34 167 56 C 155 44 145 33 135 23 C 125 12 114 1 103 -9 L 36 55 L 101 121 Z M 378 126 C 408 126 436 131 461 142 C 485 152 506 167 524 186 C 542 204 555 226 565 252 C 575 277 580 304 580 334 C 580 354 577 375 572 395 C 567 415 560 433 550 450 L 266 157 C 298 136 335 126 378 126 Z M 173 335 C 173 293 182 256 202 225 L 486 516 C 456 536 420 546 378 546 C 347 546 319 540 294 530 C 269 519 248 504 230 485 C 212 466 198 444 188 418 C 178 392 173 365 173 335 Z" horiz-adv-x="754" unicode="Ø" />
<glyph d="M 338 -13 C 296 -13 258 -6 223 8 C 187 22 156 41 130 66 C 103 91 82 121 67 155 C 52 189 45 227 45 269 L 45 672 L 190 672 L 190 265 C 190 244 193 225 201 208 C 208 191 218 176 231 164 C 244 152 260 142 278 135 C 296 128 316 125 338 125 C 360 125 380 128 398 135 C 416 142 431 152 444 164 C 457 176 467 191 474 209 C 481 226 485 245 485 265 L 485 672 L 630 672 L 630 269 C 630 228 622 190 607 156 C 592 121 571 91 545 66 C 519 41 488 22 452 8 C 416 -6 378 -13 338 -13 Z M 395 697 L 286 697 L 147 838 L 297 838 L 395 697 Z" horiz-adv-x="675" unicode="Ù" />
<glyph d="M 338 -13 C 296 -13 258 -6 223 8 C 187 22 156 41 130 66 C 103 91 82 121 67 155 C 52 189 45 227 45 269 L 45 672 L 190 672 L 190 265 C 190 244 193 225 201 208 C 208 191 218 176 231 164 C 244 152 260 142 278 135 C 296 128 316 125 338 125 C 360 125 380 128 398 135 C 416 142 431 152 444 164 C 457 176 467 191 474 209 C 481 226 485 245 485 265 L 485 672 L 630 672 L 630 269 C 630 228 622 190 607 156 C 592 121 571 91 545 66 C 519 41 488 22 452 8 C 416 -6 378 -13 338 -13 Z M 381 838 L 531 838 L 392 697 L 283 697 L 381 838 Z" horiz-adv-x="675" unicode="Ú" />
<glyph d="M 306 178 C 269 182 238 192 214 208 C 190 224 170 251 156 289 L 0 672 L 158 672 L 282 357 C 293 327 318 312 357 312 L 494 672 L 650 672 L 396 0 L 239 0 L 306 178 Z M 375 838 L 525 838 L 386 697 L 277 697 L 375 838 Z" horiz-adv-x="650" unicode="Ý" />
<glyph d="M 535 146 C 535 131 537 120 542 112 C 547 104 556 94 568 84 L 472 -13 C 461 -2 452 5 444 10 C 436 15 427 18 417 18 C 408 18 399 16 391 13 C 383 9 373 6 363 2 C 353 -1 340 -4 326 -8 C 311 -11 293 -13 272 -13 C 237 -13 205 -7 175 5 C 145 17 120 33 98 55 C 76 77 58 103 46 133 C 33 163 27 197 27 234 C 27 270 33 303 45 333 C 57 363 74 388 96 410 C 117 432 142 449 172 461 C 201 473 233 479 267 479 C 284 479 298 477 310 475 C 322 472 332 469 342 465 C 351 461 360 458 368 454 C 376 450 384 447 394 445 L 394 466 L 535 466 L 535 146 Z M 284 116 C 300 116 313 117 323 120 C 333 123 342 126 350 130 C 358 133 365 136 373 139 C 380 142 389 144 401 144 C 397 150 395 157 395 164 C 394 171 394 178 394 185 L 394 322 C 383 324 374 326 366 329 C 358 332 351 335 343 339 C 335 342 327 345 318 347 C 309 349 298 351 284 351 C 246 351 218 340 198 319 C 178 297 168 269 168 234 C 168 198 178 169 198 148 C 218 126 247 116 284 116 Z M 352 511 L 243 511 L 104 652 L 254 652 L 352 511 Z" horiz-adv-x="579" unicode="à" />
<glyph d="M 535 146 C 535 131 537 120 542 112 C 547 104 556 94 568 84 L 472 -13 C 461 -2 452 5 444 10 C 436 15 427 18 417 18 C 408 18 399 16 391 13 C 383 9 373 6 363 2 C 353 -1 340 -4 326 -8 C 311 -11 293 -13 272 -13 C 237 -13 205 -7 175 5 C 145 17 120 33 98 55 C 76 77 58 103 46 133 C 33 163 27 197 27 234 C 27 270 33 303 45 333 C 57 363 74 388 96 410 C 117 432 142 449 172 461 C 201 473 233 479 267 479 C 284 479 298 477 310 475 C 322 472 332 469 342 465 C 351 461 360 458 368 454 C 376 450 384 447 394 445 L 394 466 L 535 466 L 535 146 Z M 284 116 C 300 116 313 117 323 120 C 333 123 342 126 350 130 C 358 133 365 136 373 139 C 380 142 389 144 401 144 C 397 150 395 157 395 164 C 394 171 394 178 394 185 L 394 322 C 383 324 374 326 366 329 C 358 332 351 335 343 339 C 335 342 327 345 318 347 C 309 349 298 351 284 351 C 246 351 218 340 198 319 C 178 297 168 269 168 234 C 168 198 178 169 198 148 C 218 126 247 116 284 116 Z M 317 652 L 467 652 L 328 511 L 219 511 L 317 652 Z" horiz-adv-x="579" unicode="á" />
<glyph d="M 535 146 C 535 131 537 120 542 112 C 547 104 556 94 568 84 L 472 -13 C 461 -2 452 5 444 10 C 436 15 427 18 417 18 C 408 18 399 16 391 13 C 383 9 373 6 363 2 C 353 -1 340 -4 326 -8 C 311 -11 293 -13 272 -13 C 237 -13 205 -7 175 5 C 145 17 120 33 98 55 C 76 77 58 103 46 133 C 33 163 27 197 27 234 C 27 270 33 303 45 333 C 57 363 74 388 96 410 C 117 432 142 449 172 461 C 201 473 233 479 267 479 C 284 479 298 477 310 475 C 322 472 332 469 342 465 C 351 461 360 458 368 454 C 376 450 384 447 394 445 L 394 466 L 535 466 L 535 146 Z M 284 116 C 300 116 313 117 323 120 C 333 123 342 126 350 130 C 358 133 365 136 373 139 C 380 142 389 144 401 144 C 397 150 395 157 395 164 C 394 171 394 178 394 185 L 394 322 C 383 324 374 326 366 329 C 358 332 351 335 343 339 C 335 342 327 345 318 347 C 309 349 298 351 284 351 C 246 351 218 340 198 319 C 178 297 168 269 168 234 C 168 198 178 169 198 148 C 218 126 247 116 284 116 Z M 365 508 C 351 508 338 510 326 514 C 314 518 303 522 293 526 C 283 530 273 535 263 539 C 253 543 243 545 233 545 C 215 545 206 535 206 516 L 113 516 C 113 557 122 588 141 608 C 160 628 187 639 221 639 C 235 639 247 637 259 633 C 271 629 282 624 292 620 C 302 616 312 612 322 608 C 332 604 342 602 353 602 C 371 602 380 611 380 631 L 473 631 C 473 589 463 558 444 538 C 425 518 399 508 365 508 Z" horiz-adv-x="579" unicode="ã" />
<glyph d="M 164 267 C 173 273 183 278 193 280 C 203 282 213 284 224 284 L 385 284 C 379 305 367 322 349 336 C 331 350 307 357 277 357 C 247 357 222 349 202 333 C 182 317 169 295 164 267 Z M 530 238 C 530 219 528 200 525 182 L 196 182 C 182 182 176 176 176 165 C 176 157 179 150 185 143 C 191 136 200 130 210 124 C 220 118 231 114 243 111 C 255 107 267 106 279 106 C 299 106 316 109 331 115 C 345 121 358 131 370 143 L 514 143 C 492 91 461 52 421 26 C 381 0 334 -13 278 -13 C 242 -13 209 -6 179 6 C 148 18 121 36 99 58 C 76 80 58 106 46 136 C 33 166 27 198 27 233 C 27 268 33 301 46 331 C 59 361 77 387 100 409 C 122 431 149 448 180 460 C 210 472 243 479 278 479 C 312 479 345 473 375 461 C 405 449 432 432 455 410 C 478 388 496 363 510 334 C 523 304 530 272 530 238 Z M 337 511 L 228 511 L 89 652 L 239 652 L 337 511 Z" horiz-adv-x="557" unicode="è" />
<glyph d="M 164 267 C 173 273 183 278 193 280 C 203 282 213 284 224 284 L 385 284 C 379 305 367 322 349 336 C 331 350 307 357 277 357 C 247 357 222 349 202 333 C 182 317 169 295 164 267 Z M 530 238 C 530 219 528 200 525 182 L 196 182 C 182 182 176 176 176 165 C 176 157 179 150 185 143 C 191 136 200 130 210 124 C 220 118 231 114 243 111 C 255 107 267 106 279 106 C 299 106 316 109 331 115 C 345 121 358 131 370 143 L 514 143 C 492 91 461 52 421 26 C 381 0 334 -13 278 -13 C 242 -13 209 -6 179 6 C 148 18 121 36 99 58 C 76 80 58 106 46 136 C 33 166 27 198 27 233 C 27 268 33 301 46 331 C 59 361 77 387 100 409 C 122 431 149 448 180 460 C 210 472 243 479 278 479 C 312 479 345 473 375 461 C 405 449 432 432 455 410 C 478 388 496 363 510 334 C 523 304 530 272 530 238 Z M 320 652 L 470 652 L 331 511 L 222 511 L 320 652 Z" horiz-adv-x="557" unicode="é" />
<glyph d="M 165 511 L 56 511 L -83 652 L 67 652 L 165 511 Z M 42 466 L 185 466 L 185 0 L 42 0 L 42 466 Z" horiz-adv-x="227" unicode="ì" />
<glyph d="M 157 652 L 307 652 L 168 511 L 59 511 L 157 652 Z M 42 466 L 185 466 L 185 0 L 42 0 L 42 466 Z" horiz-adv-x="227" unicode="í" />
<glyph d="M 184 466 L 184 443 C 194 445 204 449 214 453 C 224 457 234 461 245 465 C 255 469 267 472 280 475 C 292 477 307 479 324 479 C 356 479 384 474 408 464 C 432 454 451 439 467 421 C 483 403 494 381 502 355 C 510 329 514 301 514 271 L 514 0 L 372 0 L 372 272 C 372 296 365 315 353 329 C 341 343 321 350 295 350 C 283 350 273 348 264 346 C 255 344 246 341 238 338 C 230 335 221 332 213 329 C 204 325 194 323 184 322 L 184 0 L 42 0 L 42 466 L 184 466 Z M 352 508 C 338 508 325 510 313 514 C 301 518 290 522 280 526 C 270 530 260 535 250 539 C 240 543 230 545 220 545 C 202 545 193 535 193 516 L 100 516 C 100 557 109 588 128 608 C 147 628 174 639 208 639 C 222 639 234 637 246 633 C 258 629 269 624 279 620 C 289 616 299 612 309 608 C 319 604 329 602 340 602 C 358 602 367 611 367 631 L 460 631 C 460 589 450 558 431 538 C 412 518 386 508 352 508 Z" horiz-adv-x="556" unicode="ñ" />
<glyph d="M 278 -13 C 242 -13 208 -6 178 5 C 147 17 120 35 98 57 C 75 79 57 105 44 135 C 31 165 25 197 25 233 C 25 267 31 300 44 330 C 57 360 75 386 98 408 C 120 430 147 447 178 460 C 209 472 242 479 278 479 C 313 479 346 472 377 460 C 408 447 435 429 458 407 C 481 385 499 359 512 329 C 525 299 532 267 532 233 C 532 197 525 165 512 135 C 498 105 480 79 457 57 C 434 35 407 17 377 5 C 346 -6 313 -13 278 -13 Z M 278 115 C 314 115 342 126 363 149 C 383 171 394 199 394 233 C 394 266 383 294 363 317 C 342 339 314 351 278 351 C 242 351 213 339 193 317 C 173 294 163 266 163 233 C 163 199 173 171 193 149 C 213 126 242 115 278 115 Z M 332 511 L 223 511 L 84 652 L 234 652 L 332 511 Z" horiz-adv-x="557" unicode="ò" />
<glyph d="M 278 -13 C 242 -13 208 -6 178 5 C 147 17 120 35 98 57 C 75 79 57 105 44 135 C 31 165 25 197 25 233 C 25 267 31 300 44 330 C 57 360 75 386 98 408 C 120 430 147 447 178 460 C 209 472 242 479 278 479 C 313 479 346 472 377 460 C 408 447 435 429 458 407 C 481 385 499 359 512 329 C 525 299 532 267 532 233 C 532 197 525 165 512 135 C 498 105 480 79 457 57 C 434 35 407 17 377 5 C 346 -6 313 -13 278 -13 Z M 278 115 C 314 115 342 126 363 149 C 383 171 394 199 394 233 C 394 266 383 294 363 317 C 342 339 314 351 278 351 C 242 351 213 339 193 317 C 173 294 163 266 163 233 C 163 199 173 171 193 149 C 213 126 242 115 278 115 Z M 319 652 L 469 652 L 330 511 L 221 511 L 319 652 Z" horiz-adv-x="557" unicode="ó" />
<glyph d="M 278 -13 C 242 -13 208 -6 178 5 C 147 17 120 35 98 57 C 75 79 57 105 44 135 C 31 165 25 197 25 233 C 25 267 31 300 44 330 C 57 360 75 386 98 408 C 120 430 147 447 178 460 C 209 472 242 479 278 479 C 313 479 346 472 377 460 C 408 447 435 429 458 407 C 481 385 499 359 512 329 C 525 299 532 267 532 233 C 532 197 525 165 512 135 C 498 105 480 79 457 57 C 434 35 407 17 377 5 C 346 -6 313 -13 278 -13 Z M 278 115 C 314 115 342 126 363 149 C 383 171 394 199 394 233 C 394 266 383 294 363 317 C 342 339 314 351 278 351 C 242 351 213 339 193 317 C 173 294 163 266 163 233 C 163 199 173 171 193 149 C 213 126 242 115 278 115 Z M 350 508 C 336 508 323 510 311 514 C 299 518 288 522 278 526 C 268 530 258 535 248 539 C 238 543 228 545 218 545 C 200 545 191 535 191 516 L 98 516 C 98 557 107 588 126 608 C 145 628 172 639 206 639 C 220 639 232 637 244 633 C 256 629 267 624 277 620 C 287 616 297 612 307 608 C 317 604 327 602 338 602 C 356 602 365 611 365 631 L 458 631 C 458 589 448 558 429 538 C 410 518 384 508 350 508 Z" horiz-adv-x="557" unicode="õ" />
<glyph d="M 364 360 L 210 360 L 210 514 L 364 514 L 364 360 Z M 364 0 L 210 0 L 210 154 L 364 154 L 364 0 Z M 30 180 L 30 334 L 544 334 L 544 180 L 30 180 Z" horiz-adv-x="574" unicode="÷" />
<glyph d="M 247 -13 C 182 -13 132 5 96 41 C 60 77 42 126 42 190 L 42 466 L 184 466 L 184 191 C 184 164 191 144 206 132 C 220 120 239 114 263 114 C 276 114 287 115 296 118 C 305 120 314 123 322 127 C 330 130 337 133 345 136 C 353 139 362 141 373 142 C 371 150 370 158 370 167 C 370 176 370 185 370 193 L 370 466 L 512 466 L 512 146 C 512 131 514 120 519 112 C 524 104 533 94 546 84 L 450 -13 C 439 -2 429 5 421 10 C 413 15 404 18 395 18 C 385 18 375 16 367 13 C 358 9 348 6 337 2 C 326 -1 313 -4 299 -8 C 285 -11 267 -13 247 -13 Z M 330 511 L 221 511 L 82 652 L 232 652 L 330 511 Z" horiz-adv-x="565" unicode="ù" />
<glyph d="M 247 -13 C 182 -13 132 5 96 41 C 60 77 42 126 42 190 L 42 466 L 184 466 L 184 191 C 184 164 191 144 206 132 C 220 120 239 114 263 114 C 276 114 287 115 296 118 C 305 120 314 123 322 127 C 330 130 337 133 345 136 C 353 139 362 141 373 142 C 371 150 370 158 370 167 C 370 176 370 185 370 193 L 370 466 L 512 466 L 512 146 C 512 131 514 120 519 112 C 524 104 533 94 546 84 L 450 -13 C 439 -2 429 5 421 10 C 413 15 404 18 395 18 C 385 18 375 16 367 13 C 358 9 348 6 337 2 C 326 -1 313 -4 299 -8 C 285 -11 267 -13 247 -13 Z M 318 652 L 468 652 L 329 511 L 220 511 L 318 652 Z" horiz-adv-x="565" unicode="ú" />
<glyph d="M 120 -63 L 174 -63 C 189 -63 201 -60 210 -54 C 218 -48 226 -38 232 -23 L 242 1 C 225 5 210 15 196 30 C 182 44 170 63 161 86 L 10 466 L 168 466 L 279 169 C 281 163 283 158 286 153 C 289 148 293 145 298 143 L 419 466 L 577 466 L 349 -98 C 341 -118 331 -135 320 -149 C 309 -163 297 -174 283 -182 C 269 -190 252 -196 234 -200 C 216 -204 195 -206 173 -206 L 120 -206 L 120 -63 Z M 331 652 L 481 652 L 342 511 L 233 511 L 331 652 Z" horiz-adv-x="587" unicode="ý" />
<glyph d="M 42 466 L 185 466 L 185 0 L 42 0 L 42 466 Z" horiz-adv-x="227" unicode="ı" />
<glyph d="M -2 -63 C 1 -63 5 -63 9 -63 C 13 -63 16 -64 20 -64 C 35 -64 48 -61 59 -55 C 69 -49 75 -37 75 -17 L 75 291 C 75 299 75 309 77 319 C 78 329 80 338 84 348 C 87 358 91 366 97 374 C 103 382 110 388 120 393 C 106 406 95 423 87 444 C 79 465 75 485 75 504 C 75 529 79 552 88 573 C 96 593 108 611 124 626 C 139 640 157 652 179 660 C 200 668 223 672 249 672 L 337 672 L 337 538 L 249 538 C 240 538 232 534 226 527 C 219 519 216 511 216 502 C 216 493 219 484 225 476 C 231 468 239 464 249 464 L 337 464 L 337 332 L 249 332 C 240 332 232 328 226 322 C 219 316 216 308 216 300 L 216 -5 C 216 -32 212 -57 204 -81 C 196 -105 184 -125 169 -142 C 154 -159 136 -172 114 -182 C 92 -192 67 -197 39 -197 L -2 -197 L -2 -63 Z" horiz-adv-x="365" unicode="ƒ" />
<glyph d="M 366 511 L 257 511 L 193 576 L 129 511 L 20 511 L 118 652 L 268 652 L 366 511 Z" horiz-adv-x="386" unicode="ˆ" />
<glyph d="M 268 511 L 118 511 L 20 652 L 129 652 L 193 587 L 257 652 L 366 652 L 268 511 Z" horiz-adv-x="386" unicode="ˇ" />
<glyph d="M 272 508 C 258 508 245 510 233 514 C 221 518 210 522 200 526 C 190 530 180 535 170 539 C 160 543 150 545 140 545 C 122 545 113 535 113 516 L 20 516 C 20 557 29 588 48 608 C 67 628 94 639 128 639 C 142 639 154 637 166 633 C 178 629 189 624 199 620 C 209 616 219 612 229 608 C 239 604 249 602 260 602 C 278 602 287 611 287 631 L 380 631 C 380 589 370 558 351 538 C 332 518 306 508 272 508 Z" horiz-adv-x="400" unicode="˜" />
<glyph d="M 20 321 L 538 321 L 538 192 L 20 192 L 20 321 Z" horiz-adv-x="558" unicode="–" />
<glyph d="M 20 316 L 801 316 L 801 197 L 20 197 L 20 316 Z" horiz-adv-x="821" unicode="—" />
<glyph d="M 145 595 C 131 595 120 590 112 580 C 104 570 100 557 100 540 L 175 540 L 175 385 L 20 385 L 20 540 C 20 580 31 612 53 636 C 75 660 105 672 145 672 L 175 672 L 175 595 L 145 595 Z" horiz-adv-x="205" unicode="‘" />
<glyph d="M 60 462 C 74 462 85 466 93 476 C 101 486 105 499 105 517 L 30 517 L 30 672 L 185 672 L 185 517 C 185 477 174 445 152 421 C 130 397 99 385 60 385 L 30 385 L 30 462 L 60 462 Z" horiz-adv-x="205" unicode="’" />
<glyph d="M 60 -55 C 74 -55 85 -50 93 -40 C 101 -30 105 -17 105 0 L 30 0 L 30 155 L 185 155 L 185 0 C 185 -40 174 -72 152 -96 C 130 -120 99 -132 60 -132 L 30 -132 L 30 -55 L 60 -55 Z" horiz-adv-x="200" unicode="‚" />
<glyph d="M 146 599 C 116 599 101 578 101 536 L 175 536 L 175 386 L 25 386 L 25 536 C 25 578 35 611 55 635 C 75 659 105 672 145 672 L 175 672 L 175 599 L 146 599 Z M 327 599 C 297 599 282 578 282 536 L 356 536 L 356 386 L 206 386 L 206 536 C 206 578 216 611 236 635 C 256 659 286 672 326 672 L 356 672 L 356 599 L 327 599 Z" horiz-adv-x="388" unicode="“" />
<glyph d="M 235 459 C 265 459 280 480 280 522 L 206 522 L 206 672 L 356 672 L 356 522 C 356 480 345 446 325 422 C 305 398 275 386 236 386 L 206 386 L 206 459 L 235 459 Z M 54 459 C 84 459 99 480 99 522 L 25 522 L 25 672 L 175 672 L 175 522 C 175 480 164 446 144 422 C 124 398 94 386 55 386 L 25 386 L 25 459 L 54 459 Z" horiz-adv-x="388" unicode="”" />
<glyph d="M 60 -55 C 74 -55 85 -50 93 -40 C 101 -30 105 -17 105 0 L 30 0 L 30 155 L 185 155 L 185 0 C 185 -40 174 -72 152 -96 C 130 -120 99 -132 60 -132 L 30 -132 L 30 -55 L 60 -55 Z M 240 -55 C 254 -55 265 -50 273 -40 C 281 -30 285 -17 285 0 L 210 0 L 210 155 L 365 155 L 365 0 C 365 -40 354 -72 332 -96 C 310 -120 279 -132 240 -132 L 210 -132 L 210 -55 L 240 -55 Z" horiz-adv-x="395" unicode="„" />
<glyph d="M 25 548 L 163 548 L 163 722 L 298 722 L 298 548 L 436 548 L 436 422 L 298 422 L 298 -50 L 163 -50 L 163 422 L 25 422 L 25 548 Z" horiz-adv-x="461" unicode="†" />
<glyph d="M 157 131 C 139 131 123 134 108 141 C 92 147 79 156 67 168 C 55 179 46 192 40 208 C 33 223 30 239 30 257 C 30 274 33 290 40 306 C 46 321 55 334 67 346 C 79 357 92 366 108 373 C 123 379 139 383 157 383 C 174 383 190 379 206 373 C 221 366 234 357 246 346 C 257 334 266 321 273 306 C 279 290 283 274 283 257 C 283 239 279 223 273 208 C 266 192 257 179 246 168 C 234 156 221 147 206 141 C 190 134 174 131 157 131 Z" horiz-adv-x="313" unicode="•" />
<glyph d="M 30 155 L 185 155 L 185 0 L 30 0 L 30 155 Z M 229 155 L 384 155 L 384 0 L 229 0 L 229 155 Z M 428 155 L 583 155 L 583 0 L 428 0 L 428 155 Z" horiz-adv-x="613" unicode="…" />
<glyph d="M 262 43 L 127 43 L 17 233 L 127 423 L 262 423 L 151 233 L 262 43 Z" horiz-adv-x="279" unicode="‹" />
<glyph d="M 128 233 L 17 423 L 152 423 L 262 233 L 152 43 L 17 43 L 128 233 Z" horiz-adv-x="279" unicode="›" />
<glyph d="M 167 262 C 147 262 128 265 111 271 C 93 277 78 286 66 298 C 53 309 43 323 36 339 C 28 355 25 374 25 394 L 25 551 C 25 571 28 589 36 605 C 43 621 53 635 66 647 C 78 659 93 668 111 674 C 128 680 147 684 167 684 C 187 684 205 680 222 674 C 239 668 254 659 267 647 C 280 635 290 621 298 605 C 305 589 309 571 309 551 L 309 394 C 309 374 305 355 298 339 C 290 323 280 309 268 298 C 255 286 240 277 223 271 C 205 265 187 262 167 262 Z M 167 351 C 181 351 192 355 201 364 C 210 372 215 383 215 397 L 215 549 C 215 562 210 573 201 582 C 191 590 180 595 167 595 C 153 595 142 590 133 582 C 123 574 119 563 119 549 L 119 397 C 119 383 123 372 132 364 C 141 355 153 351 167 351 Z" horiz-adv-x="334" unicode="⁰" />
<glyph d="M 184 672 L 291 672 L 125 425 L 200 425 L 200 505 L 294 505 L 294 425 L 341 425 L 341 341 L 294 341 L 294 270 L 200 270 L 200 341 L 65 341 C 48 341 35 345 25 355 C 15 365 10 378 10 395 C 10 400 11 406 13 413 C 15 419 18 424 21 428 L 184 672 Z" horiz-adv-x="356" unicode="⁴" />
<glyph d="M 156 448 C 146 448 137 447 131 446 C 124 444 118 443 112 441 C 106 439 100 437 94 436 C 88 434 81 434 74 434 C 58 434 46 438 37 447 C 27 455 24 468 27 486 L 57 672 L 285 672 L 285 588 L 130 588 L 119 518 C 126 520 133 522 140 524 C 147 526 156 527 166 527 C 206 527 238 515 264 493 C 289 470 302 438 302 396 C 302 376 298 357 291 341 C 283 324 273 310 261 298 C 248 286 233 276 215 270 C 197 264 179 261 159 261 C 138 261 119 263 101 269 C 83 275 68 283 56 295 C 43 307 33 321 26 338 C 18 354 15 374 15 396 L 106 396 C 106 379 111 367 121 359 C 131 351 143 347 159 347 C 173 347 184 351 194 360 C 203 368 208 380 208 396 C 208 412 202 425 192 434 C 182 443 170 448 156 448 Z" horiz-adv-x="317" unicode="⁵" />
<glyph d="M 166 261 C 124 261 90 273 64 297 C 38 321 25 354 25 396 L 25 553 C 25 593 38 625 64 649 C 90 673 123 685 164 685 C 204 685 237 674 265 652 C 292 630 306 597 306 553 L 216 553 C 216 569 211 581 201 589 C 191 597 179 601 165 601 C 149 601 137 596 129 587 C 120 578 116 567 116 553 L 116 511 C 125 514 135 517 147 519 C 158 521 168 523 178 523 C 220 523 252 511 275 488 C 297 465 309 434 309 395 C 309 353 295 321 269 297 C 243 273 208 261 166 261 Z M 166 346 C 180 346 193 350 203 359 C 213 368 218 380 218 396 C 218 410 214 421 206 431 C 198 440 187 445 172 445 C 158 445 148 443 141 440 C 133 436 125 434 116 432 L 116 397 C 116 383 120 371 129 361 C 138 351 150 346 166 346 Z" horiz-adv-x="334" unicode="⁶" />
<glyph d="M 184 578 L 15 578 L 15 672 L 255 672 C 270 672 282 666 292 656 C 301 646 306 633 306 619 C 306 615 305 611 304 605 C 302 599 301 595 300 592 L 155 270 L 44 270 L 184 578 Z" horiz-adv-x="321" unicode="⁷" />
<glyph d="M 174 347 C 191 347 205 352 215 362 C 225 372 231 385 231 402 C 231 413 228 422 224 429 C 219 435 214 441 209 446 C 203 451 198 456 194 462 C 189 468 187 475 187 485 C 187 493 188 499 192 504 C 195 508 199 513 203 517 C 207 521 210 526 214 531 C 217 536 219 543 219 553 C 219 564 215 574 207 583 C 199 592 188 597 174 597 C 160 597 149 592 141 584 C 133 575 129 565 129 554 C 129 544 130 537 134 532 C 137 526 141 521 145 517 C 149 513 152 508 156 504 C 159 499 161 493 161 485 C 161 475 158 468 154 462 C 149 456 144 451 139 446 C 133 441 128 435 124 429 C 119 422 117 413 117 402 C 117 385 122 372 132 362 C 142 352 156 347 174 347 Z M 174 259 C 124 259 85 270 59 294 C 33 317 20 349 20 389 C 20 408 24 426 33 444 C 42 462 55 476 73 487 C 61 496 52 507 46 521 C 40 534 37 548 37 564 C 37 600 49 629 75 651 C 100 673 133 684 174 684 C 214 684 246 673 272 651 C 298 629 311 599 311 563 C 311 532 299 507 275 487 C 292 476 305 462 314 444 C 323 426 328 408 328 389 C 328 349 314 317 288 294 C 261 270 223 259 174 259 Z" horiz-adv-x="348" unicode="⁸" />
<glyph d="M 163 685 C 205 685 239 672 265 648 C 291 624 304 591 304 550 L 304 393 C 304 353 291 321 265 297 C 239 273 205 261 165 261 C 125 261 91 272 64 294 C 36 316 23 349 23 393 L 113 393 C 113 376 118 364 128 356 C 138 348 150 345 164 345 C 179 345 191 349 200 358 C 208 367 213 379 213 393 L 213 435 C 203 431 193 428 182 426 C 170 424 160 423 151 423 C 109 423 76 434 54 457 C 31 480 20 511 20 551 C 20 592 33 625 59 649 C 85 673 120 685 163 685 Z M 163 600 C 148 600 136 595 126 586 C 116 577 111 565 111 550 C 111 536 114 524 122 515 C 130 505 141 501 157 501 C 170 501 180 502 188 506 C 195 509 203 512 213 514 L 213 549 C 213 563 208 575 199 585 C 190 595 178 600 163 600 Z" horiz-adv-x="329" unicode="⁹" />
<glyph d="M 324 672 L 422 672 L 505 479 L 587 672 L 686 672 L 686 337 L 603 337 L 603 522 L 542 376 L 510 376 C 483 376 465 386 456 408 L 406 522 L 406 337 L 324 337 L 324 672 Z M 154 331 C 136 331 119 333 103 337 C 87 341 72 348 60 357 C 48 366 38 377 31 391 C 23 405 20 421 20 440 L 102 440 C 102 427 108 417 118 411 C 128 405 140 402 154 402 C 168 402 179 404 189 409 C 199 414 204 422 204 434 C 204 442 199 449 191 454 C 182 459 171 463 159 467 C 146 471 132 475 117 479 C 102 483 88 488 76 496 C 63 504 52 514 44 527 C 35 539 31 556 31 577 C 31 593 34 607 41 619 C 47 631 56 642 67 650 C 78 658 91 665 106 670 C 121 674 137 677 154 677 C 170 677 185 674 200 670 C 214 666 227 660 239 652 C 251 644 260 633 267 621 C 274 609 278 595 278 579 L 195 579 C 195 587 191 593 183 598 C 175 602 165 605 154 605 C 141 605 131 602 125 597 C 119 591 116 585 116 578 C 116 569 120 562 129 558 C 137 554 148 550 161 546 C 173 542 187 538 203 534 C 218 530 232 524 245 516 C 257 508 268 498 277 486 C 285 473 290 456 290 436 C 290 418 286 402 278 389 C 270 375 260 364 248 356 C 236 348 221 341 205 337 C 189 333 172 331 154 331 Z" horiz-adv-x="716" unicode="℠" />
<glyph d="M 239 672 L 308 672 L 359 548 L 410 672 L 480 672 L 480 448 L 423 448 L 423 570 L 384 473 L 365 473 C 353 473 345 475 339 479 C 333 483 328 489 324 499 L 295 570 L 295 448 L 239 448 L 239 672 Z M 96 595 C 96 604 98 611 103 616 L 30 616 L 30 672 L 221 672 L 221 616 L 177 616 C 169 616 163 613 159 609 C 155 604 154 598 154 592 L 154 448 L 96 448 L 96 595 Z" horiz-adv-x="515" unicode="™" />
<glyph d="M 532 322 L 532 180 L 30 180 L 30 322 L 532 322 Z" horiz-adv-x="562" unicode="−" />
<glyph d="M 144 323 C 122 323 103 319 85 313 C 67 306 48 297 30 287 L 30 426 C 48 437 66 445 86 451 C 105 456 124 459 144 459 C 170 459 194 456 216 451 C 238 445 260 439 282 433 C 303 427 325 421 347 416 C 369 410 392 408 418 408 C 440 408 459 410 477 416 C 494 422 512 431 532 444 L 532 305 C 496 283 458 272 418 272 C 392 272 368 274 346 280 C 323 285 301 291 279 297 C 257 303 235 309 213 315 C 191 320 168 323 144 323 Z M 144 107 C 122 107 103 103 85 97 C 67 90 48 81 30 71 L 30 210 C 48 221 66 229 86 235 C 105 240 124 243 144 243 C 170 243 194 240 216 235 C 238 229 260 223 282 217 C 303 211 325 205 347 200 C 369 194 392 192 418 192 C 440 192 459 194 477 200 C 494 206 512 215 532 228 L 532 89 C 496 67 458 56 418 56 C 392 56 368 58 346 64 C 323 69 301 75 279 81 C 257 87 235 93 213 99 C 191 104 168 107 144 107 Z" horiz-adv-x="562" unicode="≈" />
<glyph d="M 280 0 C 254 0 232 5 212 16 C 192 27 174 45 159 70 L 10 301 L 135 377 L 261 170 C 267 159 275 152 284 150 L 423 672 L 568 672 L 388 0 L 280 0 Z" horiz-adv-x="578" unicode="◊" />
<glyph d="M 238 668 C 266 663 289 651 308 632 C 326 612 336 587 336 555 L 238 555 C 238 565 233 574 224 580 C 215 586 204 589 190 589 C 175 589 164 586 156 580 C 148 574 144 566 144 557 C 144 546 149 538 159 533 C 169 527 182 523 198 519 C 213 515 230 511 248 507 C 266 503 282 496 298 488 C 313 480 326 468 336 454 C 346 439 352 419 352 395 C 352 361 342 334 322 316 C 302 297 274 284 238 277 L 238 220 L 147 220 L 147 277 C 113 282 85 294 63 314 C 41 333 30 361 30 398 L 130 398 C 130 368 150 354 191 354 C 211 354 226 357 237 365 C 247 372 253 381 253 393 C 253 403 247 410 237 415 C 227 420 214 425 199 429 C 183 433 167 437 149 441 C 131 445 114 452 99 461 C 83 469 70 481 60 496 C 50 510 45 530 45 555 C 45 585 54 610 73 630 C 92 650 117 662 147 668 L 147 722 L 238 722 L 238 668 Z" horiz-adv-x="382" unicode="﹩" />
<glyph d="M 206 614 C 233 612 256 602 276 586 C 296 570 307 546 310 514 L 266 514 C 263 536 254 552 240 562 C 225 571 206 576 184 576 C 158 576 139 570 125 559 C 111 548 105 534 105 517 C 105 499 110 486 121 478 C 132 469 146 462 163 457 C 179 451 197 446 216 442 C 235 438 253 432 270 424 C 286 416 300 406 311 393 C 322 379 328 361 328 337 C 328 317 324 301 317 288 C 309 274 300 263 288 255 C 276 246 263 239 249 235 C 235 231 220 228 206 228 L 206 170 L 165 170 L 165 228 C 149 229 133 232 119 236 C 104 240 91 247 80 256 C 68 264 59 275 52 289 C 45 302 41 318 40 338 L 84 338 C 85 314 94 296 112 285 C 129 273 153 268 184 268 C 216 268 241 273 259 285 C 276 297 285 314 285 337 C 285 353 279 366 268 375 C 257 384 243 391 227 397 C 211 402 193 407 174 411 C 154 415 136 420 120 428 C 104 436 90 446 79 460 C 68 474 63 493 63 517 C 63 531 65 544 71 556 C 77 567 84 577 94 585 C 103 593 114 600 126 605 C 138 609 151 612 165 614 L 165 672 L 206 672 L 206 614 Z" horiz-adv-x="373" unicode="＄" />
</font>
</defs>
</svg>
